%TF.GenerationSoftware,KiCad,Pcbnew,8.0.5-8.0.5-0~ubuntu22.04.1*%
%TF.CreationDate,2025-05-20T11:09:25+05:30*%
%TF.ProjectId,esp32_nichrome_wire,65737033-325f-46e6-9963-68726f6d655f,rev?*%
%TF.SameCoordinates,Original*%
%TF.FileFunction,Legend,Top*%
%TF.FilePolarity,Positive*%
%FSLAX46Y46*%
G04 Gerber Fmt 4.6, Leading zero omitted, Abs format (unit mm)*
G04 Created by KiCad (PCBNEW 8.0.5-8.0.5-0~ubuntu22.04.1) date 2025-05-20 11:09:25*
%MOMM*%
%LPD*%
G01*
G04 APERTURE LIST*
%ADD10C,0.100000*%
%ADD11C,0.150000*%
%ADD12C,0.120000*%
G04 APERTURE END LIST*
D10*
X-60407856Y-74107419D02*
X-60598332Y-74107419D01*
X-60598332Y-74107419D02*
X-60693570Y-74155038D01*
X-60693570Y-74155038D02*
X-60741189Y-74202657D01*
X-60741189Y-74202657D02*
X-60836427Y-74345514D01*
X-60836427Y-74345514D02*
X-60884046Y-74535990D01*
X-60884046Y-74535990D02*
X-60884046Y-74916942D01*
X-60884046Y-74916942D02*
X-60836427Y-75012180D01*
X-60836427Y-75012180D02*
X-60788808Y-75059800D01*
X-60788808Y-75059800D02*
X-60693570Y-75107419D01*
X-60693570Y-75107419D02*
X-60503094Y-75107419D01*
X-60503094Y-75107419D02*
X-60407856Y-75059800D01*
X-60407856Y-75059800D02*
X-60360237Y-75012180D01*
X-60360237Y-75012180D02*
X-60312618Y-74916942D01*
X-60312618Y-74916942D02*
X-60312618Y-74678847D01*
X-60312618Y-74678847D02*
X-60360237Y-74583609D01*
X-60360237Y-74583609D02*
X-60407856Y-74535990D01*
X-60407856Y-74535990D02*
X-60503094Y-74488371D01*
X-60503094Y-74488371D02*
X-60693570Y-74488371D01*
X-60693570Y-74488371D02*
X-60788808Y-74535990D01*
X-60788808Y-74535990D02*
X-60836427Y-74583609D01*
X-60836427Y-74583609D02*
X-60884046Y-74678847D01*
X-59407856Y-74107419D02*
X-59884046Y-74107419D01*
X-59884046Y-74107419D02*
X-59931665Y-74583609D01*
X-59931665Y-74583609D02*
X-59884046Y-74535990D01*
X-59884046Y-74535990D02*
X-59788808Y-74488371D01*
X-59788808Y-74488371D02*
X-59550713Y-74488371D01*
X-59550713Y-74488371D02*
X-59455475Y-74535990D01*
X-59455475Y-74535990D02*
X-59407856Y-74583609D01*
X-59407856Y-74583609D02*
X-59360237Y-74678847D01*
X-59360237Y-74678847D02*
X-59360237Y-74916942D01*
X-59360237Y-74916942D02*
X-59407856Y-75012180D01*
X-59407856Y-75012180D02*
X-59455475Y-75059800D01*
X-59455475Y-75059800D02*
X-59550713Y-75107419D01*
X-59550713Y-75107419D02*
X-59788808Y-75107419D01*
X-59788808Y-75107419D02*
X-59884046Y-75059800D01*
X-59884046Y-75059800D02*
X-59931665Y-75012180D01*
X-58931665Y-75012180D02*
X-58884046Y-75059800D01*
X-58884046Y-75059800D02*
X-58931665Y-75107419D01*
X-58931665Y-75107419D02*
X-58979284Y-75059800D01*
X-58979284Y-75059800D02*
X-58931665Y-75012180D01*
X-58931665Y-75012180D02*
X-58931665Y-75107419D01*
X-58264999Y-74107419D02*
X-58169761Y-74107419D01*
X-58169761Y-74107419D02*
X-58074523Y-74155038D01*
X-58074523Y-74155038D02*
X-58026904Y-74202657D01*
X-58026904Y-74202657D02*
X-57979285Y-74297895D01*
X-57979285Y-74297895D02*
X-57931666Y-74488371D01*
X-57931666Y-74488371D02*
X-57931666Y-74726466D01*
X-57931666Y-74726466D02*
X-57979285Y-74916942D01*
X-57979285Y-74916942D02*
X-58026904Y-75012180D01*
X-58026904Y-75012180D02*
X-58074523Y-75059800D01*
X-58074523Y-75059800D02*
X-58169761Y-75107419D01*
X-58169761Y-75107419D02*
X-58264999Y-75107419D01*
X-58264999Y-75107419D02*
X-58360237Y-75059800D01*
X-58360237Y-75059800D02*
X-58407856Y-75012180D01*
X-58407856Y-75012180D02*
X-58455475Y-74916942D01*
X-58455475Y-74916942D02*
X-58503094Y-74726466D01*
X-58503094Y-74726466D02*
X-58503094Y-74488371D01*
X-58503094Y-74488371D02*
X-58455475Y-74297895D01*
X-58455475Y-74297895D02*
X-58407856Y-74202657D01*
X-58407856Y-74202657D02*
X-58360237Y-74155038D01*
X-58360237Y-74155038D02*
X-58264999Y-74107419D01*
X-57312618Y-74107419D02*
X-57217380Y-74107419D01*
X-57217380Y-74107419D02*
X-57122142Y-74155038D01*
X-57122142Y-74155038D02*
X-57074523Y-74202657D01*
X-57074523Y-74202657D02*
X-57026904Y-74297895D01*
X-57026904Y-74297895D02*
X-56979285Y-74488371D01*
X-56979285Y-74488371D02*
X-56979285Y-74726466D01*
X-56979285Y-74726466D02*
X-57026904Y-74916942D01*
X-57026904Y-74916942D02*
X-57074523Y-75012180D01*
X-57074523Y-75012180D02*
X-57122142Y-75059800D01*
X-57122142Y-75059800D02*
X-57217380Y-75107419D01*
X-57217380Y-75107419D02*
X-57312618Y-75107419D01*
X-57312618Y-75107419D02*
X-57407856Y-75059800D01*
X-57407856Y-75059800D02*
X-57455475Y-75012180D01*
X-57455475Y-75012180D02*
X-57503094Y-74916942D01*
X-57503094Y-74916942D02*
X-57550713Y-74726466D01*
X-57550713Y-74726466D02*
X-57550713Y-74488371D01*
X-57550713Y-74488371D02*
X-57503094Y-74297895D01*
X-57503094Y-74297895D02*
X-57455475Y-74202657D01*
X-57455475Y-74202657D02*
X-57407856Y-74155038D01*
X-57407856Y-74155038D02*
X-57312618Y-74107419D01*
X-56360237Y-74107419D02*
X-56264999Y-74107419D01*
X-56264999Y-74107419D02*
X-56169761Y-74155038D01*
X-56169761Y-74155038D02*
X-56122142Y-74202657D01*
X-56122142Y-74202657D02*
X-56074523Y-74297895D01*
X-56074523Y-74297895D02*
X-56026904Y-74488371D01*
X-56026904Y-74488371D02*
X-56026904Y-74726466D01*
X-56026904Y-74726466D02*
X-56074523Y-74916942D01*
X-56074523Y-74916942D02*
X-56122142Y-75012180D01*
X-56122142Y-75012180D02*
X-56169761Y-75059800D01*
X-56169761Y-75059800D02*
X-56264999Y-75107419D01*
X-56264999Y-75107419D02*
X-56360237Y-75107419D01*
X-56360237Y-75107419D02*
X-56455475Y-75059800D01*
X-56455475Y-75059800D02*
X-56503094Y-75012180D01*
X-56503094Y-75012180D02*
X-56550713Y-74916942D01*
X-56550713Y-74916942D02*
X-56598332Y-74726466D01*
X-56598332Y-74726466D02*
X-56598332Y-74488371D01*
X-56598332Y-74488371D02*
X-56550713Y-74297895D01*
X-56550713Y-74297895D02*
X-56503094Y-74202657D01*
X-56503094Y-74202657D02*
X-56455475Y-74155038D01*
X-56455475Y-74155038D02*
X-56360237Y-74107419D01*
X-55407856Y-74107419D02*
X-55312618Y-74107419D01*
X-55312618Y-74107419D02*
X-55217380Y-74155038D01*
X-55217380Y-74155038D02*
X-55169761Y-74202657D01*
X-55169761Y-74202657D02*
X-55122142Y-74297895D01*
X-55122142Y-74297895D02*
X-55074523Y-74488371D01*
X-55074523Y-74488371D02*
X-55074523Y-74726466D01*
X-55074523Y-74726466D02*
X-55122142Y-74916942D01*
X-55122142Y-74916942D02*
X-55169761Y-75012180D01*
X-55169761Y-75012180D02*
X-55217380Y-75059800D01*
X-55217380Y-75059800D02*
X-55312618Y-75107419D01*
X-55312618Y-75107419D02*
X-55407856Y-75107419D01*
X-55407856Y-75107419D02*
X-55503094Y-75059800D01*
X-55503094Y-75059800D02*
X-55550713Y-75012180D01*
X-55550713Y-75012180D02*
X-55598332Y-74916942D01*
X-55598332Y-74916942D02*
X-55645951Y-74726466D01*
X-55645951Y-74726466D02*
X-55645951Y-74488371D01*
X-55645951Y-74488371D02*
X-55598332Y-74297895D01*
X-55598332Y-74297895D02*
X-55550713Y-74202657D01*
X-55550713Y-74202657D02*
X-55503094Y-74155038D01*
X-55503094Y-74155038D02*
X-55407856Y-74107419D01*
X-53884046Y-75107419D02*
X-53884046Y-74440752D01*
X-53884046Y-74535990D02*
X-53836427Y-74488371D01*
X-53836427Y-74488371D02*
X-53741189Y-74440752D01*
X-53741189Y-74440752D02*
X-53598332Y-74440752D01*
X-53598332Y-74440752D02*
X-53503094Y-74488371D01*
X-53503094Y-74488371D02*
X-53455475Y-74583609D01*
X-53455475Y-74583609D02*
X-53455475Y-75107419D01*
X-53455475Y-74583609D02*
X-53407856Y-74488371D01*
X-53407856Y-74488371D02*
X-53312618Y-74440752D01*
X-53312618Y-74440752D02*
X-53169761Y-74440752D01*
X-53169761Y-74440752D02*
X-53074522Y-74488371D01*
X-53074522Y-74488371D02*
X-53026903Y-74583609D01*
X-53026903Y-74583609D02*
X-53026903Y-75107419D01*
X-52550713Y-75107419D02*
X-52550713Y-74440752D01*
X-52550713Y-74535990D02*
X-52503094Y-74488371D01*
X-52503094Y-74488371D02*
X-52407856Y-74440752D01*
X-52407856Y-74440752D02*
X-52264999Y-74440752D01*
X-52264999Y-74440752D02*
X-52169761Y-74488371D01*
X-52169761Y-74488371D02*
X-52122142Y-74583609D01*
X-52122142Y-74583609D02*
X-52122142Y-75107419D01*
X-52122142Y-74583609D02*
X-52074523Y-74488371D01*
X-52074523Y-74488371D02*
X-51979285Y-74440752D01*
X-51979285Y-74440752D02*
X-51836428Y-74440752D01*
X-51836428Y-74440752D02*
X-51741189Y-74488371D01*
X-51741189Y-74488371D02*
X-51693570Y-74583609D01*
X-51693570Y-74583609D02*
X-51693570Y-75107419D01*
X-88765000Y-64365000D02*
X-88765000Y-76336420D01*
X-23765000Y-64365000D02*
X-23765000Y-76336420D01*
X-88765000Y-75750000D02*
X-23765000Y-75750000D01*
X-88765000Y-75750000D02*
X-23765000Y-75750000D01*
X-88765000Y-75750000D02*
X-87638496Y-75163579D01*
X-88765000Y-75750000D02*
X-87638496Y-76336421D01*
X-23765000Y-75750000D02*
X-24891504Y-76336421D01*
X-23765000Y-75750000D02*
X-24891504Y-75163579D01*
X-116434247Y-45507856D02*
X-115767580Y-45507856D01*
X-116815200Y-45745951D02*
X-116100914Y-45984046D01*
X-116100914Y-45984046D02*
X-116100914Y-45364999D01*
X-116767580Y-44507856D02*
X-116767580Y-44984046D01*
X-116767580Y-44984046D02*
X-116291390Y-45031665D01*
X-116291390Y-45031665D02*
X-116339009Y-44984046D01*
X-116339009Y-44984046D02*
X-116386628Y-44888808D01*
X-116386628Y-44888808D02*
X-116386628Y-44650713D01*
X-116386628Y-44650713D02*
X-116339009Y-44555475D01*
X-116339009Y-44555475D02*
X-116291390Y-44507856D01*
X-116291390Y-44507856D02*
X-116196152Y-44460237D01*
X-116196152Y-44460237D02*
X-115958057Y-44460237D01*
X-115958057Y-44460237D02*
X-115862819Y-44507856D01*
X-115862819Y-44507856D02*
X-115815200Y-44555475D01*
X-115815200Y-44555475D02*
X-115767580Y-44650713D01*
X-115767580Y-44650713D02*
X-115767580Y-44888808D01*
X-115767580Y-44888808D02*
X-115815200Y-44984046D01*
X-115815200Y-44984046D02*
X-115862819Y-45031665D01*
X-115862819Y-44031665D02*
X-115815200Y-43984046D01*
X-115815200Y-43984046D02*
X-115767580Y-44031665D01*
X-115767580Y-44031665D02*
X-115815200Y-44079284D01*
X-115815200Y-44079284D02*
X-115862819Y-44031665D01*
X-115862819Y-44031665D02*
X-115767580Y-44031665D01*
X-116767580Y-43364999D02*
X-116767580Y-43269761D01*
X-116767580Y-43269761D02*
X-116719961Y-43174523D01*
X-116719961Y-43174523D02*
X-116672342Y-43126904D01*
X-116672342Y-43126904D02*
X-116577104Y-43079285D01*
X-116577104Y-43079285D02*
X-116386628Y-43031666D01*
X-116386628Y-43031666D02*
X-116148533Y-43031666D01*
X-116148533Y-43031666D02*
X-115958057Y-43079285D01*
X-115958057Y-43079285D02*
X-115862819Y-43126904D01*
X-115862819Y-43126904D02*
X-115815200Y-43174523D01*
X-115815200Y-43174523D02*
X-115767580Y-43269761D01*
X-115767580Y-43269761D02*
X-115767580Y-43364999D01*
X-115767580Y-43364999D02*
X-115815200Y-43460237D01*
X-115815200Y-43460237D02*
X-115862819Y-43507856D01*
X-115862819Y-43507856D02*
X-115958057Y-43555475D01*
X-115958057Y-43555475D02*
X-116148533Y-43603094D01*
X-116148533Y-43603094D02*
X-116386628Y-43603094D01*
X-116386628Y-43603094D02*
X-116577104Y-43555475D01*
X-116577104Y-43555475D02*
X-116672342Y-43507856D01*
X-116672342Y-43507856D02*
X-116719961Y-43460237D01*
X-116719961Y-43460237D02*
X-116767580Y-43364999D01*
X-116767580Y-42412618D02*
X-116767580Y-42317380D01*
X-116767580Y-42317380D02*
X-116719961Y-42222142D01*
X-116719961Y-42222142D02*
X-116672342Y-42174523D01*
X-116672342Y-42174523D02*
X-116577104Y-42126904D01*
X-116577104Y-42126904D02*
X-116386628Y-42079285D01*
X-116386628Y-42079285D02*
X-116148533Y-42079285D01*
X-116148533Y-42079285D02*
X-115958057Y-42126904D01*
X-115958057Y-42126904D02*
X-115862819Y-42174523D01*
X-115862819Y-42174523D02*
X-115815200Y-42222142D01*
X-115815200Y-42222142D02*
X-115767580Y-42317380D01*
X-115767580Y-42317380D02*
X-115767580Y-42412618D01*
X-115767580Y-42412618D02*
X-115815200Y-42507856D01*
X-115815200Y-42507856D02*
X-115862819Y-42555475D01*
X-115862819Y-42555475D02*
X-115958057Y-42603094D01*
X-115958057Y-42603094D02*
X-116148533Y-42650713D01*
X-116148533Y-42650713D02*
X-116386628Y-42650713D01*
X-116386628Y-42650713D02*
X-116577104Y-42603094D01*
X-116577104Y-42603094D02*
X-116672342Y-42555475D01*
X-116672342Y-42555475D02*
X-116719961Y-42507856D01*
X-116719961Y-42507856D02*
X-116767580Y-42412618D01*
X-116767580Y-41460237D02*
X-116767580Y-41364999D01*
X-116767580Y-41364999D02*
X-116719961Y-41269761D01*
X-116719961Y-41269761D02*
X-116672342Y-41222142D01*
X-116672342Y-41222142D02*
X-116577104Y-41174523D01*
X-116577104Y-41174523D02*
X-116386628Y-41126904D01*
X-116386628Y-41126904D02*
X-116148533Y-41126904D01*
X-116148533Y-41126904D02*
X-115958057Y-41174523D01*
X-115958057Y-41174523D02*
X-115862819Y-41222142D01*
X-115862819Y-41222142D02*
X-115815200Y-41269761D01*
X-115815200Y-41269761D02*
X-115767580Y-41364999D01*
X-115767580Y-41364999D02*
X-115767580Y-41460237D01*
X-115767580Y-41460237D02*
X-115815200Y-41555475D01*
X-115815200Y-41555475D02*
X-115862819Y-41603094D01*
X-115862819Y-41603094D02*
X-115958057Y-41650713D01*
X-115958057Y-41650713D02*
X-116148533Y-41698332D01*
X-116148533Y-41698332D02*
X-116386628Y-41698332D01*
X-116386628Y-41698332D02*
X-116577104Y-41650713D01*
X-116577104Y-41650713D02*
X-116672342Y-41603094D01*
X-116672342Y-41603094D02*
X-116719961Y-41555475D01*
X-116719961Y-41555475D02*
X-116767580Y-41460237D01*
X-116767580Y-40507856D02*
X-116767580Y-40412618D01*
X-116767580Y-40412618D02*
X-116719961Y-40317380D01*
X-116719961Y-40317380D02*
X-116672342Y-40269761D01*
X-116672342Y-40269761D02*
X-116577104Y-40222142D01*
X-116577104Y-40222142D02*
X-116386628Y-40174523D01*
X-116386628Y-40174523D02*
X-116148533Y-40174523D01*
X-116148533Y-40174523D02*
X-115958057Y-40222142D01*
X-115958057Y-40222142D02*
X-115862819Y-40269761D01*
X-115862819Y-40269761D02*
X-115815200Y-40317380D01*
X-115815200Y-40317380D02*
X-115767580Y-40412618D01*
X-115767580Y-40412618D02*
X-115767580Y-40507856D01*
X-115767580Y-40507856D02*
X-115815200Y-40603094D01*
X-115815200Y-40603094D02*
X-115862819Y-40650713D01*
X-115862819Y-40650713D02*
X-115958057Y-40698332D01*
X-115958057Y-40698332D02*
X-116148533Y-40745951D01*
X-116148533Y-40745951D02*
X-116386628Y-40745951D01*
X-116386628Y-40745951D02*
X-116577104Y-40698332D01*
X-116577104Y-40698332D02*
X-116672342Y-40650713D01*
X-116672342Y-40650713D02*
X-116719961Y-40603094D01*
X-116719961Y-40603094D02*
X-116767580Y-40507856D01*
X-115767580Y-38984046D02*
X-116434247Y-38984046D01*
X-116339009Y-38984046D02*
X-116386628Y-38936427D01*
X-116386628Y-38936427D02*
X-116434247Y-38841189D01*
X-116434247Y-38841189D02*
X-116434247Y-38698332D01*
X-116434247Y-38698332D02*
X-116386628Y-38603094D01*
X-116386628Y-38603094D02*
X-116291390Y-38555475D01*
X-116291390Y-38555475D02*
X-115767580Y-38555475D01*
X-116291390Y-38555475D02*
X-116386628Y-38507856D01*
X-116386628Y-38507856D02*
X-116434247Y-38412618D01*
X-116434247Y-38412618D02*
X-116434247Y-38269761D01*
X-116434247Y-38269761D02*
X-116386628Y-38174522D01*
X-116386628Y-38174522D02*
X-116291390Y-38126903D01*
X-116291390Y-38126903D02*
X-115767580Y-38126903D01*
X-115767580Y-37650713D02*
X-116434247Y-37650713D01*
X-116339009Y-37650713D02*
X-116386628Y-37603094D01*
X-116386628Y-37603094D02*
X-116434247Y-37507856D01*
X-116434247Y-37507856D02*
X-116434247Y-37364999D01*
X-116434247Y-37364999D02*
X-116386628Y-37269761D01*
X-116386628Y-37269761D02*
X-116291390Y-37222142D01*
X-116291390Y-37222142D02*
X-115767580Y-37222142D01*
X-116291390Y-37222142D02*
X-116386628Y-37174523D01*
X-116386628Y-37174523D02*
X-116434247Y-37079285D01*
X-116434247Y-37079285D02*
X-116434247Y-36936428D01*
X-116434247Y-36936428D02*
X-116386628Y-36841189D01*
X-116386628Y-36841189D02*
X-116291390Y-36793570D01*
X-116291390Y-36793570D02*
X-115767580Y-36793570D01*
X-89265000Y-18865000D02*
X-115711420Y-18865000D01*
X-89265000Y-63865000D02*
X-115711420Y-63865000D01*
X-115125000Y-18865000D02*
X-115125000Y-63865000D01*
X-115125000Y-18865000D02*
X-115125000Y-63865000D01*
X-115125000Y-18865000D02*
X-114538579Y-19991504D01*
X-115125000Y-18865000D02*
X-115711421Y-19991504D01*
X-115125000Y-63865000D02*
X-115711421Y-62738496D01*
X-115125000Y-63865000D02*
X-114538579Y-62738496D01*
D11*
X-68368333Y-54699819D02*
X-68368333Y-55414104D01*
X-68368333Y-55414104D02*
X-68415952Y-55556961D01*
X-68415952Y-55556961D02*
X-68511190Y-55652200D01*
X-68511190Y-55652200D02*
X-68654047Y-55699819D01*
X-68654047Y-55699819D02*
X-68749285Y-55699819D01*
X-67987380Y-54699819D02*
X-67368333Y-54699819D01*
X-67368333Y-54699819D02*
X-67701666Y-55080771D01*
X-67701666Y-55080771D02*
X-67558809Y-55080771D01*
X-67558809Y-55080771D02*
X-67463571Y-55128390D01*
X-67463571Y-55128390D02*
X-67415952Y-55176009D01*
X-67415952Y-55176009D02*
X-67368333Y-55271247D01*
X-67368333Y-55271247D02*
X-67368333Y-55509342D01*
X-67368333Y-55509342D02*
X-67415952Y-55604580D01*
X-67415952Y-55604580D02*
X-67463571Y-55652200D01*
X-67463571Y-55652200D02*
X-67558809Y-55699819D01*
X-67558809Y-55699819D02*
X-67844523Y-55699819D01*
X-67844523Y-55699819D02*
X-67939761Y-55652200D01*
X-67939761Y-55652200D02*
X-67987380Y-55604580D01*
X-48960238Y-55340057D02*
X-49055476Y-55292438D01*
X-49055476Y-55292438D02*
X-49150714Y-55197200D01*
X-49150714Y-55197200D02*
X-49293571Y-55054342D01*
X-49293571Y-55054342D02*
X-49388809Y-55006723D01*
X-49388809Y-55006723D02*
X-49484047Y-55006723D01*
X-49436428Y-55244819D02*
X-49531666Y-55197200D01*
X-49531666Y-55197200D02*
X-49626904Y-55101961D01*
X-49626904Y-55101961D02*
X-49674523Y-54911485D01*
X-49674523Y-54911485D02*
X-49674523Y-54578152D01*
X-49674523Y-54578152D02*
X-49626904Y-54387676D01*
X-49626904Y-54387676D02*
X-49531666Y-54292438D01*
X-49531666Y-54292438D02*
X-49436428Y-54244819D01*
X-49436428Y-54244819D02*
X-49245952Y-54244819D01*
X-49245952Y-54244819D02*
X-49150714Y-54292438D01*
X-49150714Y-54292438D02*
X-49055476Y-54387676D01*
X-49055476Y-54387676D02*
X-49007857Y-54578152D01*
X-49007857Y-54578152D02*
X-49007857Y-54911485D01*
X-49007857Y-54911485D02*
X-49055476Y-55101961D01*
X-49055476Y-55101961D02*
X-49150714Y-55197200D01*
X-49150714Y-55197200D02*
X-49245952Y-55244819D01*
X-49245952Y-55244819D02*
X-49436428Y-55244819D01*
X-48150714Y-54578152D02*
X-48150714Y-55244819D01*
X-48388809Y-54197200D02*
X-48626904Y-54911485D01*
X-48626904Y-54911485D02*
X-48007857Y-54911485D01*
X-34794166Y-36274580D02*
X-34841785Y-36322200D01*
X-34841785Y-36322200D02*
X-34984642Y-36369819D01*
X-34984642Y-36369819D02*
X-35079880Y-36369819D01*
X-35079880Y-36369819D02*
X-35222737Y-36322200D01*
X-35222737Y-36322200D02*
X-35317975Y-36226961D01*
X-35317975Y-36226961D02*
X-35365594Y-36131723D01*
X-35365594Y-36131723D02*
X-35413213Y-35941247D01*
X-35413213Y-35941247D02*
X-35413213Y-35798390D01*
X-35413213Y-35798390D02*
X-35365594Y-35607914D01*
X-35365594Y-35607914D02*
X-35317975Y-35512676D01*
X-35317975Y-35512676D02*
X-35222737Y-35417438D01*
X-35222737Y-35417438D02*
X-35079880Y-35369819D01*
X-35079880Y-35369819D02*
X-34984642Y-35369819D01*
X-34984642Y-35369819D02*
X-34841785Y-35417438D01*
X-34841785Y-35417438D02*
X-34794166Y-35465057D01*
X-34413213Y-35465057D02*
X-34365594Y-35417438D01*
X-34365594Y-35417438D02*
X-34270356Y-35369819D01*
X-34270356Y-35369819D02*
X-34032261Y-35369819D01*
X-34032261Y-35369819D02*
X-33937023Y-35417438D01*
X-33937023Y-35417438D02*
X-33889404Y-35465057D01*
X-33889404Y-35465057D02*
X-33841785Y-35560295D01*
X-33841785Y-35560295D02*
X-33841785Y-35655533D01*
X-33841785Y-35655533D02*
X-33889404Y-35798390D01*
X-33889404Y-35798390D02*
X-34460832Y-36369819D01*
X-34460832Y-36369819D02*
X-33841785Y-36369819D01*
X-60868333Y-54599819D02*
X-60868333Y-55314104D01*
X-60868333Y-55314104D02*
X-60915952Y-55456961D01*
X-60915952Y-55456961D02*
X-61011190Y-55552200D01*
X-61011190Y-55552200D02*
X-61154047Y-55599819D01*
X-61154047Y-55599819D02*
X-61249285Y-55599819D01*
X-60344523Y-55599819D02*
X-60154047Y-55599819D01*
X-60154047Y-55599819D02*
X-60058809Y-55552200D01*
X-60058809Y-55552200D02*
X-60011190Y-55504580D01*
X-60011190Y-55504580D02*
X-59915952Y-55361723D01*
X-59915952Y-55361723D02*
X-59868333Y-55171247D01*
X-59868333Y-55171247D02*
X-59868333Y-54790295D01*
X-59868333Y-54790295D02*
X-59915952Y-54695057D01*
X-59915952Y-54695057D02*
X-59963571Y-54647438D01*
X-59963571Y-54647438D02*
X-60058809Y-54599819D01*
X-60058809Y-54599819D02*
X-60249285Y-54599819D01*
X-60249285Y-54599819D02*
X-60344523Y-54647438D01*
X-60344523Y-54647438D02*
X-60392142Y-54695057D01*
X-60392142Y-54695057D02*
X-60439761Y-54790295D01*
X-60439761Y-54790295D02*
X-60439761Y-55028390D01*
X-60439761Y-55028390D02*
X-60392142Y-55123628D01*
X-60392142Y-55123628D02*
X-60344523Y-55171247D01*
X-60344523Y-55171247D02*
X-60249285Y-55218866D01*
X-60249285Y-55218866D02*
X-60058809Y-55218866D01*
X-60058809Y-55218866D02*
X-59963571Y-55171247D01*
X-59963571Y-55171247D02*
X-59915952Y-55123628D01*
X-59915952Y-55123628D02*
X-59868333Y-55028390D01*
X-36631666Y-44799819D02*
X-36964999Y-44323628D01*
X-37203094Y-44799819D02*
X-37203094Y-43799819D01*
X-37203094Y-43799819D02*
X-36822142Y-43799819D01*
X-36822142Y-43799819D02*
X-36726904Y-43847438D01*
X-36726904Y-43847438D02*
X-36679285Y-43895057D01*
X-36679285Y-43895057D02*
X-36631666Y-43990295D01*
X-36631666Y-43990295D02*
X-36631666Y-44133152D01*
X-36631666Y-44133152D02*
X-36679285Y-44228390D01*
X-36679285Y-44228390D02*
X-36726904Y-44276009D01*
X-36726904Y-44276009D02*
X-36822142Y-44323628D01*
X-36822142Y-44323628D02*
X-37203094Y-44323628D01*
X-36298332Y-43799819D02*
X-35631666Y-43799819D01*
X-35631666Y-43799819D02*
X-36060237Y-44799819D01*
X-31810180Y-53168333D02*
X-31095895Y-53168333D01*
X-31095895Y-53168333D02*
X-30953038Y-53215952D01*
X-30953038Y-53215952D02*
X-30857800Y-53311190D01*
X-30857800Y-53311190D02*
X-30810180Y-53454047D01*
X-30810180Y-53454047D02*
X-30810180Y-53549285D01*
X-31810180Y-52215952D02*
X-31810180Y-52692142D01*
X-31810180Y-52692142D02*
X-31333990Y-52739761D01*
X-31333990Y-52739761D02*
X-31381609Y-52692142D01*
X-31381609Y-52692142D02*
X-31429228Y-52596904D01*
X-31429228Y-52596904D02*
X-31429228Y-52358809D01*
X-31429228Y-52358809D02*
X-31381609Y-52263571D01*
X-31381609Y-52263571D02*
X-31333990Y-52215952D01*
X-31333990Y-52215952D02*
X-31238752Y-52168333D01*
X-31238752Y-52168333D02*
X-31000657Y-52168333D01*
X-31000657Y-52168333D02*
X-30905419Y-52215952D01*
X-30905419Y-52215952D02*
X-30857800Y-52263571D01*
X-30857800Y-52263571D02*
X-30810180Y-52358809D01*
X-30810180Y-52358809D02*
X-30810180Y-52596904D01*
X-30810180Y-52596904D02*
X-30857800Y-52692142D01*
X-30857800Y-52692142D02*
X-30905419Y-52739761D01*
X-31469166Y-45739819D02*
X-31802499Y-45263628D01*
X-32040594Y-45739819D02*
X-32040594Y-44739819D01*
X-32040594Y-44739819D02*
X-31659642Y-44739819D01*
X-31659642Y-44739819D02*
X-31564404Y-44787438D01*
X-31564404Y-44787438D02*
X-31516785Y-44835057D01*
X-31516785Y-44835057D02*
X-31469166Y-44930295D01*
X-31469166Y-44930295D02*
X-31469166Y-45073152D01*
X-31469166Y-45073152D02*
X-31516785Y-45168390D01*
X-31516785Y-45168390D02*
X-31564404Y-45216009D01*
X-31564404Y-45216009D02*
X-31659642Y-45263628D01*
X-31659642Y-45263628D02*
X-32040594Y-45263628D01*
X-30612023Y-45073152D02*
X-30612023Y-45739819D01*
X-30850118Y-44692200D02*
X-31088213Y-45406485D01*
X-31088213Y-45406485D02*
X-30469166Y-45406485D01*
X-76226904Y-47219819D02*
X-76226904Y-48029342D01*
X-76226904Y-48029342D02*
X-76179285Y-48124580D01*
X-76179285Y-48124580D02*
X-76131666Y-48172200D01*
X-76131666Y-48172200D02*
X-76036428Y-48219819D01*
X-76036428Y-48219819D02*
X-75845952Y-48219819D01*
X-75845952Y-48219819D02*
X-75750714Y-48172200D01*
X-75750714Y-48172200D02*
X-75703095Y-48124580D01*
X-75703095Y-48124580D02*
X-75655476Y-48029342D01*
X-75655476Y-48029342D02*
X-75655476Y-47219819D01*
X-75226904Y-47315057D02*
X-75179285Y-47267438D01*
X-75179285Y-47267438D02*
X-75084047Y-47219819D01*
X-75084047Y-47219819D02*
X-74845952Y-47219819D01*
X-74845952Y-47219819D02*
X-74750714Y-47267438D01*
X-74750714Y-47267438D02*
X-74703095Y-47315057D01*
X-74703095Y-47315057D02*
X-74655476Y-47410295D01*
X-74655476Y-47410295D02*
X-74655476Y-47505533D01*
X-74655476Y-47505533D02*
X-74703095Y-47648390D01*
X-74703095Y-47648390D02*
X-75274523Y-48219819D01*
X-75274523Y-48219819D02*
X-74655476Y-48219819D01*
X-60600238Y-55285057D02*
X-60695476Y-55237438D01*
X-60695476Y-55237438D02*
X-60790714Y-55142200D01*
X-60790714Y-55142200D02*
X-60933571Y-54999342D01*
X-60933571Y-54999342D02*
X-61028809Y-54951723D01*
X-61028809Y-54951723D02*
X-61124047Y-54951723D01*
X-61076428Y-55189819D02*
X-61171666Y-55142200D01*
X-61171666Y-55142200D02*
X-61266904Y-55046961D01*
X-61266904Y-55046961D02*
X-61314523Y-54856485D01*
X-61314523Y-54856485D02*
X-61314523Y-54523152D01*
X-61314523Y-54523152D02*
X-61266904Y-54332676D01*
X-61266904Y-54332676D02*
X-61171666Y-54237438D01*
X-61171666Y-54237438D02*
X-61076428Y-54189819D01*
X-61076428Y-54189819D02*
X-60885952Y-54189819D01*
X-60885952Y-54189819D02*
X-60790714Y-54237438D01*
X-60790714Y-54237438D02*
X-60695476Y-54332676D01*
X-60695476Y-54332676D02*
X-60647857Y-54523152D01*
X-60647857Y-54523152D02*
X-60647857Y-54856485D01*
X-60647857Y-54856485D02*
X-60695476Y-55046961D01*
X-60695476Y-55046961D02*
X-60790714Y-55142200D01*
X-60790714Y-55142200D02*
X-60885952Y-55189819D01*
X-60885952Y-55189819D02*
X-61076428Y-55189819D01*
X-59790714Y-54189819D02*
X-59981190Y-54189819D01*
X-59981190Y-54189819D02*
X-60076428Y-54237438D01*
X-60076428Y-54237438D02*
X-60124047Y-54285057D01*
X-60124047Y-54285057D02*
X-60219285Y-54427914D01*
X-60219285Y-54427914D02*
X-60266904Y-54618390D01*
X-60266904Y-54618390D02*
X-60266904Y-54999342D01*
X-60266904Y-54999342D02*
X-60219285Y-55094580D01*
X-60219285Y-55094580D02*
X-60171666Y-55142200D01*
X-60171666Y-55142200D02*
X-60076428Y-55189819D01*
X-60076428Y-55189819D02*
X-59885952Y-55189819D01*
X-59885952Y-55189819D02*
X-59790714Y-55142200D01*
X-59790714Y-55142200D02*
X-59743095Y-55094580D01*
X-59743095Y-55094580D02*
X-59695476Y-54999342D01*
X-59695476Y-54999342D02*
X-59695476Y-54761247D01*
X-59695476Y-54761247D02*
X-59743095Y-54666009D01*
X-59743095Y-54666009D02*
X-59790714Y-54618390D01*
X-59790714Y-54618390D02*
X-59885952Y-54570771D01*
X-59885952Y-54570771D02*
X-60076428Y-54570771D01*
X-60076428Y-54570771D02*
X-60171666Y-54618390D01*
X-60171666Y-54618390D02*
X-60219285Y-54666009D01*
X-60219285Y-54666009D02*
X-60266904Y-54761247D01*
X-31742857Y-28084819D02*
X-32076190Y-27608628D01*
X-32314285Y-28084819D02*
X-32314285Y-27084819D01*
X-32314285Y-27084819D02*
X-31933333Y-27084819D01*
X-31933333Y-27084819D02*
X-31838095Y-27132438D01*
X-31838095Y-27132438D02*
X-31790476Y-27180057D01*
X-31790476Y-27180057D02*
X-31742857Y-27275295D01*
X-31742857Y-27275295D02*
X-31742857Y-27418152D01*
X-31742857Y-27418152D02*
X-31790476Y-27513390D01*
X-31790476Y-27513390D02*
X-31838095Y-27561009D01*
X-31838095Y-27561009D02*
X-31933333Y-27608628D01*
X-31933333Y-27608628D02*
X-32314285Y-27608628D01*
X-30790476Y-28084819D02*
X-31361904Y-28084819D01*
X-31076190Y-28084819D02*
X-31076190Y-27084819D01*
X-31076190Y-27084819D02*
X-31171428Y-27227676D01*
X-31171428Y-27227676D02*
X-31266666Y-27322914D01*
X-31266666Y-27322914D02*
X-31361904Y-27370533D01*
X-29885714Y-27084819D02*
X-30361904Y-27084819D01*
X-30361904Y-27084819D02*
X-30409523Y-27561009D01*
X-30409523Y-27561009D02*
X-30361904Y-27513390D01*
X-30361904Y-27513390D02*
X-30266666Y-27465771D01*
X-30266666Y-27465771D02*
X-30028571Y-27465771D01*
X-30028571Y-27465771D02*
X-29933333Y-27513390D01*
X-29933333Y-27513390D02*
X-29885714Y-27561009D01*
X-29885714Y-27561009D02*
X-29838095Y-27656247D01*
X-29838095Y-27656247D02*
X-29838095Y-27894342D01*
X-29838095Y-27894342D02*
X-29885714Y-27989580D01*
X-29885714Y-27989580D02*
X-29933333Y-28037200D01*
X-29933333Y-28037200D02*
X-30028571Y-28084819D01*
X-30028571Y-28084819D02*
X-30266666Y-28084819D01*
X-30266666Y-28084819D02*
X-30361904Y-28037200D01*
X-30361904Y-28037200D02*
X-30409523Y-27989580D01*
X-44868333Y-54599819D02*
X-44868333Y-55314104D01*
X-44868333Y-55314104D02*
X-44915952Y-55456961D01*
X-44915952Y-55456961D02*
X-45011190Y-55552200D01*
X-45011190Y-55552200D02*
X-45154047Y-55599819D01*
X-45154047Y-55599819D02*
X-45249285Y-55599819D01*
X-44487380Y-54599819D02*
X-43820714Y-54599819D01*
X-43820714Y-54599819D02*
X-44249285Y-55599819D01*
X-84455419Y-51531666D02*
X-84407800Y-51579285D01*
X-84407800Y-51579285D02*
X-84360180Y-51722142D01*
X-84360180Y-51722142D02*
X-84360180Y-51817380D01*
X-84360180Y-51817380D02*
X-84407800Y-51960237D01*
X-84407800Y-51960237D02*
X-84503038Y-52055475D01*
X-84503038Y-52055475D02*
X-84598276Y-52103094D01*
X-84598276Y-52103094D02*
X-84788752Y-52150713D01*
X-84788752Y-52150713D02*
X-84931609Y-52150713D01*
X-84931609Y-52150713D02*
X-85122085Y-52103094D01*
X-85122085Y-52103094D02*
X-85217323Y-52055475D01*
X-85217323Y-52055475D02*
X-85312561Y-51960237D01*
X-85312561Y-51960237D02*
X-85360180Y-51817380D01*
X-85360180Y-51817380D02*
X-85360180Y-51722142D01*
X-85360180Y-51722142D02*
X-85312561Y-51579285D01*
X-85312561Y-51579285D02*
X-85264942Y-51531666D01*
X-85026847Y-50674523D02*
X-84360180Y-50674523D01*
X-85407800Y-50912618D02*
X-84693514Y-51150713D01*
X-84693514Y-51150713D02*
X-84693514Y-50531666D01*
X-47831666Y-44799819D02*
X-48164999Y-44323628D01*
X-48403094Y-44799819D02*
X-48403094Y-43799819D01*
X-48403094Y-43799819D02*
X-48022142Y-43799819D01*
X-48022142Y-43799819D02*
X-47926904Y-43847438D01*
X-47926904Y-43847438D02*
X-47879285Y-43895057D01*
X-47879285Y-43895057D02*
X-47831666Y-43990295D01*
X-47831666Y-43990295D02*
X-47831666Y-44133152D01*
X-47831666Y-44133152D02*
X-47879285Y-44228390D01*
X-47879285Y-44228390D02*
X-47926904Y-44276009D01*
X-47926904Y-44276009D02*
X-48022142Y-44323628D01*
X-48022142Y-44323628D02*
X-48403094Y-44323628D01*
X-47355475Y-44799819D02*
X-47164999Y-44799819D01*
X-47164999Y-44799819D02*
X-47069761Y-44752200D01*
X-47069761Y-44752200D02*
X-47022142Y-44704580D01*
X-47022142Y-44704580D02*
X-46926904Y-44561723D01*
X-46926904Y-44561723D02*
X-46879285Y-44371247D01*
X-46879285Y-44371247D02*
X-46879285Y-43990295D01*
X-46879285Y-43990295D02*
X-46926904Y-43895057D01*
X-46926904Y-43895057D02*
X-46974523Y-43847438D01*
X-46974523Y-43847438D02*
X-47069761Y-43799819D01*
X-47069761Y-43799819D02*
X-47260237Y-43799819D01*
X-47260237Y-43799819D02*
X-47355475Y-43847438D01*
X-47355475Y-43847438D02*
X-47403094Y-43895057D01*
X-47403094Y-43895057D02*
X-47450713Y-43990295D01*
X-47450713Y-43990295D02*
X-47450713Y-44228390D01*
X-47450713Y-44228390D02*
X-47403094Y-44323628D01*
X-47403094Y-44323628D02*
X-47355475Y-44371247D01*
X-47355475Y-44371247D02*
X-47260237Y-44418866D01*
X-47260237Y-44418866D02*
X-47069761Y-44418866D01*
X-47069761Y-44418866D02*
X-46974523Y-44371247D01*
X-46974523Y-44371247D02*
X-46926904Y-44323628D01*
X-46926904Y-44323628D02*
X-46879285Y-44228390D01*
X-22224942Y-43660238D02*
X-22272561Y-43755476D01*
X-22272561Y-43755476D02*
X-22367800Y-43850714D01*
X-22367800Y-43850714D02*
X-22510657Y-43993571D01*
X-22510657Y-43993571D02*
X-22558276Y-44088809D01*
X-22558276Y-44088809D02*
X-22558276Y-44184047D01*
X-22320180Y-44136428D02*
X-22367800Y-44231666D01*
X-22367800Y-44231666D02*
X-22463038Y-44326904D01*
X-22463038Y-44326904D02*
X-22653514Y-44374523D01*
X-22653514Y-44374523D02*
X-22986847Y-44374523D01*
X-22986847Y-44374523D02*
X-23177323Y-44326904D01*
X-23177323Y-44326904D02*
X-23272561Y-44231666D01*
X-23272561Y-44231666D02*
X-23320180Y-44136428D01*
X-23320180Y-44136428D02*
X-23320180Y-43945952D01*
X-23320180Y-43945952D02*
X-23272561Y-43850714D01*
X-23272561Y-43850714D02*
X-23177323Y-43755476D01*
X-23177323Y-43755476D02*
X-22986847Y-43707857D01*
X-22986847Y-43707857D02*
X-22653514Y-43707857D01*
X-22653514Y-43707857D02*
X-22463038Y-43755476D01*
X-22463038Y-43755476D02*
X-22367800Y-43850714D01*
X-22367800Y-43850714D02*
X-22320180Y-43945952D01*
X-22320180Y-43945952D02*
X-22320180Y-44136428D01*
X-23224942Y-43326904D02*
X-23272561Y-43279285D01*
X-23272561Y-43279285D02*
X-23320180Y-43184047D01*
X-23320180Y-43184047D02*
X-23320180Y-42945952D01*
X-23320180Y-42945952D02*
X-23272561Y-42850714D01*
X-23272561Y-42850714D02*
X-23224942Y-42803095D01*
X-23224942Y-42803095D02*
X-23129704Y-42755476D01*
X-23129704Y-42755476D02*
X-23034466Y-42755476D01*
X-23034466Y-42755476D02*
X-22891609Y-42803095D01*
X-22891609Y-42803095D02*
X-22320180Y-43374523D01*
X-22320180Y-43374523D02*
X-22320180Y-42755476D01*
X-47869166Y-45739819D02*
X-48202499Y-45263628D01*
X-48440594Y-45739819D02*
X-48440594Y-44739819D01*
X-48440594Y-44739819D02*
X-48059642Y-44739819D01*
X-48059642Y-44739819D02*
X-47964404Y-44787438D01*
X-47964404Y-44787438D02*
X-47916785Y-44835057D01*
X-47916785Y-44835057D02*
X-47869166Y-44930295D01*
X-47869166Y-44930295D02*
X-47869166Y-45073152D01*
X-47869166Y-45073152D02*
X-47916785Y-45168390D01*
X-47916785Y-45168390D02*
X-47964404Y-45216009D01*
X-47964404Y-45216009D02*
X-48059642Y-45263628D01*
X-48059642Y-45263628D02*
X-48440594Y-45263628D01*
X-47297737Y-45168390D02*
X-47392975Y-45120771D01*
X-47392975Y-45120771D02*
X-47440594Y-45073152D01*
X-47440594Y-45073152D02*
X-47488213Y-44977914D01*
X-47488213Y-44977914D02*
X-47488213Y-44930295D01*
X-47488213Y-44930295D02*
X-47440594Y-44835057D01*
X-47440594Y-44835057D02*
X-47392975Y-44787438D01*
X-47392975Y-44787438D02*
X-47297737Y-44739819D01*
X-47297737Y-44739819D02*
X-47107261Y-44739819D01*
X-47107261Y-44739819D02*
X-47012023Y-44787438D01*
X-47012023Y-44787438D02*
X-46964404Y-44835057D01*
X-46964404Y-44835057D02*
X-46916785Y-44930295D01*
X-46916785Y-44930295D02*
X-46916785Y-44977914D01*
X-46916785Y-44977914D02*
X-46964404Y-45073152D01*
X-46964404Y-45073152D02*
X-47012023Y-45120771D01*
X-47012023Y-45120771D02*
X-47107261Y-45168390D01*
X-47107261Y-45168390D02*
X-47297737Y-45168390D01*
X-47297737Y-45168390D02*
X-47392975Y-45216009D01*
X-47392975Y-45216009D02*
X-47440594Y-45263628D01*
X-47440594Y-45263628D02*
X-47488213Y-45358866D01*
X-47488213Y-45358866D02*
X-47488213Y-45549342D01*
X-47488213Y-45549342D02*
X-47440594Y-45644580D01*
X-47440594Y-45644580D02*
X-47392975Y-45692200D01*
X-47392975Y-45692200D02*
X-47297737Y-45739819D01*
X-47297737Y-45739819D02*
X-47107261Y-45739819D01*
X-47107261Y-45739819D02*
X-47012023Y-45692200D01*
X-47012023Y-45692200D02*
X-46964404Y-45644580D01*
X-46964404Y-45644580D02*
X-46916785Y-45549342D01*
X-46916785Y-45549342D02*
X-46916785Y-45358866D01*
X-46916785Y-45358866D02*
X-46964404Y-45263628D01*
X-46964404Y-45263628D02*
X-47012023Y-45216009D01*
X-47012023Y-45216009D02*
X-47107261Y-45168390D01*
X-31394166Y-39599819D02*
X-31727499Y-39123628D01*
X-31965594Y-39599819D02*
X-31965594Y-38599819D01*
X-31965594Y-38599819D02*
X-31584642Y-38599819D01*
X-31584642Y-38599819D02*
X-31489404Y-38647438D01*
X-31489404Y-38647438D02*
X-31441785Y-38695057D01*
X-31441785Y-38695057D02*
X-31394166Y-38790295D01*
X-31394166Y-38790295D02*
X-31394166Y-38933152D01*
X-31394166Y-38933152D02*
X-31441785Y-39028390D01*
X-31441785Y-39028390D02*
X-31489404Y-39076009D01*
X-31489404Y-39076009D02*
X-31584642Y-39123628D01*
X-31584642Y-39123628D02*
X-31965594Y-39123628D01*
X-30489404Y-38599819D02*
X-30965594Y-38599819D01*
X-30965594Y-38599819D02*
X-31013213Y-39076009D01*
X-31013213Y-39076009D02*
X-30965594Y-39028390D01*
X-30965594Y-39028390D02*
X-30870356Y-38980771D01*
X-30870356Y-38980771D02*
X-30632261Y-38980771D01*
X-30632261Y-38980771D02*
X-30537023Y-39028390D01*
X-30537023Y-39028390D02*
X-30489404Y-39076009D01*
X-30489404Y-39076009D02*
X-30441785Y-39171247D01*
X-30441785Y-39171247D02*
X-30441785Y-39409342D01*
X-30441785Y-39409342D02*
X-30489404Y-39504580D01*
X-30489404Y-39504580D02*
X-30537023Y-39552200D01*
X-30537023Y-39552200D02*
X-30632261Y-39599819D01*
X-30632261Y-39599819D02*
X-30870356Y-39599819D01*
X-30870356Y-39599819D02*
X-30965594Y-39552200D01*
X-30965594Y-39552200D02*
X-31013213Y-39504580D01*
X-31610180Y-34228333D02*
X-30895895Y-34228333D01*
X-30895895Y-34228333D02*
X-30753038Y-34275952D01*
X-30753038Y-34275952D02*
X-30657800Y-34371190D01*
X-30657800Y-34371190D02*
X-30610180Y-34514047D01*
X-30610180Y-34514047D02*
X-30610180Y-34609285D01*
X-31276847Y-33323571D02*
X-30610180Y-33323571D01*
X-31657800Y-33561666D02*
X-30943514Y-33799761D01*
X-30943514Y-33799761D02*
X-30943514Y-33180714D01*
X-52930180Y-46607857D02*
X-53406371Y-46941190D01*
X-52930180Y-47179285D02*
X-53930180Y-47179285D01*
X-53930180Y-47179285D02*
X-53930180Y-46798333D01*
X-53930180Y-46798333D02*
X-53882561Y-46703095D01*
X-53882561Y-46703095D02*
X-53834942Y-46655476D01*
X-53834942Y-46655476D02*
X-53739704Y-46607857D01*
X-53739704Y-46607857D02*
X-53596847Y-46607857D01*
X-53596847Y-46607857D02*
X-53501609Y-46655476D01*
X-53501609Y-46655476D02*
X-53453990Y-46703095D01*
X-53453990Y-46703095D02*
X-53406371Y-46798333D01*
X-53406371Y-46798333D02*
X-53406371Y-47179285D01*
X-52930180Y-45655476D02*
X-52930180Y-46226904D01*
X-52930180Y-45941190D02*
X-53930180Y-45941190D01*
X-53930180Y-45941190D02*
X-53787323Y-46036428D01*
X-53787323Y-46036428D02*
X-53692085Y-46131666D01*
X-53692085Y-46131666D02*
X-53644466Y-46226904D01*
X-53834942Y-45274523D02*
X-53882561Y-45226904D01*
X-53882561Y-45226904D02*
X-53930180Y-45131666D01*
X-53930180Y-45131666D02*
X-53930180Y-44893571D01*
X-53930180Y-44893571D02*
X-53882561Y-44798333D01*
X-53882561Y-44798333D02*
X-53834942Y-44750714D01*
X-53834942Y-44750714D02*
X-53739704Y-44703095D01*
X-53739704Y-44703095D02*
X-53644466Y-44703095D01*
X-53644466Y-44703095D02*
X-53501609Y-44750714D01*
X-53501609Y-44750714D02*
X-52930180Y-45322142D01*
X-52930180Y-45322142D02*
X-52930180Y-44703095D01*
X-36357800Y-22933332D02*
X-36310180Y-22790475D01*
X-36310180Y-22790475D02*
X-36310180Y-22552380D01*
X-36310180Y-22552380D02*
X-36357800Y-22457142D01*
X-36357800Y-22457142D02*
X-36405419Y-22409523D01*
X-36405419Y-22409523D02*
X-36500657Y-22361904D01*
X-36500657Y-22361904D02*
X-36595895Y-22361904D01*
X-36595895Y-22361904D02*
X-36691133Y-22409523D01*
X-36691133Y-22409523D02*
X-36738752Y-22457142D01*
X-36738752Y-22457142D02*
X-36786371Y-22552380D01*
X-36786371Y-22552380D02*
X-36833990Y-22742856D01*
X-36833990Y-22742856D02*
X-36881609Y-22838094D01*
X-36881609Y-22838094D02*
X-36929228Y-22885713D01*
X-36929228Y-22885713D02*
X-37024466Y-22933332D01*
X-37024466Y-22933332D02*
X-37119704Y-22933332D01*
X-37119704Y-22933332D02*
X-37214942Y-22885713D01*
X-37214942Y-22885713D02*
X-37262561Y-22838094D01*
X-37262561Y-22838094D02*
X-37310180Y-22742856D01*
X-37310180Y-22742856D02*
X-37310180Y-22504761D01*
X-37310180Y-22504761D02*
X-37262561Y-22361904D01*
X-37310180Y-22028570D02*
X-36310180Y-21790475D01*
X-36310180Y-21790475D02*
X-37024466Y-21599999D01*
X-37024466Y-21599999D02*
X-36310180Y-21409523D01*
X-36310180Y-21409523D02*
X-37310180Y-21171428D01*
X-37214942Y-20838094D02*
X-37262561Y-20790475D01*
X-37262561Y-20790475D02*
X-37310180Y-20695237D01*
X-37310180Y-20695237D02*
X-37310180Y-20457142D01*
X-37310180Y-20457142D02*
X-37262561Y-20361904D01*
X-37262561Y-20361904D02*
X-37214942Y-20314285D01*
X-37214942Y-20314285D02*
X-37119704Y-20266666D01*
X-37119704Y-20266666D02*
X-37024466Y-20266666D01*
X-37024466Y-20266666D02*
X-36881609Y-20314285D01*
X-36881609Y-20314285D02*
X-36310180Y-20885713D01*
X-36310180Y-20885713D02*
X-36310180Y-20266666D01*
X-51990180Y-43307857D02*
X-52466371Y-43641190D01*
X-51990180Y-43879285D02*
X-52990180Y-43879285D01*
X-52990180Y-43879285D02*
X-52990180Y-43498333D01*
X-52990180Y-43498333D02*
X-52942561Y-43403095D01*
X-52942561Y-43403095D02*
X-52894942Y-43355476D01*
X-52894942Y-43355476D02*
X-52799704Y-43307857D01*
X-52799704Y-43307857D02*
X-52656847Y-43307857D01*
X-52656847Y-43307857D02*
X-52561609Y-43355476D01*
X-52561609Y-43355476D02*
X-52513990Y-43403095D01*
X-52513990Y-43403095D02*
X-52466371Y-43498333D01*
X-52466371Y-43498333D02*
X-52466371Y-43879285D01*
X-51990180Y-42355476D02*
X-51990180Y-42926904D01*
X-51990180Y-42641190D02*
X-52990180Y-42641190D01*
X-52990180Y-42641190D02*
X-52847323Y-42736428D01*
X-52847323Y-42736428D02*
X-52752085Y-42831666D01*
X-52752085Y-42831666D02*
X-52704466Y-42926904D01*
X-52990180Y-41736428D02*
X-52990180Y-41641190D01*
X-52990180Y-41641190D02*
X-52942561Y-41545952D01*
X-52942561Y-41545952D02*
X-52894942Y-41498333D01*
X-52894942Y-41498333D02*
X-52799704Y-41450714D01*
X-52799704Y-41450714D02*
X-52609228Y-41403095D01*
X-52609228Y-41403095D02*
X-52371133Y-41403095D01*
X-52371133Y-41403095D02*
X-52180657Y-41450714D01*
X-52180657Y-41450714D02*
X-52085419Y-41498333D01*
X-52085419Y-41498333D02*
X-52037800Y-41545952D01*
X-52037800Y-41545952D02*
X-51990180Y-41641190D01*
X-51990180Y-41641190D02*
X-51990180Y-41736428D01*
X-51990180Y-41736428D02*
X-52037800Y-41831666D01*
X-52037800Y-41831666D02*
X-52085419Y-41879285D01*
X-52085419Y-41879285D02*
X-52180657Y-41926904D01*
X-52180657Y-41926904D02*
X-52371133Y-41974523D01*
X-52371133Y-41974523D02*
X-52609228Y-41974523D01*
X-52609228Y-41974523D02*
X-52799704Y-41926904D01*
X-52799704Y-41926904D02*
X-52894942Y-41879285D01*
X-52894942Y-41879285D02*
X-52942561Y-41831666D01*
X-52942561Y-41831666D02*
X-52990180Y-41736428D01*
X-64584942Y-38920238D02*
X-64632561Y-39015476D01*
X-64632561Y-39015476D02*
X-64727800Y-39110714D01*
X-64727800Y-39110714D02*
X-64870657Y-39253571D01*
X-64870657Y-39253571D02*
X-64918276Y-39348809D01*
X-64918276Y-39348809D02*
X-64918276Y-39444047D01*
X-64680180Y-39396428D02*
X-64727800Y-39491666D01*
X-64727800Y-39491666D02*
X-64823038Y-39586904D01*
X-64823038Y-39586904D02*
X-65013514Y-39634523D01*
X-65013514Y-39634523D02*
X-65346847Y-39634523D01*
X-65346847Y-39634523D02*
X-65537323Y-39586904D01*
X-65537323Y-39586904D02*
X-65632561Y-39491666D01*
X-65632561Y-39491666D02*
X-65680180Y-39396428D01*
X-65680180Y-39396428D02*
X-65680180Y-39205952D01*
X-65680180Y-39205952D02*
X-65632561Y-39110714D01*
X-65632561Y-39110714D02*
X-65537323Y-39015476D01*
X-65537323Y-39015476D02*
X-65346847Y-38967857D01*
X-65346847Y-38967857D02*
X-65013514Y-38967857D01*
X-65013514Y-38967857D02*
X-64823038Y-39015476D01*
X-64823038Y-39015476D02*
X-64727800Y-39110714D01*
X-64727800Y-39110714D02*
X-64680180Y-39205952D01*
X-64680180Y-39205952D02*
X-64680180Y-39396428D01*
X-65680180Y-38063095D02*
X-65680180Y-38539285D01*
X-65680180Y-38539285D02*
X-65203990Y-38586904D01*
X-65203990Y-38586904D02*
X-65251609Y-38539285D01*
X-65251609Y-38539285D02*
X-65299228Y-38444047D01*
X-65299228Y-38444047D02*
X-65299228Y-38205952D01*
X-65299228Y-38205952D02*
X-65251609Y-38110714D01*
X-65251609Y-38110714D02*
X-65203990Y-38063095D01*
X-65203990Y-38063095D02*
X-65108752Y-38015476D01*
X-65108752Y-38015476D02*
X-64870657Y-38015476D01*
X-64870657Y-38015476D02*
X-64775419Y-38063095D01*
X-64775419Y-38063095D02*
X-64727800Y-38110714D01*
X-64727800Y-38110714D02*
X-64680180Y-38205952D01*
X-64680180Y-38205952D02*
X-64680180Y-38444047D01*
X-64680180Y-38444047D02*
X-64727800Y-38539285D01*
X-64727800Y-38539285D02*
X-64775419Y-38586904D01*
X-57157800Y-23198332D02*
X-57110180Y-23055475D01*
X-57110180Y-23055475D02*
X-57110180Y-22817380D01*
X-57110180Y-22817380D02*
X-57157800Y-22722142D01*
X-57157800Y-22722142D02*
X-57205419Y-22674523D01*
X-57205419Y-22674523D02*
X-57300657Y-22626904D01*
X-57300657Y-22626904D02*
X-57395895Y-22626904D01*
X-57395895Y-22626904D02*
X-57491133Y-22674523D01*
X-57491133Y-22674523D02*
X-57538752Y-22722142D01*
X-57538752Y-22722142D02*
X-57586371Y-22817380D01*
X-57586371Y-22817380D02*
X-57633990Y-23007856D01*
X-57633990Y-23007856D02*
X-57681609Y-23103094D01*
X-57681609Y-23103094D02*
X-57729228Y-23150713D01*
X-57729228Y-23150713D02*
X-57824466Y-23198332D01*
X-57824466Y-23198332D02*
X-57919704Y-23198332D01*
X-57919704Y-23198332D02*
X-58014942Y-23150713D01*
X-58014942Y-23150713D02*
X-58062561Y-23103094D01*
X-58062561Y-23103094D02*
X-58110180Y-23007856D01*
X-58110180Y-23007856D02*
X-58110180Y-22769761D01*
X-58110180Y-22769761D02*
X-58062561Y-22626904D01*
X-58110180Y-22293570D02*
X-57110180Y-22055475D01*
X-57110180Y-22055475D02*
X-57824466Y-21864999D01*
X-57824466Y-21864999D02*
X-57110180Y-21674523D01*
X-57110180Y-21674523D02*
X-58110180Y-21436428D01*
X-57110180Y-20531666D02*
X-57110180Y-21103094D01*
X-57110180Y-20817380D02*
X-58110180Y-20817380D01*
X-58110180Y-20817380D02*
X-57967323Y-20912618D01*
X-57967323Y-20912618D02*
X-57872085Y-21007856D01*
X-57872085Y-21007856D02*
X-57824466Y-21103094D01*
X-86395357Y-53999819D02*
X-86728690Y-53523628D01*
X-86966785Y-53999819D02*
X-86966785Y-52999819D01*
X-86966785Y-52999819D02*
X-86585833Y-52999819D01*
X-86585833Y-52999819D02*
X-86490595Y-53047438D01*
X-86490595Y-53047438D02*
X-86442976Y-53095057D01*
X-86442976Y-53095057D02*
X-86395357Y-53190295D01*
X-86395357Y-53190295D02*
X-86395357Y-53333152D01*
X-86395357Y-53333152D02*
X-86442976Y-53428390D01*
X-86442976Y-53428390D02*
X-86490595Y-53476009D01*
X-86490595Y-53476009D02*
X-86585833Y-53523628D01*
X-86585833Y-53523628D02*
X-86966785Y-53523628D01*
X-85442976Y-53999819D02*
X-86014404Y-53999819D01*
X-85728690Y-53999819D02*
X-85728690Y-52999819D01*
X-85728690Y-52999819D02*
X-85823928Y-53142676D01*
X-85823928Y-53142676D02*
X-85919166Y-53237914D01*
X-85919166Y-53237914D02*
X-86014404Y-53285533D01*
X-84585833Y-53333152D02*
X-84585833Y-53999819D01*
X-84823928Y-52952200D02*
X-85062023Y-53666485D01*
X-85062023Y-53666485D02*
X-84442976Y-53666485D01*
X-83155419Y-56231666D02*
X-83107800Y-56279285D01*
X-83107800Y-56279285D02*
X-83060180Y-56422142D01*
X-83060180Y-56422142D02*
X-83060180Y-56517380D01*
X-83060180Y-56517380D02*
X-83107800Y-56660237D01*
X-83107800Y-56660237D02*
X-83203038Y-56755475D01*
X-83203038Y-56755475D02*
X-83298276Y-56803094D01*
X-83298276Y-56803094D02*
X-83488752Y-56850713D01*
X-83488752Y-56850713D02*
X-83631609Y-56850713D01*
X-83631609Y-56850713D02*
X-83822085Y-56803094D01*
X-83822085Y-56803094D02*
X-83917323Y-56755475D01*
X-83917323Y-56755475D02*
X-84012561Y-56660237D01*
X-84012561Y-56660237D02*
X-84060180Y-56517380D01*
X-84060180Y-56517380D02*
X-84060180Y-56422142D01*
X-84060180Y-56422142D02*
X-84012561Y-56279285D01*
X-84012561Y-56279285D02*
X-83964942Y-56231666D01*
X-84060180Y-55898332D02*
X-84060180Y-55279285D01*
X-84060180Y-55279285D02*
X-83679228Y-55612618D01*
X-83679228Y-55612618D02*
X-83679228Y-55469761D01*
X-83679228Y-55469761D02*
X-83631609Y-55374523D01*
X-83631609Y-55374523D02*
X-83583990Y-55326904D01*
X-83583990Y-55326904D02*
X-83488752Y-55279285D01*
X-83488752Y-55279285D02*
X-83250657Y-55279285D01*
X-83250657Y-55279285D02*
X-83155419Y-55326904D01*
X-83155419Y-55326904D02*
X-83107800Y-55374523D01*
X-83107800Y-55374523D02*
X-83060180Y-55469761D01*
X-83060180Y-55469761D02*
X-83060180Y-55755475D01*
X-83060180Y-55755475D02*
X-83107800Y-55850713D01*
X-83107800Y-55850713D02*
X-83155419Y-55898332D01*
X-52868333Y-54599819D02*
X-52868333Y-55314104D01*
X-52868333Y-55314104D02*
X-52915952Y-55456961D01*
X-52915952Y-55456961D02*
X-53011190Y-55552200D01*
X-53011190Y-55552200D02*
X-53154047Y-55599819D01*
X-53154047Y-55599819D02*
X-53249285Y-55599819D01*
X-52439761Y-54695057D02*
X-52392142Y-54647438D01*
X-52392142Y-54647438D02*
X-52296904Y-54599819D01*
X-52296904Y-54599819D02*
X-52058809Y-54599819D01*
X-52058809Y-54599819D02*
X-51963571Y-54647438D01*
X-51963571Y-54647438D02*
X-51915952Y-54695057D01*
X-51915952Y-54695057D02*
X-51868333Y-54790295D01*
X-51868333Y-54790295D02*
X-51868333Y-54885533D01*
X-51868333Y-54885533D02*
X-51915952Y-55028390D01*
X-51915952Y-55028390D02*
X-52487380Y-55599819D01*
X-52487380Y-55599819D02*
X-51868333Y-55599819D01*
X-33794166Y-24399819D02*
X-34127499Y-23923628D01*
X-34365594Y-24399819D02*
X-34365594Y-23399819D01*
X-34365594Y-23399819D02*
X-33984642Y-23399819D01*
X-33984642Y-23399819D02*
X-33889404Y-23447438D01*
X-33889404Y-23447438D02*
X-33841785Y-23495057D01*
X-33841785Y-23495057D02*
X-33794166Y-23590295D01*
X-33794166Y-23590295D02*
X-33794166Y-23733152D01*
X-33794166Y-23733152D02*
X-33841785Y-23828390D01*
X-33841785Y-23828390D02*
X-33889404Y-23876009D01*
X-33889404Y-23876009D02*
X-33984642Y-23923628D01*
X-33984642Y-23923628D02*
X-34365594Y-23923628D01*
X-33413213Y-23495057D02*
X-33365594Y-23447438D01*
X-33365594Y-23447438D02*
X-33270356Y-23399819D01*
X-33270356Y-23399819D02*
X-33032261Y-23399819D01*
X-33032261Y-23399819D02*
X-32937023Y-23447438D01*
X-32937023Y-23447438D02*
X-32889404Y-23495057D01*
X-32889404Y-23495057D02*
X-32841785Y-23590295D01*
X-32841785Y-23590295D02*
X-32841785Y-23685533D01*
X-32841785Y-23685533D02*
X-32889404Y-23828390D01*
X-32889404Y-23828390D02*
X-33460832Y-24399819D01*
X-33460832Y-24399819D02*
X-32841785Y-24399819D01*
X-37560238Y-55340057D02*
X-37655476Y-55292438D01*
X-37655476Y-55292438D02*
X-37750714Y-55197200D01*
X-37750714Y-55197200D02*
X-37893571Y-55054342D01*
X-37893571Y-55054342D02*
X-37988809Y-55006723D01*
X-37988809Y-55006723D02*
X-38084047Y-55006723D01*
X-38036428Y-55244819D02*
X-38131666Y-55197200D01*
X-38131666Y-55197200D02*
X-38226904Y-55101961D01*
X-38226904Y-55101961D02*
X-38274523Y-54911485D01*
X-38274523Y-54911485D02*
X-38274523Y-54578152D01*
X-38274523Y-54578152D02*
X-38226904Y-54387676D01*
X-38226904Y-54387676D02*
X-38131666Y-54292438D01*
X-38131666Y-54292438D02*
X-38036428Y-54244819D01*
X-38036428Y-54244819D02*
X-37845952Y-54244819D01*
X-37845952Y-54244819D02*
X-37750714Y-54292438D01*
X-37750714Y-54292438D02*
X-37655476Y-54387676D01*
X-37655476Y-54387676D02*
X-37607857Y-54578152D01*
X-37607857Y-54578152D02*
X-37607857Y-54911485D01*
X-37607857Y-54911485D02*
X-37655476Y-55101961D01*
X-37655476Y-55101961D02*
X-37750714Y-55197200D01*
X-37750714Y-55197200D02*
X-37845952Y-55244819D01*
X-37845952Y-55244819D02*
X-38036428Y-55244819D01*
X-37274523Y-54244819D02*
X-36655476Y-54244819D01*
X-36655476Y-54244819D02*
X-36988809Y-54625771D01*
X-36988809Y-54625771D02*
X-36845952Y-54625771D01*
X-36845952Y-54625771D02*
X-36750714Y-54673390D01*
X-36750714Y-54673390D02*
X-36703095Y-54721009D01*
X-36703095Y-54721009D02*
X-36655476Y-54816247D01*
X-36655476Y-54816247D02*
X-36655476Y-55054342D01*
X-36655476Y-55054342D02*
X-36703095Y-55149580D01*
X-36703095Y-55149580D02*
X-36750714Y-55197200D01*
X-36750714Y-55197200D02*
X-36845952Y-55244819D01*
X-36845952Y-55244819D02*
X-37131666Y-55244819D01*
X-37131666Y-55244819D02*
X-37226904Y-55197200D01*
X-37226904Y-55197200D02*
X-37274523Y-55149580D01*
X-58330180Y-43370357D02*
X-58806371Y-43703690D01*
X-58330180Y-43941785D02*
X-59330180Y-43941785D01*
X-59330180Y-43941785D02*
X-59330180Y-43560833D01*
X-59330180Y-43560833D02*
X-59282561Y-43465595D01*
X-59282561Y-43465595D02*
X-59234942Y-43417976D01*
X-59234942Y-43417976D02*
X-59139704Y-43370357D01*
X-59139704Y-43370357D02*
X-58996847Y-43370357D01*
X-58996847Y-43370357D02*
X-58901609Y-43417976D01*
X-58901609Y-43417976D02*
X-58853990Y-43465595D01*
X-58853990Y-43465595D02*
X-58806371Y-43560833D01*
X-58806371Y-43560833D02*
X-58806371Y-43941785D01*
X-58330180Y-42417976D02*
X-58330180Y-42989404D01*
X-58330180Y-42703690D02*
X-59330180Y-42703690D01*
X-59330180Y-42703690D02*
X-59187323Y-42798928D01*
X-59187323Y-42798928D02*
X-59092085Y-42894166D01*
X-59092085Y-42894166D02*
X-59044466Y-42989404D01*
X-58330180Y-41465595D02*
X-58330180Y-42037023D01*
X-58330180Y-41751309D02*
X-59330180Y-41751309D01*
X-59330180Y-41751309D02*
X-59187323Y-41846547D01*
X-59187323Y-41846547D02*
X-59092085Y-41941785D01*
X-59092085Y-41941785D02*
X-59044466Y-42037023D01*
X-61131666Y-28099819D02*
X-61464999Y-27623628D01*
X-61703094Y-28099819D02*
X-61703094Y-27099819D01*
X-61703094Y-27099819D02*
X-61322142Y-27099819D01*
X-61322142Y-27099819D02*
X-61226904Y-27147438D01*
X-61226904Y-27147438D02*
X-61179285Y-27195057D01*
X-61179285Y-27195057D02*
X-61131666Y-27290295D01*
X-61131666Y-27290295D02*
X-61131666Y-27433152D01*
X-61131666Y-27433152D02*
X-61179285Y-27528390D01*
X-61179285Y-27528390D02*
X-61226904Y-27576009D01*
X-61226904Y-27576009D02*
X-61322142Y-27623628D01*
X-61322142Y-27623628D02*
X-61703094Y-27623628D01*
X-60179285Y-28099819D02*
X-60750713Y-28099819D01*
X-60464999Y-28099819D02*
X-60464999Y-27099819D01*
X-60464999Y-27099819D02*
X-60560237Y-27242676D01*
X-60560237Y-27242676D02*
X-60655475Y-27337914D01*
X-60655475Y-27337914D02*
X-60750713Y-27385533D01*
X-36631666Y-45739819D02*
X-36964999Y-45263628D01*
X-37203094Y-45739819D02*
X-37203094Y-44739819D01*
X-37203094Y-44739819D02*
X-36822142Y-44739819D01*
X-36822142Y-44739819D02*
X-36726904Y-44787438D01*
X-36726904Y-44787438D02*
X-36679285Y-44835057D01*
X-36679285Y-44835057D02*
X-36631666Y-44930295D01*
X-36631666Y-44930295D02*
X-36631666Y-45073152D01*
X-36631666Y-45073152D02*
X-36679285Y-45168390D01*
X-36679285Y-45168390D02*
X-36726904Y-45216009D01*
X-36726904Y-45216009D02*
X-36822142Y-45263628D01*
X-36822142Y-45263628D02*
X-37203094Y-45263628D01*
X-35774523Y-44739819D02*
X-35964999Y-44739819D01*
X-35964999Y-44739819D02*
X-36060237Y-44787438D01*
X-36060237Y-44787438D02*
X-36107856Y-44835057D01*
X-36107856Y-44835057D02*
X-36203094Y-44977914D01*
X-36203094Y-44977914D02*
X-36250713Y-45168390D01*
X-36250713Y-45168390D02*
X-36250713Y-45549342D01*
X-36250713Y-45549342D02*
X-36203094Y-45644580D01*
X-36203094Y-45644580D02*
X-36155475Y-45692200D01*
X-36155475Y-45692200D02*
X-36060237Y-45739819D01*
X-36060237Y-45739819D02*
X-35869761Y-45739819D01*
X-35869761Y-45739819D02*
X-35774523Y-45692200D01*
X-35774523Y-45692200D02*
X-35726904Y-45644580D01*
X-35726904Y-45644580D02*
X-35679285Y-45549342D01*
X-35679285Y-45549342D02*
X-35679285Y-45311247D01*
X-35679285Y-45311247D02*
X-35726904Y-45216009D01*
X-35726904Y-45216009D02*
X-35774523Y-45168390D01*
X-35774523Y-45168390D02*
X-35869761Y-45120771D01*
X-35869761Y-45120771D02*
X-36060237Y-45120771D01*
X-36060237Y-45120771D02*
X-36155475Y-45168390D01*
X-36155475Y-45168390D02*
X-36203094Y-45216009D01*
X-36203094Y-45216009D02*
X-36250713Y-45311247D01*
X-37368333Y-54799819D02*
X-37368333Y-55514104D01*
X-37368333Y-55514104D02*
X-37415952Y-55656961D01*
X-37415952Y-55656961D02*
X-37511190Y-55752200D01*
X-37511190Y-55752200D02*
X-37654047Y-55799819D01*
X-37654047Y-55799819D02*
X-37749285Y-55799819D01*
X-36463571Y-54799819D02*
X-36654047Y-54799819D01*
X-36654047Y-54799819D02*
X-36749285Y-54847438D01*
X-36749285Y-54847438D02*
X-36796904Y-54895057D01*
X-36796904Y-54895057D02*
X-36892142Y-55037914D01*
X-36892142Y-55037914D02*
X-36939761Y-55228390D01*
X-36939761Y-55228390D02*
X-36939761Y-55609342D01*
X-36939761Y-55609342D02*
X-36892142Y-55704580D01*
X-36892142Y-55704580D02*
X-36844523Y-55752200D01*
X-36844523Y-55752200D02*
X-36749285Y-55799819D01*
X-36749285Y-55799819D02*
X-36558809Y-55799819D01*
X-36558809Y-55799819D02*
X-36463571Y-55752200D01*
X-36463571Y-55752200D02*
X-36415952Y-55704580D01*
X-36415952Y-55704580D02*
X-36368333Y-55609342D01*
X-36368333Y-55609342D02*
X-36368333Y-55371247D01*
X-36368333Y-55371247D02*
X-36415952Y-55276009D01*
X-36415952Y-55276009D02*
X-36463571Y-55228390D01*
X-36463571Y-55228390D02*
X-36558809Y-55180771D01*
X-36558809Y-55180771D02*
X-36749285Y-55180771D01*
X-36749285Y-55180771D02*
X-36844523Y-55228390D01*
X-36844523Y-55228390D02*
X-36892142Y-55276009D01*
X-36892142Y-55276009D02*
X-36939761Y-55371247D01*
X-36130180Y-29531666D02*
X-36606371Y-29864999D01*
X-36130180Y-30103094D02*
X-37130180Y-30103094D01*
X-37130180Y-30103094D02*
X-37130180Y-29722142D01*
X-37130180Y-29722142D02*
X-37082561Y-29626904D01*
X-37082561Y-29626904D02*
X-37034942Y-29579285D01*
X-37034942Y-29579285D02*
X-36939704Y-29531666D01*
X-36939704Y-29531666D02*
X-36796847Y-29531666D01*
X-36796847Y-29531666D02*
X-36701609Y-29579285D01*
X-36701609Y-29579285D02*
X-36653990Y-29626904D01*
X-36653990Y-29626904D02*
X-36606371Y-29722142D01*
X-36606371Y-29722142D02*
X-36606371Y-30103094D01*
X-37130180Y-29198332D02*
X-37130180Y-28579285D01*
X-37130180Y-28579285D02*
X-36749228Y-28912618D01*
X-36749228Y-28912618D02*
X-36749228Y-28769761D01*
X-36749228Y-28769761D02*
X-36701609Y-28674523D01*
X-36701609Y-28674523D02*
X-36653990Y-28626904D01*
X-36653990Y-28626904D02*
X-36558752Y-28579285D01*
X-36558752Y-28579285D02*
X-36320657Y-28579285D01*
X-36320657Y-28579285D02*
X-36225419Y-28626904D01*
X-36225419Y-28626904D02*
X-36177800Y-28674523D01*
X-36177800Y-28674523D02*
X-36130180Y-28769761D01*
X-36130180Y-28769761D02*
X-36130180Y-29055475D01*
X-36130180Y-29055475D02*
X-36177800Y-29150713D01*
X-36177800Y-29150713D02*
X-36225419Y-29198332D01*
X-31830180Y-59928333D02*
X-31115895Y-59928333D01*
X-31115895Y-59928333D02*
X-30973038Y-59975952D01*
X-30973038Y-59975952D02*
X-30877800Y-60071190D01*
X-30877800Y-60071190D02*
X-30830180Y-60214047D01*
X-30830180Y-60214047D02*
X-30830180Y-60309285D01*
X-31401609Y-59309285D02*
X-31449228Y-59404523D01*
X-31449228Y-59404523D02*
X-31496847Y-59452142D01*
X-31496847Y-59452142D02*
X-31592085Y-59499761D01*
X-31592085Y-59499761D02*
X-31639704Y-59499761D01*
X-31639704Y-59499761D02*
X-31734942Y-59452142D01*
X-31734942Y-59452142D02*
X-31782561Y-59404523D01*
X-31782561Y-59404523D02*
X-31830180Y-59309285D01*
X-31830180Y-59309285D02*
X-31830180Y-59118809D01*
X-31830180Y-59118809D02*
X-31782561Y-59023571D01*
X-31782561Y-59023571D02*
X-31734942Y-58975952D01*
X-31734942Y-58975952D02*
X-31639704Y-58928333D01*
X-31639704Y-58928333D02*
X-31592085Y-58928333D01*
X-31592085Y-58928333D02*
X-31496847Y-58975952D01*
X-31496847Y-58975952D02*
X-31449228Y-59023571D01*
X-31449228Y-59023571D02*
X-31401609Y-59118809D01*
X-31401609Y-59118809D02*
X-31401609Y-59309285D01*
X-31401609Y-59309285D02*
X-31353990Y-59404523D01*
X-31353990Y-59404523D02*
X-31306371Y-59452142D01*
X-31306371Y-59452142D02*
X-31211133Y-59499761D01*
X-31211133Y-59499761D02*
X-31020657Y-59499761D01*
X-31020657Y-59499761D02*
X-30925419Y-59452142D01*
X-30925419Y-59452142D02*
X-30877800Y-59404523D01*
X-30877800Y-59404523D02*
X-30830180Y-59309285D01*
X-30830180Y-59309285D02*
X-30830180Y-59118809D01*
X-30830180Y-59118809D02*
X-30877800Y-59023571D01*
X-30877800Y-59023571D02*
X-30925419Y-58975952D01*
X-30925419Y-58975952D02*
X-31020657Y-58928333D01*
X-31020657Y-58928333D02*
X-31211133Y-58928333D01*
X-31211133Y-58928333D02*
X-31306371Y-58975952D01*
X-31306371Y-58975952D02*
X-31353990Y-59023571D01*
X-31353990Y-59023571D02*
X-31401609Y-59118809D01*
D10*
X-65433095Y-21432580D02*
X-65433095Y-20623057D01*
X-65433095Y-20623057D02*
X-65480714Y-20527819D01*
X-65480714Y-20527819D02*
X-65528333Y-20480200D01*
X-65528333Y-20480200D02*
X-65623571Y-20432580D01*
X-65623571Y-20432580D02*
X-65814047Y-20432580D01*
X-65814047Y-20432580D02*
X-65909285Y-20480200D01*
X-65909285Y-20480200D02*
X-65956904Y-20527819D01*
X-65956904Y-20527819D02*
X-66004523Y-20623057D01*
X-66004523Y-20623057D02*
X-66004523Y-21432580D01*
X-66385476Y-21432580D02*
X-67004523Y-21432580D01*
X-67004523Y-21432580D02*
X-66671190Y-21051628D01*
X-66671190Y-21051628D02*
X-66814047Y-21051628D01*
X-66814047Y-21051628D02*
X-66909285Y-21004009D01*
X-66909285Y-21004009D02*
X-66956904Y-20956390D01*
X-66956904Y-20956390D02*
X-67004523Y-20861152D01*
X-67004523Y-20861152D02*
X-67004523Y-20623057D01*
X-67004523Y-20623057D02*
X-66956904Y-20527819D01*
X-66956904Y-20527819D02*
X-66909285Y-20480200D01*
X-66909285Y-20480200D02*
X-66814047Y-20432580D01*
X-66814047Y-20432580D02*
X-66528333Y-20432580D01*
X-66528333Y-20432580D02*
X-66433095Y-20480200D01*
X-66433095Y-20480200D02*
X-66385476Y-20527819D01*
D11*
X-22224942Y-24960238D02*
X-22272561Y-25055476D01*
X-22272561Y-25055476D02*
X-22367800Y-25150714D01*
X-22367800Y-25150714D02*
X-22510657Y-25293571D01*
X-22510657Y-25293571D02*
X-22558276Y-25388809D01*
X-22558276Y-25388809D02*
X-22558276Y-25484047D01*
X-22320180Y-25436428D02*
X-22367800Y-25531666D01*
X-22367800Y-25531666D02*
X-22463038Y-25626904D01*
X-22463038Y-25626904D02*
X-22653514Y-25674523D01*
X-22653514Y-25674523D02*
X-22986847Y-25674523D01*
X-22986847Y-25674523D02*
X-23177323Y-25626904D01*
X-23177323Y-25626904D02*
X-23272561Y-25531666D01*
X-23272561Y-25531666D02*
X-23320180Y-25436428D01*
X-23320180Y-25436428D02*
X-23320180Y-25245952D01*
X-23320180Y-25245952D02*
X-23272561Y-25150714D01*
X-23272561Y-25150714D02*
X-23177323Y-25055476D01*
X-23177323Y-25055476D02*
X-22986847Y-25007857D01*
X-22986847Y-25007857D02*
X-22653514Y-25007857D01*
X-22653514Y-25007857D02*
X-22463038Y-25055476D01*
X-22463038Y-25055476D02*
X-22367800Y-25150714D01*
X-22367800Y-25150714D02*
X-22320180Y-25245952D01*
X-22320180Y-25245952D02*
X-22320180Y-25436428D01*
X-22320180Y-24055476D02*
X-22320180Y-24626904D01*
X-22320180Y-24341190D02*
X-23320180Y-24341190D01*
X-23320180Y-24341190D02*
X-23177323Y-24436428D01*
X-23177323Y-24436428D02*
X-23082085Y-24531666D01*
X-23082085Y-24531666D02*
X-23034466Y-24626904D01*
X-87600180Y-61398333D02*
X-86885895Y-61398333D01*
X-86885895Y-61398333D02*
X-86743038Y-61445952D01*
X-86743038Y-61445952D02*
X-86647800Y-61541190D01*
X-86647800Y-61541190D02*
X-86600180Y-61684047D01*
X-86600180Y-61684047D02*
X-86600180Y-61779285D01*
X-86600180Y-60398333D02*
X-86600180Y-60969761D01*
X-86600180Y-60684047D02*
X-87600180Y-60684047D01*
X-87600180Y-60684047D02*
X-87457323Y-60779285D01*
X-87457323Y-60779285D02*
X-87362085Y-60874523D01*
X-87362085Y-60874523D02*
X-87314466Y-60969761D01*
X-61031666Y-24474580D02*
X-61079285Y-24522200D01*
X-61079285Y-24522200D02*
X-61222142Y-24569819D01*
X-61222142Y-24569819D02*
X-61317380Y-24569819D01*
X-61317380Y-24569819D02*
X-61460237Y-24522200D01*
X-61460237Y-24522200D02*
X-61555475Y-24426961D01*
X-61555475Y-24426961D02*
X-61603094Y-24331723D01*
X-61603094Y-24331723D02*
X-61650713Y-24141247D01*
X-61650713Y-24141247D02*
X-61650713Y-23998390D01*
X-61650713Y-23998390D02*
X-61603094Y-23807914D01*
X-61603094Y-23807914D02*
X-61555475Y-23712676D01*
X-61555475Y-23712676D02*
X-61460237Y-23617438D01*
X-61460237Y-23617438D02*
X-61317380Y-23569819D01*
X-61317380Y-23569819D02*
X-61222142Y-23569819D01*
X-61222142Y-23569819D02*
X-61079285Y-23617438D01*
X-61079285Y-23617438D02*
X-61031666Y-23665057D01*
X-60079285Y-24569819D02*
X-60650713Y-24569819D01*
X-60364999Y-24569819D02*
X-60364999Y-23569819D01*
X-60364999Y-23569819D02*
X-60460237Y-23712676D01*
X-60460237Y-23712676D02*
X-60555475Y-23807914D01*
X-60555475Y-23807914D02*
X-60650713Y-23855533D01*
X-58360180Y-38146904D02*
X-57550657Y-38146904D01*
X-57550657Y-38146904D02*
X-57455419Y-38099285D01*
X-57455419Y-38099285D02*
X-57407800Y-38051666D01*
X-57407800Y-38051666D02*
X-57360180Y-37956428D01*
X-57360180Y-37956428D02*
X-57360180Y-37765952D01*
X-57360180Y-37765952D02*
X-57407800Y-37670714D01*
X-57407800Y-37670714D02*
X-57455419Y-37623095D01*
X-57455419Y-37623095D02*
X-57550657Y-37575476D01*
X-57550657Y-37575476D02*
X-58360180Y-37575476D01*
X-57360180Y-36575476D02*
X-57360180Y-37146904D01*
X-57360180Y-36861190D02*
X-58360180Y-36861190D01*
X-58360180Y-36861190D02*
X-58217323Y-36956428D01*
X-58217323Y-36956428D02*
X-58122085Y-37051666D01*
X-58122085Y-37051666D02*
X-58074466Y-37146904D01*
X-56945357Y-49339819D02*
X-57278690Y-48863628D01*
X-57516785Y-49339819D02*
X-57516785Y-48339819D01*
X-57516785Y-48339819D02*
X-57135833Y-48339819D01*
X-57135833Y-48339819D02*
X-57040595Y-48387438D01*
X-57040595Y-48387438D02*
X-56992976Y-48435057D01*
X-56992976Y-48435057D02*
X-56945357Y-48530295D01*
X-56945357Y-48530295D02*
X-56945357Y-48673152D01*
X-56945357Y-48673152D02*
X-56992976Y-48768390D01*
X-56992976Y-48768390D02*
X-57040595Y-48816009D01*
X-57040595Y-48816009D02*
X-57135833Y-48863628D01*
X-57135833Y-48863628D02*
X-57516785Y-48863628D01*
X-55992976Y-49339819D02*
X-56564404Y-49339819D01*
X-56278690Y-49339819D02*
X-56278690Y-48339819D01*
X-56278690Y-48339819D02*
X-56373928Y-48482676D01*
X-56373928Y-48482676D02*
X-56469166Y-48577914D01*
X-56469166Y-48577914D02*
X-56564404Y-48625533D01*
X-55659642Y-48339819D02*
X-55040595Y-48339819D01*
X-55040595Y-48339819D02*
X-55373928Y-48720771D01*
X-55373928Y-48720771D02*
X-55231071Y-48720771D01*
X-55231071Y-48720771D02*
X-55135833Y-48768390D01*
X-55135833Y-48768390D02*
X-55088214Y-48816009D01*
X-55088214Y-48816009D02*
X-55040595Y-48911247D01*
X-55040595Y-48911247D02*
X-55040595Y-49149342D01*
X-55040595Y-49149342D02*
X-55088214Y-49244580D01*
X-55088214Y-49244580D02*
X-55135833Y-49292200D01*
X-55135833Y-49292200D02*
X-55231071Y-49339819D01*
X-55231071Y-49339819D02*
X-55516785Y-49339819D01*
X-55516785Y-49339819D02*
X-55612023Y-49292200D01*
X-55612023Y-49292200D02*
X-55659642Y-49244580D01*
X-86453094Y-60164819D02*
X-86453094Y-59164819D01*
X-86453094Y-59164819D02*
X-86214999Y-59164819D01*
X-86214999Y-59164819D02*
X-86072142Y-59212438D01*
X-86072142Y-59212438D02*
X-85976904Y-59307676D01*
X-85976904Y-59307676D02*
X-85929285Y-59402914D01*
X-85929285Y-59402914D02*
X-85881666Y-59593390D01*
X-85881666Y-59593390D02*
X-85881666Y-59736247D01*
X-85881666Y-59736247D02*
X-85929285Y-59926723D01*
X-85929285Y-59926723D02*
X-85976904Y-60021961D01*
X-85976904Y-60021961D02*
X-86072142Y-60117200D01*
X-86072142Y-60117200D02*
X-86214999Y-60164819D01*
X-86214999Y-60164819D02*
X-86453094Y-60164819D01*
X-84929285Y-60164819D02*
X-85500713Y-60164819D01*
X-85214999Y-60164819D02*
X-85214999Y-59164819D01*
X-85214999Y-59164819D02*
X-85310237Y-59307676D01*
X-85310237Y-59307676D02*
X-85405475Y-59402914D01*
X-85405475Y-59402914D02*
X-85500713Y-59450533D01*
D12*
%TO.C,J3*%
X-70975000Y-57365000D02*
X-70975000Y-61365000D01*
X-70685000Y-56335000D02*
X-70685000Y-62355000D01*
X-70685000Y-62355000D02*
X-65385000Y-62355000D01*
X-70105000Y-56335000D02*
X-70105000Y-56935000D01*
X-70105000Y-56935000D02*
X-68505000Y-56935000D01*
X-69305000Y-61355000D02*
X-69055000Y-60825000D01*
X-69305000Y-61355000D02*
X-66765000Y-61355000D01*
X-69305000Y-62355000D02*
X-69305000Y-61355000D01*
X-69055000Y-60825000D02*
X-67015000Y-60825000D01*
X-69055000Y-62355000D02*
X-69055000Y-61355000D01*
X-68505000Y-56935000D02*
X-68505000Y-56335000D01*
X-67565000Y-56335000D02*
X-67565000Y-56935000D01*
X-67565000Y-56935000D02*
X-65965000Y-56935000D01*
X-67015000Y-60825000D02*
X-66765000Y-61355000D01*
X-67015000Y-62355000D02*
X-67015000Y-61355000D01*
X-66765000Y-61355000D02*
X-66765000Y-62355000D01*
X-65965000Y-56935000D02*
X-65965000Y-56335000D01*
X-65385000Y-56335000D02*
X-70685000Y-56335000D01*
X-65385000Y-62355000D02*
X-65385000Y-56335000D01*
%TO.C,Q4*%
X-53985000Y-53790000D02*
X-53985000Y-49149000D01*
X-50716000Y-53790000D02*
X-50716000Y-52280000D01*
X-47015000Y-53790000D02*
X-47015000Y-52280000D01*
X-43745000Y-49149000D02*
X-53985000Y-49149000D01*
X-43745000Y-52280000D02*
X-53985000Y-52280000D01*
X-43745000Y-53790000D02*
X-53985000Y-53790000D01*
X-43745000Y-53790000D02*
X-43745000Y-49149000D01*
%TO.C,C2*%
X-35338752Y-36855000D02*
X-33916248Y-36855000D01*
X-35338752Y-38675000D02*
X-33916248Y-38675000D01*
%TO.C,J9*%
X-63475000Y-57265000D02*
X-63475000Y-61265000D01*
X-63185000Y-56235000D02*
X-63185000Y-62255000D01*
X-63185000Y-62255000D02*
X-57885000Y-62255000D01*
X-62605000Y-56235000D02*
X-62605000Y-56835000D01*
X-62605000Y-56835000D02*
X-61005000Y-56835000D01*
X-61805000Y-61255000D02*
X-61555000Y-60725000D01*
X-61805000Y-61255000D02*
X-59265000Y-61255000D01*
X-61805000Y-62255000D02*
X-61805000Y-61255000D01*
X-61555000Y-60725000D02*
X-59515000Y-60725000D01*
X-61555000Y-62255000D02*
X-61555000Y-61255000D01*
X-61005000Y-56835000D02*
X-61005000Y-56235000D01*
X-60065000Y-56235000D02*
X-60065000Y-56835000D01*
X-60065000Y-56835000D02*
X-58465000Y-56835000D01*
X-59515000Y-60725000D02*
X-59265000Y-61255000D01*
X-59515000Y-62255000D02*
X-59515000Y-61255000D01*
X-59265000Y-61255000D02*
X-59265000Y-62255000D01*
X-58465000Y-56835000D02*
X-58465000Y-56235000D01*
X-57885000Y-56235000D02*
X-63185000Y-56235000D01*
X-57885000Y-62255000D02*
X-57885000Y-56235000D01*
%TO.C,R7*%
X-37192064Y-45255000D02*
X-35737936Y-45255000D01*
X-37192064Y-47075000D02*
X-35737936Y-47075000D01*
%TO.C,J5*%
X-30175000Y-50185000D02*
X-30175000Y-55485000D01*
X-30175000Y-52365000D02*
X-29575000Y-52365000D01*
X-30175000Y-54905000D02*
X-29575000Y-54905000D01*
X-30175000Y-55485000D02*
X-24155000Y-55485000D01*
X-29575000Y-50765000D02*
X-30175000Y-50765000D01*
X-29575000Y-52365000D02*
X-29575000Y-50765000D01*
X-29575000Y-53305000D02*
X-30175000Y-53305000D01*
X-29575000Y-54905000D02*
X-29575000Y-53305000D01*
X-29145000Y-55775000D02*
X-25145000Y-55775000D01*
X-25685000Y-51815000D02*
X-25155000Y-51565000D01*
X-25685000Y-53855000D02*
X-25685000Y-51815000D01*
X-25155000Y-51565000D02*
X-24155000Y-51565000D01*
X-25155000Y-54105000D02*
X-25685000Y-53855000D01*
X-25155000Y-54105000D02*
X-25155000Y-51565000D01*
X-24155000Y-50185000D02*
X-30175000Y-50185000D01*
X-24155000Y-51815000D02*
X-25155000Y-51815000D01*
X-24155000Y-53855000D02*
X-25155000Y-53855000D01*
X-24155000Y-54105000D02*
X-25155000Y-54105000D01*
X-24155000Y-55485000D02*
X-24155000Y-50185000D01*
%TO.C,R4*%
X-30575436Y-42555000D02*
X-32029564Y-42555000D01*
X-30575436Y-44375000D02*
X-32029564Y-44375000D01*
%TO.C,U2*%
X-77315000Y-48855000D02*
X-73555000Y-48855000D01*
X-77315000Y-55675000D02*
X-73555000Y-55675000D01*
X-73555000Y-48855000D02*
X-73555000Y-50115000D01*
X-73555000Y-55675000D02*
X-73555000Y-54415000D01*
X-78595000Y-48955000D02*
X-78835000Y-48625000D01*
X-78355000Y-48625000D01*
X-78595000Y-48955000D01*
G36*
X-78595000Y-48955000D02*
G01*
X-78835000Y-48625000D01*
X-78355000Y-48625000D01*
X-78595000Y-48955000D01*
G37*
%TO.C,Q6*%
X-65625000Y-53735000D02*
X-65625000Y-49094000D01*
X-62356000Y-53735000D02*
X-62356000Y-52225000D01*
X-58655000Y-53735000D02*
X-58655000Y-52225000D01*
X-55385000Y-49094000D02*
X-65625000Y-49094000D01*
X-55385000Y-52225000D02*
X-65625000Y-52225000D01*
X-55385000Y-53735000D02*
X-65625000Y-53735000D01*
X-55385000Y-53735000D02*
X-55385000Y-49094000D01*
%TO.C,R15*%
X-31827064Y-28540000D02*
X-30372936Y-28540000D01*
X-31827064Y-30360000D02*
X-30372936Y-30360000D01*
%TO.C,J7*%
X-47475000Y-57265000D02*
X-47475000Y-61265000D01*
X-47185000Y-56235000D02*
X-47185000Y-62255000D01*
X-47185000Y-62255000D02*
X-41885000Y-62255000D01*
X-46605000Y-56235000D02*
X-46605000Y-56835000D01*
X-46605000Y-56835000D02*
X-45005000Y-56835000D01*
X-45805000Y-61255000D02*
X-45555000Y-60725000D01*
X-45805000Y-61255000D02*
X-43265000Y-61255000D01*
X-45805000Y-62255000D02*
X-45805000Y-61255000D01*
X-45555000Y-60725000D02*
X-43515000Y-60725000D01*
X-45555000Y-62255000D02*
X-45555000Y-61255000D01*
X-45005000Y-56835000D02*
X-45005000Y-56235000D01*
X-44065000Y-56235000D02*
X-44065000Y-56835000D01*
X-44065000Y-56835000D02*
X-42465000Y-56835000D01*
X-43515000Y-60725000D02*
X-43265000Y-61255000D01*
X-43515000Y-62255000D02*
X-43515000Y-61255000D01*
X-43265000Y-61255000D02*
X-43265000Y-62255000D01*
X-42465000Y-56835000D02*
X-42465000Y-56235000D01*
X-41885000Y-56235000D02*
X-47185000Y-56235000D01*
X-41885000Y-62255000D02*
X-41885000Y-56235000D01*
%TO.C,C4*%
X-87575000Y-50653748D02*
X-87575000Y-52076252D01*
X-85755000Y-50653748D02*
X-85755000Y-52076252D01*
%TO.C,R9*%
X-48392064Y-45255000D02*
X-46937936Y-45255000D01*
X-48392064Y-47075000D02*
X-46937936Y-47075000D01*
%TO.C,Q2*%
X-28416000Y-38445000D02*
X-28416000Y-48685000D01*
X-25285000Y-38445000D02*
X-25285000Y-48685000D01*
X-23775000Y-38445000D02*
X-28416000Y-38445000D01*
X-23775000Y-38445000D02*
X-23775000Y-48685000D01*
X-23775000Y-41715000D02*
X-25285000Y-41715000D01*
X-23775000Y-45416000D02*
X-25285000Y-45416000D01*
X-23775000Y-48685000D02*
X-28416000Y-48685000D01*
%TO.C,R8*%
X-46975436Y-42555000D02*
X-48429564Y-42555000D01*
X-46975436Y-44375000D02*
X-48429564Y-44375000D01*
%TO.C,R5*%
X-31954564Y-40055000D02*
X-30500436Y-40055000D01*
X-31954564Y-41875000D02*
X-30500436Y-41875000D01*
%TO.C,J4*%
X-29975000Y-31245000D02*
X-29975000Y-36545000D01*
X-29975000Y-33425000D02*
X-29375000Y-33425000D01*
X-29975000Y-35965000D02*
X-29375000Y-35965000D01*
X-29975000Y-36545000D02*
X-23955000Y-36545000D01*
X-29375000Y-31825000D02*
X-29975000Y-31825000D01*
X-29375000Y-33425000D02*
X-29375000Y-31825000D01*
X-29375000Y-34365000D02*
X-29975000Y-34365000D01*
X-29375000Y-35965000D02*
X-29375000Y-34365000D01*
X-28945000Y-36835000D02*
X-24945000Y-36835000D01*
X-25485000Y-32875000D02*
X-24955000Y-32625000D01*
X-25485000Y-34915000D02*
X-25485000Y-32875000D01*
X-24955000Y-32625000D02*
X-23955000Y-32625000D01*
X-24955000Y-35165000D02*
X-25485000Y-34915000D01*
X-24955000Y-35165000D02*
X-24955000Y-32625000D01*
X-23955000Y-31245000D02*
X-29975000Y-31245000D01*
X-23955000Y-32875000D02*
X-24955000Y-32875000D01*
X-23955000Y-34915000D02*
X-24955000Y-34915000D01*
X-23955000Y-35165000D02*
X-24955000Y-35165000D01*
X-23955000Y-36545000D02*
X-23955000Y-31245000D01*
%TO.C,R12*%
X-52475000Y-46692064D02*
X-52475000Y-45237936D01*
X-50655000Y-46692064D02*
X-50655000Y-45237936D01*
%TO.C,SW2*%
X-35665000Y-19950000D02*
X-35365000Y-19950000D01*
X-35665000Y-23250000D02*
X-35665000Y-19950000D01*
X-35365000Y-23250000D02*
X-35665000Y-23250000D01*
X-33165000Y-23250000D02*
X-32865000Y-23250000D01*
X-32865000Y-19950000D02*
X-33165000Y-19950000D01*
X-32865000Y-23250000D02*
X-32865000Y-19950000D01*
%TO.C,R10*%
X-55175000Y-41937936D02*
X-55175000Y-43392064D01*
X-53355000Y-41937936D02*
X-53355000Y-43392064D01*
%TO.C,Q5*%
X-64135000Y-33705000D02*
X-59494000Y-33705000D01*
X-64135000Y-36974000D02*
X-62625000Y-36974000D01*
X-64135000Y-40675000D02*
X-62625000Y-40675000D01*
X-64135000Y-43945000D02*
X-64135000Y-33705000D01*
X-64135000Y-43945000D02*
X-59494000Y-43945000D01*
X-62625000Y-43945000D02*
X-62625000Y-33705000D01*
X-59494000Y-43945000D02*
X-59494000Y-33705000D01*
%TO.C,SW1*%
X-61465000Y-20215000D02*
X-61465000Y-23515000D01*
X-61465000Y-23515000D02*
X-61165000Y-23515000D01*
X-61165000Y-20215000D02*
X-61465000Y-20215000D01*
X-58965000Y-20215000D02*
X-58665000Y-20215000D01*
X-58665000Y-20215000D02*
X-58665000Y-23515000D01*
X-58665000Y-23515000D02*
X-58965000Y-23515000D01*
%TO.C,R14*%
X-86479564Y-54455000D02*
X-85025436Y-54455000D01*
X-86479564Y-56275000D02*
X-85025436Y-56275000D01*
%TO.C,C3*%
X-82575000Y-56776252D02*
X-82575000Y-55353748D01*
X-80755000Y-56776252D02*
X-80755000Y-55353748D01*
%TO.C,J2*%
X-55475000Y-57265000D02*
X-55475000Y-61265000D01*
X-55185000Y-56235000D02*
X-55185000Y-62255000D01*
X-55185000Y-62255000D02*
X-49885000Y-62255000D01*
X-54605000Y-56235000D02*
X-54605000Y-56835000D01*
X-54605000Y-56835000D02*
X-53005000Y-56835000D01*
X-53805000Y-61255000D02*
X-53555000Y-60725000D01*
X-53805000Y-61255000D02*
X-51265000Y-61255000D01*
X-53805000Y-62255000D02*
X-53805000Y-61255000D01*
X-53555000Y-60725000D02*
X-51515000Y-60725000D01*
X-53555000Y-62255000D02*
X-53555000Y-61255000D01*
X-53005000Y-56835000D02*
X-53005000Y-56235000D01*
X-52065000Y-56235000D02*
X-52065000Y-56835000D01*
X-52065000Y-56835000D02*
X-50465000Y-56835000D01*
X-51515000Y-60725000D02*
X-51265000Y-61255000D01*
X-51515000Y-62255000D02*
X-51515000Y-61255000D01*
X-51265000Y-61255000D02*
X-51265000Y-62255000D01*
X-50465000Y-56835000D02*
X-50465000Y-56235000D01*
X-49885000Y-56235000D02*
X-55185000Y-56235000D01*
X-49885000Y-62255000D02*
X-49885000Y-56235000D01*
%TO.C,R2*%
X-34354564Y-24855000D02*
X-32900436Y-24855000D01*
X-34354564Y-26675000D02*
X-32900436Y-26675000D01*
%TO.C,Q3*%
X-42585000Y-53790000D02*
X-42585000Y-49149000D01*
X-39316000Y-53790000D02*
X-39316000Y-52280000D01*
X-35615000Y-53790000D02*
X-35615000Y-52280000D01*
X-32345000Y-49149000D02*
X-42585000Y-49149000D01*
X-32345000Y-52280000D02*
X-42585000Y-52280000D01*
X-32345000Y-53790000D02*
X-42585000Y-53790000D01*
X-32345000Y-53790000D02*
X-32345000Y-49149000D01*
%TO.C,R11*%
X-57875000Y-43454564D02*
X-57875000Y-42000436D01*
X-56055000Y-43454564D02*
X-56055000Y-42000436D01*
%TO.C,R1*%
X-61692064Y-28555000D02*
X-60237936Y-28555000D01*
X-61692064Y-30375000D02*
X-60237936Y-30375000D01*
%TO.C,R6*%
X-35737936Y-42555000D02*
X-37192064Y-42555000D01*
X-35737936Y-44375000D02*
X-37192064Y-44375000D01*
%TO.C,J6*%
X-39975000Y-57465000D02*
X-39975000Y-61465000D01*
X-39685000Y-56435000D02*
X-39685000Y-62455000D01*
X-39685000Y-62455000D02*
X-34385000Y-62455000D01*
X-39105000Y-56435000D02*
X-39105000Y-57035000D01*
X-39105000Y-57035000D02*
X-37505000Y-57035000D01*
X-38305000Y-61455000D02*
X-38055000Y-60925000D01*
X-38305000Y-61455000D02*
X-35765000Y-61455000D01*
X-38305000Y-62455000D02*
X-38305000Y-61455000D01*
X-38055000Y-60925000D02*
X-36015000Y-60925000D01*
X-38055000Y-62455000D02*
X-38055000Y-61455000D01*
X-37505000Y-57035000D02*
X-37505000Y-56435000D01*
X-36565000Y-56435000D02*
X-36565000Y-57035000D01*
X-36565000Y-57035000D02*
X-34965000Y-57035000D01*
X-36015000Y-60925000D02*
X-35765000Y-61455000D01*
X-36015000Y-62455000D02*
X-36015000Y-61455000D01*
X-35765000Y-61455000D02*
X-35765000Y-62455000D01*
X-34965000Y-57035000D02*
X-34965000Y-56435000D01*
X-34385000Y-56435000D02*
X-39685000Y-56435000D01*
X-34385000Y-62455000D02*
X-34385000Y-56435000D01*
%TO.C,R3*%
X-35675000Y-30092064D02*
X-35675000Y-28637936D01*
X-33855000Y-30092064D02*
X-33855000Y-28637936D01*
%TO.C,J8*%
X-30195000Y-56945000D02*
X-30195000Y-62245000D01*
X-30195000Y-59125000D02*
X-29595000Y-59125000D01*
X-30195000Y-61665000D02*
X-29595000Y-61665000D01*
X-30195000Y-62245000D02*
X-24175000Y-62245000D01*
X-29595000Y-57525000D02*
X-30195000Y-57525000D01*
X-29595000Y-59125000D02*
X-29595000Y-57525000D01*
X-29595000Y-60065000D02*
X-30195000Y-60065000D01*
X-29595000Y-61665000D02*
X-29595000Y-60065000D01*
X-29165000Y-62535000D02*
X-25165000Y-62535000D01*
X-25705000Y-58575000D02*
X-25175000Y-58325000D01*
X-25705000Y-60615000D02*
X-25705000Y-58575000D01*
X-25175000Y-58325000D02*
X-24175000Y-58325000D01*
X-25175000Y-60865000D02*
X-25705000Y-60615000D01*
X-25175000Y-60865000D02*
X-25175000Y-58325000D01*
X-24175000Y-56945000D02*
X-30195000Y-56945000D01*
X-24175000Y-58575000D02*
X-25175000Y-58575000D01*
X-24175000Y-60615000D02*
X-25175000Y-60615000D01*
X-24175000Y-60865000D02*
X-25175000Y-60865000D01*
X-24175000Y-62245000D02*
X-24175000Y-56945000D01*
%TO.C,U3*%
X-69225000Y-43170000D02*
X-69225000Y-25330000D01*
X-66565000Y-25330000D02*
X-69225000Y-25330000D01*
X-66565000Y-43170000D02*
X-69225000Y-43170000D01*
X-66565000Y-43170000D02*
X-66565000Y-25330000D01*
X-66565000Y-44440000D02*
X-66565000Y-45770000D01*
X-66565000Y-45770000D02*
X-67895000Y-45770000D01*
D10*
X-66135000Y-48340000D02*
X-88935000Y-48340000D01*
X-88935000Y-22940000D01*
X-66135000Y-22940000D01*
X-66135000Y-48340000D01*
D12*
%TO.C,Q1*%
X-28416000Y-19745000D02*
X-28416000Y-29985000D01*
X-25285000Y-19745000D02*
X-25285000Y-29985000D01*
X-23775000Y-19745000D02*
X-28416000Y-19745000D01*
X-23775000Y-19745000D02*
X-23775000Y-29985000D01*
X-23775000Y-23015000D02*
X-25285000Y-23015000D01*
X-23775000Y-26716000D02*
X-25285000Y-26716000D01*
X-23775000Y-29985000D02*
X-28416000Y-29985000D01*
%TO.C,J1*%
X-85615000Y-59735000D02*
X-84285000Y-59735000D01*
X-85615000Y-61065000D02*
X-85615000Y-59735000D01*
X-83015000Y-59735000D02*
X-72795000Y-59735000D01*
X-83015000Y-62395000D02*
X-83015000Y-59735000D01*
X-83015000Y-62395000D02*
X-72795000Y-62395000D01*
X-72795000Y-62395000D02*
X-72795000Y-59735000D01*
%TO.C,C1*%
X-61576252Y-25055000D02*
X-60153748Y-25055000D01*
X-61576252Y-26875000D02*
X-60153748Y-26875000D01*
%TO.C,U1*%
X-56325000Y-13095000D02*
X-56325000Y-19255000D01*
X-56325000Y-13095000D02*
X-38085000Y-13095000D01*
X-56325000Y-38055000D02*
X-56325000Y-38835000D01*
X-56325000Y-38835000D02*
X-55325000Y-38835000D01*
X-38085000Y-13095000D02*
X-38085000Y-19510000D01*
X-38085000Y-38055000D02*
X-38085000Y-38835000D01*
X-38085000Y-38835000D02*
X-39085000Y-38835000D01*
X-56330000Y-19980000D02*
X-56830000Y-19980000D01*
X-56330000Y-19480000D01*
X-56330000Y-19980000D01*
G36*
X-56330000Y-19980000D02*
G01*
X-56830000Y-19980000D01*
X-56330000Y-19480000D01*
X-56330000Y-19980000D01*
G37*
%TO.C,R13*%
X-55575436Y-46155000D02*
X-57029564Y-46155000D01*
X-55575436Y-47975000D02*
X-57029564Y-47975000D01*
%TO.C,D1*%
X-87315000Y-59025000D02*
X-83430000Y-59025000D01*
X-83430000Y-56755000D02*
X-87315000Y-56755000D01*
X-83430000Y-59025000D02*
X-83430000Y-56755000D01*
%TD*%
M02*
