M48
; DRILL file {KiCad 8.0.5-8.0.5-0~ubuntu22.04.1} date 2025-05-20T11:09:28+0530
; FORMAT={-:-/ absolute / metric / decimal}
; #@! TF.CreationDate,2025-05-20T11:09:28+05:30
; #@! TF.GenerationSoftware,Kicad,Pcbnew,8.0.5-8.0.5-0~ubuntu22.04.1
; #@! TF.FileFunction,Plated,1,2,PTH
FMAT,2
METRIC
; #@! TA.AperFunction,Plated,PTH,ViaDrill
T1C0.800
; #@! TA.AperFunction,Plated,PTH,ComponentDrill
T2C1.000
; #@! TA.AperFunction,Plated,PTH,ComponentDrill
T3C1.100
; #@! TA.AperFunction,Plated,PTH,ComponentDrill
T4C1.190
%
G90
G05
T1
X-86.89Y-46.015
X-81.64Y-51.29
X-78.965Y-46.79
X-69.665Y-21.14
X-68.09Y-51.515
X-65.19Y-31.69
X-62.115Y-31.44
X-58.94Y-45.315
X-58.815Y-42.665
X-57.725Y-20.225
X-54.79Y-49.965
X-52.296Y-42.159
X-51.765Y-30.065
X-47.7Y-20.525
X-46.14Y-34.69
X-43.24Y-32.765
X-42.275Y-35.525
X-41.265Y-27.44
X-40.49Y-24.39
X-37.9Y-40.975
X-36.5Y-28.725
X-34.265Y-21.575
X-32.815Y-54.815
X-32.69Y-34.24
X-32.64Y-32.19
X-31.415Y-35.64
X-29.7Y-46.025
T2
X-84.285Y-61.065
X-81.745Y-61.065
X-79.205Y-61.065
X-76.665Y-61.065
X-74.125Y-61.065
X-67.895Y-26.66
X-67.895Y-29.2
X-67.895Y-31.74
X-67.895Y-34.28
X-67.895Y-36.82
X-67.895Y-39.36
X-67.895Y-41.9
X-67.895Y-44.44
T3
X-63.045Y-50.465
X-60.865Y-36.285
X-60.865Y-38.825
X-60.865Y-41.365
X-60.505Y-50.465
X-57.965Y-50.465
X-51.405Y-50.52
X-48.865Y-50.52
X-46.325Y-50.52
X-40.005Y-50.52
X-37.465Y-50.52
X-34.925Y-50.52
X-27.045Y-22.325
X-27.045Y-24.865
X-27.045Y-27.405
X-27.045Y-41.025
X-27.045Y-43.565
X-27.045Y-46.105
T4
X-69.305Y-59.365
X-66.765Y-59.365
X-61.805Y-59.265
X-59.265Y-59.265
X-53.805Y-59.265
X-51.265Y-59.265
X-45.805Y-59.265
X-43.265Y-59.265
X-38.305Y-59.465
X-35.765Y-59.465
X-27.165Y-58.325
X-27.165Y-60.865
X-27.145Y-51.565
X-27.145Y-54.105
X-26.945Y-32.625
X-26.945Y-35.165
M30
