%TF.GenerationSoftware,KiCad,Pcbnew,8.0.5-8.0.5-0~ubuntu22.04.1*%
%TF.CreationDate,2025-05-20T11:09:24+05:30*%
%TF.ProjectId,esp32_nichrome_wire,65737033-325f-46e6-9963-68726f6d655f,rev?*%
%TF.SameCoordinates,Original*%
%TF.FileFunction,Copper,L1,Top*%
%TF.FilePolarity,Positive*%
%FSLAX46Y46*%
G04 Gerber Fmt 4.6, Leading zero omitted, Abs format (unit mm)*
G04 Created by KiCad (PCBNEW 8.0.5-8.0.5-0~ubuntu22.04.1) date 2025-05-20 11:09:24*
%MOMM*%
%LPD*%
G01*
G04 APERTURE LIST*
G04 Aperture macros list*
%AMRoundRect*
0 Rectangle with rounded corners*
0 $1 Rounding radius*
0 $2 $3 $4 $5 $6 $7 $8 $9 X,Y pos of 4 corners*
0 Add a 4 corners polygon primitive as box body*
4,1,4,$2,$3,$4,$5,$6,$7,$8,$9,$2,$3,0*
0 Add four circle primitives for the rounded corners*
1,1,$1+$1,$2,$3*
1,1,$1+$1,$4,$5*
1,1,$1+$1,$6,$7*
1,1,$1+$1,$8,$9*
0 Add four rect primitives between the rounded corners*
20,1,$1+$1,$2,$3,$4,$5,0*
20,1,$1+$1,$4,$5,$6,$7,0*
20,1,$1+$1,$6,$7,$8,$9,0*
20,1,$1+$1,$8,$9,$2,$3,0*%
G04 Aperture macros list end*
%TA.AperFunction,ComponentPad*%
%ADD10RoundRect,0.250000X-0.620000X-0.845000X0.620000X-0.845000X0.620000X0.845000X-0.620000X0.845000X0*%
%TD*%
%TA.AperFunction,ComponentPad*%
%ADD11O,1.740000X2.190000*%
%TD*%
%TA.AperFunction,ComponentPad*%
%ADD12R,1.905000X2.000000*%
%TD*%
%TA.AperFunction,ComponentPad*%
%ADD13O,1.905000X2.000000*%
%TD*%
%TA.AperFunction,SMDPad,CuDef*%
%ADD14RoundRect,0.250000X-0.412500X-0.650000X0.412500X-0.650000X0.412500X0.650000X-0.412500X0.650000X0*%
%TD*%
%TA.AperFunction,SMDPad,CuDef*%
%ADD15RoundRect,0.250000X-0.312500X-0.625000X0.312500X-0.625000X0.312500X0.625000X-0.312500X0.625000X0*%
%TD*%
%TA.AperFunction,ComponentPad*%
%ADD16RoundRect,0.250000X0.845000X-0.620000X0.845000X0.620000X-0.845000X0.620000X-0.845000X-0.620000X0*%
%TD*%
%TA.AperFunction,ComponentPad*%
%ADD17O,2.190000X1.740000*%
%TD*%
%TA.AperFunction,SMDPad,CuDef*%
%ADD18RoundRect,0.250000X0.312500X0.625000X-0.312500X0.625000X-0.312500X-0.625000X0.312500X-0.625000X0*%
%TD*%
%TA.AperFunction,SMDPad,CuDef*%
%ADD19RoundRect,0.375000X-0.625000X-0.375000X0.625000X-0.375000X0.625000X0.375000X-0.625000X0.375000X0*%
%TD*%
%TA.AperFunction,SMDPad,CuDef*%
%ADD20RoundRect,0.500000X-0.500000X-1.400000X0.500000X-1.400000X0.500000X1.400000X-0.500000X1.400000X0*%
%TD*%
%TA.AperFunction,SMDPad,CuDef*%
%ADD21RoundRect,0.250000X-0.650000X0.412500X-0.650000X-0.412500X0.650000X-0.412500X0.650000X0.412500X0*%
%TD*%
%TA.AperFunction,ComponentPad*%
%ADD22R,2.000000X1.905000*%
%TD*%
%TA.AperFunction,ComponentPad*%
%ADD23O,2.000000X1.905000*%
%TD*%
%TA.AperFunction,SMDPad,CuDef*%
%ADD24RoundRect,0.250000X0.625000X-0.312500X0.625000X0.312500X-0.625000X0.312500X-0.625000X-0.312500X0*%
%TD*%
%TA.AperFunction,SMDPad,CuDef*%
%ADD25R,1.700000X0.900000*%
%TD*%
%TA.AperFunction,SMDPad,CuDef*%
%ADD26RoundRect,0.250000X-0.625000X0.312500X-0.625000X-0.312500X0.625000X-0.312500X0.625000X0.312500X0*%
%TD*%
%TA.AperFunction,SMDPad,CuDef*%
%ADD27RoundRect,0.250000X0.650000X-0.412500X0.650000X0.412500X-0.650000X0.412500X-0.650000X-0.412500X0*%
%TD*%
%TA.AperFunction,ComponentPad*%
%ADD28R,1.700000X1.700000*%
%TD*%
%TA.AperFunction,ComponentPad*%
%ADD29O,1.700000X1.700000*%
%TD*%
%TA.AperFunction,SMDPad,CuDef*%
%ADD30R,1.500000X0.900000*%
%TD*%
%TA.AperFunction,SMDPad,CuDef*%
%ADD31R,0.900000X1.500000*%
%TD*%
%TA.AperFunction,SMDPad,CuDef*%
%ADD32R,1.050000X1.050000*%
%TD*%
%TA.AperFunction,SMDPad,CuDef*%
%ADD33R,4.200000X4.200000*%
%TD*%
%TA.AperFunction,SMDPad,CuDef*%
%ADD34RoundRect,0.250000X0.375000X0.625000X-0.375000X0.625000X-0.375000X-0.625000X0.375000X-0.625000X0*%
%TD*%
%TA.AperFunction,ViaPad*%
%ADD35C,1.000000*%
%TD*%
%TA.AperFunction,Conductor*%
%ADD36C,1.000000*%
%TD*%
%TA.AperFunction,Conductor*%
%ADD37C,0.500000*%
%TD*%
%TA.AperFunction,Conductor*%
%ADD38C,0.600000*%
%TD*%
G04 APERTURE END LIST*
D10*
%TO.P,J3,1,Pin_1*%
%TO.N,+5V*%
X-69305000Y-59365000D03*
D11*
%TO.P,J3,2,Pin_2*%
%TO.N,OUT_2*%
X-66765000Y-59365000D03*
%TD*%
D12*
%TO.P,Q4,1,G*%
%TO.N,Net-(Q4-G)*%
X-46325000Y-50520000D03*
D13*
%TO.P,Q4,2,D*%
%TO.N,OUT_6*%
X-48865000Y-50520000D03*
%TO.P,Q4,3,S*%
%TO.N,GNDREF*%
X-51405000Y-50520000D03*
%TD*%
D14*
%TO.P,C2,1*%
%TO.N,Net-(SW2A-A)*%
X-36190000Y-37765000D03*
%TO.P,C2,2*%
%TO.N,GNDREF*%
X-33065000Y-37765000D03*
%TD*%
D10*
%TO.P,J9,1,Pin_1*%
%TO.N,GNDREF*%
X-61805000Y-59265000D03*
D11*
%TO.P,J9,2,Pin_2*%
%TO.N,EXTRA_2*%
X-59265000Y-59265000D03*
%TD*%
D15*
%TO.P,R7,1*%
%TO.N,WIRE_5*%
X-37927500Y-46165000D03*
%TO.P,R7,2*%
%TO.N,Net-(Q3-G)*%
X-35002500Y-46165000D03*
%TD*%
D16*
%TO.P,J5,1,Pin_1*%
%TO.N,+5V*%
X-27145000Y-54105000D03*
D17*
%TO.P,J5,2,Pin_2*%
%TO.N,OUT_4*%
X-27145000Y-51565000D03*
%TD*%
D18*
%TO.P,R4,1*%
%TO.N,GNDREF*%
X-29840000Y-43465000D03*
%TO.P,R4,2*%
%TO.N,WIRE_4*%
X-32765000Y-43465000D03*
%TD*%
D19*
%TO.P,U2,1,ADJ*%
%TO.N,GNDREF*%
X-78615000Y-49965000D03*
%TO.P,U2,2,VO*%
%TO.N,+3V3*%
X-78615000Y-52265000D03*
D20*
X-72315000Y-52265000D03*
D19*
%TO.P,U2,3,VI*%
%TO.N,+5V*%
X-78615000Y-54565000D03*
%TD*%
D12*
%TO.P,Q6,1,G*%
%TO.N,Net-(Q6-G)*%
X-57965000Y-50465000D03*
D13*
%TO.P,Q6,2,D*%
%TO.N,OUT_2*%
X-60505000Y-50465000D03*
%TO.P,Q6,3,S*%
%TO.N,GNDREF*%
X-63045000Y-50465000D03*
%TD*%
D15*
%TO.P,R15,1*%
%TO.N,+3V3*%
X-32562500Y-29450000D03*
%TO.P,R15,2*%
%TO.N,Net-(SW2A-A)*%
X-29637500Y-29450000D03*
%TD*%
D10*
%TO.P,J7,1,Pin_1*%
%TO.N,+5V*%
X-45805000Y-59265000D03*
D11*
%TO.P,J7,2,Pin_2*%
%TO.N,OUT_6*%
X-43265000Y-59265000D03*
%TD*%
D21*
%TO.P,C4,1*%
%TO.N,GNDREF*%
X-86665000Y-49802500D03*
%TO.P,C4,2*%
%TO.N,+3V3*%
X-86665000Y-52927500D03*
%TD*%
D15*
%TO.P,R9,1*%
%TO.N,WIRE_6*%
X-49127500Y-46165000D03*
%TO.P,R9,2*%
%TO.N,Net-(Q4-G)*%
X-46202500Y-46165000D03*
%TD*%
D22*
%TO.P,Q2,1,G*%
%TO.N,Net-(Q2-G)*%
X-27045000Y-41025000D03*
D23*
%TO.P,Q2,2,D*%
%TO.N,OUT_4*%
X-27045000Y-43565000D03*
%TO.P,Q2,3,S*%
%TO.N,GNDREF*%
X-27045000Y-46105000D03*
%TD*%
D18*
%TO.P,R8,1*%
%TO.N,GNDREF*%
X-46240000Y-43465000D03*
%TO.P,R8,2*%
%TO.N,WIRE_6*%
X-49165000Y-43465000D03*
%TD*%
D15*
%TO.P,R5,1*%
%TO.N,WIRE_4*%
X-32690000Y-40965000D03*
%TO.P,R5,2*%
%TO.N,Net-(Q2-G)*%
X-29765000Y-40965000D03*
%TD*%
D16*
%TO.P,J4,1,Pin_1*%
%TO.N,+5V*%
X-26945000Y-35165000D03*
D17*
%TO.P,J4,2,Pin_2*%
%TO.N,OUT_3*%
X-26945000Y-32625000D03*
%TD*%
D24*
%TO.P,R12,1*%
%TO.N,GNDREF*%
X-51565000Y-47427500D03*
%TO.P,R12,2*%
%TO.N,WIRE_2*%
X-51565000Y-44502500D03*
%TD*%
D25*
%TO.P,SW2,1,A*%
%TO.N,Net-(SW2A-A)*%
X-34265000Y-23300000D03*
%TO.P,SW2,2,B*%
%TO.N,GNDREF*%
X-34265000Y-19900000D03*
%TD*%
D26*
%TO.P,R10,1*%
%TO.N,GNDREF*%
X-54265000Y-41202500D03*
%TO.P,R10,2*%
%TO.N,WIRE_1*%
X-54265000Y-44127500D03*
%TD*%
D22*
%TO.P,Q5,1,G*%
%TO.N,Net-(Q5-G)*%
X-60865000Y-41365000D03*
D23*
%TO.P,Q5,2,D*%
%TO.N,OUT_1*%
X-60865000Y-38825000D03*
%TO.P,Q5,3,S*%
%TO.N,GNDREF*%
X-60865000Y-36285000D03*
%TD*%
D25*
%TO.P,SW1,1,A*%
%TO.N,GNDREF*%
X-60065000Y-20165000D03*
%TO.P,SW1,2,B*%
%TO.N,Net-(SW1A-B)*%
X-60065000Y-23565000D03*
%TD*%
D15*
%TO.P,R14,1*%
%TO.N,+3V3*%
X-87215000Y-55365000D03*
%TO.P,R14,2*%
%TO.N,Net-(D1-A)*%
X-84290000Y-55365000D03*
%TD*%
D27*
%TO.P,C3,1*%
%TO.N,GNDREF*%
X-81665000Y-57627500D03*
%TO.P,C3,2*%
%TO.N,+5V*%
X-81665000Y-54502500D03*
%TD*%
D10*
%TO.P,J2,1,Pin_1*%
%TO.N,+5V*%
X-53805000Y-59265000D03*
D11*
%TO.P,J2,2,Pin_2*%
%TO.N,OUT_1*%
X-51265000Y-59265000D03*
%TD*%
D15*
%TO.P,R2,1*%
%TO.N,WIRE_3*%
X-35090000Y-25765000D03*
%TO.P,R2,2*%
%TO.N,Net-(Q1-G)*%
X-32165000Y-25765000D03*
%TD*%
D12*
%TO.P,Q3,1,G*%
%TO.N,Net-(Q3-G)*%
X-34925000Y-50520000D03*
D13*
%TO.P,Q3,2,D*%
%TO.N,OUT_5*%
X-37465000Y-50520000D03*
%TO.P,Q3,3,S*%
%TO.N,GNDREF*%
X-40005000Y-50520000D03*
%TD*%
D24*
%TO.P,R11,1*%
%TO.N,WIRE_1*%
X-56965000Y-44190000D03*
%TO.P,R11,2*%
%TO.N,Net-(Q5-G)*%
X-56965000Y-41265000D03*
%TD*%
D15*
%TO.P,R1,1*%
%TO.N,+3V3*%
X-62427500Y-29465000D03*
%TO.P,R1,2*%
%TO.N,Net-(SW1A-B)*%
X-59502500Y-29465000D03*
%TD*%
D18*
%TO.P,R6,1*%
%TO.N,GNDREF*%
X-35002500Y-43465000D03*
%TO.P,R6,2*%
%TO.N,WIRE_5*%
X-37927500Y-43465000D03*
%TD*%
D10*
%TO.P,J6,1,Pin_1*%
%TO.N,+5V*%
X-38305000Y-59465000D03*
D11*
%TO.P,J6,2,Pin_2*%
%TO.N,OUT_5*%
X-35765000Y-59465000D03*
%TD*%
D24*
%TO.P,R3,1*%
%TO.N,GNDREF*%
X-34765000Y-30827500D03*
%TO.P,R3,2*%
%TO.N,WIRE_3*%
X-34765000Y-27902500D03*
%TD*%
D16*
%TO.P,J8,1,Pin_1*%
%TO.N,GNDREF*%
X-27165000Y-60865000D03*
D17*
%TO.P,J8,2,Pin_2*%
%TO.N,EXTRA_1*%
X-27165000Y-58325000D03*
%TD*%
D28*
%TO.P,U3,1,GND*%
%TO.N,GNDREF*%
X-67895000Y-44440000D03*
D29*
%TO.P,U3,2,VBUS*%
%TO.N,+5V*%
X-67895000Y-41900000D03*
%TO.P,U3,3,SVD2*%
%TO.N,unconnected-(U3-SVD2-Pad3)*%
X-67895000Y-39360000D03*
%TO.P,U3,4,CC1*%
%TO.N,unconnected-(U3-CC1-Pad4)*%
X-67895000Y-36820000D03*
%TO.P,U3,5,D-*%
%TO.N,unconnected-(U3-D--Pad5)*%
X-67895000Y-34280000D03*
%TO.P,U3,6,D+*%
%TO.N,unconnected-(U3-D+-Pad6)*%
X-67895000Y-31740000D03*
%TO.P,U3,7,SVD1*%
%TO.N,unconnected-(U3-SVD1-Pad7)*%
X-67895000Y-29200000D03*
%TO.P,U3,8,CC2*%
%TO.N,unconnected-(U3-CC2-Pad8)*%
X-67895000Y-26660000D03*
%TD*%
D22*
%TO.P,Q1,1,G*%
%TO.N,Net-(Q1-G)*%
X-27045000Y-22325000D03*
D23*
%TO.P,Q1,2,D*%
%TO.N,OUT_3*%
X-27045000Y-24865000D03*
%TO.P,Q1,3,S*%
%TO.N,GNDREF*%
X-27045000Y-27405000D03*
%TD*%
D28*
%TO.P,J1,1,Pin_1*%
%TO.N,+5V*%
X-84285000Y-61065000D03*
D29*
%TO.P,J1,2,Pin_2*%
%TO.N,+3V3*%
X-81745000Y-61065000D03*
%TO.P,J1,3,Pin_3*%
%TO.N,GNDREF*%
X-79205000Y-61065000D03*
%TO.P,J1,4,Pin_4*%
%TO.N,UART0_TX*%
X-76665000Y-61065000D03*
%TO.P,J1,5,Pin_5*%
%TO.N,UART0_RX*%
X-74125000Y-61065000D03*
%TD*%
D14*
%TO.P,C1,1*%
%TO.N,GNDREF*%
X-62427500Y-25965000D03*
%TO.P,C1,2*%
%TO.N,Net-(SW1A-B)*%
X-59302500Y-25965000D03*
%TD*%
D30*
%TO.P,U1,1,GND*%
%TO.N,GNDREF*%
X-55955000Y-20705000D03*
%TO.P,U1,2,VDD*%
%TO.N,+3V3*%
X-55955000Y-21975000D03*
%TO.P,U1,3,EN*%
%TO.N,Net-(SW1A-B)*%
X-55955000Y-23245000D03*
%TO.P,U1,4,SENSOR_VP*%
%TO.N,unconnected-(U1-SENSOR_VP-Pad4)*%
X-55955000Y-24515000D03*
%TO.P,U1,5,SENSOR_VN*%
%TO.N,unconnected-(U1-SENSOR_VN-Pad5)*%
X-55955000Y-25785000D03*
%TO.P,U1,6,IO34*%
%TO.N,unconnected-(U1-IO34-Pad6)*%
X-55955000Y-27055000D03*
%TO.P,U1,7,IO35*%
%TO.N,unconnected-(U1-IO35-Pad7)*%
X-55955000Y-28325000D03*
%TO.P,U1,8,IO32*%
%TO.N,EXTRA_2*%
X-55955000Y-29595000D03*
%TO.P,U1,9,IO33*%
%TO.N,unconnected-(U1-IO33-Pad9)*%
X-55955000Y-30865000D03*
%TO.P,U1,10,IO25*%
%TO.N,WIRE_7*%
X-55955000Y-32135000D03*
%TO.P,U1,11,IO26*%
%TO.N,WIRE_6*%
X-55955000Y-33405000D03*
%TO.P,U1,12,IO27*%
%TO.N,EXTRA_1*%
X-55955000Y-34675000D03*
%TO.P,U1,13,IO14*%
%TO.N,unconnected-(U1-IO14-Pad13)*%
X-55955000Y-35945000D03*
%TO.P,U1,14,IO12*%
%TO.N,unconnected-(U1-IO12-Pad14)*%
X-55955000Y-37215000D03*
D31*
%TO.P,U1,15,GND*%
%TO.N,GNDREF*%
X-52915000Y-38465000D03*
%TO.P,U1,16,IO13*%
%TO.N,unconnected-(U1-IO13-Pad16)*%
X-51645000Y-38465000D03*
%TO.P,U1,17,SHD/SD2*%
%TO.N,unconnected-(U1-SHD{slash}SD2-Pad17)*%
X-50375000Y-38465000D03*
%TO.P,U1,18,SWP/SD3*%
%TO.N,unconnected-(U1-SWP{slash}SD3-Pad18)*%
X-49105000Y-38465000D03*
%TO.P,U1,19,SCS/CMD*%
%TO.N,unconnected-(U1-SCS{slash}CMD-Pad19)*%
X-47835000Y-38465000D03*
%TO.P,U1,20,SCK/CLK*%
%TO.N,unconnected-(U1-SCK{slash}CLK-Pad20)*%
X-46565000Y-38465000D03*
%TO.P,U1,21,SDO/SD0*%
%TO.N,unconnected-(U1-SDO{slash}SD0-Pad21)*%
X-45295000Y-38465000D03*
%TO.P,U1,22,SDI/SD1*%
%TO.N,unconnected-(U1-SDI{slash}SD1-Pad22)*%
X-44025000Y-38465000D03*
%TO.P,U1,23,IO15*%
%TO.N,unconnected-(U1-IO15-Pad23)*%
X-42755000Y-38465000D03*
%TO.P,U1,24,IO2*%
%TO.N,unconnected-(U1-IO2-Pad24)*%
X-41485000Y-38465000D03*
D30*
%TO.P,U1,25,IO0*%
%TO.N,Net-(SW2A-A)*%
X-38455000Y-37215000D03*
%TO.P,U1,26,IO4*%
%TO.N,unconnected-(U1-IO4-Pad26)*%
X-38455000Y-35945000D03*
%TO.P,U1,27,IO16*%
%TO.N,unconnected-(U1-IO16-Pad27)*%
X-38455000Y-34675000D03*
%TO.P,U1,28,IO17*%
%TO.N,WIRE_1*%
X-38455000Y-33405000D03*
%TO.P,U1,29,IO5*%
%TO.N,unconnected-(U1-IO5-Pad29)*%
X-38455000Y-32135000D03*
%TO.P,U1,30,IO18*%
%TO.N,WIRE_2*%
X-38455000Y-30865000D03*
%TO.P,U1,31,IO19*%
%TO.N,unconnected-(U1-IO19-Pad31)*%
X-38455000Y-29595000D03*
%TO.P,U1,32,NC*%
%TO.N,unconnected-(U1-NC-Pad32)*%
X-38455000Y-28325000D03*
%TO.P,U1,33,IO21*%
%TO.N,WIRE_3*%
X-38455000Y-27055000D03*
%TO.P,U1,34,RXD0/IO3*%
%TO.N,UART0_RX*%
X-38455000Y-25785000D03*
%TO.P,U1,35,TXD0/IO1*%
%TO.N,UART0_TX*%
X-38455000Y-24515000D03*
%TO.P,U1,36,IO22*%
%TO.N,WIRE_4*%
X-38455000Y-23245000D03*
%TO.P,U1,37,IO23*%
%TO.N,WIRE_5*%
X-38455000Y-21975000D03*
%TO.P,U1,38,GND*%
%TO.N,GNDREF*%
X-38455000Y-20705000D03*
D32*
%TO.P,U1,39,GND*%
X-49410000Y-26520000D03*
X-49410000Y-28045000D03*
X-49410000Y-29570000D03*
X-47885000Y-26520000D03*
X-47885000Y-28045000D03*
D33*
X-47885000Y-28045000D03*
D32*
X-47885000Y-29570000D03*
X-46360000Y-26520000D03*
X-46360000Y-28045000D03*
X-46360000Y-29570000D03*
%TD*%
D18*
%TO.P,R13,1*%
%TO.N,WIRE_2*%
X-54840000Y-47065000D03*
%TO.P,R13,2*%
%TO.N,Net-(Q6-G)*%
X-57765000Y-47065000D03*
%TD*%
D34*
%TO.P,D1,1,K*%
%TO.N,GNDREF*%
X-84315000Y-57890000D03*
%TO.P,D1,2,A*%
%TO.N,Net-(D1-A)*%
X-87115000Y-57890000D03*
%TD*%
D35*
%TO.N,WIRE_5*%
X-37900000Y-40975000D03*
X-42275000Y-35525000D03*
%TO.N,GNDREF*%
X-51765000Y-30065000D03*
X-69665000Y-21140000D03*
X-58815000Y-42665000D03*
X-57725000Y-20225000D03*
X-86890000Y-46015000D03*
X-78965000Y-46790000D03*
X-65190000Y-31690000D03*
%TO.N,Net-(SW2A-A)*%
X-31415000Y-35640000D03*
X-34265000Y-21575000D03*
%TO.N,+3V3*%
X-47700000Y-20525000D03*
X-81640000Y-51290000D03*
X-36500000Y-28725000D03*
%TO.N,UART0_RX*%
X-41265000Y-27440000D03*
%TO.N,UART0_TX*%
X-40490000Y-24390000D03*
%TO.N,OUT_1*%
X-68090000Y-51515000D03*
%TO.N,EXTRA_1*%
X-32815000Y-54815000D03*
X-46140000Y-34690000D03*
%TO.N,EXTRA_2*%
X-62115000Y-31440000D03*
X-54790000Y-49965000D03*
%TO.N,WIRE_4*%
X-43240000Y-32765000D03*
X-29700000Y-46025000D03*
%TO.N,WIRE_1*%
X-32690000Y-34240000D03*
X-52296250Y-42158750D03*
%TO.N,WIRE_2*%
X-58940000Y-45315000D03*
X-32640000Y-32190000D03*
%TD*%
D36*
%TO.N,+5V*%
X-69305000Y-59365000D02*
X-69975000Y-58695000D01*
X-69975000Y-58695000D02*
X-69975000Y-48080000D01*
X-69975000Y-48080000D02*
X-70440000Y-47615000D01*
X-70440000Y-47615000D02*
X-70440000Y-43242919D01*
X-70440000Y-43242919D02*
X-69097081Y-41900000D01*
X-69097081Y-41900000D02*
X-67895000Y-41900000D01*
D37*
%TO.N,WIRE_2*%
X-54840000Y-47065000D02*
X-56480000Y-45425000D01*
X-56480000Y-45425000D02*
X-58830000Y-45425000D01*
X-58830000Y-45425000D02*
X-58940000Y-45315000D01*
%TO.N,WIRE_6*%
X-55955000Y-33405000D02*
X-57730000Y-33405000D01*
X-58190000Y-33865000D02*
X-58190000Y-37760000D01*
X-57730000Y-33405000D02*
X-58190000Y-33865000D01*
X-58190000Y-37760000D02*
X-56075000Y-39875000D01*
X-56075000Y-39875000D02*
X-50400000Y-39875000D01*
X-49165000Y-41110000D02*
X-49165000Y-43465000D01*
X-50400000Y-39875000D02*
X-49165000Y-41110000D01*
D38*
%TO.N,Net-(SW2A-A)*%
X-34265000Y-23300000D02*
X-34265000Y-21575000D01*
D37*
%TO.N,WIRE_5*%
X-44540000Y-33235000D02*
X-42275000Y-35500000D01*
X-42275000Y-35500000D02*
X-42275000Y-35525000D01*
X-37927500Y-43465000D02*
X-37927500Y-41002500D01*
X-37927500Y-41002500D02*
X-37900000Y-40975000D01*
X-38455000Y-21975000D02*
X-41775000Y-21975000D01*
X-41775000Y-21975000D02*
X-44540000Y-24740000D01*
X-44540000Y-24740000D02*
X-44540000Y-33235000D01*
%TO.N,Net-(SW1A-B)*%
X-55955000Y-23245000D02*
X-59745000Y-23245000D01*
X-59302500Y-29265000D02*
X-59502500Y-29465000D01*
X-60065000Y-23565000D02*
X-60065000Y-25202500D01*
X-59302500Y-25965000D02*
X-59302500Y-29265000D01*
X-60065000Y-25202500D02*
X-59302500Y-25965000D01*
X-59745000Y-23245000D02*
X-60065000Y-23565000D01*
%TO.N,Net-(SW2A-A)*%
X-31415000Y-35640000D02*
X-31415000Y-35440000D01*
X-36740000Y-37215000D02*
X-36190000Y-37765000D01*
X-36190000Y-37765000D02*
X-36190000Y-36315000D01*
X-38455000Y-37215000D02*
X-36740000Y-37215000D01*
X-35765000Y-35890000D02*
X-31665000Y-35890000D01*
X-36190000Y-36315000D02*
X-35765000Y-35890000D01*
X-29637500Y-33662500D02*
X-29637500Y-29450000D01*
X-31665000Y-35890000D02*
X-31415000Y-35640000D01*
X-31415000Y-35440000D02*
X-29637500Y-33662500D01*
D36*
%TO.N,+5V*%
X-78677500Y-54502500D02*
X-78615000Y-54565000D01*
D37*
X-78590000Y-56790000D02*
X-78615000Y-56765000D01*
D36*
X-81665000Y-54502500D02*
X-78677500Y-54502500D01*
D37*
X-78890000Y-58015000D02*
X-78127500Y-57252500D01*
X-80190000Y-59315000D02*
X-78890000Y-58015000D01*
D36*
X-78615000Y-54565000D02*
X-78615000Y-56765000D01*
D37*
X-83240000Y-59315000D02*
X-80190000Y-59315000D01*
X-78590000Y-57715000D02*
X-78590000Y-56790000D01*
X-78590000Y-57715000D02*
X-77665000Y-57715000D01*
X-84285000Y-60360000D02*
X-83240000Y-59315000D01*
X-84285000Y-61065000D02*
X-84285000Y-60360000D01*
D36*
X-70140000Y-57715000D02*
X-69305000Y-58550000D01*
D37*
X-78890000Y-58015000D02*
X-78590000Y-57715000D01*
D36*
X-69305000Y-58550000D02*
X-69305000Y-59365000D01*
X-77665000Y-57715000D02*
X-70140000Y-57715000D01*
X-78615000Y-56765000D02*
X-78127500Y-57252500D01*
X-78127500Y-57252500D02*
X-77665000Y-57715000D01*
D37*
%TO.N,+3V3*%
X-65118193Y-24865000D02*
X-64715000Y-24461807D01*
X-84440000Y-52927500D02*
X-83740000Y-52927500D01*
X-81165000Y-52927500D02*
X-79277500Y-52927500D01*
X-84415000Y-52927500D02*
X-84440000Y-52927500D01*
X-83915000Y-52427500D02*
X-84415000Y-52927500D01*
D38*
X-35975000Y-29450000D02*
X-36425000Y-29000000D01*
D37*
X-65265000Y-24461807D02*
X-65840000Y-24461807D01*
X-75815000Y-52265000D02*
X-75465000Y-52265000D01*
X-86665000Y-53890000D02*
X-87215000Y-54440000D01*
X-83915000Y-30565000D02*
X-83915000Y-52240000D01*
X-65436807Y-24865000D02*
X-65840000Y-24461807D01*
X-83740000Y-52927500D02*
X-83415000Y-52927500D01*
X-65265000Y-24865000D02*
X-65265000Y-24461807D01*
X-53150000Y-20550000D02*
X-47600000Y-20550000D01*
X-75140000Y-52265000D02*
X-75090000Y-52265000D01*
X-81640000Y-52515000D02*
X-81640000Y-52852500D01*
X-75465000Y-52590000D02*
X-75465000Y-52265000D01*
X-65265000Y-24865000D02*
X-65436807Y-24865000D01*
X-81927500Y-52515000D02*
X-82340000Y-52927500D01*
X-81640000Y-52515000D02*
X-81927500Y-52515000D01*
X-65265000Y-24865000D02*
X-65118193Y-24865000D01*
X-61500000Y-21975000D02*
X-63986807Y-24461807D01*
X-55955000Y-21975000D02*
X-54575000Y-21975000D01*
X-62427500Y-29465000D02*
X-64565000Y-29465000D01*
X-54575000Y-21975000D02*
X-53325000Y-20725000D01*
X-75465000Y-52265000D02*
X-75090000Y-52265000D01*
X-75790000Y-52265000D02*
X-75815000Y-52265000D01*
X-78615000Y-52265000D02*
X-75815000Y-52265000D01*
X-65840000Y-24461807D02*
X-77811807Y-24461807D01*
X-81640000Y-52515000D02*
X-81577500Y-52515000D01*
D38*
X-32562500Y-29450000D02*
X-35975000Y-29450000D01*
D37*
X-75090000Y-52265000D02*
X-72315000Y-52265000D01*
X-83915000Y-52427500D02*
X-83415000Y-52927500D01*
X-82340000Y-52927500D02*
X-81715000Y-52927500D01*
X-75465000Y-52590000D02*
X-75140000Y-52265000D01*
X-79277500Y-52927500D02*
X-78615000Y-52265000D01*
X-81640000Y-52852500D02*
X-81715000Y-52927500D01*
X-77811807Y-24461807D02*
X-83915000Y-30565000D01*
X-83915000Y-52240000D02*
X-83915000Y-52752500D01*
X-83415000Y-52927500D02*
X-82340000Y-52927500D01*
X-55955000Y-21975000D02*
X-61500000Y-21975000D01*
X-63986807Y-24461807D02*
X-64715000Y-24461807D01*
X-65265000Y-28765000D02*
X-65265000Y-24865000D01*
X-81715000Y-52927500D02*
X-81165000Y-52927500D01*
X-64565000Y-29465000D02*
X-65265000Y-28765000D01*
X-64715000Y-24461807D02*
X-65265000Y-24461807D01*
X-86665000Y-52927500D02*
X-86665000Y-53890000D01*
X-75465000Y-52590000D02*
X-75790000Y-52265000D01*
X-81640000Y-51290000D02*
X-81640000Y-52515000D01*
X-83915000Y-52240000D02*
X-83915000Y-52427500D01*
X-81577500Y-52515000D02*
X-81165000Y-52927500D01*
X-87215000Y-54440000D02*
X-87215000Y-55365000D01*
X-83915000Y-52752500D02*
X-83740000Y-52927500D01*
X-53325000Y-20725000D02*
X-53150000Y-20550000D01*
X-86665000Y-52927500D02*
X-84440000Y-52927500D01*
%TO.N,UART0_RX*%
X-41035000Y-25785000D02*
X-41265000Y-26015000D01*
X-38455000Y-25785000D02*
X-41035000Y-25785000D01*
X-41265000Y-26015000D02*
X-41265000Y-27440000D01*
%TO.N,UART0_TX*%
X-40365000Y-24515000D02*
X-40490000Y-24390000D01*
X-38455000Y-24515000D02*
X-40365000Y-24515000D01*
D36*
%TO.N,OUT_1*%
X-64165000Y-39865000D02*
X-64902525Y-40602525D01*
X-63125000Y-38825000D02*
X-64165000Y-39865000D01*
X-68015000Y-49990000D02*
X-68015000Y-51515000D01*
X-68015000Y-49456784D02*
X-68015000Y-49990000D01*
X-64902525Y-40602525D02*
X-64902525Y-45867041D01*
X-68015000Y-51515000D02*
X-68090000Y-51590000D01*
X-64902525Y-45867041D02*
X-64999178Y-46148583D01*
X-65057740Y-46499524D02*
X-68015000Y-49456784D01*
X-64999178Y-46148583D02*
X-65057740Y-46499524D01*
X-60865000Y-38825000D02*
X-63125000Y-38825000D01*
%TO.N,OUT_2*%
X-61840000Y-54565000D02*
X-63315000Y-54565000D01*
X-63315000Y-54565000D02*
X-66765000Y-58015000D01*
X-60505000Y-50465000D02*
X-60505000Y-53230000D01*
X-60505000Y-53230000D02*
X-61840000Y-54565000D01*
X-66765000Y-58015000D02*
X-66765000Y-59365000D01*
%TO.N,OUT_4*%
X-26090000Y-51565000D02*
X-27145000Y-51565000D01*
X-27045000Y-43565000D02*
X-25865000Y-43565000D01*
X-25140000Y-50615000D02*
X-26090000Y-51565000D01*
X-25140000Y-44290000D02*
X-25140000Y-50615000D01*
X-25865000Y-43565000D02*
X-25140000Y-44290000D01*
%TO.N,OUT_5*%
X-37465000Y-50520000D02*
X-37465000Y-53290000D01*
X-35765000Y-54990000D02*
X-35765000Y-59465000D01*
X-37465000Y-53290000D02*
X-35765000Y-54990000D01*
%TO.N,OUT_6*%
X-48065000Y-54765000D02*
X-45670000Y-54765000D01*
X-48865000Y-53965000D02*
X-48065000Y-54765000D01*
X-45670000Y-54765000D02*
X-43265000Y-57170000D01*
X-43265000Y-57170000D02*
X-43265000Y-59265000D01*
X-48865000Y-50520000D02*
X-48865000Y-53965000D01*
D37*
%TO.N,EXTRA_1*%
X-46155000Y-34675000D02*
X-46140000Y-34690000D01*
X-31540000Y-56090000D02*
X-32790000Y-54840000D01*
X-27165000Y-58325000D02*
X-30555000Y-58325000D01*
X-55955000Y-34675000D02*
X-46155000Y-34675000D01*
X-30555000Y-58325000D02*
X-31540000Y-57340000D01*
X-31540000Y-57340000D02*
X-31540000Y-56090000D01*
%TO.N,EXTRA_2*%
X-57120000Y-29595000D02*
X-58965000Y-31440000D01*
X-55955000Y-29595000D02*
X-57120000Y-29595000D01*
X-54790000Y-50590000D02*
X-54790000Y-49990000D01*
X-58965000Y-31440000D02*
X-62115000Y-31440000D01*
X-59265000Y-59265000D02*
X-59265000Y-55065000D01*
X-58215000Y-54015000D02*
X-54790000Y-50590000D01*
X-59265000Y-55065000D02*
X-58215000Y-54015000D01*
%TO.N,Net-(Q1-G)*%
X-31471385Y-25765000D02*
X-28031385Y-22325000D01*
X-28031385Y-22325000D02*
X-27045000Y-22325000D01*
X-32165000Y-25765000D02*
X-31471385Y-25765000D01*
%TO.N,Net-(Q2-G)*%
X-27105000Y-40965000D02*
X-27045000Y-41025000D01*
X-29765000Y-40965000D02*
X-27105000Y-40965000D01*
%TO.N,Net-(Q3-G)*%
X-35002500Y-46165000D02*
X-35002500Y-50442500D01*
X-35002500Y-50442500D02*
X-34925000Y-50520000D01*
%TO.N,Net-(Q4-G)*%
X-46202500Y-46165000D02*
X-46202500Y-50397500D01*
X-46202500Y-50397500D02*
X-46325000Y-50520000D01*
%TO.N,Net-(Q5-G)*%
X-56965000Y-41265000D02*
X-60765000Y-41265000D01*
X-60765000Y-41265000D02*
X-60865000Y-41365000D01*
%TO.N,Net-(Q6-G)*%
X-57765000Y-50265000D02*
X-57965000Y-50465000D01*
X-57765000Y-47065000D02*
X-57765000Y-50265000D01*
%TO.N,WIRE_3*%
X-36380000Y-27055000D02*
X-35090000Y-25765000D01*
X-35090000Y-25765000D02*
X-35090000Y-27577500D01*
X-38455000Y-27055000D02*
X-36380000Y-27055000D01*
X-35090000Y-27577500D02*
X-34765000Y-27902500D01*
%TO.N,WIRE_4*%
X-43240000Y-32765000D02*
X-43265000Y-32740000D01*
X-43265000Y-25165000D02*
X-41345000Y-23245000D01*
X-32690000Y-43390000D02*
X-32765000Y-43465000D01*
X-43265000Y-32740000D02*
X-43265000Y-25165000D01*
X-29665000Y-46065000D02*
X-32265000Y-43465000D01*
X-32690000Y-40965000D02*
X-32690000Y-43390000D01*
X-32265000Y-43465000D02*
X-32765000Y-43465000D01*
X-41345000Y-23245000D02*
X-38455000Y-23245000D01*
%TO.N,WIRE_5*%
X-37927500Y-43465000D02*
X-37927500Y-46165000D01*
%TO.N,WIRE_6*%
X-49165000Y-43465000D02*
X-49165000Y-46127500D01*
X-49165000Y-46127500D02*
X-49127500Y-46165000D01*
%TO.N,WIRE_1*%
X-56902500Y-44127500D02*
X-56965000Y-44190000D01*
X-38455000Y-33405000D02*
X-34725000Y-33405000D01*
X-34725000Y-33405000D02*
X-33915000Y-34215000D01*
X-54265000Y-44127500D02*
X-52296250Y-42158750D01*
X-54265000Y-44127500D02*
X-56902500Y-44127500D01*
X-33915000Y-34215000D02*
X-32765000Y-34215000D01*
X-32765000Y-34215000D02*
X-32740000Y-34190000D01*
%TO.N,WIRE_2*%
X-37205000Y-30865000D02*
X-38455000Y-30865000D01*
X-51565000Y-44502500D02*
X-52277500Y-44502500D01*
X-52277500Y-44502500D02*
X-54840000Y-47065000D01*
X-35890000Y-32180000D02*
X-37205000Y-30865000D01*
X-32650000Y-32180000D02*
X-35890000Y-32180000D01*
X-32640000Y-32190000D02*
X-32650000Y-32180000D01*
%TO.N,Net-(D1-A)*%
X-86815000Y-57890000D02*
X-84290000Y-55365000D01*
X-87115000Y-57890000D02*
X-86815000Y-57890000D01*
%TD*%
%TA.AperFunction,Conductor*%
%TO.N,GNDREF*%
G36*
X-35671961Y-19385185D02*
G01*
X-35626206Y-19437989D01*
X-35615000Y-19489500D01*
X-35615000Y-19650000D01*
X-32915000Y-19650000D01*
X-32915000Y-19489500D01*
X-32895315Y-19422461D01*
X-32842511Y-19376706D01*
X-32791000Y-19365500D01*
X-30918660Y-19365500D01*
X-30851621Y-19385185D01*
X-30805866Y-19437989D01*
X-30795922Y-19507147D01*
X-30824947Y-19570703D01*
X-30883725Y-19608477D01*
X-30892302Y-19610666D01*
X-31030037Y-19640628D01*
X-31030043Y-19640630D01*
X-31030046Y-19640631D01*
X-31159969Y-19689090D01*
X-31298166Y-19740635D01*
X-31549309Y-19877770D01*
X-31549317Y-19877775D01*
X-31778387Y-20049254D01*
X-31778405Y-20049270D01*
X-31980729Y-20251594D01*
X-31980745Y-20251612D01*
X-32152224Y-20480682D01*
X-32152229Y-20480690D01*
X-32284201Y-20722379D01*
X-32289367Y-20731839D01*
X-32389369Y-20999954D01*
X-32389370Y-20999960D01*
X-32389371Y-20999962D01*
X-32446454Y-21262372D01*
X-32450196Y-21279572D01*
X-32460062Y-21417517D01*
X-32470610Y-21564998D01*
X-32470610Y-21565001D01*
X-32470598Y-21565162D01*
X-32450196Y-21850428D01*
X-32389369Y-22130046D01*
X-32289367Y-22398161D01*
X-32152226Y-22649315D01*
X-31980739Y-22878395D01*
X-31778395Y-23080739D01*
X-31549315Y-23252226D01*
X-31298166Y-23389364D01*
X-31298165Y-23389364D01*
X-31298161Y-23389367D01*
X-31030046Y-23489369D01*
X-30750428Y-23550196D01*
X-30617642Y-23559692D01*
X-30552180Y-23584108D01*
X-30510308Y-23640042D01*
X-30505324Y-23709733D01*
X-30538806Y-23771054D01*
X-30934852Y-24167099D01*
X-31271959Y-24504206D01*
X-31333282Y-24537691D01*
X-31402974Y-24532707D01*
X-31424735Y-24522065D01*
X-31533161Y-24455188D01*
X-31533168Y-24455185D01*
X-31617170Y-24427349D01*
X-31699703Y-24400001D01*
X-31699704Y-24400000D01*
X-31802489Y-24389500D01*
X-32527501Y-24389500D01*
X-32527519Y-24389501D01*
X-32630296Y-24400000D01*
X-32630299Y-24400001D01*
X-32796831Y-24455185D01*
X-32796836Y-24455187D01*
X-32837126Y-24480038D01*
X-32946156Y-24547288D01*
X-33070212Y-24671344D01*
X-33162314Y-24820666D01*
X-33217499Y-24987203D01*
X-33228000Y-25089991D01*
X-33227999Y-26440008D01*
X-33217499Y-26542797D01*
X-33162314Y-26709334D01*
X-33070212Y-26858656D01*
X-32946156Y-26982712D01*
X-32796834Y-27074814D01*
X-32630297Y-27129999D01*
X-32527509Y-27140500D01*
X-31802492Y-27140499D01*
X-31802484Y-27140498D01*
X-31802480Y-27140498D01*
X-31699703Y-27129999D01*
X-31699700Y-27129998D01*
X-31533166Y-27074814D01*
X-31383844Y-26982712D01*
X-31259788Y-26858656D01*
X-31167686Y-26709334D01*
X-31112501Y-26542797D01*
X-31112500Y-26542794D01*
X-31105826Y-26477465D01*
X-31079429Y-26412773D01*
X-31051359Y-26386966D01*
X-30992969Y-26347952D01*
X-30992967Y-26347950D01*
X-30992964Y-26347948D01*
X-30992963Y-26347947D01*
X-28401207Y-23756189D01*
X-28339884Y-23722704D01*
X-28270198Y-23727685D01*
X-28259462Y-23731690D01*
X-28203528Y-23773558D01*
X-28179108Y-23839021D01*
X-28193957Y-23907295D01*
X-28202465Y-23920746D01*
X-28335217Y-24103462D01*
X-28415784Y-24261584D01*
X-28439049Y-24307244D01*
X-28509721Y-24524750D01*
X-28509721Y-24524751D01*
X-28509722Y-24524755D01*
X-28545500Y-24750646D01*
X-28545500Y-24979354D01*
X-28509722Y-25205245D01*
X-28509721Y-25205248D01*
X-28509721Y-25205249D01*
X-28480443Y-25295357D01*
X-28439048Y-25422758D01*
X-28335217Y-25626538D01*
X-28200786Y-25811566D01*
X-28039066Y-25973286D01*
X-27954134Y-26034992D01*
X-27911470Y-26090319D01*
X-27905491Y-26159932D01*
X-27938096Y-26221727D01*
X-27954135Y-26235626D01*
X-28038741Y-26297097D01*
X-28038742Y-26297097D01*
X-28200402Y-26458757D01*
X-28334788Y-26643723D01*
X-28438582Y-26847429D01*
X-28509234Y-27064871D01*
X-28523509Y-27155000D01*
X-27535748Y-27155000D01*
X-27557518Y-27192708D01*
X-27595000Y-27332591D01*
X-27595000Y-27477409D01*
X-27557518Y-27617292D01*
X-27535748Y-27655000D01*
X-28523509Y-27655000D01*
X-28509234Y-27745128D01*
X-28438582Y-27962570D01*
X-28334788Y-28166276D01*
X-28200402Y-28351242D01*
X-28038742Y-28512902D01*
X-27853776Y-28647288D01*
X-27650070Y-28751082D01*
X-27432628Y-28821734D01*
X-27295000Y-28843531D01*
X-27295000Y-27895747D01*
X-27257292Y-27917518D01*
X-27117409Y-27955000D01*
X-26972591Y-27955000D01*
X-26832708Y-27917518D01*
X-26795000Y-27895747D01*
X-26795000Y-28843532D01*
X-26657371Y-28821734D01*
X-26439929Y-28751082D01*
X-26236223Y-28647288D01*
X-26051257Y-28512902D01*
X-25889597Y-28351242D01*
X-25755211Y-28166276D01*
X-25651417Y-27962570D01*
X-25580765Y-27745128D01*
X-25566491Y-27655000D01*
X-26554252Y-27655000D01*
X-26532482Y-27617292D01*
X-26495000Y-27477409D01*
X-26495000Y-27332591D01*
X-26532482Y-27192708D01*
X-26554252Y-27155000D01*
X-25566491Y-27155000D01*
X-25580765Y-27064871D01*
X-25651417Y-26847429D01*
X-25755211Y-26643723D01*
X-25889597Y-26458757D01*
X-26051257Y-26297097D01*
X-26135864Y-26235627D01*
X-26178529Y-26180297D01*
X-26184508Y-26110684D01*
X-26151902Y-26048889D01*
X-26135866Y-26034993D01*
X-26050934Y-25973286D01*
X-25889214Y-25811566D01*
X-25754783Y-25626538D01*
X-25723742Y-25565617D01*
X-25650950Y-25422755D01*
X-25580278Y-25205249D01*
X-25580278Y-25205246D01*
X-25549811Y-25012883D01*
X-25544500Y-24979354D01*
X-25544500Y-24750646D01*
X-25548991Y-24722289D01*
X-25580278Y-24524753D01*
X-25580278Y-24524750D01*
X-25650950Y-24307244D01*
X-25754783Y-24103461D01*
X-25860818Y-23957518D01*
X-25887525Y-23920758D01*
X-25911005Y-23854952D01*
X-25895180Y-23786898D01*
X-25845074Y-23738203D01*
X-25830544Y-23731692D01*
X-25802669Y-23721296D01*
X-25802664Y-23721293D01*
X-25687455Y-23635047D01*
X-25687452Y-23635044D01*
X-25601206Y-23519835D01*
X-25601202Y-23519828D01*
X-25550908Y-23384982D01*
X-25544501Y-23325383D01*
X-25544500Y-23325364D01*
X-25544500Y-21324629D01*
X-25544501Y-21324623D01*
X-25550908Y-21265016D01*
X-25601202Y-21130171D01*
X-25601206Y-21130164D01*
X-25687452Y-21014955D01*
X-25687455Y-21014952D01*
X-25802664Y-20928706D01*
X-25802671Y-20928702D01*
X-25937517Y-20878408D01*
X-25937516Y-20878408D01*
X-25997116Y-20872001D01*
X-25997119Y-20872000D01*
X-25997127Y-20872000D01*
X-25997134Y-20872000D01*
X-25997135Y-20872000D01*
X-28092870Y-20872000D01*
X-28092876Y-20872001D01*
X-28152483Y-20878408D01*
X-28287328Y-20928702D01*
X-28287329Y-20928703D01*
X-28287331Y-20928704D01*
X-28327845Y-20959033D01*
X-28373512Y-20993219D01*
X-28438976Y-21017636D01*
X-28507249Y-21002784D01*
X-28556655Y-20953379D01*
X-28564005Y-20937286D01*
X-28640635Y-20731833D01*
X-28777770Y-20480690D01*
X-28777775Y-20480682D01*
X-28949254Y-20251612D01*
X-28949270Y-20251594D01*
X-29151594Y-20049270D01*
X-29151612Y-20049254D01*
X-29380682Y-19877775D01*
X-29380690Y-19877770D01*
X-29631833Y-19740635D01*
X-29631832Y-19740635D01*
X-29899962Y-19640628D01*
X-30037698Y-19610666D01*
X-30099021Y-19577181D01*
X-30132506Y-19515858D01*
X-30127522Y-19446166D01*
X-30085650Y-19390233D01*
X-30020186Y-19365816D01*
X-30011340Y-19365500D01*
X-24389500Y-19365500D01*
X-24322461Y-19385185D01*
X-24276706Y-19437989D01*
X-24265500Y-19489500D01*
X-24265500Y-43450216D01*
X-24285185Y-43517255D01*
X-24337989Y-43563010D01*
X-24407147Y-43572954D01*
X-24470703Y-43543929D01*
X-24477179Y-43537899D01*
X-24502216Y-43512863D01*
X-25087861Y-42927218D01*
X-25157540Y-42857538D01*
X-25227219Y-42787859D01*
X-25391079Y-42678371D01*
X-25391089Y-42678366D01*
X-25474315Y-42643892D01*
X-25519834Y-42625038D01*
X-25519834Y-42625037D01*
X-25573161Y-42602949D01*
X-25573167Y-42602947D01*
X-25669812Y-42583724D01*
X-25673492Y-42582992D01*
X-25735402Y-42550604D01*
X-25769973Y-42489886D01*
X-25766230Y-42420117D01*
X-25725360Y-42363447D01*
X-25723606Y-42362110D01*
X-25687455Y-42335047D01*
X-25687452Y-42335044D01*
X-25601206Y-42219835D01*
X-25601202Y-42219828D01*
X-25550908Y-42084982D01*
X-25544501Y-42025383D01*
X-25544500Y-42025381D01*
X-25544500Y-42025373D01*
X-25544500Y-41028597D01*
X-25544500Y-40024629D01*
X-25544501Y-40024623D01*
X-25550908Y-39965016D01*
X-25601202Y-39830171D01*
X-25601206Y-39830164D01*
X-25687452Y-39714955D01*
X-25687455Y-39714952D01*
X-25802664Y-39628706D01*
X-25802671Y-39628702D01*
X-25937517Y-39578408D01*
X-25937516Y-39578408D01*
X-25997116Y-39572001D01*
X-25997119Y-39572000D01*
X-25997127Y-39572000D01*
X-25997134Y-39572000D01*
X-25997135Y-39572000D01*
X-28092870Y-39572000D01*
X-28092876Y-39572001D01*
X-28152483Y-39578408D01*
X-28287328Y-39628702D01*
X-28287335Y-39628706D01*
X-28402544Y-39714952D01*
X-28402547Y-39714955D01*
X-28488793Y-39830164D01*
X-28488795Y-39830168D01*
X-28488796Y-39830169D01*
X-28539091Y-39965017D01*
X-28539404Y-39967937D01*
X-28540281Y-39970052D01*
X-28540874Y-39972562D01*
X-28541280Y-39972465D01*
X-28566141Y-40032487D01*
X-28623533Y-40072336D01*
X-28693358Y-40074831D01*
X-28753448Y-40039179D01*
X-28768233Y-40019779D01*
X-28859789Y-39871342D01*
X-28983842Y-39747289D01*
X-29133163Y-39655187D01*
X-29133168Y-39655185D01*
X-29217170Y-39627349D01*
X-29299703Y-39600001D01*
X-29299704Y-39600000D01*
X-29402489Y-39589500D01*
X-30127501Y-39589500D01*
X-30127519Y-39589501D01*
X-30230296Y-39600000D01*
X-30230299Y-39600001D01*
X-30396831Y-39655185D01*
X-30396836Y-39655187D01*
X-30437354Y-39680179D01*
X-30546156Y-39747288D01*
X-30670212Y-39871344D01*
X-30762314Y-40020666D01*
X-30817499Y-40187203D01*
X-30828000Y-40289991D01*
X-30827999Y-41640008D01*
X-30817499Y-41742797D01*
X-30762314Y-41909334D01*
X-30670212Y-42058656D01*
X-30638694Y-42090173D01*
X-30605210Y-42151493D01*
X-30610194Y-42221185D01*
X-30638695Y-42265534D01*
X-30744815Y-42371654D01*
X-30836856Y-42520875D01*
X-30836858Y-42520880D01*
X-30892005Y-42687302D01*
X-30892006Y-42687309D01*
X-30902499Y-42790013D01*
X-30902500Y-42790026D01*
X-30902500Y-43215000D01*
X-29714000Y-43215000D01*
X-29646961Y-43234685D01*
X-29601206Y-43287489D01*
X-29590000Y-43339000D01*
X-29590000Y-43591000D01*
X-29609685Y-43658039D01*
X-29662489Y-43703794D01*
X-29714000Y-43715000D01*
X-30902269Y-43715000D01*
X-30969308Y-43695315D01*
X-30989950Y-43678681D01*
X-31665681Y-43002949D01*
X-31699166Y-42941626D01*
X-31702000Y-42915269D01*
X-31702000Y-42789999D01*
X-31702001Y-42789980D01*
X-31712500Y-42687203D01*
X-31712501Y-42687200D01*
X-31767685Y-42520668D01*
X-31767687Y-42520663D01*
X-31859789Y-42371342D01*
X-31890951Y-42340180D01*
X-31924436Y-42278856D01*
X-31919450Y-42209165D01*
X-31890951Y-42164819D01*
X-31861535Y-42135403D01*
X-31784788Y-42058656D01*
X-31701940Y-41924337D01*
X-31692687Y-41909336D01*
X-31692685Y-41909331D01*
X-31686660Y-41891148D01*
X-31637501Y-41742797D01*
X-31637501Y-41742795D01*
X-31637500Y-41742795D01*
X-31627000Y-41640016D01*
X-31627000Y-40289998D01*
X-31627001Y-40289981D01*
X-31637500Y-40187203D01*
X-31637501Y-40187200D01*
X-31692685Y-40020668D01*
X-31692687Y-40020663D01*
X-31784789Y-39871342D01*
X-31908842Y-39747289D01*
X-32058163Y-39655187D01*
X-32058168Y-39655185D01*
X-32142170Y-39627349D01*
X-32224703Y-39600001D01*
X-32224704Y-39600000D01*
X-32327489Y-39589500D01*
X-33052501Y-39589500D01*
X-33052519Y-39589501D01*
X-33155296Y-39600000D01*
X-33155299Y-39600001D01*
X-33321831Y-39655185D01*
X-33321836Y-39655187D01*
X-33362354Y-39680179D01*
X-33471156Y-39747288D01*
X-33595212Y-39871344D01*
X-33687314Y-40020666D01*
X-33742499Y-40187203D01*
X-33753000Y-40289991D01*
X-33752999Y-41640008D01*
X-33742499Y-41742797D01*
X-33687314Y-41909334D01*
X-33595212Y-42058656D01*
X-33568886Y-42084982D01*
X-33564049Y-42089819D01*
X-33530564Y-42151142D01*
X-33535548Y-42220834D01*
X-33564049Y-42265181D01*
X-33670212Y-42371344D01*
X-33762314Y-42520666D01*
X-33766308Y-42532719D01*
X-33806080Y-42590162D01*
X-33870596Y-42616985D01*
X-33939372Y-42604670D01*
X-33990572Y-42557126D01*
X-34001718Y-42532719D01*
X-34005639Y-42520884D01*
X-34005643Y-42520875D01*
X-34097684Y-42371654D01*
X-34221654Y-42247684D01*
X-34370875Y-42155643D01*
X-34370880Y-42155641D01*
X-34537302Y-42100494D01*
X-34537309Y-42100493D01*
X-34640013Y-42090000D01*
X-34752500Y-42090000D01*
X-34752500Y-43591000D01*
X-34772185Y-43658039D01*
X-34824989Y-43703794D01*
X-34876500Y-43715000D01*
X-36064999Y-43715000D01*
X-36064999Y-44139971D01*
X-36064998Y-44139986D01*
X-36054505Y-44242697D01*
X-35999358Y-44409119D01*
X-35999356Y-44409124D01*
X-35907315Y-44558345D01*
X-35783344Y-44682316D01*
X-35783339Y-44682320D01*
X-35739813Y-44709167D01*
X-35693087Y-44761114D01*
X-35681864Y-44830076D01*
X-35709707Y-44894159D01*
X-35739812Y-44920245D01*
X-35783655Y-44947287D01*
X-35783656Y-44947288D01*
X-35907712Y-45071344D01*
X-35999814Y-45220666D01*
X-36054999Y-45387203D01*
X-36065500Y-45489991D01*
X-36065499Y-46840008D01*
X-36054999Y-46942797D01*
X-35999814Y-47109334D01*
X-35907712Y-47258656D01*
X-35846076Y-47320292D01*
X-35789319Y-47377049D01*
X-35755834Y-47438372D01*
X-35753000Y-47464730D01*
X-35753000Y-48895500D01*
X-35772685Y-48962539D01*
X-35825489Y-49008294D01*
X-35876998Y-49019500D01*
X-35925368Y-49019500D01*
X-35925376Y-49019501D01*
X-35984983Y-49025908D01*
X-36119828Y-49076202D01*
X-36119835Y-49076206D01*
X-36235044Y-49162452D01*
X-36235047Y-49162455D01*
X-36321293Y-49277664D01*
X-36321296Y-49277669D01*
X-36331690Y-49305538D01*
X-36373561Y-49361473D01*
X-36439024Y-49385891D01*
X-36507298Y-49371040D01*
X-36520759Y-49362525D01*
X-36703461Y-49229783D01*
X-36907244Y-49125950D01*
X-37124751Y-49055278D01*
X-37310188Y-49025908D01*
X-37350646Y-49019500D01*
X-37579354Y-49019500D01*
X-37619818Y-49025909D01*
X-37805246Y-49055278D01*
X-37805249Y-49055278D01*
X-38022755Y-49125950D01*
X-38166219Y-49199049D01*
X-38226538Y-49229783D01*
X-38411566Y-49364214D01*
X-38573286Y-49525934D01*
X-38626029Y-49598529D01*
X-38634991Y-49610864D01*
X-38690321Y-49653529D01*
X-38759935Y-49659508D01*
X-38821730Y-49626902D01*
X-38835627Y-49610864D01*
X-38897097Y-49526257D01*
X-39058757Y-49364597D01*
X-39243723Y-49230211D01*
X-39447431Y-49126417D01*
X-39664875Y-49055765D01*
X-39754999Y-49041490D01*
X-39755000Y-49041490D01*
X-39755000Y-50029252D01*
X-39792708Y-50007482D01*
X-39932591Y-49970000D01*
X-40077409Y-49970000D01*
X-40217292Y-50007482D01*
X-40255000Y-50029252D01*
X-40255000Y-49041490D01*
X-40345124Y-49055765D01*
X-40562568Y-49126417D01*
X-40766276Y-49230211D01*
X-40951242Y-49364597D01*
X-41112902Y-49526257D01*
X-41247288Y-49711223D01*
X-41351082Y-49914929D01*
X-41421734Y-50132371D01*
X-41443532Y-50270000D01*
X-40495748Y-50270000D01*
X-40517518Y-50307708D01*
X-40555000Y-50447591D01*
X-40555000Y-50592409D01*
X-40517518Y-50732292D01*
X-40495748Y-50770000D01*
X-41443532Y-50770000D01*
X-41421734Y-50907628D01*
X-41351082Y-51125070D01*
X-41247288Y-51328776D01*
X-41112902Y-51513742D01*
X-40951242Y-51675402D01*
X-40766276Y-51809788D01*
X-40562570Y-51913582D01*
X-40345128Y-51984234D01*
X-40255000Y-51998508D01*
X-40255000Y-51010747D01*
X-40217292Y-51032518D01*
X-40077409Y-51070000D01*
X-39932591Y-51070000D01*
X-39792708Y-51032518D01*
X-39755000Y-51010747D01*
X-39755000Y-51998509D01*
X-39664871Y-51984234D01*
X-39447429Y-51913582D01*
X-39243723Y-51809788D01*
X-39058757Y-51675402D01*
X-38897097Y-51513742D01*
X-38897097Y-51513741D01*
X-38835626Y-51429135D01*
X-38780296Y-51386470D01*
X-38710682Y-51380491D01*
X-38648887Y-51413097D01*
X-38634999Y-51429125D01*
X-38573286Y-51514066D01*
X-38520500Y-51566852D01*
X-38501819Y-51585533D01*
X-38468334Y-51646856D01*
X-38465500Y-51673214D01*
X-38465500Y-53191460D01*
X-38465500Y-53388540D01*
X-38427051Y-53581836D01*
X-38418285Y-53602997D01*
X-38418283Y-53603003D01*
X-38362821Y-53736903D01*
X-38351632Y-53763914D01*
X-38242139Y-53927782D01*
X-38102782Y-54067139D01*
X-38102778Y-54067141D01*
X-36801817Y-55368102D01*
X-36768334Y-55429423D01*
X-36765500Y-55455781D01*
X-36765500Y-58244624D01*
X-36785185Y-58311663D01*
X-36837989Y-58357418D01*
X-36907147Y-58367362D01*
X-36970703Y-58338337D01*
X-36995100Y-58306014D01*
X-36996395Y-58306813D01*
X-37013821Y-58278561D01*
X-37083788Y-58165125D01*
X-37092289Y-58151342D01*
X-37216342Y-58027289D01*
X-37365663Y-57935187D01*
X-37365668Y-57935185D01*
X-37449670Y-57907349D01*
X-37532203Y-57880001D01*
X-37532204Y-57880000D01*
X-37634989Y-57869500D01*
X-38975001Y-57869500D01*
X-38975018Y-57869501D01*
X-39077796Y-57880000D01*
X-39077799Y-57880001D01*
X-39244331Y-57935185D01*
X-39244336Y-57935187D01*
X-39271033Y-57951654D01*
X-39393656Y-58027288D01*
X-39517712Y-58151344D01*
X-39609814Y-58300666D01*
X-39664999Y-58467203D01*
X-39675500Y-58569991D01*
X-39675499Y-60360008D01*
X-39664999Y-60462797D01*
X-39609814Y-60629334D01*
X-39517712Y-60778656D01*
X-39393656Y-60902712D01*
X-39244334Y-60994814D01*
X-39077797Y-61049999D01*
X-38975009Y-61060500D01*
X-37634992Y-61060499D01*
X-37634983Y-61060498D01*
X-37634981Y-61060498D01*
X-37532203Y-61049999D01*
X-37532200Y-61049998D01*
X-37365666Y-60994814D01*
X-37216344Y-60902712D01*
X-37092288Y-60778656D01*
X-37000186Y-60629334D01*
X-37000181Y-60629326D01*
X-36999864Y-60628645D01*
X-36999521Y-60628256D01*
X-36996395Y-60623187D01*
X-36995528Y-60623721D01*
X-36953688Y-60576208D01*
X-36886494Y-60557060D01*
X-36819614Y-60577280D01*
X-36799813Y-60593366D01*
X-36657821Y-60735359D01*
X-36483299Y-60862157D01*
X-36291089Y-60960092D01*
X-36085926Y-61026754D01*
X-35991230Y-61041752D01*
X-35872866Y-61060500D01*
X-35872861Y-61060500D01*
X-35657134Y-61060500D01*
X-35523973Y-61039408D01*
X-35444074Y-61026754D01*
X-35238911Y-60960092D01*
X-35046701Y-60862157D01*
X-34872179Y-60735359D01*
X-34719641Y-60582821D01*
X-34592843Y-60408299D01*
X-34494908Y-60216089D01*
X-34428246Y-60010926D01*
X-34422187Y-59972671D01*
X-34394500Y-59797866D01*
X-34394500Y-59132133D01*
X-34428245Y-58919077D01*
X-34494909Y-58713908D01*
X-34592843Y-58521700D01*
X-34703073Y-58369983D01*
X-34719641Y-58347179D01*
X-34719643Y-58347177D01*
X-34719643Y-58347176D01*
X-34728181Y-58338639D01*
X-34761666Y-58277316D01*
X-34764500Y-58250958D01*
X-34764500Y-54891454D01*
X-34779708Y-54815000D01*
X-33820341Y-54815000D01*
X-33801024Y-55011132D01*
X-33743814Y-55199727D01*
X-33650910Y-55373538D01*
X-33525883Y-55525883D01*
X-33373538Y-55650910D01*
X-33315317Y-55682030D01*
X-33231089Y-55727051D01*
X-33199727Y-55743814D01*
X-33011132Y-55801024D01*
X-32921299Y-55809871D01*
X-32856513Y-55836031D01*
X-32845782Y-55845584D01*
X-32326817Y-56364550D01*
X-32293334Y-56425871D01*
X-32290500Y-56452229D01*
X-32290500Y-57413920D01*
X-32280224Y-57465579D01*
X-32261658Y-57558913D01*
X-32205084Y-57695495D01*
X-32183998Y-57727051D01*
X-32183998Y-57727053D01*
X-32178258Y-57735643D01*
X-32122952Y-57818416D01*
X-31033416Y-58907951D01*
X-30910495Y-58990084D01*
X-30773913Y-59046658D01*
X-30726462Y-59056096D01*
X-30628920Y-59075500D01*
X-30628918Y-59075500D01*
X-30481083Y-59075500D01*
X-28601943Y-59075500D01*
X-28534904Y-59095185D01*
X-28501625Y-59126613D01*
X-28435359Y-59217821D01*
X-28292993Y-59360186D01*
X-28259511Y-59421505D01*
X-28264495Y-59491197D01*
X-28306366Y-59547131D01*
X-28328277Y-59560248D01*
X-28329118Y-59560640D01*
X-28478345Y-59652684D01*
X-28602315Y-59776654D01*
X-28694356Y-59925875D01*
X-28694358Y-59925880D01*
X-28749505Y-60092302D01*
X-28749506Y-60092309D01*
X-28759999Y-60195013D01*
X-28760000Y-60195026D01*
X-28760000Y-60615000D01*
X-27707709Y-60615000D01*
X-27719452Y-60635339D01*
X-27760000Y-60786667D01*
X-27760000Y-60943333D01*
X-27719452Y-61094661D01*
X-27707709Y-61115000D01*
X-28759999Y-61115000D01*
X-28759999Y-61534971D01*
X-28759998Y-61534986D01*
X-28749505Y-61637697D01*
X-28694358Y-61804119D01*
X-28694356Y-61804124D01*
X-28602315Y-61953345D01*
X-28478345Y-62077315D01*
X-28329124Y-62169356D01*
X-28329119Y-62169358D01*
X-28162697Y-62224505D01*
X-28162690Y-62224506D01*
X-28059980Y-62234999D01*
X-27415000Y-62234999D01*
X-27415000Y-61407709D01*
X-27394661Y-61419452D01*
X-27243333Y-61460000D01*
X-27086667Y-61460000D01*
X-26935339Y-61419452D01*
X-26915000Y-61407709D01*
X-26915000Y-62234999D01*
X-26270028Y-62234999D01*
X-26270013Y-62234998D01*
X-26167302Y-62224505D01*
X-26000880Y-62169358D01*
X-26000875Y-62169356D01*
X-25851654Y-62077315D01*
X-25727684Y-61953345D01*
X-25635643Y-61804124D01*
X-25635641Y-61804119D01*
X-25580494Y-61637697D01*
X-25580493Y-61637690D01*
X-25570000Y-61534986D01*
X-25570000Y-61115000D01*
X-26622291Y-61115000D01*
X-26610548Y-61094661D01*
X-26570000Y-60943333D01*
X-26570000Y-60786667D01*
X-26610548Y-60635339D01*
X-26622291Y-60615000D01*
X-25570001Y-60615000D01*
X-25570001Y-60195013D01*
X-25580494Y-60092302D01*
X-25635641Y-59925880D01*
X-25635643Y-59925875D01*
X-25727684Y-59776654D01*
X-25851654Y-59652684D01*
X-26000885Y-59560637D01*
X-26001728Y-59560245D01*
X-26002208Y-59559821D01*
X-26007025Y-59556851D01*
X-26006517Y-59556027D01*
X-26054167Y-59514072D01*
X-26073318Y-59446879D01*
X-26053101Y-59379998D01*
X-26037003Y-59360183D01*
X-25894643Y-59217823D01*
X-25894641Y-59217821D01*
X-25767843Y-59043299D01*
X-25669908Y-58851089D01*
X-25603246Y-58645926D01*
X-25598175Y-58613911D01*
X-25569500Y-58432866D01*
X-25569500Y-58217133D01*
X-25603245Y-58004077D01*
X-25669909Y-57798908D01*
X-25767843Y-57606700D01*
X-25856999Y-57483989D01*
X-25894641Y-57432179D01*
X-25894643Y-57432177D01*
X-25894643Y-57432176D01*
X-26047176Y-57279643D01*
X-26221700Y-57152843D01*
X-26413908Y-57054909D01*
X-26619077Y-56988245D01*
X-26832134Y-56954500D01*
X-26832139Y-56954500D01*
X-27497861Y-56954500D01*
X-27497866Y-56954500D01*
X-27710922Y-56988245D01*
X-27710924Y-56988245D01*
X-27710926Y-56988246D01*
X-27916089Y-57054908D01*
X-28108299Y-57152843D01*
X-28282821Y-57279641D01*
X-28435359Y-57432179D01*
X-28501625Y-57523386D01*
X-28556956Y-57566051D01*
X-28601943Y-57574500D01*
X-30192771Y-57574500D01*
X-30259810Y-57554815D01*
X-30280452Y-57538181D01*
X-30753181Y-57065451D01*
X-30786666Y-57004128D01*
X-30789500Y-56977770D01*
X-30789500Y-56016079D01*
X-30789499Y-56016079D01*
X-30818340Y-55871092D01*
X-30818343Y-55871082D01*
X-30874914Y-55734506D01*
X-30874916Y-55734505D01*
X-30913911Y-55676144D01*
X-30913910Y-55676143D01*
X-30957049Y-55611581D01*
X-31784405Y-54784225D01*
X-31817890Y-54722902D01*
X-31820127Y-54708700D01*
X-31828975Y-54618870D01*
X-31886188Y-54430266D01*
X-31979086Y-54256467D01*
X-31979090Y-54256460D01*
X-32104116Y-54104116D01*
X-32256460Y-53979090D01*
X-32256467Y-53979086D01*
X-32430266Y-53886188D01*
X-32618870Y-53828975D01*
X-32815000Y-53809659D01*
X-33011129Y-53828975D01*
X-33011132Y-53828976D01*
X-33199727Y-53886186D01*
X-33199733Y-53886188D01*
X-33373532Y-53979086D01*
X-33373539Y-53979090D01*
X-33525883Y-54104116D01*
X-33650909Y-54256460D01*
X-33650913Y-54256467D01*
X-33743811Y-54430266D01*
X-33743811Y-54430269D01*
X-33743814Y-54430273D01*
X-33801024Y-54618868D01*
X-33820341Y-54815000D01*
X-34779708Y-54815000D01*
X-34802947Y-54698170D01*
X-34802949Y-54698163D01*
X-34806333Y-54689996D01*
X-34806336Y-54689989D01*
X-34806339Y-54689981D01*
X-34843179Y-54601041D01*
X-34849167Y-54586584D01*
X-34878364Y-54516093D01*
X-34878371Y-54516080D01*
X-34987859Y-54352219D01*
X-35083619Y-54256460D01*
X-35127218Y-54212861D01*
X-35127221Y-54212858D01*
X-35789499Y-53550580D01*
X-36428181Y-52911898D01*
X-36461666Y-52850575D01*
X-36464500Y-52824217D01*
X-36464500Y-51943591D01*
X-36444815Y-51876552D01*
X-36392011Y-51830797D01*
X-36322853Y-51820853D01*
X-36259297Y-51849878D01*
X-36241233Y-51869279D01*
X-36235046Y-51877546D01*
X-36119831Y-51963796D01*
X-35984983Y-52014091D01*
X-35925373Y-52020500D01*
X-33924628Y-52020499D01*
X-33876257Y-52015299D01*
X-33865016Y-52014091D01*
X-33730171Y-51963797D01*
X-33730164Y-51963793D01*
X-33614955Y-51877547D01*
X-33614952Y-51877544D01*
X-33528706Y-51762335D01*
X-33528702Y-51762328D01*
X-33478408Y-51627482D01*
X-33472001Y-51567883D01*
X-33472000Y-51567864D01*
X-33472000Y-49472129D01*
X-33472001Y-49472123D01*
X-33478408Y-49412516D01*
X-33528702Y-49277671D01*
X-33528706Y-49277664D01*
X-33614952Y-49162455D01*
X-33614955Y-49162452D01*
X-33730164Y-49076206D01*
X-33730171Y-49076202D01*
X-33865017Y-49025908D01*
X-33865016Y-49025908D01*
X-33924616Y-49019501D01*
X-33924619Y-49019500D01*
X-33924627Y-49019500D01*
X-33924635Y-49019500D01*
X-34128000Y-49019500D01*
X-34195039Y-48999815D01*
X-34240794Y-48947011D01*
X-34252000Y-48895500D01*
X-34252000Y-47955008D01*
X-34232315Y-47887969D01*
X-34179511Y-47842214D01*
X-34110353Y-47832270D01*
X-34046797Y-47861295D01*
X-34028732Y-47880698D01*
X-33880739Y-48078395D01*
X-33678395Y-48280739D01*
X-33449315Y-48452226D01*
X-33198166Y-48589364D01*
X-33198165Y-48589364D01*
X-33198161Y-48589367D01*
X-32930046Y-48689369D01*
X-32930037Y-48689370D01*
X-32930037Y-48689371D01*
X-32650438Y-48750194D01*
X-32650428Y-48750196D01*
X-32393595Y-48768564D01*
X-32365001Y-48770610D01*
X-32365000Y-48770610D01*
X-32364999Y-48770610D01*
X-32333220Y-48768337D01*
X-32079572Y-48750196D01*
X-32079568Y-48750195D01*
X-32079566Y-48750195D01*
X-31799962Y-48689371D01*
X-31799960Y-48689370D01*
X-31799954Y-48689369D01*
X-31531839Y-48589367D01*
X-31531834Y-48589364D01*
X-31531833Y-48589364D01*
X-31280690Y-48452229D01*
X-31280682Y-48452224D01*
X-31051612Y-48280745D01*
X-31051594Y-48280729D01*
X-30849270Y-48078405D01*
X-30849254Y-48078387D01*
X-30677775Y-47849317D01*
X-30677770Y-47849309D01*
X-30540635Y-47598166D01*
X-30539847Y-47596054D01*
X-30440631Y-47330046D01*
X-30440630Y-47330043D01*
X-30440628Y-47330037D01*
X-30379805Y-47050436D01*
X-30379804Y-47050430D01*
X-30375913Y-46996035D01*
X-30351495Y-46930571D01*
X-30295561Y-46888701D01*
X-30225869Y-46883717D01*
X-30193784Y-46895521D01*
X-30084727Y-46953814D01*
X-29896132Y-47011024D01*
X-29700000Y-47030341D01*
X-29503868Y-47011024D01*
X-29315273Y-46953814D01*
X-29315269Y-46953811D01*
X-29315266Y-46953811D01*
X-29141467Y-46860913D01*
X-29141460Y-46860909D01*
X-28989116Y-46735883D01*
X-28864090Y-46583539D01*
X-28864086Y-46583532D01*
X-28771187Y-46409730D01*
X-28759464Y-46371087D01*
X-28721165Y-46312649D01*
X-28657352Y-46284194D01*
X-28588285Y-46294756D01*
X-28535893Y-46340982D01*
X-28518330Y-46387689D01*
X-28509233Y-46445129D01*
X-28438582Y-46662568D01*
X-28334788Y-46866276D01*
X-28200402Y-47051242D01*
X-28038742Y-47212902D01*
X-27853776Y-47347288D01*
X-27650070Y-47451082D01*
X-27432628Y-47521734D01*
X-27295000Y-47543531D01*
X-27295000Y-46595747D01*
X-27257292Y-46617518D01*
X-27117409Y-46655000D01*
X-26972591Y-46655000D01*
X-26832708Y-46617518D01*
X-26795000Y-46595747D01*
X-26795000Y-47543532D01*
X-26657371Y-47521734D01*
X-26439929Y-47451082D01*
X-26320795Y-47390379D01*
X-26252126Y-47377483D01*
X-26187386Y-47403759D01*
X-26147128Y-47460865D01*
X-26140500Y-47500864D01*
X-26140500Y-50149218D01*
X-26160185Y-50216257D01*
X-26176819Y-50236899D01*
X-26224820Y-50284900D01*
X-26286143Y-50318385D01*
X-26355835Y-50313401D01*
X-26368793Y-50307705D01*
X-26393911Y-50294907D01*
X-26393914Y-50294906D01*
X-26599076Y-50228245D01*
X-26812134Y-50194500D01*
X-26812139Y-50194500D01*
X-27477861Y-50194500D01*
X-27477866Y-50194500D01*
X-27690922Y-50228245D01*
X-27690924Y-50228245D01*
X-27690926Y-50228246D01*
X-27896089Y-50294908D01*
X-28088299Y-50392843D01*
X-28262821Y-50519641D01*
X-28415359Y-50672179D01*
X-28542157Y-50846701D01*
X-28640092Y-51038911D01*
X-28706754Y-51244074D01*
X-28708133Y-51252782D01*
X-28740500Y-51457133D01*
X-28740500Y-51672866D01*
X-28724939Y-51771111D01*
X-28706754Y-51885926D01*
X-28640092Y-52091089D01*
X-28542157Y-52283299D01*
X-28415359Y-52457821D01*
X-28273372Y-52599807D01*
X-28239890Y-52661126D01*
X-28244874Y-52730818D01*
X-28286745Y-52786752D01*
X-28308645Y-52799864D01*
X-28309326Y-52800181D01*
X-28309334Y-52800186D01*
X-28458656Y-52892288D01*
X-28582712Y-53016344D01*
X-28674814Y-53165666D01*
X-28729999Y-53332203D01*
X-28740500Y-53434991D01*
X-28740499Y-54775008D01*
X-28729999Y-54877797D01*
X-28674814Y-55044334D01*
X-28582712Y-55193656D01*
X-28458656Y-55317712D01*
X-28309334Y-55409814D01*
X-28142797Y-55464999D01*
X-28040009Y-55475500D01*
X-26249992Y-55475499D01*
X-26249983Y-55475498D01*
X-26249981Y-55475498D01*
X-26147203Y-55464999D01*
X-26147200Y-55464998D01*
X-26119385Y-55455781D01*
X-25980666Y-55409814D01*
X-25831344Y-55317712D01*
X-25707288Y-55193656D01*
X-25624165Y-55058892D01*
X-25615187Y-55044336D01*
X-25615185Y-55044331D01*
X-25588900Y-54965008D01*
X-25560001Y-54877797D01*
X-25560001Y-54877795D01*
X-25560000Y-54877795D01*
X-25549500Y-54775016D01*
X-25549500Y-53434998D01*
X-25549501Y-53434981D01*
X-25560000Y-53332203D01*
X-25560001Y-53332200D01*
X-25615185Y-53165668D01*
X-25615187Y-53165663D01*
X-25707289Y-53016342D01*
X-25831342Y-52892289D01*
X-25980677Y-52800179D01*
X-25981360Y-52799861D01*
X-25981748Y-52799518D01*
X-25986813Y-52796395D01*
X-25986278Y-52795529D01*
X-26033794Y-52753683D01*
X-26052939Y-52686487D01*
X-26032716Y-52619608D01*
X-26016624Y-52599804D01*
X-26006647Y-52589827D01*
X-25945324Y-52556342D01*
X-25943302Y-52555920D01*
X-25831028Y-52533588D01*
X-25798164Y-52527051D01*
X-25753081Y-52508376D01*
X-25735356Y-52501035D01*
X-25735348Y-52501031D01*
X-25735330Y-52501024D01*
X-25671861Y-52474734D01*
X-25616092Y-52451635D01*
X-25616088Y-52451633D01*
X-25616086Y-52451632D01*
X-25616080Y-52451628D01*
X-25452217Y-52342139D01*
X-25309764Y-52199686D01*
X-25309735Y-52199655D01*
X-24506559Y-51396479D01*
X-24506537Y-51396459D01*
X-24477181Y-51367103D01*
X-24415858Y-51333618D01*
X-24346166Y-51338602D01*
X-24290233Y-51380474D01*
X-24265816Y-51445938D01*
X-24265500Y-51454784D01*
X-24265500Y-63240500D01*
X-24285185Y-63307539D01*
X-24337989Y-63353294D01*
X-24389500Y-63364500D01*
X-88140500Y-63364500D01*
X-88207539Y-63344815D01*
X-88253294Y-63292011D01*
X-88264500Y-63240500D01*
X-88264500Y-59101230D01*
X-88244815Y-59034191D01*
X-88192011Y-58988436D01*
X-88122853Y-58978492D01*
X-88059297Y-59007517D01*
X-88052819Y-59013549D01*
X-87958656Y-59107712D01*
X-87809334Y-59199814D01*
X-87642797Y-59254999D01*
X-87540009Y-59265500D01*
X-86689992Y-59265499D01*
X-86689984Y-59265498D01*
X-86689980Y-59265498D01*
X-86587203Y-59254999D01*
X-86587200Y-59254998D01*
X-86585712Y-59254505D01*
X-86420666Y-59199814D01*
X-86271344Y-59107712D01*
X-86147288Y-58983656D01*
X-86065522Y-58851091D01*
X-86055187Y-58834336D01*
X-86055185Y-58834331D01*
X-86039829Y-58787989D01*
X-86000001Y-58667797D01*
X-86000001Y-58667795D01*
X-86000000Y-58667795D01*
X-85989500Y-58565016D01*
X-85989500Y-58177230D01*
X-85969815Y-58110191D01*
X-85953181Y-58089549D01*
X-85539951Y-57676319D01*
X-85478628Y-57642834D01*
X-85452270Y-57640000D01*
X-84189000Y-57640000D01*
X-84121961Y-57659685D01*
X-84076206Y-57712489D01*
X-84065000Y-57764000D01*
X-84065000Y-58016000D01*
X-84084685Y-58083039D01*
X-84137489Y-58128794D01*
X-84189000Y-58140000D01*
X-85439999Y-58140000D01*
X-85439999Y-58564971D01*
X-85439998Y-58564986D01*
X-85429505Y-58667697D01*
X-85374358Y-58834119D01*
X-85374356Y-58834124D01*
X-85282315Y-58983345D01*
X-85158345Y-59107315D01*
X-85009124Y-59199356D01*
X-85009119Y-59199358D01*
X-84842697Y-59254505D01*
X-84842690Y-59254506D01*
X-84739980Y-59264999D01*
X-84550730Y-59264999D01*
X-84483690Y-59284683D01*
X-84437935Y-59337487D01*
X-84427991Y-59406645D01*
X-84457016Y-59470201D01*
X-84463048Y-59476680D01*
X-84664549Y-59678181D01*
X-84725872Y-59711666D01*
X-84752230Y-59714500D01*
X-85182870Y-59714500D01*
X-85182876Y-59714501D01*
X-85242483Y-59720908D01*
X-85377328Y-59771202D01*
X-85377335Y-59771206D01*
X-85492544Y-59857452D01*
X-85492547Y-59857455D01*
X-85578793Y-59972664D01*
X-85578797Y-59972671D01*
X-85598874Y-60026501D01*
X-85629091Y-60107517D01*
X-85635500Y-60167127D01*
X-85635499Y-61962872D01*
X-85629091Y-62022483D01*
X-85578796Y-62157331D01*
X-85492546Y-62272546D01*
X-85377331Y-62358796D01*
X-85242483Y-62409091D01*
X-85182873Y-62415500D01*
X-83387128Y-62415499D01*
X-83338757Y-62410299D01*
X-83327516Y-62409091D01*
X-83192671Y-62358797D01*
X-83192664Y-62358793D01*
X-83077455Y-62272547D01*
X-83077452Y-62272544D01*
X-82991206Y-62157335D01*
X-82991202Y-62157328D01*
X-82942189Y-62025917D01*
X-82900318Y-61969983D01*
X-82834853Y-61945566D01*
X-82766580Y-61960418D01*
X-82738332Y-61981563D01*
X-82616401Y-62103495D01*
X-82422830Y-62239035D01*
X-82208663Y-62338903D01*
X-81980408Y-62400063D01*
X-81803966Y-62415500D01*
X-81745001Y-62420659D01*
X-81745000Y-62420659D01*
X-81744999Y-62420659D01*
X-81686034Y-62415500D01*
X-81509592Y-62400063D01*
X-81281337Y-62338903D01*
X-81067170Y-62239035D01*
X-81067167Y-62239033D01*
X-81067165Y-62239032D01*
X-80967658Y-62169356D01*
X-80873599Y-62103495D01*
X-80706505Y-61936401D01*
X-80576269Y-61750405D01*
X-80521692Y-61706781D01*
X-80452193Y-61699588D01*
X-80389839Y-61731110D01*
X-80373119Y-61750405D01*
X-80243105Y-61936082D01*
X-80076082Y-62103105D01*
X-79882578Y-62238600D01*
X-79668492Y-62338429D01*
X-79668483Y-62338433D01*
X-79455000Y-62395633D01*
X-79455000Y-61498012D01*
X-79397993Y-61530925D01*
X-79270826Y-61565000D01*
X-79139174Y-61565000D01*
X-79012007Y-61530925D01*
X-78955000Y-61498012D01*
X-78955000Y-62395634D01*
X-78741516Y-62338433D01*
X-78741507Y-62338429D01*
X-78527421Y-62238600D01*
X-78333917Y-62103105D01*
X-78166890Y-61936078D01*
X-78036879Y-61750405D01*
X-77982302Y-61706780D01*
X-77912804Y-61699588D01*
X-77850449Y-61731110D01*
X-77833731Y-61750404D01*
X-77703495Y-61936401D01*
X-77536401Y-62103495D01*
X-77342830Y-62239035D01*
X-77128663Y-62338903D01*
X-76900408Y-62400063D01*
X-76723966Y-62415500D01*
X-76665001Y-62420659D01*
X-76665000Y-62420659D01*
X-76664999Y-62420659D01*
X-76606034Y-62415500D01*
X-76429592Y-62400063D01*
X-76201337Y-62338903D01*
X-75987170Y-62239035D01*
X-75987167Y-62239033D01*
X-75987165Y-62239032D01*
X-75887658Y-62169356D01*
X-75793599Y-62103495D01*
X-75626505Y-61936401D01*
X-75626500Y-61936395D01*
X-75496575Y-61750842D01*
X-75441998Y-61707217D01*
X-75372500Y-61700023D01*
X-75310145Y-61731546D01*
X-75293424Y-61750842D01*
X-75163495Y-61936401D01*
X-74996401Y-62103495D01*
X-74802830Y-62239035D01*
X-74588663Y-62338903D01*
X-74360408Y-62400063D01*
X-74183966Y-62415500D01*
X-74125001Y-62420659D01*
X-74125000Y-62420659D01*
X-74124999Y-62420659D01*
X-74066034Y-62415500D01*
X-73889592Y-62400063D01*
X-73661337Y-62338903D01*
X-73447170Y-62239035D01*
X-73447167Y-62239033D01*
X-73447165Y-62239032D01*
X-73347658Y-62169356D01*
X-73253599Y-62103495D01*
X-73086505Y-61936401D01*
X-73059281Y-61897521D01*
X-72950967Y-61742834D01*
X-72950965Y-61742830D01*
X-72901941Y-61637697D01*
X-72851097Y-61528663D01*
X-72851096Y-61528659D01*
X-72851094Y-61528655D01*
X-72789938Y-61300413D01*
X-72789936Y-61300403D01*
X-72769341Y-61065000D01*
X-72769341Y-61064999D01*
X-72789936Y-60829596D01*
X-72789938Y-60829586D01*
X-72851094Y-60601344D01*
X-72851098Y-60601335D01*
X-72950964Y-60387171D01*
X-72950965Y-60387169D01*
X-73086505Y-60193597D01*
X-73253597Y-60026506D01*
X-73253604Y-60026501D01*
X-73447165Y-59890967D01*
X-73447169Y-59890965D01*
X-73661335Y-59791098D01*
X-73661344Y-59791094D01*
X-73889586Y-59729938D01*
X-73889596Y-59729936D01*
X-74124999Y-59709341D01*
X-74125001Y-59709341D01*
X-74360403Y-59729936D01*
X-74360413Y-59729938D01*
X-74588655Y-59791094D01*
X-74588659Y-59791096D01*
X-74588663Y-59791097D01*
X-74649470Y-59819452D01*
X-74802828Y-59890964D01*
X-74802830Y-59890965D01*
X-74996402Y-60026505D01*
X-75163494Y-60193597D01*
X-75293425Y-60379158D01*
X-75348002Y-60422783D01*
X-75417500Y-60429977D01*
X-75479855Y-60398454D01*
X-75496575Y-60379158D01*
X-75626505Y-60193597D01*
X-75793597Y-60026506D01*
X-75793604Y-60026501D01*
X-75987165Y-59890967D01*
X-75987169Y-59890965D01*
X-76201335Y-59791098D01*
X-76201344Y-59791094D01*
X-76429586Y-59729938D01*
X-76429596Y-59729936D01*
X-76664999Y-59709341D01*
X-76665001Y-59709341D01*
X-76900403Y-59729936D01*
X-76900413Y-59729938D01*
X-77128655Y-59791094D01*
X-77128659Y-59791096D01*
X-77128663Y-59791097D01*
X-77189470Y-59819452D01*
X-77342828Y-59890964D01*
X-77342830Y-59890965D01*
X-77536402Y-60026505D01*
X-77703494Y-60193597D01*
X-77833730Y-60379594D01*
X-77888307Y-60423219D01*
X-77957805Y-60430413D01*
X-78020160Y-60398890D01*
X-78036880Y-60379595D01*
X-78166890Y-60193922D01*
X-78166891Y-60193920D01*
X-78333917Y-60026894D01*
X-78527421Y-59891399D01*
X-78741507Y-59791570D01*
X-78741513Y-59791567D01*
X-78954999Y-59734364D01*
X-78955000Y-59734364D01*
X-78955000Y-60631988D01*
X-79012007Y-60599075D01*
X-79139174Y-60565000D01*
X-79270826Y-60565000D01*
X-79397993Y-60599075D01*
X-79455000Y-60631988D01*
X-79455000Y-59692729D01*
X-79435315Y-59625690D01*
X-79418684Y-59605051D01*
X-78418654Y-58605021D01*
X-78418649Y-58605017D01*
X-78376531Y-58562899D01*
X-78315208Y-58529414D01*
X-78245516Y-58534398D01*
X-78219965Y-58547474D01*
X-78138914Y-58601632D01*
X-78031978Y-58645926D01*
X-77956836Y-58677051D01*
X-77887549Y-58690833D01*
X-77846213Y-58699055D01*
X-77763543Y-58715500D01*
X-77763541Y-58715500D01*
X-77763540Y-58715500D01*
X-77566460Y-58715500D01*
X-71092788Y-58715500D01*
X-71025749Y-58735185D01*
X-70979994Y-58787989D01*
X-70971171Y-58815308D01*
X-70950530Y-58919074D01*
X-70937051Y-58986836D01*
X-70918286Y-59032139D01*
X-70861632Y-59168914D01*
X-70752139Y-59332782D01*
X-70725717Y-59359202D01*
X-70711818Y-59373103D01*
X-70678333Y-59434426D01*
X-70675499Y-59460784D01*
X-70675499Y-60260008D01*
X-70664999Y-60362797D01*
X-70609814Y-60529334D01*
X-70517712Y-60678656D01*
X-70393656Y-60802712D01*
X-70244334Y-60894814D01*
X-70077797Y-60949999D01*
X-69975009Y-60960500D01*
X-68634992Y-60960499D01*
X-68634983Y-60960498D01*
X-68634981Y-60960498D01*
X-68532203Y-60949999D01*
X-68532200Y-60949998D01*
X-68365666Y-60894814D01*
X-68216344Y-60802712D01*
X-68092288Y-60678656D01*
X-68000186Y-60529334D01*
X-68000181Y-60529326D01*
X-67999864Y-60528645D01*
X-67999521Y-60528256D01*
X-67996395Y-60523187D01*
X-67995528Y-60523721D01*
X-67953688Y-60476208D01*
X-67886494Y-60457060D01*
X-67819614Y-60477280D01*
X-67799813Y-60493366D01*
X-67657821Y-60635359D01*
X-67483299Y-60762157D01*
X-67291089Y-60860092D01*
X-67085926Y-60926754D01*
X-66991230Y-60941752D01*
X-66872866Y-60960500D01*
X-66872861Y-60960500D01*
X-66657134Y-60960500D01*
X-66523973Y-60939408D01*
X-66444074Y-60926754D01*
X-66238911Y-60860092D01*
X-66046701Y-60762157D01*
X-65872179Y-60635359D01*
X-65719641Y-60482821D01*
X-65592843Y-60308299D01*
X-65494908Y-60116089D01*
X-65428246Y-59910926D01*
X-65425153Y-59891399D01*
X-65394500Y-59697866D01*
X-65394500Y-59032133D01*
X-65428245Y-58819077D01*
X-65462417Y-58713908D01*
X-65494908Y-58613911D01*
X-65494908Y-58613910D01*
X-65494909Y-58613908D01*
X-65592844Y-58421699D01*
X-65599584Y-58412422D01*
X-65623059Y-58346614D01*
X-65607230Y-58278561D01*
X-65586942Y-58251862D01*
X-62936899Y-55601819D01*
X-62875576Y-55568334D01*
X-62849218Y-55565500D01*
X-61741456Y-55565500D01*
X-61658191Y-55548937D01*
X-61630436Y-55543416D01*
X-61548164Y-55527051D01*
X-61490100Y-55503000D01*
X-61490099Y-55503000D01*
X-61366092Y-55451635D01*
X-61366079Y-55451628D01*
X-61202218Y-55342139D01*
X-61202214Y-55342136D01*
X-61059764Y-55199686D01*
X-61059735Y-55199655D01*
X-59871559Y-54011479D01*
X-59871537Y-54011459D01*
X-59727863Y-53867785D01*
X-59727860Y-53867781D01*
X-59618371Y-53703920D01*
X-59618364Y-53703907D01*
X-59542948Y-53521835D01*
X-59541686Y-53515490D01*
X-59519745Y-53405186D01*
X-59519745Y-53405184D01*
X-59504500Y-53328541D01*
X-59504500Y-51888591D01*
X-59484815Y-51821552D01*
X-59432011Y-51775797D01*
X-59362853Y-51765853D01*
X-59299297Y-51794878D01*
X-59281233Y-51814279D01*
X-59275046Y-51822546D01*
X-59159831Y-51908796D01*
X-59024983Y-51959091D01*
X-58965373Y-51965500D01*
X-57526227Y-51965499D01*
X-57459189Y-51985184D01*
X-57413434Y-52037987D01*
X-57403490Y-52107146D01*
X-57432515Y-52170702D01*
X-57438545Y-52177178D01*
X-58136948Y-52875580D01*
X-58805020Y-53543652D01*
X-58805022Y-53543655D01*
X-59847947Y-54586578D01*
X-59847953Y-54586585D01*
X-59869524Y-54618870D01*
X-59893589Y-54654886D01*
X-59922507Y-54698165D01*
X-59930085Y-54709507D01*
X-59957220Y-54775018D01*
X-59986658Y-54846087D01*
X-59986658Y-54846091D01*
X-59986659Y-54846092D01*
X-60015500Y-54991079D01*
X-60015500Y-57828056D01*
X-60035185Y-57895095D01*
X-60066613Y-57928373D01*
X-60157820Y-57994640D01*
X-60300183Y-58137003D01*
X-60361506Y-58170488D01*
X-60431198Y-58165504D01*
X-60487131Y-58123632D01*
X-60500245Y-58101728D01*
X-60500637Y-58100885D01*
X-60592684Y-57951654D01*
X-60716654Y-57827684D01*
X-60865875Y-57735643D01*
X-60865880Y-57735641D01*
X-61032302Y-57680494D01*
X-61032309Y-57680493D01*
X-61135013Y-57670000D01*
X-61555000Y-57670000D01*
X-61555000Y-58722290D01*
X-61575339Y-58710548D01*
X-61726667Y-58670000D01*
X-61883333Y-58670000D01*
X-62034661Y-58710548D01*
X-62055000Y-58722290D01*
X-62055000Y-57670000D01*
X-62474971Y-57670000D01*
X-62474987Y-57670001D01*
X-62577697Y-57680494D01*
X-62744119Y-57735641D01*
X-62744124Y-57735643D01*
X-62893345Y-57827684D01*
X-63017315Y-57951654D01*
X-63109356Y-58100875D01*
X-63109358Y-58100880D01*
X-63164505Y-58267302D01*
X-63164506Y-58267309D01*
X-63174999Y-58370013D01*
X-63175000Y-58370026D01*
X-63175000Y-59015000D01*
X-62347709Y-59015000D01*
X-62359452Y-59035339D01*
X-62400000Y-59186667D01*
X-62400000Y-59343333D01*
X-62359452Y-59494661D01*
X-62347709Y-59515000D01*
X-63174999Y-59515000D01*
X-63174999Y-60159971D01*
X-63174998Y-60159986D01*
X-63164505Y-60262697D01*
X-63109358Y-60429119D01*
X-63109356Y-60429124D01*
X-63017315Y-60578345D01*
X-62893345Y-60702315D01*
X-62744124Y-60794356D01*
X-62744119Y-60794358D01*
X-62577697Y-60849505D01*
X-62577690Y-60849506D01*
X-62474980Y-60859999D01*
X-62055000Y-60859999D01*
X-62055000Y-59807709D01*
X-62034661Y-59819452D01*
X-61883333Y-59860000D01*
X-61726667Y-59860000D01*
X-61575339Y-59819452D01*
X-61555000Y-59807709D01*
X-61555000Y-60859999D01*
X-61135028Y-60859999D01*
X-61135013Y-60859998D01*
X-61032302Y-60849505D01*
X-60865880Y-60794358D01*
X-60865875Y-60794356D01*
X-60716654Y-60702315D01*
X-60592684Y-60578345D01*
X-60500640Y-60429118D01*
X-60500248Y-60428277D01*
X-60499824Y-60427796D01*
X-60496851Y-60422975D01*
X-60496027Y-60423483D01*
X-60454078Y-60375836D01*
X-60386885Y-60356681D01*
X-60320003Y-60376894D01*
X-60300192Y-60392987D01*
X-60157821Y-60535359D01*
X-59983299Y-60662157D01*
X-59791089Y-60760092D01*
X-59585926Y-60826754D01*
X-59491230Y-60841752D01*
X-59372866Y-60860500D01*
X-59372861Y-60860500D01*
X-59157134Y-60860500D01*
X-59023973Y-60839408D01*
X-58944074Y-60826754D01*
X-58738911Y-60760092D01*
X-58546701Y-60662157D01*
X-58372179Y-60535359D01*
X-58219641Y-60382821D01*
X-58092843Y-60208299D01*
X-57994908Y-60016089D01*
X-57928246Y-59810926D01*
X-57928245Y-59810922D01*
X-57894500Y-59597866D01*
X-57894500Y-58932133D01*
X-57928245Y-58719077D01*
X-57989871Y-58529414D01*
X-57994908Y-58513911D01*
X-57994908Y-58513910D01*
X-57994909Y-58513908D01*
X-58068238Y-58369991D01*
X-55175500Y-58369991D01*
X-55175499Y-60160008D01*
X-55164999Y-60262797D01*
X-55109814Y-60429334D01*
X-55017712Y-60578656D01*
X-54893656Y-60702712D01*
X-54744334Y-60794814D01*
X-54577797Y-60849999D01*
X-54475009Y-60860500D01*
X-53134992Y-60860499D01*
X-53134983Y-60860498D01*
X-53134981Y-60860498D01*
X-53032203Y-60849999D01*
X-53032200Y-60849998D01*
X-53030712Y-60849505D01*
X-52865666Y-60794814D01*
X-52716344Y-60702712D01*
X-52592288Y-60578656D01*
X-52513642Y-60451150D01*
X-52500181Y-60429326D01*
X-52499864Y-60428645D01*
X-52499521Y-60428256D01*
X-52496395Y-60423187D01*
X-52495528Y-60423721D01*
X-52453688Y-60376208D01*
X-52386494Y-60357060D01*
X-52319614Y-60377280D01*
X-52299813Y-60393366D01*
X-52157821Y-60535359D01*
X-51983299Y-60662157D01*
X-51791089Y-60760092D01*
X-51585926Y-60826754D01*
X-51491230Y-60841752D01*
X-51372866Y-60860500D01*
X-51372861Y-60860500D01*
X-51157134Y-60860500D01*
X-51023973Y-60839408D01*
X-50944074Y-60826754D01*
X-50738911Y-60760092D01*
X-50546701Y-60662157D01*
X-50372179Y-60535359D01*
X-50219641Y-60382821D01*
X-50092843Y-60208299D01*
X-49994908Y-60016089D01*
X-49928246Y-59810926D01*
X-49928245Y-59810922D01*
X-49894500Y-59597866D01*
X-49894500Y-58932133D01*
X-49928245Y-58719077D01*
X-49989871Y-58529414D01*
X-49994908Y-58513911D01*
X-49994908Y-58513910D01*
X-49994909Y-58513908D01*
X-50092843Y-58321700D01*
X-50202706Y-58170488D01*
X-50219641Y-58147179D01*
X-50219643Y-58147177D01*
X-50219643Y-58147176D01*
X-50372176Y-57994643D01*
X-50546700Y-57867843D01*
X-50738908Y-57769909D01*
X-50944077Y-57703245D01*
X-51157134Y-57669500D01*
X-51157139Y-57669500D01*
X-51372861Y-57669500D01*
X-51372866Y-57669500D01*
X-51585922Y-57703245D01*
X-51585924Y-57703245D01*
X-51585926Y-57703246D01*
X-51791089Y-57769908D01*
X-51983299Y-57867843D01*
X-52157821Y-57994641D01*
X-52157823Y-57994643D01*
X-52299804Y-58136624D01*
X-52361127Y-58170109D01*
X-52430819Y-58165125D01*
X-52486752Y-58123253D01*
X-52499861Y-58101360D01*
X-52500179Y-58100677D01*
X-52592289Y-57951342D01*
X-52716342Y-57827289D01*
X-52865663Y-57735187D01*
X-52865668Y-57735185D01*
X-52962045Y-57703249D01*
X-53032203Y-57680001D01*
X-53032204Y-57680000D01*
X-53134989Y-57669500D01*
X-54475001Y-57669500D01*
X-54475018Y-57669501D01*
X-54577796Y-57680000D01*
X-54577799Y-57680001D01*
X-54744331Y-57735185D01*
X-54744334Y-57735186D01*
X-54893656Y-57827288D01*
X-55017712Y-57951344D01*
X-55109814Y-58100666D01*
X-55164999Y-58267203D01*
X-55175500Y-58369991D01*
X-58068238Y-58369991D01*
X-58092843Y-58321700D01*
X-58202706Y-58170488D01*
X-58219641Y-58147179D01*
X-58219643Y-58147177D01*
X-58219643Y-58147176D01*
X-58372179Y-57994640D01*
X-58463387Y-57928373D01*
X-58506052Y-57873043D01*
X-58514500Y-57828056D01*
X-58514500Y-55427229D01*
X-58494815Y-55360190D01*
X-58478181Y-55339548D01*
X-57743655Y-54605022D01*
X-57743649Y-54605017D01*
X-54207051Y-51068419D01*
X-54207048Y-51068415D01*
X-54124919Y-50945501D01*
X-54124912Y-50945488D01*
X-54068343Y-50808917D01*
X-54068342Y-50808914D01*
X-54067108Y-50802708D01*
X-54066170Y-50797994D01*
X-54039500Y-50663920D01*
X-54039123Y-50660092D01*
X-54038365Y-50658214D01*
X-54038311Y-50657943D01*
X-54038259Y-50657953D01*
X-54012963Y-50595304D01*
X-54011573Y-50593580D01*
X-53999703Y-50579117D01*
X-53954090Y-50523538D01*
X-53954089Y-50523537D01*
X-53954087Y-50523534D01*
X-53954085Y-50523531D01*
X-53861188Y-50349733D01*
X-53860845Y-50348604D01*
X-53837001Y-50270000D01*
X-52843532Y-50270000D01*
X-51895748Y-50270000D01*
X-51917518Y-50307708D01*
X-51955000Y-50447591D01*
X-51955000Y-50592409D01*
X-51917518Y-50732292D01*
X-51895748Y-50770000D01*
X-52843532Y-50770000D01*
X-52821734Y-50907628D01*
X-52751082Y-51125070D01*
X-52647288Y-51328776D01*
X-52512902Y-51513742D01*
X-52351242Y-51675402D01*
X-52166276Y-51809788D01*
X-51962570Y-51913582D01*
X-51745128Y-51984234D01*
X-51655000Y-51998508D01*
X-51655000Y-51010747D01*
X-51617292Y-51032518D01*
X-51477409Y-51070000D01*
X-51332591Y-51070000D01*
X-51192708Y-51032518D01*
X-51155000Y-51010747D01*
X-51155000Y-51998509D01*
X-51064871Y-51984234D01*
X-50847429Y-51913582D01*
X-50643723Y-51809788D01*
X-50458757Y-51675402D01*
X-50297097Y-51513742D01*
X-50297097Y-51513741D01*
X-50235626Y-51429135D01*
X-50180296Y-51386470D01*
X-50110682Y-51380491D01*
X-50048887Y-51413097D01*
X-50034999Y-51429125D01*
X-49973286Y-51514066D01*
X-49920500Y-51566852D01*
X-49901819Y-51585533D01*
X-49868334Y-51646856D01*
X-49865500Y-51673214D01*
X-49865500Y-54063543D01*
X-49849871Y-54142112D01*
X-49849871Y-54142113D01*
X-49842194Y-54180703D01*
X-49827051Y-54256836D01*
X-49821042Y-54271342D01*
X-49820287Y-54273164D01*
X-49820286Y-54273168D01*
X-49763893Y-54409314D01*
X-49751632Y-54438914D01*
X-49642139Y-54602782D01*
X-49502782Y-54742139D01*
X-49502778Y-54742141D01*
X-48849209Y-55395710D01*
X-48849206Y-55395714D01*
X-48842140Y-55402779D01*
X-48842139Y-55402782D01*
X-48702782Y-55542139D01*
X-48538914Y-55651632D01*
X-48410165Y-55704961D01*
X-48356836Y-55727051D01*
X-48319362Y-55734505D01*
X-48287197Y-55740903D01*
X-48163543Y-55765500D01*
X-48163541Y-55765500D01*
X-48163540Y-55765500D01*
X-47966460Y-55765500D01*
X-46135782Y-55765500D01*
X-46068743Y-55785185D01*
X-46048101Y-55801819D01*
X-44301819Y-57548101D01*
X-44268334Y-57609424D01*
X-44265500Y-57635782D01*
X-44265500Y-58044624D01*
X-44285185Y-58111663D01*
X-44337989Y-58157418D01*
X-44407147Y-58167362D01*
X-44470703Y-58138337D01*
X-44495100Y-58106014D01*
X-44496395Y-58106813D01*
X-44511059Y-58083039D01*
X-44592288Y-57951344D01*
X-44592287Y-57951344D01*
X-44592289Y-57951342D01*
X-44716342Y-57827289D01*
X-44865663Y-57735187D01*
X-44865668Y-57735185D01*
X-44962045Y-57703249D01*
X-45032203Y-57680001D01*
X-45032204Y-57680000D01*
X-45134989Y-57669500D01*
X-46475001Y-57669500D01*
X-46475018Y-57669501D01*
X-46577796Y-57680000D01*
X-46577799Y-57680001D01*
X-46744331Y-57735185D01*
X-46744334Y-57735186D01*
X-46893656Y-57827288D01*
X-47017712Y-57951344D01*
X-47109814Y-58100666D01*
X-47164999Y-58267203D01*
X-47175500Y-58369991D01*
X-47175499Y-60160008D01*
X-47164999Y-60262797D01*
X-47109814Y-60429334D01*
X-47017712Y-60578656D01*
X-46893656Y-60702712D01*
X-46744334Y-60794814D01*
X-46577797Y-60849999D01*
X-46475009Y-60860500D01*
X-45134992Y-60860499D01*
X-45134983Y-60860498D01*
X-45134981Y-60860498D01*
X-45032203Y-60849999D01*
X-45032200Y-60849998D01*
X-45030712Y-60849505D01*
X-44865666Y-60794814D01*
X-44716344Y-60702712D01*
X-44592288Y-60578656D01*
X-44513642Y-60451150D01*
X-44500181Y-60429326D01*
X-44499864Y-60428645D01*
X-44499521Y-60428256D01*
X-44496395Y-60423187D01*
X-44495528Y-60423721D01*
X-44453688Y-60376208D01*
X-44386494Y-60357060D01*
X-44319614Y-60377280D01*
X-44299813Y-60393366D01*
X-44157821Y-60535359D01*
X-43983299Y-60662157D01*
X-43791089Y-60760092D01*
X-43585926Y-60826754D01*
X-43491230Y-60841752D01*
X-43372866Y-60860500D01*
X-43372861Y-60860500D01*
X-43157134Y-60860500D01*
X-43023973Y-60839408D01*
X-42944074Y-60826754D01*
X-42738911Y-60760092D01*
X-42546701Y-60662157D01*
X-42372179Y-60535359D01*
X-42219641Y-60382821D01*
X-42092843Y-60208299D01*
X-41994908Y-60016089D01*
X-41928246Y-59810926D01*
X-41928245Y-59810922D01*
X-41894500Y-59597866D01*
X-41894500Y-58932133D01*
X-41928245Y-58719077D01*
X-41989871Y-58529414D01*
X-41994908Y-58513911D01*
X-41994908Y-58513910D01*
X-41994909Y-58513908D01*
X-42092843Y-58321700D01*
X-42202706Y-58170488D01*
X-42219641Y-58147179D01*
X-42219643Y-58147177D01*
X-42219643Y-58147176D01*
X-42228181Y-58138639D01*
X-42261666Y-58077316D01*
X-42264500Y-58050958D01*
X-42264500Y-57274675D01*
X-42264499Y-57274654D01*
X-42264499Y-57071455D01*
X-42302946Y-56878172D01*
X-42302948Y-56878164D01*
X-42378366Y-56696088D01*
X-42378371Y-56696079D01*
X-42487859Y-56532219D01*
X-42487862Y-56532215D01*
X-44892859Y-54127220D01*
X-44892861Y-54127218D01*
X-44995272Y-54024807D01*
X-45032219Y-53987859D01*
X-45196079Y-53878371D01*
X-45196092Y-53878364D01*
X-45346455Y-53816083D01*
X-45346456Y-53816083D01*
X-45378163Y-53802949D01*
X-45378171Y-53802947D01*
X-45540460Y-53770666D01*
X-45540461Y-53770666D01*
X-45555960Y-53767583D01*
X-45571458Y-53764500D01*
X-45571459Y-53764500D01*
X-47599218Y-53764500D01*
X-47666257Y-53744815D01*
X-47686899Y-53728181D01*
X-47828181Y-53586899D01*
X-47861666Y-53525576D01*
X-47864500Y-53499218D01*
X-47864500Y-51943591D01*
X-47844815Y-51876552D01*
X-47792011Y-51830797D01*
X-47722853Y-51820853D01*
X-47659297Y-51849878D01*
X-47641233Y-51869279D01*
X-47635046Y-51877546D01*
X-47519831Y-51963796D01*
X-47384983Y-52014091D01*
X-47325373Y-52020500D01*
X-45324628Y-52020499D01*
X-45276257Y-52015299D01*
X-45265016Y-52014091D01*
X-45130171Y-51963797D01*
X-45130164Y-51963793D01*
X-45014955Y-51877547D01*
X-45014952Y-51877544D01*
X-44928706Y-51762335D01*
X-44928702Y-51762328D01*
X-44878408Y-51627482D01*
X-44872001Y-51567883D01*
X-44872000Y-51567864D01*
X-44872000Y-49472129D01*
X-44872001Y-49472123D01*
X-44878408Y-49412516D01*
X-44928702Y-49277671D01*
X-44928706Y-49277664D01*
X-45014952Y-49162455D01*
X-45014955Y-49162452D01*
X-45130164Y-49076206D01*
X-45130171Y-49076202D01*
X-45265017Y-49025908D01*
X-45265016Y-49025908D01*
X-45324616Y-49019501D01*
X-45324619Y-49019500D01*
X-45324627Y-49019500D01*
X-45324635Y-49019500D01*
X-45328000Y-49019500D01*
X-45395039Y-48999815D01*
X-45440794Y-48947011D01*
X-45452000Y-48895500D01*
X-45452000Y-47464730D01*
X-45432315Y-47397691D01*
X-45415681Y-47377049D01*
X-45297289Y-47258657D01*
X-45297287Y-47258655D01*
X-45228722Y-47147492D01*
X-45205187Y-47109336D01*
X-45205185Y-47109331D01*
X-45190504Y-47065026D01*
X-45150001Y-46942797D01*
X-45150001Y-46942795D01*
X-45150000Y-46942795D01*
X-45139500Y-46840016D01*
X-45139500Y-45489998D01*
X-45139501Y-45489981D01*
X-45150000Y-45387203D01*
X-45150001Y-45387200D01*
X-45205185Y-45220668D01*
X-45205187Y-45220663D01*
X-45297289Y-45071342D01*
X-45421342Y-44947289D01*
X-45483938Y-44908680D01*
X-45530663Y-44856732D01*
X-45541884Y-44787769D01*
X-45514041Y-44723687D01*
X-45483937Y-44697602D01*
X-45459156Y-44682317D01*
X-45335184Y-44558345D01*
X-45243143Y-44409124D01*
X-45243141Y-44409119D01*
X-45187994Y-44242697D01*
X-45187993Y-44242690D01*
X-45177500Y-44139986D01*
X-45177500Y-43715000D01*
X-47302499Y-43715000D01*
X-47302499Y-44139971D01*
X-47302498Y-44139986D01*
X-47292005Y-44242697D01*
X-47236858Y-44409119D01*
X-47236856Y-44409124D01*
X-47144815Y-44558345D01*
X-47020843Y-44682317D01*
X-46958562Y-44720732D01*
X-46911837Y-44772679D01*
X-46900614Y-44841642D01*
X-46928457Y-44905724D01*
X-46958562Y-44931810D01*
X-46983655Y-44947287D01*
X-46983656Y-44947288D01*
X-47107712Y-45071344D01*
X-47199814Y-45220666D01*
X-47254999Y-45387203D01*
X-47265500Y-45489991D01*
X-47265499Y-46840008D01*
X-47254999Y-46942797D01*
X-47199814Y-47109334D01*
X-47107712Y-47258656D01*
X-47046076Y-47320292D01*
X-46989319Y-47377049D01*
X-46955834Y-47438372D01*
X-46953000Y-47464730D01*
X-46953000Y-48895500D01*
X-46972685Y-48962539D01*
X-47025489Y-49008294D01*
X-47077000Y-49019500D01*
X-47325369Y-49019500D01*
X-47325376Y-49019501D01*
X-47384983Y-49025908D01*
X-47519828Y-49076202D01*
X-47519835Y-49076206D01*
X-47635044Y-49162452D01*
X-47635047Y-49162455D01*
X-47721293Y-49277664D01*
X-47721296Y-49277669D01*
X-47731690Y-49305538D01*
X-47773561Y-49361473D01*
X-47839024Y-49385891D01*
X-47907298Y-49371040D01*
X-47920759Y-49362525D01*
X-48103461Y-49229783D01*
X-48307244Y-49125950D01*
X-48524751Y-49055278D01*
X-48710188Y-49025908D01*
X-48750646Y-49019500D01*
X-48979354Y-49019500D01*
X-49019818Y-49025909D01*
X-49205246Y-49055278D01*
X-49205249Y-49055278D01*
X-49422755Y-49125950D01*
X-49566219Y-49199049D01*
X-49626538Y-49229783D01*
X-49811566Y-49364214D01*
X-49973286Y-49525934D01*
X-50026029Y-49598529D01*
X-50034991Y-49610864D01*
X-50090321Y-49653529D01*
X-50159935Y-49659508D01*
X-50221730Y-49626902D01*
X-50235627Y-49610864D01*
X-50297097Y-49526257D01*
X-50458757Y-49364597D01*
X-50643723Y-49230211D01*
X-50847431Y-49126417D01*
X-51064875Y-49055765D01*
X-51154999Y-49041490D01*
X-51155000Y-49041490D01*
X-51155000Y-50029252D01*
X-51192708Y-50007482D01*
X-51332591Y-49970000D01*
X-51477409Y-49970000D01*
X-51617292Y-50007482D01*
X-51655000Y-50029252D01*
X-51655000Y-49041490D01*
X-51745124Y-49055765D01*
X-51962568Y-49126417D01*
X-52166276Y-49230211D01*
X-52351242Y-49364597D01*
X-52512902Y-49526257D01*
X-52647288Y-49711223D01*
X-52751082Y-49914929D01*
X-52821734Y-50132371D01*
X-52843532Y-50270000D01*
X-53837001Y-50270000D01*
X-53803976Y-50161132D01*
X-53803975Y-50161129D01*
X-53784659Y-49965000D01*
X-53803975Y-49768870D01*
X-53861188Y-49580266D01*
X-53954086Y-49406467D01*
X-53954090Y-49406460D01*
X-54079116Y-49254116D01*
X-54231460Y-49129090D01*
X-54231467Y-49129086D01*
X-54405266Y-49036188D01*
X-54593870Y-48978975D01*
X-54790000Y-48959659D01*
X-54986129Y-48978975D01*
X-54986132Y-48978976D01*
X-55174727Y-49036186D01*
X-55174733Y-49036188D01*
X-55348532Y-49129086D01*
X-55348539Y-49129090D01*
X-55500883Y-49254116D01*
X-55625909Y-49406460D01*
X-55625913Y-49406467D01*
X-55718811Y-49580266D01*
X-55718811Y-49580269D01*
X-55718814Y-49580273D01*
X-55776024Y-49768868D01*
X-55795341Y-49965000D01*
X-55776024Y-50161132D01*
X-55718814Y-50349727D01*
X-55718812Y-50349730D01*
X-55717045Y-50355556D01*
X-55718264Y-50355926D01*
X-55711500Y-50418811D01*
X-55742771Y-50481292D01*
X-55745850Y-50484483D01*
X-56300319Y-51038951D01*
X-56361642Y-51072436D01*
X-56431334Y-51067452D01*
X-56487267Y-51025580D01*
X-56511684Y-50960116D01*
X-56512000Y-50951270D01*
X-56512000Y-49417129D01*
X-56512001Y-49417123D01*
X-56518408Y-49357516D01*
X-56568702Y-49222671D01*
X-56568706Y-49222664D01*
X-56654952Y-49107455D01*
X-56654955Y-49107452D01*
X-56770164Y-49021206D01*
X-56770171Y-49021202D01*
X-56905017Y-48970908D01*
X-56912562Y-48969126D01*
X-56912190Y-48967552D01*
X-56968313Y-48944301D01*
X-57008157Y-48886906D01*
X-57014500Y-48847755D01*
X-57014500Y-48364730D01*
X-56994815Y-48297691D01*
X-56978181Y-48277049D01*
X-56859789Y-48158657D01*
X-56767687Y-48009336D01*
X-56767685Y-48009331D01*
X-56749684Y-47955008D01*
X-56712501Y-47842797D01*
X-56712501Y-47842795D01*
X-56712500Y-47842795D01*
X-56702000Y-47740016D01*
X-56702000Y-46563727D01*
X-56682315Y-46496688D01*
X-56629511Y-46450933D01*
X-56560353Y-46440989D01*
X-56496797Y-46470014D01*
X-56490343Y-46476022D01*
X-56201368Y-46764998D01*
X-55939318Y-47027048D01*
X-55905833Y-47088371D01*
X-55902999Y-47114729D01*
X-55902999Y-47740008D01*
X-55892499Y-47842797D01*
X-55837314Y-48009334D01*
X-55745212Y-48158656D01*
X-55621156Y-48282712D01*
X-55471834Y-48374814D01*
X-55305297Y-48429999D01*
X-55202509Y-48440500D01*
X-54477492Y-48440499D01*
X-54477484Y-48440498D01*
X-54477480Y-48440498D01*
X-54374703Y-48429999D01*
X-54374700Y-48429998D01*
X-54357674Y-48424356D01*
X-54208166Y-48374814D01*
X-54058844Y-48282712D01*
X-53934788Y-48158656D01*
X-53842686Y-48009334D01*
X-53787501Y-47842797D01*
X-53787501Y-47842795D01*
X-53787500Y-47842795D01*
X-53782103Y-47789971D01*
X-52939999Y-47789971D01*
X-52939998Y-47789986D01*
X-52929505Y-47892697D01*
X-52874358Y-48059119D01*
X-52874356Y-48059124D01*
X-52782315Y-48208345D01*
X-52658345Y-48332315D01*
X-52509124Y-48424356D01*
X-52509119Y-48424358D01*
X-52342697Y-48479505D01*
X-52342690Y-48479506D01*
X-52239980Y-48489999D01*
X-51815000Y-48489999D01*
X-51315000Y-48489999D01*
X-50890028Y-48489999D01*
X-50890013Y-48489998D01*
X-50787302Y-48479505D01*
X-50620880Y-48424358D01*
X-50620875Y-48424356D01*
X-50471654Y-48332315D01*
X-50347684Y-48208345D01*
X-50255643Y-48059124D01*
X-50255641Y-48059119D01*
X-50200494Y-47892697D01*
X-50200493Y-47892690D01*
X-50190000Y-47789986D01*
X-50190000Y-47677500D01*
X-51315000Y-47677500D01*
X-51315000Y-48489999D01*
X-51815000Y-48489999D01*
X-51815000Y-47677500D01*
X-52939999Y-47677500D01*
X-52939999Y-47789971D01*
X-53782103Y-47789971D01*
X-53777000Y-47740016D01*
X-53777000Y-47114729D01*
X-53762405Y-47065026D01*
X-52940000Y-47065026D01*
X-52940000Y-47177500D01*
X-51815000Y-47177500D01*
X-51815000Y-46365000D01*
X-52239971Y-46365000D01*
X-52239987Y-46365001D01*
X-52342697Y-46375494D01*
X-52509119Y-46430641D01*
X-52509124Y-46430643D01*
X-52658345Y-46522684D01*
X-52782315Y-46646654D01*
X-52874356Y-46795875D01*
X-52874358Y-46795880D01*
X-52929505Y-46962302D01*
X-52929506Y-46962309D01*
X-52939999Y-47065013D01*
X-52940000Y-47065026D01*
X-53762405Y-47065026D01*
X-53757315Y-47047690D01*
X-53740685Y-47027053D01*
X-52315450Y-45601817D01*
X-52254128Y-45568333D01*
X-52227779Y-45565499D01*
X-50889992Y-45565499D01*
X-50889983Y-45565498D01*
X-50889981Y-45565498D01*
X-50787203Y-45554999D01*
X-50787200Y-45554998D01*
X-50620666Y-45499814D01*
X-50471344Y-45407712D01*
X-50395644Y-45332012D01*
X-50334321Y-45298527D01*
X-50264629Y-45303511D01*
X-50208696Y-45345383D01*
X-50184279Y-45410847D01*
X-50184604Y-45432286D01*
X-50190500Y-45489991D01*
X-50190499Y-46177409D01*
X-50190499Y-46504477D01*
X-50210183Y-46571516D01*
X-50262987Y-46617271D01*
X-50332146Y-46627215D01*
X-50395702Y-46598190D01*
X-50402180Y-46592159D01*
X-50471657Y-46522682D01*
X-50620875Y-46430643D01*
X-50620880Y-46430641D01*
X-50787302Y-46375494D01*
X-50787309Y-46375493D01*
X-50890013Y-46365000D01*
X-51315000Y-46365000D01*
X-51315000Y-47177500D01*
X-50151976Y-47177500D01*
X-50084937Y-47197185D01*
X-50046437Y-47236403D01*
X-50032712Y-47258656D01*
X-49908656Y-47382712D01*
X-49759334Y-47474814D01*
X-49592797Y-47529999D01*
X-49490009Y-47540500D01*
X-48764992Y-47540499D01*
X-48764984Y-47540498D01*
X-48764980Y-47540498D01*
X-48662203Y-47529999D01*
X-48662200Y-47529998D01*
X-48637261Y-47521734D01*
X-48495666Y-47474814D01*
X-48346344Y-47382712D01*
X-48222288Y-47258656D01*
X-48153722Y-47147492D01*
X-48130187Y-47109336D01*
X-48130185Y-47109331D01*
X-48115504Y-47065026D01*
X-48075001Y-46942797D01*
X-48075001Y-46942795D01*
X-48075000Y-46942795D01*
X-48064500Y-46840016D01*
X-48064500Y-45489998D01*
X-48064501Y-45489981D01*
X-48075000Y-45387203D01*
X-48075001Y-45387200D01*
X-48130185Y-45220668D01*
X-48130187Y-45220663D01*
X-48222289Y-45071342D01*
X-48346344Y-44947287D01*
X-48355598Y-44941580D01*
X-48402322Y-44889632D01*
X-48414500Y-44836042D01*
X-48414500Y-44764730D01*
X-48394815Y-44697691D01*
X-48378181Y-44677049D01*
X-48259789Y-44558657D01*
X-48259596Y-44558345D01*
X-48167686Y-44409334D01*
X-48112501Y-44242797D01*
X-48112501Y-44242795D01*
X-48112500Y-44242795D01*
X-48102000Y-44140016D01*
X-48102000Y-42790026D01*
X-47302500Y-42790026D01*
X-47302500Y-43215000D01*
X-46490000Y-43215000D01*
X-45990000Y-43215000D01*
X-45177501Y-43215000D01*
X-45177501Y-42790013D01*
X-45177503Y-42789991D01*
X-38990500Y-42789991D01*
X-38990499Y-44140008D01*
X-38979999Y-44242797D01*
X-38924814Y-44409334D01*
X-38832712Y-44558656D01*
X-38758375Y-44632993D01*
X-38714319Y-44677049D01*
X-38680834Y-44738372D01*
X-38678000Y-44764730D01*
X-38678000Y-44865270D01*
X-38697685Y-44932309D01*
X-38714319Y-44952951D01*
X-38832712Y-45071344D01*
X-38924814Y-45220666D01*
X-38979999Y-45387203D01*
X-38990500Y-45489991D01*
X-38990499Y-46840008D01*
X-38979999Y-46942797D01*
X-38924814Y-47109334D01*
X-38832712Y-47258656D01*
X-38708656Y-47382712D01*
X-38559334Y-47474814D01*
X-38392797Y-47529999D01*
X-38290009Y-47540500D01*
X-37564992Y-47540499D01*
X-37564984Y-47540498D01*
X-37564980Y-47540498D01*
X-37462203Y-47529999D01*
X-37462200Y-47529998D01*
X-37437261Y-47521734D01*
X-37295666Y-47474814D01*
X-37146344Y-47382712D01*
X-37022288Y-47258656D01*
X-36953722Y-47147492D01*
X-36930187Y-47109336D01*
X-36930185Y-47109331D01*
X-36915504Y-47065026D01*
X-36875001Y-46942797D01*
X-36875001Y-46942795D01*
X-36875000Y-46942795D01*
X-36864500Y-46840016D01*
X-36864500Y-45489998D01*
X-36864501Y-45489981D01*
X-36875000Y-45387203D01*
X-36875001Y-45387200D01*
X-36930185Y-45220668D01*
X-36930187Y-45220663D01*
X-37022289Y-45071342D01*
X-37140681Y-44952951D01*
X-37174166Y-44891628D01*
X-37177000Y-44865270D01*
X-37177000Y-44764730D01*
X-37157315Y-44697691D01*
X-37140681Y-44677049D01*
X-37022289Y-44558657D01*
X-37022096Y-44558345D01*
X-36930186Y-44409334D01*
X-36875001Y-44242797D01*
X-36875001Y-44242795D01*
X-36875000Y-44242795D01*
X-36864500Y-44140016D01*
X-36864500Y-42790026D01*
X-36065000Y-42790026D01*
X-36065000Y-43215000D01*
X-35252500Y-43215000D01*
X-35252500Y-42090000D01*
X-35364972Y-42090000D01*
X-35364987Y-42090001D01*
X-35467697Y-42100494D01*
X-35634119Y-42155641D01*
X-35634124Y-42155643D01*
X-35783345Y-42247684D01*
X-35907315Y-42371654D01*
X-35999356Y-42520875D01*
X-35999358Y-42520880D01*
X-36054505Y-42687302D01*
X-36054506Y-42687309D01*
X-36064999Y-42790013D01*
X-36065000Y-42790026D01*
X-36864500Y-42790026D01*
X-36864500Y-42789998D01*
X-36864501Y-42789981D01*
X-36875000Y-42687203D01*
X-36875001Y-42687200D01*
X-36930185Y-42520668D01*
X-36930187Y-42520663D01*
X-37022289Y-42371342D01*
X-37140681Y-42252951D01*
X-37174166Y-42191628D01*
X-37177000Y-42165270D01*
X-37177000Y-41715486D01*
X-37157315Y-41648447D01*
X-37148853Y-41636821D01*
X-37064090Y-41533539D01*
X-37064086Y-41533532D01*
X-36971188Y-41359733D01*
X-36959996Y-41322840D01*
X-36929458Y-41222169D01*
X-36913975Y-41171129D01*
X-36894659Y-40974999D01*
X-36913975Y-40778870D01*
X-36971188Y-40590266D01*
X-37064086Y-40416467D01*
X-37064090Y-40416460D01*
X-37189116Y-40264116D01*
X-37341460Y-40139090D01*
X-37341467Y-40139086D01*
X-37515266Y-40046188D01*
X-37703870Y-39988975D01*
X-37900000Y-39969659D01*
X-38096129Y-39988975D01*
X-38158997Y-40008046D01*
X-38284727Y-40046186D01*
X-38284733Y-40046188D01*
X-38458532Y-40139086D01*
X-38458539Y-40139090D01*
X-38610883Y-40264116D01*
X-38735909Y-40416460D01*
X-38735913Y-40416467D01*
X-38828811Y-40590266D01*
X-38828811Y-40590269D01*
X-38828814Y-40590273D01*
X-38886024Y-40778868D01*
X-38905341Y-40975000D01*
X-38886024Y-41171132D01*
X-38828814Y-41359727D01*
X-38828811Y-41359732D01*
X-38828811Y-41359733D01*
X-38796133Y-41420868D01*
X-38735910Y-41533538D01*
X-38706146Y-41569805D01*
X-38678834Y-41634113D01*
X-38678000Y-41648469D01*
X-38678000Y-42165270D01*
X-38697685Y-42232309D01*
X-38714319Y-42252951D01*
X-38832712Y-42371344D01*
X-38924814Y-42520666D01*
X-38979999Y-42687203D01*
X-38990500Y-42789991D01*
X-45177503Y-42789991D01*
X-45187994Y-42687302D01*
X-45243141Y-42520880D01*
X-45243143Y-42520875D01*
X-45335184Y-42371654D01*
X-45459154Y-42247684D01*
X-45608375Y-42155643D01*
X-45608380Y-42155641D01*
X-45774802Y-42100494D01*
X-45774809Y-42100493D01*
X-45877513Y-42090000D01*
X-45990000Y-42090000D01*
X-45990000Y-43215000D01*
X-46490000Y-43215000D01*
X-46490000Y-42090000D01*
X-46602472Y-42090000D01*
X-46602487Y-42090001D01*
X-46705197Y-42100494D01*
X-46871619Y-42155641D01*
X-46871624Y-42155643D01*
X-47020845Y-42247684D01*
X-47144815Y-42371654D01*
X-47236856Y-42520875D01*
X-47236858Y-42520880D01*
X-47292005Y-42687302D01*
X-47292006Y-42687309D01*
X-47302499Y-42790013D01*
X-47302500Y-42790026D01*
X-48102000Y-42790026D01*
X-48102000Y-42789998D01*
X-48102001Y-42789981D01*
X-48112500Y-42687203D01*
X-48112501Y-42687200D01*
X-48167685Y-42520668D01*
X-48167687Y-42520663D01*
X-48259789Y-42371342D01*
X-48378181Y-42252951D01*
X-48411666Y-42191628D01*
X-48414500Y-42165270D01*
X-48414500Y-41036079D01*
X-48426650Y-40975001D01*
X-48426650Y-40975000D01*
X-48443341Y-40891088D01*
X-48454901Y-40863181D01*
X-48486628Y-40786585D01*
X-48486628Y-40786584D01*
X-48499914Y-40754506D01*
X-48499916Y-40754502D01*
X-48571742Y-40647008D01*
X-48571746Y-40647003D01*
X-48582046Y-40631585D01*
X-49286451Y-39927180D01*
X-49319936Y-39865857D01*
X-49314952Y-39796165D01*
X-49273080Y-39740232D01*
X-49207616Y-39715815D01*
X-49198770Y-39715499D01*
X-48607129Y-39715499D01*
X-48607128Y-39715499D01*
X-48547517Y-39709091D01*
X-48513332Y-39696340D01*
X-48443642Y-39691357D01*
X-48426672Y-39696338D01*
X-48392483Y-39709091D01*
X-48332873Y-39715500D01*
X-47337128Y-39715499D01*
X-47277517Y-39709091D01*
X-47243332Y-39696340D01*
X-47173642Y-39691357D01*
X-47156672Y-39696338D01*
X-47122483Y-39709091D01*
X-47062873Y-39715500D01*
X-46067128Y-39715499D01*
X-46007517Y-39709091D01*
X-45973332Y-39696340D01*
X-45903642Y-39691357D01*
X-45886672Y-39696338D01*
X-45852483Y-39709091D01*
X-45792873Y-39715500D01*
X-44797128Y-39715499D01*
X-44737517Y-39709091D01*
X-44703332Y-39696340D01*
X-44633642Y-39691357D01*
X-44616672Y-39696338D01*
X-44582483Y-39709091D01*
X-44522873Y-39715500D01*
X-43527128Y-39715499D01*
X-43467517Y-39709091D01*
X-43433332Y-39696340D01*
X-43363642Y-39691357D01*
X-43346672Y-39696338D01*
X-43312483Y-39709091D01*
X-43252873Y-39715500D01*
X-42257128Y-39715499D01*
X-42197517Y-39709091D01*
X-42163332Y-39696340D01*
X-42093642Y-39691357D01*
X-42076672Y-39696338D01*
X-42042483Y-39709091D01*
X-41982873Y-39715500D01*
X-40987128Y-39715499D01*
X-40938757Y-39710299D01*
X-40927516Y-39709091D01*
X-40792671Y-39658797D01*
X-40792664Y-39658793D01*
X-40677455Y-39572547D01*
X-40677452Y-39572544D01*
X-40591206Y-39457335D01*
X-40591202Y-39457328D01*
X-40540908Y-39322482D01*
X-40534501Y-39262883D01*
X-40534500Y-39262864D01*
X-40534500Y-37667129D01*
X-40534501Y-37667123D01*
X-40540908Y-37607516D01*
X-40591202Y-37472671D01*
X-40591206Y-37472664D01*
X-40677452Y-37357455D01*
X-40677455Y-37357452D01*
X-40792664Y-37271206D01*
X-40792671Y-37271202D01*
X-40927517Y-37220908D01*
X-40927516Y-37220908D01*
X-40987116Y-37214501D01*
X-40987119Y-37214500D01*
X-40987127Y-37214500D01*
X-40987134Y-37214500D01*
X-40987135Y-37214500D01*
X-41982870Y-37214500D01*
X-41982876Y-37214501D01*
X-42042481Y-37220908D01*
X-42076669Y-37233659D01*
X-42146361Y-37238642D01*
X-42163331Y-37233659D01*
X-42197519Y-37220908D01*
X-42197517Y-37220908D01*
X-42257116Y-37214501D01*
X-42257119Y-37214500D01*
X-42257127Y-37214500D01*
X-42257134Y-37214500D01*
X-42257135Y-37214500D01*
X-43252870Y-37214500D01*
X-43252876Y-37214501D01*
X-43312481Y-37220908D01*
X-43346669Y-37233659D01*
X-43416361Y-37238642D01*
X-43433331Y-37233659D01*
X-43467519Y-37220908D01*
X-43467517Y-37220908D01*
X-43527116Y-37214501D01*
X-43527119Y-37214500D01*
X-43527127Y-37214500D01*
X-43527134Y-37214500D01*
X-43527135Y-37214500D01*
X-44522870Y-37214500D01*
X-44522876Y-37214501D01*
X-44582481Y-37220908D01*
X-44616669Y-37233659D01*
X-44686361Y-37238642D01*
X-44703331Y-37233659D01*
X-44737519Y-37220908D01*
X-44737517Y-37220908D01*
X-44797116Y-37214501D01*
X-44797119Y-37214500D01*
X-44797127Y-37214500D01*
X-44797134Y-37214500D01*
X-44797135Y-37214500D01*
X-45792870Y-37214500D01*
X-45792876Y-37214501D01*
X-45852481Y-37220908D01*
X-45886669Y-37233659D01*
X-45956361Y-37238642D01*
X-45973331Y-37233659D01*
X-46007519Y-37220908D01*
X-46007517Y-37220908D01*
X-46067116Y-37214501D01*
X-46067119Y-37214500D01*
X-46067127Y-37214500D01*
X-46067134Y-37214500D01*
X-46067135Y-37214500D01*
X-47062870Y-37214500D01*
X-47062876Y-37214501D01*
X-47122481Y-37220908D01*
X-47156669Y-37233659D01*
X-47226361Y-37238642D01*
X-47243331Y-37233659D01*
X-47277519Y-37220908D01*
X-47277517Y-37220908D01*
X-47337116Y-37214501D01*
X-47337119Y-37214500D01*
X-47337127Y-37214500D01*
X-47337134Y-37214500D01*
X-47337135Y-37214500D01*
X-48332870Y-37214500D01*
X-48332876Y-37214501D01*
X-48392481Y-37220908D01*
X-48426669Y-37233659D01*
X-48496361Y-37238642D01*
X-48513331Y-37233659D01*
X-48547519Y-37220908D01*
X-48547517Y-37220908D01*
X-48607116Y-37214501D01*
X-48607119Y-37214500D01*
X-48607127Y-37214500D01*
X-48607134Y-37214500D01*
X-48607135Y-37214500D01*
X-49602870Y-37214500D01*
X-49602876Y-37214501D01*
X-49662481Y-37220908D01*
X-49696669Y-37233659D01*
X-49766361Y-37238642D01*
X-49783331Y-37233659D01*
X-49817519Y-37220908D01*
X-49817517Y-37220908D01*
X-49877116Y-37214501D01*
X-49877119Y-37214500D01*
X-49877127Y-37214500D01*
X-49877134Y-37214500D01*
X-49877135Y-37214500D01*
X-50872870Y-37214500D01*
X-50872876Y-37214501D01*
X-50932481Y-37220908D01*
X-50966669Y-37233659D01*
X-51036361Y-37238642D01*
X-51053331Y-37233659D01*
X-51087519Y-37220908D01*
X-51087517Y-37220908D01*
X-51147116Y-37214501D01*
X-51147119Y-37214500D01*
X-51147127Y-37214500D01*
X-51147134Y-37214500D01*
X-51147135Y-37214500D01*
X-52142870Y-37214500D01*
X-52142876Y-37214501D01*
X-52202483Y-37220908D01*
X-52237381Y-37233925D01*
X-52307072Y-37238909D01*
X-52324047Y-37233925D01*
X-52357619Y-37221403D01*
X-52357627Y-37221401D01*
X-52417155Y-37215000D01*
X-52665000Y-37215000D01*
X-52665000Y-38591000D01*
X-52684685Y-38658039D01*
X-52737489Y-38703794D01*
X-52789000Y-38715000D01*
X-53865000Y-38715000D01*
X-53865000Y-39000500D01*
X-53884685Y-39067539D01*
X-53937489Y-39113294D01*
X-53989000Y-39124500D01*
X-55712771Y-39124500D01*
X-55779810Y-39104815D01*
X-55800452Y-39088181D01*
X-56511451Y-38377180D01*
X-56544936Y-38315857D01*
X-56539952Y-38246165D01*
X-56498080Y-38190232D01*
X-56432616Y-38165815D01*
X-56423770Y-38165499D01*
X-55157129Y-38165499D01*
X-55157128Y-38165499D01*
X-55108757Y-38160299D01*
X-55097516Y-38159091D01*
X-54962671Y-38108797D01*
X-54962664Y-38108793D01*
X-54847455Y-38022547D01*
X-54847452Y-38022544D01*
X-54761206Y-37907335D01*
X-54761202Y-37907328D01*
X-54710908Y-37772482D01*
X-54704501Y-37712883D01*
X-54704500Y-37712881D01*
X-54704500Y-37712873D01*
X-54704500Y-37667172D01*
X-53865000Y-37667172D01*
X-53865000Y-38215000D01*
X-53165000Y-38215000D01*
X-53165000Y-37215000D01*
X-53412844Y-37215000D01*
X-53472372Y-37221401D01*
X-53472379Y-37221403D01*
X-53607086Y-37271645D01*
X-53607093Y-37271649D01*
X-53722187Y-37357809D01*
X-53722190Y-37357812D01*
X-53808350Y-37472906D01*
X-53808354Y-37472913D01*
X-53858596Y-37607620D01*
X-53858598Y-37607627D01*
X-53864999Y-37667155D01*
X-53865000Y-37667172D01*
X-54704500Y-37667172D01*
X-54704500Y-37220908D01*
X-54704500Y-36717129D01*
X-54704501Y-36717123D01*
X-54710908Y-36657518D01*
X-54723659Y-36623331D01*
X-54728642Y-36553639D01*
X-54723659Y-36536669D01*
X-54710908Y-36502481D01*
X-54704500Y-36442872D01*
X-54704500Y-36442864D01*
X-54704500Y-36024727D01*
X-54704500Y-35549499D01*
X-54684817Y-35482461D01*
X-54632013Y-35436706D01*
X-54580501Y-35425500D01*
X-46865255Y-35425500D01*
X-46798216Y-35445185D01*
X-46786590Y-35453646D01*
X-46698538Y-35525910D01*
X-46698532Y-35525913D01*
X-46553247Y-35603570D01*
X-46524727Y-35618814D01*
X-46336132Y-35676024D01*
X-46140000Y-35695341D01*
X-45943868Y-35676024D01*
X-45755273Y-35618814D01*
X-45755269Y-35618811D01*
X-45755266Y-35618811D01*
X-45581467Y-35525913D01*
X-45581460Y-35525909D01*
X-45429116Y-35400883D01*
X-45304090Y-35248539D01*
X-45304086Y-35248532D01*
X-45211188Y-35074733D01*
X-45178345Y-34966467D01*
X-45153976Y-34886132D01*
X-45153975Y-34886129D01*
X-45134659Y-34690000D01*
X-45153975Y-34493870D01*
X-45211188Y-34305266D01*
X-45304086Y-34131467D01*
X-45304090Y-34131460D01*
X-45429116Y-33979116D01*
X-45581460Y-33854090D01*
X-45581467Y-33854086D01*
X-45755266Y-33761188D01*
X-45943870Y-33703975D01*
X-46140000Y-33684659D01*
X-46336129Y-33703975D01*
X-46336132Y-33703976D01*
X-46524727Y-33761186D01*
X-46524733Y-33761188D01*
X-46698532Y-33854086D01*
X-46698533Y-33854087D01*
X-46698534Y-33854087D01*
X-46698538Y-33854090D01*
X-46750036Y-33896353D01*
X-46814344Y-33923666D01*
X-46828700Y-33924500D01*
X-54580500Y-33924500D01*
X-54647539Y-33904815D01*
X-54693294Y-33852011D01*
X-54704500Y-33800500D01*
X-54704500Y-32907129D01*
X-54704501Y-32907123D01*
X-54710908Y-32847518D01*
X-54723659Y-32813331D01*
X-54728642Y-32743639D01*
X-54723659Y-32726669D01*
X-54710908Y-32692481D01*
X-54704501Y-32632883D01*
X-54704500Y-32632881D01*
X-54704500Y-32632873D01*
X-54704500Y-32138548D01*
X-54704500Y-31637129D01*
X-54704501Y-31637123D01*
X-54710908Y-31577518D01*
X-54723659Y-31543331D01*
X-54728642Y-31473639D01*
X-54723659Y-31456669D01*
X-54710908Y-31422481D01*
X-54704501Y-31362883D01*
X-54704500Y-31362881D01*
X-54704500Y-31362873D01*
X-54704500Y-30868597D01*
X-54704500Y-30367129D01*
X-54704501Y-30367123D01*
X-54710908Y-30307518D01*
X-54723659Y-30273331D01*
X-54728642Y-30203639D01*
X-54725467Y-30192827D01*
X-50485000Y-30192827D01*
X-50484999Y-30192844D01*
X-50478598Y-30252372D01*
X-50478596Y-30252379D01*
X-50428354Y-30387086D01*
X-50428350Y-30387093D01*
X-50342190Y-30502187D01*
X-50342187Y-30502190D01*
X-50227093Y-30588350D01*
X-50227086Y-30588354D01*
X-50092379Y-30638596D01*
X-50092372Y-30638598D01*
X-50032844Y-30644999D01*
X-50032828Y-30645000D01*
X-48135000Y-30645000D01*
X-48135000Y-29820000D01*
X-49536000Y-29820000D01*
X-49603039Y-29800315D01*
X-49648794Y-29747511D01*
X-49660000Y-29696000D01*
X-49660000Y-29320000D01*
X-49160000Y-29320000D01*
X-48135000Y-29320000D01*
X-47635000Y-29320000D01*
X-46610000Y-29320000D01*
X-46610000Y-28295000D01*
X-47635000Y-28295000D01*
X-47635000Y-29320000D01*
X-48135000Y-29320000D01*
X-48135000Y-28295000D01*
X-49160000Y-28295000D01*
X-49160000Y-29320000D01*
X-49660000Y-29320000D01*
X-49660000Y-28295000D01*
X-50485000Y-28295000D01*
X-50485000Y-30192827D01*
X-54725467Y-30192827D01*
X-54723659Y-30186669D01*
X-54710908Y-30152481D01*
X-54704501Y-30092883D01*
X-54704500Y-30092881D01*
X-54704500Y-30092873D01*
X-54704500Y-29622734D01*
X-54704500Y-29097129D01*
X-54704501Y-29097123D01*
X-54710908Y-29037518D01*
X-54723659Y-29003331D01*
X-54728642Y-28933639D01*
X-54723659Y-28916669D01*
X-54710908Y-28882481D01*
X-54704501Y-28822883D01*
X-54704500Y-28822864D01*
X-54704500Y-27827129D01*
X-54704501Y-27827123D01*
X-54710908Y-27767518D01*
X-54723659Y-27733331D01*
X-54728642Y-27663639D01*
X-54723659Y-27646669D01*
X-54710908Y-27612481D01*
X-54704501Y-27552883D01*
X-54704500Y-27552881D01*
X-54704500Y-27552873D01*
X-54704500Y-27055266D01*
X-54704500Y-26557129D01*
X-54704501Y-26557123D01*
X-54710908Y-26497518D01*
X-54723659Y-26463331D01*
X-54728642Y-26393639D01*
X-54723659Y-26376669D01*
X-54710908Y-26342481D01*
X-54704501Y-26282883D01*
X-54704500Y-26282881D01*
X-54704500Y-26282873D01*
X-54704500Y-25897172D01*
X-50485000Y-25897172D01*
X-50485000Y-27795000D01*
X-49660000Y-27795000D01*
X-49160000Y-27795000D01*
X-48135000Y-27795000D01*
X-47635000Y-27795000D01*
X-46610000Y-27795000D01*
X-46610000Y-26770000D01*
X-47635000Y-26770000D01*
X-47635000Y-27795000D01*
X-48135000Y-27795000D01*
X-48135000Y-26770000D01*
X-49160000Y-26770000D01*
X-49160000Y-27795000D01*
X-49660000Y-27795000D01*
X-49660000Y-26394000D01*
X-49640315Y-26326961D01*
X-49587511Y-26281206D01*
X-49536000Y-26270000D01*
X-48135000Y-26270000D01*
X-48135000Y-25445000D01*
X-47635000Y-25445000D01*
X-47635000Y-26270000D01*
X-46234000Y-26270000D01*
X-46166961Y-26289685D01*
X-46121206Y-26342489D01*
X-46110000Y-26394000D01*
X-46110000Y-29696000D01*
X-46129685Y-29763039D01*
X-46182489Y-29808794D01*
X-46234000Y-29820000D01*
X-47635000Y-29820000D01*
X-47635000Y-30645000D01*
X-45737172Y-30645000D01*
X-45737155Y-30644999D01*
X-45677627Y-30638598D01*
X-45677620Y-30638596D01*
X-45542913Y-30588354D01*
X-45542910Y-30588352D01*
X-45488812Y-30547854D01*
X-45423348Y-30523436D01*
X-45355075Y-30538287D01*
X-45305669Y-30587692D01*
X-45290500Y-30647120D01*
X-45290500Y-33308920D01*
X-45278885Y-33367309D01*
X-45261658Y-33453913D01*
X-45205084Y-33590495D01*
X-45172187Y-33639726D01*
X-45172187Y-33639729D01*
X-45145541Y-33679608D01*
X-45122952Y-33713416D01*
X-43308322Y-35528044D01*
X-43274839Y-35589365D01*
X-43272603Y-35603563D01*
X-43261024Y-35721132D01*
X-43203814Y-35909727D01*
X-43203811Y-35909732D01*
X-43203811Y-35909733D01*
X-43157362Y-35996632D01*
X-43110910Y-36083538D01*
X-42985883Y-36235883D01*
X-42833538Y-36360910D01*
X-42659727Y-36453814D01*
X-42471132Y-36511024D01*
X-42275000Y-36530341D01*
X-42078868Y-36511024D01*
X-41890273Y-36453814D01*
X-41890269Y-36453811D01*
X-41890266Y-36453811D01*
X-41716467Y-36360913D01*
X-41716460Y-36360909D01*
X-41564116Y-36235883D01*
X-41439090Y-36083539D01*
X-41439086Y-36083532D01*
X-41346188Y-35909733D01*
X-41288975Y-35721129D01*
X-41269659Y-35525000D01*
X-41288975Y-35328870D01*
X-41346188Y-35140266D01*
X-41439086Y-34966467D01*
X-41439090Y-34966460D01*
X-41564116Y-34814116D01*
X-41716460Y-34689090D01*
X-41716467Y-34689086D01*
X-41890266Y-34596188D01*
X-42078871Y-34538975D01*
X-42140967Y-34532859D01*
X-42205754Y-34506697D01*
X-42216493Y-34497137D01*
X-42844277Y-33869353D01*
X-42877762Y-33808030D01*
X-42872778Y-33738338D01*
X-42830906Y-33682405D01*
X-42815049Y-33672314D01*
X-42681467Y-33600913D01*
X-42681460Y-33600909D01*
X-42529116Y-33475883D01*
X-42404090Y-33323539D01*
X-42404086Y-33323532D01*
X-42311188Y-33149733D01*
X-42253975Y-32961129D01*
X-42234659Y-32765000D01*
X-42253975Y-32568870D01*
X-42311188Y-32380266D01*
X-42404086Y-32206467D01*
X-42404090Y-32206460D01*
X-42486353Y-32106224D01*
X-42513666Y-32041914D01*
X-42514500Y-32027559D01*
X-42514500Y-27485091D01*
X-42501192Y-27439771D01*
X-42512328Y-27418013D01*
X-42514500Y-27394908D01*
X-42514500Y-25527230D01*
X-42494815Y-25460191D01*
X-42478181Y-25439549D01*
X-41656929Y-24618297D01*
X-41595606Y-24584812D01*
X-41525914Y-24589796D01*
X-41469981Y-24631668D01*
X-41450589Y-24669978D01*
X-41418814Y-24774727D01*
X-41327109Y-24946293D01*
X-41312869Y-25014691D01*
X-41337868Y-25079935D01*
X-41385404Y-25116523D01*
X-41385125Y-25117046D01*
X-41388259Y-25118721D01*
X-41389014Y-25119302D01*
X-41390489Y-25119913D01*
X-41390501Y-25119919D01*
X-41470429Y-25173326D01*
X-41480543Y-25180084D01*
X-41496869Y-25190993D01*
X-41513418Y-25202050D01*
X-41513419Y-25202051D01*
X-41847947Y-25536578D01*
X-41847947Y-25536579D01*
X-41847952Y-25536584D01*
X-41896675Y-25609505D01*
X-41908056Y-25626538D01*
X-41930083Y-25659504D01*
X-41930087Y-25659511D01*
X-41980951Y-25782309D01*
X-41986658Y-25796087D01*
X-41986658Y-25796091D01*
X-41986659Y-25796092D01*
X-42015500Y-25941079D01*
X-42015500Y-26733021D01*
X-42035185Y-26800060D01*
X-42043647Y-26811686D01*
X-42072980Y-26847429D01*
X-42100910Y-26881462D01*
X-42100911Y-26881465D01*
X-42100913Y-26881467D01*
X-42193811Y-27055266D01*
X-42193811Y-27055269D01*
X-42193814Y-27055273D01*
X-42251024Y-27243868D01*
X-42256489Y-27299356D01*
X-42267097Y-27407062D01*
X-42279491Y-27437756D01*
X-42271523Y-27450156D01*
X-42267097Y-27472936D01*
X-42251024Y-27636132D01*
X-42193814Y-27824727D01*
X-42193811Y-27824732D01*
X-42193811Y-27824733D01*
X-42162665Y-27883002D01*
X-42100910Y-27998538D01*
X-41975883Y-28150883D01*
X-41823538Y-28275910D01*
X-41787823Y-28295000D01*
X-41673061Y-28356342D01*
X-41649727Y-28368814D01*
X-41461132Y-28426024D01*
X-41265000Y-28445341D01*
X-41068868Y-28426024D01*
X-40880273Y-28368814D01*
X-40880269Y-28368811D01*
X-40880266Y-28368811D01*
X-40706467Y-28275913D01*
X-40706460Y-28275909D01*
X-40554116Y-28150883D01*
X-40429090Y-27998539D01*
X-40429086Y-27998532D01*
X-40336188Y-27824733D01*
X-40318831Y-27767517D01*
X-40278976Y-27636132D01*
X-40278975Y-27636129D01*
X-40259659Y-27440000D01*
X-40278975Y-27243870D01*
X-40336188Y-27055266D01*
X-40429086Y-26881467D01*
X-40429091Y-26881460D01*
X-40486353Y-26811686D01*
X-40513666Y-26747376D01*
X-40514500Y-26733021D01*
X-40514500Y-26659500D01*
X-40494815Y-26592461D01*
X-40442011Y-26546706D01*
X-40390500Y-26535500D01*
X-39829500Y-26535500D01*
X-39762461Y-26555185D01*
X-39716706Y-26607989D01*
X-39705500Y-26659500D01*
X-39705499Y-27121342D01*
X-39705499Y-27552872D01*
X-39699091Y-27612483D01*
X-39686340Y-27646667D01*
X-39681357Y-27716358D01*
X-39686338Y-27733327D01*
X-39699091Y-27767517D01*
X-39705500Y-27827127D01*
X-39705499Y-28822872D01*
X-39699091Y-28882483D01*
X-39686340Y-28916667D01*
X-39681357Y-28986358D01*
X-39686338Y-29003327D01*
X-39699091Y-29037517D01*
X-39705500Y-29097127D01*
X-39705499Y-30092872D01*
X-39699091Y-30152483D01*
X-39686340Y-30186667D01*
X-39681357Y-30256358D01*
X-39686338Y-30273327D01*
X-39699091Y-30307517D01*
X-39705500Y-30367127D01*
X-39705499Y-31362872D01*
X-39699091Y-31422483D01*
X-39686340Y-31456667D01*
X-39681357Y-31526358D01*
X-39686338Y-31543327D01*
X-39699091Y-31577517D01*
X-39705500Y-31637127D01*
X-39705499Y-32632872D01*
X-39699091Y-32692483D01*
X-39686340Y-32726667D01*
X-39681357Y-32796358D01*
X-39686338Y-32813327D01*
X-39699091Y-32847517D01*
X-39705500Y-32907127D01*
X-39705499Y-33902872D01*
X-39699091Y-33962483D01*
X-39686340Y-33996667D01*
X-39681357Y-34066358D01*
X-39686338Y-34083327D01*
X-39699091Y-34117517D01*
X-39705500Y-34177127D01*
X-39705499Y-35172872D01*
X-39699091Y-35232483D01*
X-39686340Y-35266667D01*
X-39681357Y-35336358D01*
X-39686338Y-35353327D01*
X-39699091Y-35387517D01*
X-39705500Y-35447127D01*
X-39705499Y-36442872D01*
X-39699091Y-36502483D01*
X-39686340Y-36536667D01*
X-39681357Y-36606358D01*
X-39686338Y-36623327D01*
X-39699091Y-36657517D01*
X-39705500Y-36717127D01*
X-39705499Y-37712872D01*
X-39699091Y-37772483D01*
X-39648796Y-37907331D01*
X-39562546Y-38022546D01*
X-39447331Y-38108796D01*
X-39312483Y-38159091D01*
X-39252873Y-38165500D01*
X-37657128Y-38165499D01*
X-37608757Y-38160299D01*
X-37597516Y-38159091D01*
X-37520332Y-38130303D01*
X-37450640Y-38125319D01*
X-37389317Y-38158804D01*
X-37355833Y-38220127D01*
X-37352999Y-38246485D01*
X-37352999Y-38465008D01*
X-37342499Y-38567797D01*
X-37287314Y-38734334D01*
X-37195212Y-38883656D01*
X-37071156Y-39007712D01*
X-36921834Y-39099814D01*
X-36755297Y-39154999D01*
X-36652509Y-39165500D01*
X-35727492Y-39165499D01*
X-35727484Y-39165498D01*
X-35727480Y-39165498D01*
X-35624703Y-39154999D01*
X-35624700Y-39154998D01*
X-35623212Y-39154505D01*
X-35458166Y-39099814D01*
X-35308844Y-39007712D01*
X-35184788Y-38883656D01*
X-35092686Y-38734334D01*
X-35037501Y-38567797D01*
X-35037501Y-38567795D01*
X-35037500Y-38567795D01*
X-35027000Y-38465016D01*
X-35027000Y-38464971D01*
X-34227499Y-38464971D01*
X-34227498Y-38464986D01*
X-34217005Y-38567697D01*
X-34161858Y-38734119D01*
X-34161856Y-38734124D01*
X-34069815Y-38883345D01*
X-33945845Y-39007315D01*
X-33796624Y-39099356D01*
X-33796619Y-39099358D01*
X-33630197Y-39154505D01*
X-33630190Y-39154506D01*
X-33527480Y-39164999D01*
X-33315000Y-39164999D01*
X-32815000Y-39164999D01*
X-32602528Y-39164999D01*
X-32602513Y-39164998D01*
X-32499802Y-39154505D01*
X-32333380Y-39099358D01*
X-32333375Y-39099356D01*
X-32184154Y-39007315D01*
X-32060184Y-38883345D01*
X-31968143Y-38734124D01*
X-31968141Y-38734119D01*
X-31912994Y-38567697D01*
X-31912993Y-38567690D01*
X-31902500Y-38464986D01*
X-31902500Y-38015000D01*
X-32815000Y-38015000D01*
X-32815000Y-39164999D01*
X-33315000Y-39164999D01*
X-33315000Y-38015000D01*
X-34227499Y-38015000D01*
X-34227499Y-38464971D01*
X-35027000Y-38464971D01*
X-35027000Y-37064998D01*
X-35027001Y-37064981D01*
X-35037500Y-36962203D01*
X-35037501Y-36962200D01*
X-35079652Y-36835000D01*
X-35090089Y-36803503D01*
X-35092491Y-36733676D01*
X-35056759Y-36673634D01*
X-34994239Y-36642441D01*
X-34972383Y-36640500D01*
X-34282091Y-36640500D01*
X-34215052Y-36660185D01*
X-34169297Y-36712989D01*
X-34159353Y-36782147D01*
X-34164385Y-36803504D01*
X-34217005Y-36962302D01*
X-34217006Y-36962309D01*
X-34227499Y-37065013D01*
X-34227500Y-37065026D01*
X-34227500Y-37515000D01*
X-31902501Y-37515000D01*
X-31902501Y-37065013D01*
X-31912994Y-36962302D01*
X-31965615Y-36803504D01*
X-31968017Y-36733676D01*
X-31932285Y-36673634D01*
X-31869765Y-36642441D01*
X-31847909Y-36640500D01*
X-31591081Y-36640500D01*
X-31567089Y-36635727D01*
X-31530741Y-36633941D01*
X-31415000Y-36645341D01*
X-31218868Y-36626024D01*
X-31030273Y-36568814D01*
X-31030269Y-36568811D01*
X-31030266Y-36568811D01*
X-30856467Y-36475913D01*
X-30856460Y-36475909D01*
X-30704116Y-36350883D01*
X-30579090Y-36198539D01*
X-30579086Y-36198532D01*
X-30486188Y-36024733D01*
X-30428975Y-35836129D01*
X-30410799Y-35651575D01*
X-30409659Y-35640000D01*
X-30411746Y-35618814D01*
X-30416819Y-35567299D01*
X-30403800Y-35498653D01*
X-30381097Y-35467465D01*
X-29054550Y-34140918D01*
X-29054546Y-34140913D01*
X-29016461Y-34083913D01*
X-29016460Y-34083912D01*
X-28972416Y-34017995D01*
X-28972415Y-34017994D01*
X-28933689Y-33924501D01*
X-28915842Y-33881416D01*
X-28915839Y-33881404D01*
X-28887000Y-33736421D01*
X-28887000Y-32517133D01*
X-28540500Y-32517133D01*
X-28540500Y-32732866D01*
X-28526374Y-32822048D01*
X-28506754Y-32945926D01*
X-28440092Y-33151089D01*
X-28342157Y-33343299D01*
X-28215359Y-33517821D01*
X-28073372Y-33659807D01*
X-28039890Y-33721126D01*
X-28044874Y-33790818D01*
X-28086745Y-33846752D01*
X-28108645Y-33859864D01*
X-28109326Y-33860181D01*
X-28109334Y-33860186D01*
X-28258656Y-33952288D01*
X-28382712Y-34076344D01*
X-28474814Y-34225666D01*
X-28529999Y-34392203D01*
X-28540500Y-34494991D01*
X-28540499Y-35168340D01*
X-28540499Y-35835001D01*
X-28540498Y-35835018D01*
X-28540384Y-35836132D01*
X-28529999Y-35937797D01*
X-28474814Y-36104334D01*
X-28382712Y-36253656D01*
X-28258656Y-36377712D01*
X-28109334Y-36469814D01*
X-27942797Y-36524999D01*
X-27840009Y-36535500D01*
X-26049992Y-36535499D01*
X-26049983Y-36535498D01*
X-26049981Y-36535498D01*
X-25947203Y-36524999D01*
X-25947200Y-36524998D01*
X-25780666Y-36469814D01*
X-25631344Y-36377712D01*
X-25507288Y-36253656D01*
X-25415186Y-36104334D01*
X-25360001Y-35937797D01*
X-25360001Y-35937795D01*
X-25360000Y-35937795D01*
X-25349500Y-35835016D01*
X-25349500Y-34494998D01*
X-25349501Y-34494981D01*
X-25360000Y-34392203D01*
X-25360001Y-34392200D01*
X-25415185Y-34225668D01*
X-25415187Y-34225663D01*
X-25507289Y-34076342D01*
X-25631342Y-33952289D01*
X-25780677Y-33860179D01*
X-25781360Y-33859861D01*
X-25781748Y-33859518D01*
X-25786813Y-33856395D01*
X-25786278Y-33855529D01*
X-25833794Y-33813683D01*
X-25852939Y-33746487D01*
X-25832716Y-33679608D01*
X-25816624Y-33659804D01*
X-25674643Y-33517823D01*
X-25674641Y-33517821D01*
X-25547843Y-33343299D01*
X-25449908Y-33151089D01*
X-25383246Y-32945926D01*
X-25383245Y-32945922D01*
X-25349500Y-32732866D01*
X-25349500Y-32517133D01*
X-25383245Y-32304077D01*
X-25449909Y-32098908D01*
X-25547843Y-31906700D01*
X-25668959Y-31740000D01*
X-25674641Y-31732179D01*
X-25674643Y-31732177D01*
X-25674643Y-31732176D01*
X-25827176Y-31579643D01*
X-26001700Y-31452843D01*
X-26193908Y-31354909D01*
X-26399077Y-31288245D01*
X-26612134Y-31254500D01*
X-26612139Y-31254500D01*
X-27277861Y-31254500D01*
X-27277866Y-31254500D01*
X-27490922Y-31288245D01*
X-27490924Y-31288245D01*
X-27490926Y-31288246D01*
X-27696089Y-31354908D01*
X-27888299Y-31452843D01*
X-28062821Y-31579641D01*
X-28215359Y-31732179D01*
X-28342157Y-31906701D01*
X-28440092Y-32098911D01*
X-28506754Y-32304074D01*
X-28506754Y-32304077D01*
X-28540500Y-32517133D01*
X-28887000Y-32517133D01*
X-28887000Y-30749730D01*
X-28867315Y-30682691D01*
X-28850681Y-30662049D01*
X-28732289Y-30543657D01*
X-28728976Y-30538287D01*
X-28640186Y-30394334D01*
X-28585001Y-30227797D01*
X-28585001Y-30227795D01*
X-28585000Y-30227795D01*
X-28574500Y-30125016D01*
X-28574500Y-28774998D01*
X-28574501Y-28774981D01*
X-28585000Y-28672203D01*
X-28585001Y-28672200D01*
X-28640185Y-28505668D01*
X-28640187Y-28505663D01*
X-28732289Y-28356342D01*
X-28856342Y-28232289D01*
X-29005663Y-28140187D01*
X-29005668Y-28140185D01*
X-29109641Y-28105732D01*
X-29172203Y-28085001D01*
X-29172204Y-28085000D01*
X-29274989Y-28074500D01*
X-30000001Y-28074500D01*
X-30000019Y-28074501D01*
X-30102796Y-28085000D01*
X-30102799Y-28085001D01*
X-30269331Y-28140185D01*
X-30269336Y-28140187D01*
X-30305300Y-28162370D01*
X-30418656Y-28232288D01*
X-30542712Y-28356344D01*
X-30634814Y-28505666D01*
X-30689999Y-28672203D01*
X-30700500Y-28774991D01*
X-30700499Y-30125008D01*
X-30689999Y-30227797D01*
X-30634814Y-30394334D01*
X-30542712Y-30543656D01*
X-30482278Y-30604090D01*
X-30424319Y-30662049D01*
X-30390834Y-30723372D01*
X-30388000Y-30749730D01*
X-30388000Y-33300270D01*
X-30407685Y-33367309D01*
X-30424319Y-33387951D01*
X-31484212Y-34447844D01*
X-31545535Y-34481329D01*
X-31615227Y-34476345D01*
X-31671160Y-34434473D01*
X-31695577Y-34369009D01*
X-31695296Y-34348010D01*
X-31684659Y-34240000D01*
X-31703975Y-34043870D01*
X-31761188Y-33855266D01*
X-31854086Y-33681467D01*
X-31854090Y-33681460D01*
X-31979116Y-33529116D01*
X-32131460Y-33404090D01*
X-32131464Y-33404088D01*
X-32255629Y-33337720D01*
X-32305473Y-33288757D01*
X-32320933Y-33220619D01*
X-32297101Y-33154940D01*
X-32255628Y-33119004D01*
X-32081467Y-33025913D01*
X-32081460Y-33025909D01*
X-31929116Y-32900883D01*
X-31804090Y-32748539D01*
X-31804086Y-32748532D01*
X-31711188Y-32574733D01*
X-31653975Y-32386129D01*
X-31634659Y-32190000D01*
X-31653975Y-31993870D01*
X-31711188Y-31805266D01*
X-31804086Y-31631467D01*
X-31804090Y-31631460D01*
X-31929116Y-31479116D01*
X-32081460Y-31354090D01*
X-32081467Y-31354086D01*
X-32255266Y-31261188D01*
X-32443870Y-31203975D01*
X-32640000Y-31184659D01*
X-32836129Y-31203975D01*
X-32836132Y-31203976D01*
X-33024727Y-31261186D01*
X-33024733Y-31261188D01*
X-33198532Y-31354086D01*
X-33202998Y-31357070D01*
X-33269675Y-31377949D01*
X-33337056Y-31359466D01*
X-33383747Y-31307488D01*
X-33395249Y-31241368D01*
X-33390000Y-31189991D01*
X-33390000Y-31077500D01*
X-34891000Y-31077500D01*
X-34958039Y-31057815D01*
X-35003794Y-31005011D01*
X-35015000Y-30953500D01*
X-35015000Y-30701500D01*
X-34995315Y-30634461D01*
X-34942511Y-30588706D01*
X-34891000Y-30577500D01*
X-33485230Y-30577500D01*
X-33418191Y-30597185D01*
X-33397549Y-30613819D01*
X-33343656Y-30667712D01*
X-33194334Y-30759814D01*
X-33027797Y-30814999D01*
X-32925009Y-30825500D01*
X-32199992Y-30825499D01*
X-32199984Y-30825498D01*
X-32199980Y-30825498D01*
X-32097203Y-30814999D01*
X-32097200Y-30814998D01*
X-32096723Y-30814840D01*
X-31930666Y-30759814D01*
X-31781344Y-30667712D01*
X-31657288Y-30543656D01*
X-31565186Y-30394334D01*
X-31510001Y-30227797D01*
X-31510001Y-30227795D01*
X-31510000Y-30227795D01*
X-31499500Y-30125016D01*
X-31499500Y-28774998D01*
X-31499501Y-28774981D01*
X-31510000Y-28672203D01*
X-31510001Y-28672200D01*
X-31565185Y-28505668D01*
X-31565187Y-28505663D01*
X-31657289Y-28356342D01*
X-31781342Y-28232289D01*
X-31930663Y-28140187D01*
X-31930668Y-28140185D01*
X-32034641Y-28105732D01*
X-32097203Y-28085001D01*
X-32097204Y-28085000D01*
X-32199989Y-28074500D01*
X-32925001Y-28074500D01*
X-32925019Y-28074501D01*
X-33027796Y-28085000D01*
X-33027799Y-28085001D01*
X-33194331Y-28140185D01*
X-33194334Y-28140186D01*
X-33194336Y-28140187D01*
X-33194342Y-28140190D01*
X-33200403Y-28143929D01*
X-33267795Y-28162370D01*
X-33334458Y-28141448D01*
X-33379228Y-28087806D01*
X-33389500Y-28038391D01*
X-33389500Y-27539998D01*
X-33389501Y-27539980D01*
X-33400000Y-27437203D01*
X-33400001Y-27437200D01*
X-33455185Y-27270668D01*
X-33455187Y-27270663D01*
X-33547289Y-27121342D01*
X-33671342Y-26997289D01*
X-33820663Y-26905187D01*
X-33820668Y-26905185D01*
X-33904670Y-26877349D01*
X-33987203Y-26850001D01*
X-33987204Y-26850000D01*
X-33993827Y-26848583D01*
X-33993204Y-26845675D01*
X-34045877Y-26823821D01*
X-34085692Y-26766405D01*
X-34088144Y-26696578D01*
X-34085720Y-26688311D01*
X-34037501Y-26542797D01*
X-34037501Y-26542795D01*
X-34037500Y-26542795D01*
X-34027000Y-26440016D01*
X-34027000Y-25089998D01*
X-34027001Y-25089981D01*
X-34037500Y-24987203D01*
X-34037501Y-24987200D01*
X-34092685Y-24820668D01*
X-34092687Y-24820663D01*
X-34184789Y-24671342D01*
X-34308842Y-24547289D01*
X-34417874Y-24480038D01*
X-34464598Y-24428090D01*
X-34475821Y-24359127D01*
X-34447977Y-24295045D01*
X-34389908Y-24256189D01*
X-34352780Y-24250499D01*
X-33367128Y-24250499D01*
X-33318757Y-24245299D01*
X-33307516Y-24244091D01*
X-33172671Y-24193797D01*
X-33172664Y-24193793D01*
X-33057455Y-24107547D01*
X-33057452Y-24107544D01*
X-32971206Y-23992335D01*
X-32971202Y-23992328D01*
X-32920908Y-23857482D01*
X-32914501Y-23797883D01*
X-32914500Y-23797881D01*
X-32914500Y-23797873D01*
X-32914500Y-23325364D01*
X-32914500Y-22802129D01*
X-32914501Y-22802123D01*
X-32920908Y-22742516D01*
X-32971202Y-22607671D01*
X-32971206Y-22607664D01*
X-33057452Y-22492455D01*
X-33057455Y-22492452D01*
X-33172664Y-22406206D01*
X-33172671Y-22406202D01*
X-33307516Y-22355908D01*
X-33353757Y-22350937D01*
X-33418307Y-22324199D01*
X-33458155Y-22266806D01*
X-33464500Y-22227648D01*
X-33464500Y-22221052D01*
X-33444815Y-22154013D01*
X-33436356Y-22142392D01*
X-33429090Y-22133538D01*
X-33422010Y-22120292D01*
X-33336187Y-21959730D01*
X-33278975Y-21771129D01*
X-33259659Y-21575000D01*
X-33278975Y-21378870D01*
X-33336188Y-21190266D01*
X-33423223Y-21027436D01*
X-33437465Y-20959033D01*
X-33412465Y-20893789D01*
X-33356160Y-20852419D01*
X-33327119Y-20845693D01*
X-33307620Y-20843596D01*
X-33172913Y-20793354D01*
X-33172906Y-20793350D01*
X-33057812Y-20707190D01*
X-33057809Y-20707187D01*
X-32971649Y-20592093D01*
X-32971645Y-20592086D01*
X-32921403Y-20457379D01*
X-32921401Y-20457372D01*
X-32915000Y-20397844D01*
X-32915000Y-20150000D01*
X-35615000Y-20150000D01*
X-35615000Y-20397827D01*
X-35614999Y-20397844D01*
X-35608598Y-20457372D01*
X-35608596Y-20457379D01*
X-35558354Y-20592086D01*
X-35558350Y-20592093D01*
X-35472190Y-20707187D01*
X-35472187Y-20707190D01*
X-35357093Y-20793350D01*
X-35357086Y-20793354D01*
X-35222379Y-20843596D01*
X-35222380Y-20843596D01*
X-35202880Y-20845693D01*
X-35138329Y-20872431D01*
X-35098480Y-20929823D01*
X-35095985Y-20999648D01*
X-35106776Y-21027436D01*
X-35193810Y-21190266D01*
X-35193814Y-21190273D01*
X-35251024Y-21378868D01*
X-35270341Y-21575000D01*
X-35251024Y-21771132D01*
X-35193814Y-21959727D01*
X-35100910Y-22133538D01*
X-35093649Y-22142385D01*
X-35066334Y-22206691D01*
X-35065500Y-22221052D01*
X-35065500Y-22227648D01*
X-35085185Y-22294687D01*
X-35137989Y-22340442D01*
X-35176245Y-22350938D01*
X-35222483Y-22355909D01*
X-35357328Y-22406202D01*
X-35357335Y-22406206D01*
X-35472544Y-22492452D01*
X-35472547Y-22492455D01*
X-35558793Y-22607664D01*
X-35558797Y-22607671D01*
X-35570887Y-22640086D01*
X-35609091Y-22742517D01*
X-35615500Y-22802127D01*
X-35615499Y-23797872D01*
X-35609091Y-23857483D01*
X-35558796Y-23992331D01*
X-35472546Y-24107546D01*
X-35392990Y-24167101D01*
X-35351121Y-24223033D01*
X-35346137Y-24292724D01*
X-35379622Y-24354047D01*
X-35440945Y-24387532D01*
X-35454701Y-24389724D01*
X-35555297Y-24400001D01*
X-35555299Y-24400001D01*
X-35721831Y-24455185D01*
X-35721836Y-24455187D01*
X-35762126Y-24480038D01*
X-35871156Y-24547288D01*
X-35995212Y-24671344D01*
X-36087314Y-24820666D01*
X-36142499Y-24987203D01*
X-36153000Y-25089991D01*
X-36152999Y-25439549D01*
X-36152999Y-25715270D01*
X-36172683Y-25782309D01*
X-36189318Y-25802951D01*
X-36654549Y-26268181D01*
X-36715872Y-26301666D01*
X-36742230Y-26304500D01*
X-37080500Y-26304500D01*
X-37147539Y-26284815D01*
X-37193294Y-26232011D01*
X-37204500Y-26180500D01*
X-37204500Y-25287129D01*
X-37204501Y-25287123D01*
X-37210908Y-25227518D01*
X-37223659Y-25193331D01*
X-37228642Y-25123639D01*
X-37223659Y-25106669D01*
X-37210908Y-25072481D01*
X-37204501Y-25012883D01*
X-37204500Y-25012881D01*
X-37204500Y-25012873D01*
X-37204500Y-24515499D01*
X-37204500Y-24017129D01*
X-37204501Y-24017123D01*
X-37210908Y-23957518D01*
X-37223659Y-23923331D01*
X-37228642Y-23853639D01*
X-37223659Y-23836669D01*
X-37210908Y-23802481D01*
X-37204501Y-23742883D01*
X-37204500Y-23742864D01*
X-37204500Y-22747129D01*
X-37204501Y-22747123D01*
X-37210908Y-22687518D01*
X-37223659Y-22653331D01*
X-37228642Y-22583639D01*
X-37223659Y-22566669D01*
X-37210908Y-22532481D01*
X-37204501Y-22472883D01*
X-37204500Y-22472864D01*
X-37204500Y-21477129D01*
X-37204501Y-21477123D01*
X-37210908Y-21417520D01*
X-37223926Y-21382617D01*
X-37228909Y-21312925D01*
X-37223925Y-21295952D01*
X-37211403Y-21262379D01*
X-37211401Y-21262372D01*
X-37205000Y-21202844D01*
X-37205000Y-20955000D01*
X-39705000Y-20955000D01*
X-39705000Y-21100500D01*
X-39724685Y-21167539D01*
X-39777489Y-21213294D01*
X-39829000Y-21224500D01*
X-41848920Y-21224500D01*
X-41993907Y-21253340D01*
X-41993917Y-21253343D01*
X-42130488Y-21309912D01*
X-42130501Y-21309919D01*
X-42253415Y-21392048D01*
X-42253419Y-21392051D01*
X-43710868Y-22849500D01*
X-45122952Y-24261584D01*
X-45159366Y-24316083D01*
X-45205084Y-24384505D01*
X-45205085Y-24384507D01*
X-45205087Y-24384511D01*
X-45254666Y-24504206D01*
X-45261658Y-24521087D01*
X-45261658Y-24521091D01*
X-45261659Y-24521092D01*
X-45290500Y-24666079D01*
X-45290500Y-25442879D01*
X-45310185Y-25509918D01*
X-45362989Y-25555673D01*
X-45432147Y-25565617D01*
X-45488811Y-25542146D01*
X-45542910Y-25501647D01*
X-45542913Y-25501645D01*
X-45677620Y-25451403D01*
X-45677627Y-25451401D01*
X-45737155Y-25445000D01*
X-47635000Y-25445000D01*
X-48135000Y-25445000D01*
X-50032844Y-25445000D01*
X-50092372Y-25451401D01*
X-50092379Y-25451403D01*
X-50227086Y-25501645D01*
X-50227093Y-25501649D01*
X-50342187Y-25587809D01*
X-50342190Y-25587812D01*
X-50428350Y-25702906D01*
X-50428354Y-25702913D01*
X-50478596Y-25837620D01*
X-50478598Y-25837627D01*
X-50484999Y-25897155D01*
X-50485000Y-25897172D01*
X-54704500Y-25897172D01*
X-54704500Y-25788597D01*
X-54704500Y-25287129D01*
X-54704501Y-25287123D01*
X-54710908Y-25227518D01*
X-54723659Y-25193331D01*
X-54728642Y-25123639D01*
X-54723659Y-25106669D01*
X-54710908Y-25072481D01*
X-54704501Y-25012883D01*
X-54704500Y-25012881D01*
X-54704500Y-25012873D01*
X-54704500Y-24515499D01*
X-54704500Y-24017129D01*
X-54704501Y-24017123D01*
X-54710908Y-23957518D01*
X-54723659Y-23923331D01*
X-54728642Y-23853639D01*
X-54723659Y-23836669D01*
X-54710908Y-23802481D01*
X-54704501Y-23742883D01*
X-54704500Y-23742864D01*
X-54704500Y-23325364D01*
X-54704500Y-22849499D01*
X-54684817Y-22782461D01*
X-54632013Y-22736706D01*
X-54580501Y-22725500D01*
X-54501079Y-22725500D01*
X-54356092Y-22696659D01*
X-54356091Y-22696658D01*
X-54356087Y-22696658D01*
X-54334021Y-22687518D01*
X-54219509Y-22640086D01*
X-54219507Y-22640085D01*
X-54219506Y-22640084D01*
X-54219505Y-22640084D01*
X-54170270Y-22607186D01*
X-54109630Y-22566669D01*
X-54096586Y-22557954D01*
X-52875451Y-21336819D01*
X-52814128Y-21303334D01*
X-52787770Y-21300500D01*
X-48376515Y-21300500D01*
X-48309476Y-21320185D01*
X-48297848Y-21328648D01*
X-48258538Y-21360910D01*
X-48084727Y-21453814D01*
X-47896132Y-21511024D01*
X-47700000Y-21530341D01*
X-47503868Y-21511024D01*
X-47315273Y-21453814D01*
X-47315269Y-21453811D01*
X-47315266Y-21453811D01*
X-47141467Y-21360913D01*
X-47141460Y-21360909D01*
X-46989116Y-21235883D01*
X-46864090Y-21083539D01*
X-46864086Y-21083532D01*
X-46771188Y-20909733D01*
X-46761685Y-20878408D01*
X-46733046Y-20783997D01*
X-46713975Y-20721129D01*
X-46694659Y-20525000D01*
X-46713975Y-20328870D01*
X-46750892Y-20207172D01*
X-39705000Y-20207172D01*
X-39705000Y-20455000D01*
X-38705000Y-20455000D01*
X-38205000Y-20455000D01*
X-37205000Y-20455000D01*
X-37205000Y-20207155D01*
X-37211401Y-20147627D01*
X-37211403Y-20147620D01*
X-37261645Y-20012913D01*
X-37261649Y-20012906D01*
X-37347809Y-19897812D01*
X-37347812Y-19897809D01*
X-37462906Y-19811649D01*
X-37462913Y-19811645D01*
X-37597620Y-19761403D01*
X-37597627Y-19761401D01*
X-37657155Y-19755000D01*
X-38205000Y-19755000D01*
X-38205000Y-20455000D01*
X-38705000Y-20455000D01*
X-38705000Y-19755000D01*
X-39252844Y-19755000D01*
X-39312372Y-19761401D01*
X-39312379Y-19761403D01*
X-39447086Y-19811645D01*
X-39447093Y-19811649D01*
X-39562187Y-19897809D01*
X-39562190Y-19897812D01*
X-39648350Y-20012906D01*
X-39648354Y-20012913D01*
X-39698596Y-20147620D01*
X-39698598Y-20147627D01*
X-39704999Y-20207155D01*
X-39705000Y-20207172D01*
X-46750892Y-20207172D01*
X-46771188Y-20140266D01*
X-46864086Y-19966467D01*
X-46864090Y-19966460D01*
X-46989116Y-19814116D01*
X-47141460Y-19689090D01*
X-47141467Y-19689086D01*
X-47310273Y-19598858D01*
X-47360117Y-19549896D01*
X-47375578Y-19481758D01*
X-47351746Y-19416079D01*
X-47296189Y-19373710D01*
X-47251820Y-19365500D01*
X-35739000Y-19365500D01*
X-35671961Y-19385185D01*
G37*
%TD.AperFunction*%
%TA.AperFunction,Conductor*%
G36*
X-62221552Y-39845185D02*
G01*
X-62175797Y-39897989D01*
X-62165853Y-39967147D01*
X-62194878Y-40030703D01*
X-62214281Y-40048767D01*
X-62222546Y-40054954D01*
X-62222547Y-40054955D01*
X-62308793Y-40170164D01*
X-62308797Y-40170171D01*
X-62345168Y-40267687D01*
X-62359091Y-40305017D01*
X-62365500Y-40364627D01*
X-62365499Y-42365372D01*
X-62359091Y-42424983D01*
X-62308796Y-42559831D01*
X-62222546Y-42675046D01*
X-62107331Y-42761296D01*
X-61972483Y-42811591D01*
X-61912873Y-42818000D01*
X-59817128Y-42817999D01*
X-59768757Y-42812799D01*
X-59757516Y-42811591D01*
X-59622671Y-42761297D01*
X-59622664Y-42761293D01*
X-59507455Y-42675047D01*
X-59507452Y-42675044D01*
X-59421206Y-42559835D01*
X-59421202Y-42559828D01*
X-59370908Y-42424982D01*
X-59364501Y-42365383D01*
X-59364500Y-42365381D01*
X-59364500Y-42365373D01*
X-59364500Y-42139500D01*
X-59344815Y-42072461D01*
X-59292011Y-42026706D01*
X-59240500Y-42015500D01*
X-58264730Y-42015500D01*
X-58197691Y-42035185D01*
X-58177049Y-42051819D01*
X-58058656Y-42170212D01*
X-57909334Y-42262314D01*
X-57742797Y-42317499D01*
X-57640009Y-42328000D01*
X-56289992Y-42327999D01*
X-56289983Y-42327998D01*
X-56289981Y-42327998D01*
X-56187203Y-42317499D01*
X-56187200Y-42317498D01*
X-56020666Y-42262314D01*
X-55871344Y-42170212D01*
X-55747288Y-42046156D01*
X-55700969Y-41971061D01*
X-55649022Y-41924337D01*
X-55580060Y-41913114D01*
X-55515977Y-41940957D01*
X-55489891Y-41971064D01*
X-55482317Y-41983342D01*
X-55482316Y-41983344D01*
X-55358345Y-42107315D01*
X-55209124Y-42199356D01*
X-55209119Y-42199358D01*
X-55042697Y-42254505D01*
X-55042690Y-42254506D01*
X-54939980Y-42264999D01*
X-54515000Y-42264999D01*
X-54515000Y-41076500D01*
X-54495315Y-41009461D01*
X-54442511Y-40963706D01*
X-54391000Y-40952500D01*
X-52890001Y-40952500D01*
X-52890001Y-40840013D01*
X-52897961Y-40762102D01*
X-52885191Y-40693409D01*
X-52837311Y-40642525D01*
X-52774603Y-40625500D01*
X-50762230Y-40625500D01*
X-50695191Y-40645185D01*
X-50674549Y-40661819D01*
X-49951819Y-41384549D01*
X-49918334Y-41445872D01*
X-49915500Y-41472230D01*
X-49915500Y-42165270D01*
X-49935185Y-42232309D01*
X-49951819Y-42252951D01*
X-50070212Y-42371344D01*
X-50162314Y-42520666D01*
X-50217499Y-42687203D01*
X-50228000Y-42789991D01*
X-50227999Y-43374166D01*
X-50227999Y-43541270D01*
X-50247683Y-43608309D01*
X-50300487Y-43654064D01*
X-50369646Y-43664008D01*
X-50433202Y-43634983D01*
X-50439679Y-43628952D01*
X-50471342Y-43597289D01*
X-50620663Y-43505187D01*
X-50620668Y-43505185D01*
X-50704670Y-43477349D01*
X-50787203Y-43450001D01*
X-50787204Y-43450000D01*
X-50889983Y-43439500D01*
X-52216270Y-43439500D01*
X-52283309Y-43419815D01*
X-52329064Y-43367011D01*
X-52339008Y-43297853D01*
X-52309983Y-43234297D01*
X-52303951Y-43227819D01*
X-52265475Y-43189343D01*
X-52204152Y-43155858D01*
X-52189950Y-43153621D01*
X-52100118Y-43144774D01*
X-51911523Y-43087564D01*
X-51911519Y-43087561D01*
X-51911516Y-43087561D01*
X-51737717Y-42994663D01*
X-51737710Y-42994659D01*
X-51585366Y-42869633D01*
X-51460340Y-42717289D01*
X-51460336Y-42717282D01*
X-51367438Y-42543483D01*
X-51360582Y-42520884D01*
X-51313408Y-42365372D01*
X-51310225Y-42354879D01*
X-51290909Y-42158750D01*
X-51310225Y-41962620D01*
X-51367438Y-41774016D01*
X-51460336Y-41600217D01*
X-51460340Y-41600210D01*
X-51585366Y-41447866D01*
X-51737710Y-41322840D01*
X-51737717Y-41322836D01*
X-51911516Y-41229938D01*
X-52100120Y-41172725D01*
X-52296250Y-41153409D01*
X-52492379Y-41172725D01*
X-52492382Y-41172726D01*
X-52680977Y-41229936D01*
X-52680983Y-41229938D01*
X-52854782Y-41322836D01*
X-52854789Y-41322840D01*
X-52978482Y-41424353D01*
X-53042792Y-41451666D01*
X-53057147Y-41452500D01*
X-54015000Y-41452500D01*
X-54015000Y-42264999D01*
X-53763229Y-42264999D01*
X-53696190Y-42284684D01*
X-53650435Y-42337488D01*
X-53640491Y-42406646D01*
X-53669516Y-42470202D01*
X-53675548Y-42476680D01*
X-54227049Y-43028181D01*
X-54288372Y-43061666D01*
X-54314730Y-43064500D01*
X-54940001Y-43064500D01*
X-54940019Y-43064501D01*
X-55042796Y-43075000D01*
X-55042799Y-43075001D01*
X-55209331Y-43130185D01*
X-55209336Y-43130187D01*
X-55250955Y-43155858D01*
X-55358656Y-43222288D01*
X-55358657Y-43222289D01*
X-55477049Y-43340681D01*
X-55538372Y-43374166D01*
X-55564730Y-43377000D01*
X-55727770Y-43377000D01*
X-55794809Y-43357315D01*
X-55815451Y-43340681D01*
X-55871342Y-43284789D01*
X-56020663Y-43192687D01*
X-56020668Y-43192685D01*
X-56125432Y-43157970D01*
X-56187203Y-43137501D01*
X-56187204Y-43137500D01*
X-56289989Y-43127000D01*
X-57640001Y-43127000D01*
X-57640018Y-43127001D01*
X-57742796Y-43137500D01*
X-57742799Y-43137501D01*
X-57852651Y-43173903D01*
X-57909334Y-43192686D01*
X-58058656Y-43284788D01*
X-58182712Y-43408844D01*
X-58274814Y-43558166D01*
X-58329999Y-43724703D01*
X-58340500Y-43827491D01*
X-58340499Y-44190000D01*
X-58340499Y-44294103D01*
X-58360183Y-44361142D01*
X-58412987Y-44406897D01*
X-58482146Y-44416841D01*
X-58522951Y-44403462D01*
X-58555268Y-44386188D01*
X-58555270Y-44386187D01*
X-58555273Y-44386186D01*
X-58708064Y-44339837D01*
X-58743870Y-44328975D01*
X-58940000Y-44309659D01*
X-59136129Y-44328975D01*
X-59136132Y-44328976D01*
X-59324727Y-44386186D01*
X-59324733Y-44386188D01*
X-59498532Y-44479086D01*
X-59498539Y-44479090D01*
X-59650883Y-44604116D01*
X-59775909Y-44756460D01*
X-59775913Y-44756467D01*
X-59868811Y-44930266D01*
X-59868811Y-44930269D01*
X-59868814Y-44930273D01*
X-59926024Y-45118868D01*
X-59945341Y-45315000D01*
X-59926024Y-45511132D01*
X-59868814Y-45699727D01*
X-59775910Y-45873538D01*
X-59650883Y-46025883D01*
X-59498538Y-46150910D01*
X-59324727Y-46243814D01*
X-59136132Y-46301024D01*
X-58940000Y-46320341D01*
X-58939998Y-46320340D01*
X-58939845Y-46320356D01*
X-58875058Y-46346517D01*
X-58834699Y-46403551D01*
X-58827999Y-46443753D01*
X-58827999Y-47740008D01*
X-58817499Y-47842797D01*
X-58762314Y-48009334D01*
X-58670212Y-48158656D01*
X-58576088Y-48252780D01*
X-58551819Y-48277049D01*
X-58518334Y-48338372D01*
X-58515500Y-48364730D01*
X-58515500Y-48840500D01*
X-58535185Y-48907539D01*
X-58587989Y-48953294D01*
X-58639500Y-48964500D01*
X-58965369Y-48964500D01*
X-58965376Y-48964501D01*
X-59024983Y-48970908D01*
X-59159828Y-49021202D01*
X-59159835Y-49021206D01*
X-59275044Y-49107452D01*
X-59275047Y-49107455D01*
X-59361293Y-49222664D01*
X-59361296Y-49222669D01*
X-59371690Y-49250538D01*
X-59413561Y-49306473D01*
X-59479024Y-49330891D01*
X-59547298Y-49316040D01*
X-59560759Y-49307525D01*
X-59743461Y-49174783D01*
X-59947244Y-49070950D01*
X-60164751Y-49000278D01*
X-60361439Y-48969126D01*
X-60390646Y-48964500D01*
X-60619354Y-48964500D01*
X-60710751Y-48978976D01*
X-60845246Y-49000278D01*
X-60845249Y-49000278D01*
X-61062755Y-49070950D01*
X-61235150Y-49158790D01*
X-61266538Y-49174783D01*
X-61451566Y-49309214D01*
X-61613286Y-49470934D01*
X-61672547Y-49552500D01*
X-61674991Y-49555864D01*
X-61730321Y-49598529D01*
X-61799935Y-49604508D01*
X-61861730Y-49571902D01*
X-61875627Y-49555864D01*
X-61937097Y-49471257D01*
X-62098757Y-49309597D01*
X-62283723Y-49175211D01*
X-62487431Y-49071417D01*
X-62685818Y-49006957D01*
X-62743494Y-48967519D01*
X-62754999Y-48940292D01*
X-62766795Y-48961897D01*
X-62773951Y-48968513D01*
X-62795000Y-48986490D01*
X-62795000Y-49974252D01*
X-62832708Y-49952482D01*
X-62972591Y-49915000D01*
X-63117409Y-49915000D01*
X-63257292Y-49952482D01*
X-63295000Y-49974252D01*
X-63295000Y-48986490D01*
X-63385124Y-49000765D01*
X-63602568Y-49071417D01*
X-63806276Y-49175211D01*
X-63991242Y-49309597D01*
X-64152902Y-49471257D01*
X-64287288Y-49656223D01*
X-64391082Y-49859929D01*
X-64461734Y-50077371D01*
X-64483532Y-50215000D01*
X-63535748Y-50215000D01*
X-63557518Y-50252708D01*
X-63595000Y-50392591D01*
X-63595000Y-50537409D01*
X-63557518Y-50677292D01*
X-63535748Y-50715000D01*
X-64483532Y-50715000D01*
X-64461734Y-50852628D01*
X-64391082Y-51070070D01*
X-64287288Y-51273776D01*
X-64152902Y-51458742D01*
X-63991242Y-51620402D01*
X-63806276Y-51754788D01*
X-63602570Y-51858582D01*
X-63385128Y-51929234D01*
X-63295000Y-51943508D01*
X-63295000Y-50955747D01*
X-63257292Y-50977518D01*
X-63117409Y-51015000D01*
X-62972591Y-51015000D01*
X-62832708Y-50977518D01*
X-62795000Y-50955747D01*
X-62795000Y-51943509D01*
X-62704871Y-51929234D01*
X-62487429Y-51858582D01*
X-62283723Y-51754788D01*
X-62098757Y-51620402D01*
X-61937097Y-51458742D01*
X-61937097Y-51458741D01*
X-61875626Y-51374135D01*
X-61820296Y-51331470D01*
X-61750682Y-51325491D01*
X-61688887Y-51358097D01*
X-61674999Y-51374125D01*
X-61613286Y-51459066D01*
X-61577537Y-51494815D01*
X-61541819Y-51530533D01*
X-61508334Y-51591856D01*
X-61505500Y-51618214D01*
X-61505500Y-52764218D01*
X-61525185Y-52831257D01*
X-61541819Y-52851899D01*
X-62218101Y-53528181D01*
X-62279424Y-53561666D01*
X-62305782Y-53564500D01*
X-63413542Y-53564500D01*
X-63427502Y-53567277D01*
X-63462093Y-53574157D01*
X-63462094Y-53574158D01*
X-63606828Y-53602947D01*
X-63606840Y-53602950D01*
X-63638026Y-53615868D01*
X-63638028Y-53615869D01*
X-63788907Y-53678364D01*
X-63788920Y-53678371D01*
X-63952781Y-53787860D01*
X-63952785Y-53787863D01*
X-64096459Y-53931537D01*
X-64096479Y-53931559D01*
X-67399655Y-57234735D01*
X-67399686Y-57234764D01*
X-67542139Y-57377217D01*
X-67628525Y-57506504D01*
X-67651632Y-57541086D01*
X-67693051Y-57641082D01*
X-67718799Y-57703245D01*
X-67718801Y-57703249D01*
X-67727049Y-57723160D01*
X-67727052Y-57723169D01*
X-67765500Y-57916456D01*
X-67765500Y-58144624D01*
X-67785185Y-58211663D01*
X-67837989Y-58257418D01*
X-67907147Y-58267362D01*
X-67970703Y-58238337D01*
X-67995100Y-58206014D01*
X-67996395Y-58206813D01*
X-68014642Y-58177230D01*
X-68092288Y-58051344D01*
X-68092287Y-58051344D01*
X-68092289Y-58051342D01*
X-68216342Y-57927289D01*
X-68365663Y-57835187D01*
X-68365668Y-57835185D01*
X-68475146Y-57798908D01*
X-68532203Y-57780001D01*
X-68532204Y-57780000D01*
X-68630745Y-57769933D01*
X-68695436Y-57743536D01*
X-68705822Y-57734256D01*
X-68938181Y-57501898D01*
X-68971666Y-57440575D01*
X-68974500Y-57414217D01*
X-68974500Y-52419783D01*
X-68954815Y-52352744D01*
X-68902011Y-52306989D01*
X-68832853Y-52297045D01*
X-68769297Y-52326070D01*
X-68762819Y-52332102D01*
X-68742176Y-52352744D01*
X-68727781Y-52367139D01*
X-68563914Y-52476631D01*
X-68381836Y-52552051D01*
X-68188543Y-52590499D01*
X-68188542Y-52590500D01*
X-68188540Y-52590500D01*
X-67991458Y-52590500D01*
X-67991455Y-52590499D01*
X-67988077Y-52589827D01*
X-67798164Y-52552051D01*
X-67616086Y-52476631D01*
X-67616083Y-52476629D01*
X-67616079Y-52476627D01*
X-67452220Y-52367140D01*
X-67417182Y-52332102D01*
X-67381549Y-52296469D01*
X-67381530Y-52296452D01*
X-67237863Y-52152785D01*
X-67237860Y-52152781D01*
X-67128369Y-51988917D01*
X-67073660Y-51856836D01*
X-67052949Y-51806836D01*
X-67052947Y-51806828D01*
X-67027123Y-51677001D01*
X-67027123Y-51677000D01*
X-67014500Y-51613543D01*
X-67014500Y-49922566D01*
X-66994815Y-49855527D01*
X-66978181Y-49834885D01*
X-64621449Y-47478153D01*
X-64560126Y-47444668D01*
X-64490434Y-47449652D01*
X-64434501Y-47491524D01*
X-64417588Y-47522496D01*
X-64389367Y-47598161D01*
X-64252226Y-47849315D01*
X-64080739Y-48078395D01*
X-63878395Y-48280739D01*
X-63649315Y-48452226D01*
X-63398166Y-48589364D01*
X-63398165Y-48589364D01*
X-63398161Y-48589367D01*
X-63130046Y-48689369D01*
X-63130037Y-48689370D01*
X-63130037Y-48689371D01*
X-62850438Y-48750194D01*
X-62850436Y-48750194D01*
X-62850428Y-48750196D01*
X-62845641Y-48750538D01*
X-62780178Y-48774950D01*
X-62746085Y-48820485D01*
X-62711533Y-48782839D01*
X-62643959Y-48765077D01*
X-62638664Y-48765341D01*
X-62583256Y-48769304D01*
X-62565001Y-48770610D01*
X-62565000Y-48770610D01*
X-62564999Y-48770610D01*
X-62533220Y-48768337D01*
X-62279572Y-48750196D01*
X-62279568Y-48750195D01*
X-62279566Y-48750195D01*
X-61999962Y-48689371D01*
X-61999960Y-48689370D01*
X-61999954Y-48689369D01*
X-61731839Y-48589367D01*
X-61731834Y-48589364D01*
X-61731833Y-48589364D01*
X-61480690Y-48452229D01*
X-61480682Y-48452224D01*
X-61251612Y-48280745D01*
X-61251594Y-48280729D01*
X-61049270Y-48078405D01*
X-61049254Y-48078387D01*
X-60877775Y-47849317D01*
X-60877770Y-47849309D01*
X-60740635Y-47598166D01*
X-60739847Y-47596054D01*
X-60640631Y-47330046D01*
X-60640630Y-47330043D01*
X-60640628Y-47330037D01*
X-60579804Y-47050433D01*
X-60559390Y-46765001D01*
X-60559390Y-46764998D01*
X-60579804Y-46479566D01*
X-60640628Y-46199962D01*
X-60740635Y-45931833D01*
X-60877770Y-45680690D01*
X-60877775Y-45680682D01*
X-61049254Y-45451612D01*
X-61049270Y-45451594D01*
X-61251594Y-45249270D01*
X-61251612Y-45249254D01*
X-61480682Y-45077775D01*
X-61480690Y-45077770D01*
X-61731833Y-44940635D01*
X-61731832Y-44940635D01*
X-61999962Y-44840628D01*
X-62279566Y-44779804D01*
X-62564999Y-44759390D01*
X-62565001Y-44759390D01*
X-62850433Y-44779804D01*
X-63130037Y-44840628D01*
X-63130043Y-44840630D01*
X-63130046Y-44840631D01*
X-63388163Y-44936904D01*
X-63398166Y-44940635D01*
X-63649309Y-45077770D01*
X-63649315Y-45077774D01*
X-63703716Y-45118497D01*
X-63769180Y-45142913D01*
X-63837453Y-45128060D01*
X-63886858Y-45078655D01*
X-63902025Y-45019229D01*
X-63902025Y-41068307D01*
X-63882340Y-41001268D01*
X-63865706Y-40980626D01*
X-62746899Y-39861819D01*
X-62685576Y-39828334D01*
X-62659218Y-39825500D01*
X-62288591Y-39825500D01*
X-62221552Y-39845185D01*
G37*
%TD.AperFunction*%
%TA.AperFunction,Conductor*%
G36*
X-83021797Y-55209531D02*
G01*
X-82997462Y-55238145D01*
X-82907712Y-55383656D01*
X-82783656Y-55507712D01*
X-82634334Y-55599814D01*
X-82467797Y-55654999D01*
X-82365009Y-55665500D01*
X-80964992Y-55665499D01*
X-80964983Y-55665498D01*
X-80964981Y-55665498D01*
X-80862203Y-55654999D01*
X-80862200Y-55654998D01*
X-80849860Y-55650909D01*
X-80695666Y-55599814D01*
X-80568633Y-55521460D01*
X-80503539Y-55503000D01*
X-79970148Y-55503000D01*
X-79903109Y-55522685D01*
X-79873502Y-55549310D01*
X-79862722Y-55562722D01*
X-79714296Y-55682030D01*
X-79685399Y-55696361D01*
X-79684406Y-55696854D01*
X-79633093Y-55744275D01*
X-79615500Y-55807942D01*
X-79615500Y-56863541D01*
X-79600717Y-56937861D01*
X-79577435Y-57054908D01*
X-79577051Y-57056835D01*
X-79512681Y-57212238D01*
X-79502070Y-57237858D01*
X-79501632Y-57238914D01*
X-79427451Y-57349933D01*
X-79406573Y-57416608D01*
X-79425057Y-57483989D01*
X-79442872Y-57506504D01*
X-79480020Y-57543652D01*
X-79480022Y-57543655D01*
X-80053319Y-58116951D01*
X-80114642Y-58150436D01*
X-80184334Y-58145452D01*
X-80240267Y-58103580D01*
X-80264684Y-58038116D01*
X-80265000Y-58029270D01*
X-80265000Y-57877500D01*
X-81791000Y-57877500D01*
X-81858039Y-57857815D01*
X-81903794Y-57805011D01*
X-81915000Y-57753500D01*
X-81915000Y-57377500D01*
X-81415000Y-57377500D01*
X-80265001Y-57377500D01*
X-80265001Y-57165013D01*
X-80275494Y-57062302D01*
X-80330641Y-56895880D01*
X-80330643Y-56895875D01*
X-80422684Y-56746654D01*
X-80546654Y-56622684D01*
X-80695875Y-56530643D01*
X-80695880Y-56530641D01*
X-80862302Y-56475494D01*
X-80862309Y-56475493D01*
X-80965013Y-56465000D01*
X-81415000Y-56465000D01*
X-81415000Y-57377500D01*
X-81915000Y-57377500D01*
X-81915000Y-56465000D01*
X-82364971Y-56465000D01*
X-82364987Y-56465001D01*
X-82467697Y-56475494D01*
X-82634119Y-56530641D01*
X-82634124Y-56530643D01*
X-82783345Y-56622684D01*
X-82907315Y-56746654D01*
X-82999356Y-56895875D01*
X-82999358Y-56895880D01*
X-83018078Y-56952373D01*
X-83057850Y-57009818D01*
X-83122366Y-57036641D01*
X-83191142Y-57024326D01*
X-83242342Y-56976783D01*
X-83253489Y-56952375D01*
X-83255639Y-56945884D01*
X-83255643Y-56945875D01*
X-83347682Y-56796657D01*
X-83447555Y-56696784D01*
X-83481039Y-56635461D01*
X-83476055Y-56565769D01*
X-83447554Y-56521422D01*
X-83384789Y-56458657D01*
X-83292687Y-56309336D01*
X-83292685Y-56309331D01*
X-83254022Y-56192654D01*
X-83237501Y-56142797D01*
X-83237501Y-56142795D01*
X-83237500Y-56142795D01*
X-83227000Y-56040016D01*
X-83227000Y-55303244D01*
X-83207315Y-55236205D01*
X-83154511Y-55190450D01*
X-83085353Y-55180506D01*
X-83021797Y-55209531D01*
G37*
%TD.AperFunction*%
%TA.AperFunction,Conductor*%
G36*
X-64851621Y-19385185D02*
G01*
X-64805866Y-19437989D01*
X-64795922Y-19507147D01*
X-64824947Y-19570703D01*
X-64883725Y-19608477D01*
X-64892302Y-19610666D01*
X-65030037Y-19640628D01*
X-65030043Y-19640630D01*
X-65030046Y-19640631D01*
X-65159969Y-19689090D01*
X-65298166Y-19740635D01*
X-65549309Y-19877770D01*
X-65549317Y-19877775D01*
X-65778387Y-20049254D01*
X-65778405Y-20049270D01*
X-65980729Y-20251594D01*
X-65980745Y-20251612D01*
X-66152224Y-20480682D01*
X-66152229Y-20480690D01*
X-66284201Y-20722379D01*
X-66289367Y-20731839D01*
X-66389369Y-20999954D01*
X-66389370Y-20999960D01*
X-66389371Y-20999962D01*
X-66446454Y-21262372D01*
X-66450196Y-21279572D01*
X-66460062Y-21417517D01*
X-66470610Y-21564998D01*
X-66470610Y-21565001D01*
X-66470598Y-21565162D01*
X-66450196Y-21850428D01*
X-66389369Y-22130046D01*
X-66289367Y-22398161D01*
X-66152226Y-22649315D01*
X-65980739Y-22878395D01*
X-65778395Y-23080739D01*
X-65549315Y-23252226D01*
X-65298166Y-23389364D01*
X-65298165Y-23389364D01*
X-65298161Y-23389367D01*
X-65078956Y-23471126D01*
X-65023025Y-23512997D01*
X-64998608Y-23578461D01*
X-65013460Y-23646734D01*
X-65062865Y-23696139D01*
X-65122292Y-23711307D01*
X-77885727Y-23711307D01*
X-78030714Y-23740147D01*
X-78030724Y-23740150D01*
X-78167295Y-23796719D01*
X-78167308Y-23796726D01*
X-78290222Y-23878855D01*
X-78290226Y-23878858D01*
X-81408656Y-26997288D01*
X-84497952Y-30086584D01*
X-84541983Y-30152483D01*
X-84576164Y-30203639D01*
X-84580083Y-30209504D01*
X-84580087Y-30209511D01*
X-84610133Y-30282050D01*
X-84636658Y-30346087D01*
X-84636658Y-30346091D01*
X-84636659Y-30346092D01*
X-84665500Y-30491079D01*
X-84665500Y-52053000D01*
X-84685185Y-52120039D01*
X-84737989Y-52165794D01*
X-84789500Y-52177000D01*
X-85272492Y-52177000D01*
X-85339531Y-52157315D01*
X-85378031Y-52118097D01*
X-85378935Y-52116632D01*
X-85409484Y-52067103D01*
X-85422289Y-52046342D01*
X-85546342Y-51922289D01*
X-85695663Y-51830187D01*
X-85695668Y-51830185D01*
X-85779670Y-51802349D01*
X-85862203Y-51775001D01*
X-85862204Y-51775000D01*
X-85964989Y-51764500D01*
X-87365001Y-51764500D01*
X-87365018Y-51764501D01*
X-87467796Y-51775000D01*
X-87467799Y-51775001D01*
X-87634331Y-51830185D01*
X-87634336Y-51830187D01*
X-87666260Y-51849878D01*
X-87783656Y-51922288D01*
X-87907712Y-52046344D01*
X-87999814Y-52195666D01*
X-88022794Y-52265016D01*
X-88062567Y-52322461D01*
X-88127083Y-52349284D01*
X-88195858Y-52336969D01*
X-88247058Y-52289426D01*
X-88264500Y-52226012D01*
X-88264500Y-50502400D01*
X-88244815Y-50435361D01*
X-88192011Y-50389606D01*
X-88122853Y-50379662D01*
X-88059297Y-50408687D01*
X-88022794Y-50463396D01*
X-87999358Y-50534119D01*
X-87999356Y-50534124D01*
X-87907315Y-50683345D01*
X-87783345Y-50807315D01*
X-87634124Y-50899356D01*
X-87634119Y-50899358D01*
X-87467697Y-50954505D01*
X-87467690Y-50954506D01*
X-87364980Y-50964999D01*
X-86915000Y-50964999D01*
X-86415000Y-50964999D01*
X-85965028Y-50964999D01*
X-85965013Y-50964998D01*
X-85862302Y-50954505D01*
X-85695880Y-50899358D01*
X-85695875Y-50899356D01*
X-85546654Y-50807315D01*
X-85422684Y-50683345D01*
X-85330643Y-50534124D01*
X-85330641Y-50534119D01*
X-85275494Y-50367697D01*
X-85275493Y-50367690D01*
X-85265000Y-50264986D01*
X-85265000Y-50052500D01*
X-86415000Y-50052500D01*
X-86415000Y-50964999D01*
X-86915000Y-50964999D01*
X-86915000Y-49552500D01*
X-86415000Y-49552500D01*
X-85265001Y-49552500D01*
X-85265001Y-49340013D01*
X-85275494Y-49237302D01*
X-85330641Y-49070880D01*
X-85330643Y-49070875D01*
X-85422684Y-48921654D01*
X-85546654Y-48797684D01*
X-85695875Y-48705643D01*
X-85695880Y-48705641D01*
X-85862302Y-48650494D01*
X-85862309Y-48650493D01*
X-85965013Y-48640000D01*
X-86415000Y-48640000D01*
X-86415000Y-49552500D01*
X-86915000Y-49552500D01*
X-86915000Y-48640000D01*
X-87364971Y-48640000D01*
X-87364987Y-48640001D01*
X-87467697Y-48650494D01*
X-87634119Y-48705641D01*
X-87634124Y-48705643D01*
X-87783345Y-48797684D01*
X-87907315Y-48921654D01*
X-87999356Y-49070875D01*
X-87999358Y-49070880D01*
X-88022794Y-49141604D01*
X-88062567Y-49199049D01*
X-88127083Y-49225872D01*
X-88195858Y-49213557D01*
X-88247058Y-49166014D01*
X-88264500Y-49102600D01*
X-88264500Y-19489500D01*
X-88244815Y-19422461D01*
X-88192011Y-19376706D01*
X-88140500Y-19365500D01*
X-64918660Y-19365500D01*
X-64851621Y-19385185D01*
G37*
%TD.AperFunction*%
%TA.AperFunction,Conductor*%
G36*
X-68478257Y-25231992D02*
G01*
X-68432502Y-25284796D01*
X-68422558Y-25353954D01*
X-68451583Y-25417510D01*
X-68492891Y-25448689D01*
X-68572828Y-25485964D01*
X-68572830Y-25485965D01*
X-68766402Y-25621505D01*
X-68933494Y-25788597D01*
X-69040264Y-25941082D01*
X-69069035Y-25982171D01*
X-69168903Y-26196337D01*
X-69230063Y-26424592D01*
X-69250659Y-26660000D01*
X-69230063Y-26895408D01*
X-69168903Y-27123663D01*
X-69069035Y-27337830D01*
X-68933495Y-27531401D01*
X-68766401Y-27698495D01*
X-68580839Y-27828426D01*
X-68537216Y-27883002D01*
X-68530022Y-27952500D01*
X-68561545Y-28014855D01*
X-68580841Y-28031575D01*
X-68766403Y-28161506D01*
X-68933494Y-28328597D01*
X-69067981Y-28520666D01*
X-69069035Y-28522171D01*
X-69168903Y-28736337D01*
X-69230063Y-28964592D01*
X-69250659Y-29200000D01*
X-69230063Y-29435408D01*
X-69168903Y-29663663D01*
X-69069035Y-29877830D01*
X-68933495Y-30071401D01*
X-68766401Y-30238495D01*
X-68580839Y-30368426D01*
X-68537216Y-30423002D01*
X-68530022Y-30492500D01*
X-68561545Y-30554855D01*
X-68580841Y-30571575D01*
X-68766403Y-30701506D01*
X-68933494Y-30868597D01*
X-69064202Y-31055269D01*
X-69069035Y-31062171D01*
X-69168903Y-31276337D01*
X-69230063Y-31504592D01*
X-69241659Y-31637128D01*
X-69249974Y-31732176D01*
X-69250659Y-31740000D01*
X-69230063Y-31975408D01*
X-69168903Y-32203663D01*
X-69069035Y-32417830D01*
X-68933495Y-32611401D01*
X-68766401Y-32778495D01*
X-68580839Y-32908426D01*
X-68537216Y-32963002D01*
X-68530022Y-33032500D01*
X-68561545Y-33094855D01*
X-68580841Y-33111575D01*
X-68766403Y-33241506D01*
X-68933494Y-33408597D01*
X-69068154Y-33600913D01*
X-69069035Y-33602171D01*
X-69168903Y-33816337D01*
X-69230063Y-34044592D01*
X-69250659Y-34280000D01*
X-69230063Y-34515408D01*
X-69168903Y-34743663D01*
X-69069035Y-34957830D01*
X-68933495Y-35151401D01*
X-68766401Y-35318495D01*
X-68580839Y-35448426D01*
X-68537216Y-35503002D01*
X-68530022Y-35572500D01*
X-68561545Y-35634855D01*
X-68580841Y-35651575D01*
X-68766403Y-35781506D01*
X-68933494Y-35948597D01*
X-69042541Y-36104334D01*
X-69069035Y-36142171D01*
X-69168903Y-36356337D01*
X-69230063Y-36584592D01*
X-69250659Y-36820000D01*
X-69230063Y-37055408D01*
X-69168903Y-37283663D01*
X-69069035Y-37497830D01*
X-68933495Y-37691401D01*
X-68766401Y-37858495D01*
X-68580839Y-37988426D01*
X-68537216Y-38043002D01*
X-68530022Y-38112500D01*
X-68561545Y-38174855D01*
X-68580841Y-38191575D01*
X-68766403Y-38321506D01*
X-68933494Y-38488597D01*
X-68988951Y-38567799D01*
X-69069035Y-38682171D01*
X-69168903Y-38896337D01*
X-69230063Y-39124592D01*
X-69250659Y-39360000D01*
X-69230063Y-39595408D01*
X-69168903Y-39823663D01*
X-69069035Y-40037830D01*
X-68933495Y-40231401D01*
X-68766401Y-40398495D01*
X-68580839Y-40528426D01*
X-68537216Y-40583002D01*
X-68530022Y-40652500D01*
X-68561545Y-40714855D01*
X-68580841Y-40731575D01*
X-68766403Y-40861506D01*
X-68768078Y-40863181D01*
X-68768999Y-40863684D01*
X-68770551Y-40864986D01*
X-68770812Y-40864674D01*
X-68829401Y-40896666D01*
X-68855759Y-40899500D01*
X-69195623Y-40899500D01*
X-69210664Y-40902492D01*
X-69245925Y-40909506D01*
X-69388909Y-40937947D01*
X-69388917Y-40937949D01*
X-69420625Y-40951083D01*
X-69420626Y-40951083D01*
X-69570988Y-41013364D01*
X-69571001Y-41013371D01*
X-69734862Y-41122860D01*
X-69734866Y-41122863D01*
X-71073440Y-42461439D01*
X-71073463Y-42461460D01*
X-71217136Y-42605133D01*
X-71217139Y-42605137D01*
X-71326628Y-42768998D01*
X-71326635Y-42769011D01*
X-71373456Y-42882048D01*
X-71373456Y-42882049D01*
X-71402051Y-42951083D01*
X-71410719Y-42994660D01*
X-71412368Y-43002949D01*
X-71440500Y-43144375D01*
X-71440500Y-47713543D01*
X-71434184Y-47745295D01*
X-71402051Y-47906835D01*
X-71326632Y-48088914D01*
X-71217139Y-48252782D01*
X-71077782Y-48392139D01*
X-71077780Y-48392139D01*
X-71067573Y-48402347D01*
X-71067569Y-48402350D01*
X-71011818Y-48458102D01*
X-70978334Y-48519425D01*
X-70975500Y-48545782D01*
X-70975500Y-49997474D01*
X-70995185Y-50064513D01*
X-71047989Y-50110268D01*
X-71117147Y-50120212D01*
X-71177860Y-50093576D01*
X-71261587Y-50025305D01*
X-71441954Y-49931089D01*
X-71598376Y-49886332D01*
X-71637582Y-49875114D01*
X-71637583Y-49875113D01*
X-71637586Y-49875113D01*
X-71714511Y-49868274D01*
X-71756963Y-49864500D01*
X-71756966Y-49864500D01*
X-71756967Y-49864500D01*
X-72873028Y-49864500D01*
X-72873033Y-49864500D01*
X-72873036Y-49864501D01*
X-72896330Y-49866571D01*
X-72992415Y-49875113D01*
X-73188045Y-49931089D01*
X-73188048Y-49931090D01*
X-73188049Y-49931091D01*
X-73368407Y-50025302D01*
X-73401763Y-50052500D01*
X-73526109Y-50153890D01*
X-73593793Y-50236899D01*
X-73654698Y-50311593D01*
X-73748909Y-50491951D01*
X-73804886Y-50687582D01*
X-73815500Y-50806963D01*
X-73815500Y-50806969D01*
X-73815500Y-51390500D01*
X-73835185Y-51457539D01*
X-73887989Y-51503294D01*
X-73939500Y-51514500D01*
X-77122058Y-51514500D01*
X-77189097Y-51494815D01*
X-77233146Y-51445594D01*
X-77247969Y-51415704D01*
X-77367276Y-51267280D01*
X-77436885Y-51211326D01*
X-77476803Y-51153982D01*
X-77479383Y-51084160D01*
X-77443804Y-51024027D01*
X-77436884Y-51018031D01*
X-77367630Y-50962364D01*
X-77248392Y-50814025D01*
X-77248390Y-50814022D01*
X-77163831Y-50643523D01*
X-77117897Y-50458824D01*
X-77115000Y-50416096D01*
X-77115000Y-50215000D01*
X-80115000Y-50215000D01*
X-80115000Y-50416096D01*
X-80112102Y-50458824D01*
X-80066168Y-50643523D01*
X-79981609Y-50814022D01*
X-79981607Y-50814025D01*
X-79862367Y-50962366D01*
X-79862366Y-50962367D01*
X-79793115Y-51018033D01*
X-79753196Y-51075376D01*
X-79750616Y-51145198D01*
X-79786194Y-51205331D01*
X-79793089Y-51211305D01*
X-79862722Y-51267278D01*
X-79862724Y-51267280D01*
X-79982030Y-51415704D01*
X-79982032Y-51415707D01*
X-80066639Y-51586302D01*
X-80066641Y-51586307D01*
X-80112600Y-51771111D01*
X-80115223Y-51809788D01*
X-80115500Y-51813879D01*
X-80115500Y-52053000D01*
X-80135185Y-52120039D01*
X-80187989Y-52165794D01*
X-80239500Y-52177000D01*
X-80765500Y-52177000D01*
X-80832539Y-52157315D01*
X-80878294Y-52104511D01*
X-80889500Y-52053000D01*
X-80889500Y-51996976D01*
X-80869815Y-51929937D01*
X-80861367Y-51918329D01*
X-80804090Y-51848538D01*
X-80804087Y-51848533D01*
X-80804084Y-51848529D01*
X-80711188Y-51674733D01*
X-80710621Y-51672866D01*
X-80673046Y-51548997D01*
X-80653975Y-51486129D01*
X-80634659Y-51290000D01*
X-80653975Y-51093870D01*
X-80711188Y-50905266D01*
X-80804086Y-50731467D01*
X-80804090Y-50731460D01*
X-80929116Y-50579116D01*
X-81081460Y-50454090D01*
X-81081467Y-50454086D01*
X-81255266Y-50361188D01*
X-81443870Y-50303975D01*
X-81640000Y-50284659D01*
X-81836129Y-50303975D01*
X-81836132Y-50303976D01*
X-82024727Y-50361186D01*
X-82024733Y-50361188D01*
X-82198532Y-50454086D01*
X-82198539Y-50454090D01*
X-82350883Y-50579116D01*
X-82475909Y-50731460D01*
X-82475913Y-50731467D01*
X-82568811Y-50905266D01*
X-82568811Y-50905269D01*
X-82568814Y-50905273D01*
X-82626024Y-51093868D01*
X-82645341Y-51290000D01*
X-82626024Y-51486132D01*
X-82568814Y-51674727D01*
X-82475910Y-51848538D01*
X-82475904Y-51848544D01*
X-82472523Y-51853607D01*
X-82474282Y-51854782D01*
X-82450706Y-51910239D01*
X-82462473Y-51979111D01*
X-82486186Y-52012319D01*
X-82614548Y-52140681D01*
X-82675871Y-52174166D01*
X-82702229Y-52177000D01*
X-83040500Y-52177000D01*
X-83107539Y-52157315D01*
X-83153294Y-52104511D01*
X-83164500Y-52053000D01*
X-83164500Y-49513903D01*
X-80115000Y-49513903D01*
X-80115000Y-49715000D01*
X-78865000Y-49715000D01*
X-78365000Y-49715000D01*
X-77115000Y-49715000D01*
X-77115000Y-49513903D01*
X-77117897Y-49471175D01*
X-77163831Y-49286476D01*
X-77248390Y-49115977D01*
X-77248392Y-49115974D01*
X-77367632Y-48967633D01*
X-77367633Y-48967632D01*
X-77515974Y-48848392D01*
X-77515977Y-48848390D01*
X-77686476Y-48763831D01*
X-77871175Y-48717897D01*
X-77913903Y-48715000D01*
X-78365000Y-48715000D01*
X-78365000Y-49715000D01*
X-78865000Y-49715000D01*
X-78865000Y-48715000D01*
X-79316097Y-48715000D01*
X-79358824Y-48717897D01*
X-79543523Y-48763831D01*
X-79714022Y-48848390D01*
X-79714025Y-48848392D01*
X-79862366Y-48967632D01*
X-79862367Y-48967633D01*
X-79981607Y-49115974D01*
X-79981609Y-49115977D01*
X-80066168Y-49286476D01*
X-80112102Y-49471175D01*
X-80115000Y-49513903D01*
X-83164500Y-49513903D01*
X-83164500Y-30927229D01*
X-83144815Y-30860190D01*
X-83128181Y-30839548D01*
X-77537259Y-25248626D01*
X-77475936Y-25215141D01*
X-77449578Y-25212307D01*
X-68545296Y-25212307D01*
X-68478257Y-25231992D01*
G37*
%TD.AperFunction*%
%TA.AperFunction,Conductor*%
G36*
X-66135191Y-25231992D02*
G01*
X-66114549Y-25248626D01*
X-66051819Y-25311356D01*
X-66018334Y-25372679D01*
X-66015500Y-25399037D01*
X-66015500Y-28838920D01*
X-66006835Y-28882481D01*
X-65986658Y-28983913D01*
X-65930084Y-29120495D01*
X-65897187Y-29169726D01*
X-65897187Y-29169729D01*
X-65867752Y-29213781D01*
X-65847952Y-29243416D01*
X-65147952Y-29943415D01*
X-65147951Y-29943416D01*
X-65043416Y-30047951D01*
X-64920495Y-30130084D01*
X-64783913Y-30186658D01*
X-64736462Y-30196096D01*
X-64638920Y-30215500D01*
X-64638918Y-30215500D01*
X-63578585Y-30215500D01*
X-63511546Y-30235185D01*
X-63465791Y-30287989D01*
X-63460881Y-30300489D01*
X-63424814Y-30409334D01*
X-63332712Y-30558656D01*
X-63208656Y-30682712D01*
X-63059334Y-30774814D01*
X-63058561Y-30775070D01*
X-63058102Y-30775387D01*
X-63052791Y-30777864D01*
X-63053214Y-30778771D01*
X-63001114Y-30814840D01*
X-62974289Y-30879355D01*
X-62986601Y-30948131D01*
X-62988192Y-30951212D01*
X-63043814Y-31055273D01*
X-63101024Y-31243868D01*
X-63120341Y-31440000D01*
X-63101024Y-31636132D01*
X-63043814Y-31824727D01*
X-62950910Y-31998538D01*
X-62825883Y-32150883D01*
X-62673538Y-32275910D01*
X-62499727Y-32368814D01*
X-62311132Y-32426024D01*
X-62115000Y-32445341D01*
X-61918868Y-32426024D01*
X-61730273Y-32368814D01*
X-61730269Y-32368811D01*
X-61730266Y-32368811D01*
X-61556467Y-32275913D01*
X-61556460Y-32275909D01*
X-61486687Y-32218647D01*
X-61422377Y-32191334D01*
X-61408022Y-32190500D01*
X-58891079Y-32190500D01*
X-58746092Y-32161659D01*
X-58746091Y-32161658D01*
X-58746087Y-32161658D01*
X-58609505Y-32105084D01*
X-58528312Y-32050833D01*
X-58514402Y-32041539D01*
X-58486586Y-32022954D01*
X-57417180Y-30953548D01*
X-57355857Y-30920063D01*
X-57286165Y-30925047D01*
X-57230232Y-30966919D01*
X-57205815Y-31032383D01*
X-57205499Y-31041229D01*
X-57205499Y-31362872D01*
X-57199091Y-31422483D01*
X-57186340Y-31456667D01*
X-57181357Y-31526358D01*
X-57186338Y-31543327D01*
X-57199091Y-31577517D01*
X-57205500Y-31637127D01*
X-57205499Y-32138548D01*
X-57205499Y-32530500D01*
X-57225183Y-32597539D01*
X-57277987Y-32643294D01*
X-57329499Y-32654500D01*
X-57803920Y-32654500D01*
X-57948907Y-32683340D01*
X-57948917Y-32683343D01*
X-58085488Y-32739912D01*
X-58085501Y-32739919D01*
X-58208415Y-32822048D01*
X-58208419Y-32822051D01*
X-58492333Y-33105965D01*
X-58772952Y-33386584D01*
X-58811039Y-33443587D01*
X-58832618Y-33475883D01*
X-58855084Y-33509505D01*
X-58855085Y-33509507D01*
X-58855087Y-33509511D01*
X-58911656Y-33646082D01*
X-58911658Y-33646087D01*
X-58911658Y-33646091D01*
X-58911659Y-33646092D01*
X-58940500Y-33791079D01*
X-58940500Y-37833920D01*
X-58925897Y-37907331D01*
X-58911658Y-37978913D01*
X-58855084Y-38115495D01*
X-58828457Y-38155345D01*
X-58772952Y-38238416D01*
X-57021044Y-39990321D01*
X-56987561Y-40051642D01*
X-56992545Y-40121333D01*
X-57034416Y-40177267D01*
X-57099881Y-40201684D01*
X-57108727Y-40202000D01*
X-57640001Y-40202000D01*
X-57640019Y-40202001D01*
X-57742796Y-40212500D01*
X-57742799Y-40212501D01*
X-57909331Y-40267685D01*
X-57909336Y-40267687D01*
X-57945498Y-40289992D01*
X-58058656Y-40359788D01*
X-58058657Y-40359789D01*
X-58177049Y-40478181D01*
X-58238372Y-40511666D01*
X-58264730Y-40514500D01*
X-59240501Y-40514500D01*
X-59307540Y-40494815D01*
X-59353295Y-40442011D01*
X-59364501Y-40390500D01*
X-59364501Y-40364623D01*
X-59370908Y-40305016D01*
X-59421202Y-40170171D01*
X-59421206Y-40170164D01*
X-59507452Y-40054955D01*
X-59507455Y-40054952D01*
X-59622664Y-39968706D01*
X-59622670Y-39968703D01*
X-59650541Y-39958308D01*
X-59706474Y-39916436D01*
X-59730891Y-39850972D01*
X-59716039Y-39782699D01*
X-59707531Y-39769250D01*
X-59574783Y-39586538D01*
X-59567376Y-39572001D01*
X-59470950Y-39382755D01*
X-59400278Y-39165249D01*
X-59400278Y-39165246D01*
X-59364500Y-38939353D01*
X-59364500Y-38710646D01*
X-59400278Y-38484753D01*
X-59400278Y-38484750D01*
X-59470950Y-38267244D01*
X-59574783Y-38063461D01*
X-59688219Y-37907331D01*
X-59709214Y-37878434D01*
X-59709216Y-37878432D01*
X-59709216Y-37878431D01*
X-59870931Y-37716716D01*
X-59870940Y-37716709D01*
X-59955864Y-37655007D01*
X-59998530Y-37599677D01*
X-60004508Y-37530063D01*
X-59971901Y-37468269D01*
X-59955863Y-37454372D01*
X-59871263Y-37392907D01*
X-59871257Y-37392902D01*
X-59709597Y-37231242D01*
X-59575211Y-37046276D01*
X-59471417Y-36842570D01*
X-59400765Y-36625128D01*
X-59386491Y-36535000D01*
X-60374252Y-36535000D01*
X-60352482Y-36497292D01*
X-60315000Y-36357409D01*
X-60315000Y-36212591D01*
X-60352482Y-36072708D01*
X-60374252Y-36035000D01*
X-59386491Y-36035000D01*
X-59400765Y-35944871D01*
X-59471417Y-35727429D01*
X-59575211Y-35523723D01*
X-59709597Y-35338757D01*
X-59871257Y-35177097D01*
X-60056223Y-35042711D01*
X-60259931Y-34938917D01*
X-60477374Y-34868265D01*
X-60477373Y-34868265D01*
X-60615000Y-34846467D01*
X-60615000Y-35794252D01*
X-60652708Y-35772482D01*
X-60792591Y-35735000D01*
X-60937409Y-35735000D01*
X-61077292Y-35772482D01*
X-61115000Y-35794252D01*
X-61115000Y-34846467D01*
X-61252625Y-34868265D01*
X-61470068Y-34938917D01*
X-61673776Y-35042711D01*
X-61858742Y-35177097D01*
X-62020402Y-35338757D01*
X-62154788Y-35523723D01*
X-62258582Y-35727429D01*
X-62329234Y-35944871D01*
X-62343509Y-36035000D01*
X-61355748Y-36035000D01*
X-61377518Y-36072708D01*
X-61415000Y-36212591D01*
X-61415000Y-36357409D01*
X-61377518Y-36497292D01*
X-61355748Y-36535000D01*
X-62343509Y-36535000D01*
X-62329234Y-36625128D01*
X-62258582Y-36842570D01*
X-62154788Y-37046276D01*
X-62020402Y-37231242D01*
X-61858739Y-37392905D01*
X-61774137Y-37454371D01*
X-61731470Y-37509701D01*
X-61725491Y-37579314D01*
X-61758096Y-37641109D01*
X-61774134Y-37655007D01*
X-61859066Y-37716714D01*
X-61859068Y-37716716D01*
X-61930533Y-37788181D01*
X-61991856Y-37821666D01*
X-62018214Y-37824500D01*
X-63223543Y-37824500D01*
X-63296019Y-37838917D01*
X-63416828Y-37862947D01*
X-63416836Y-37862949D01*
X-63458203Y-37880084D01*
X-63598907Y-37938364D01*
X-63598920Y-37938371D01*
X-63762781Y-38047860D01*
X-63762785Y-38047863D01*
X-63906459Y-38191537D01*
X-63906479Y-38191559D01*
X-65537180Y-39822260D01*
X-65537211Y-39822289D01*
X-65679661Y-39964739D01*
X-65679664Y-39964743D01*
X-65789153Y-40128604D01*
X-65789160Y-40128617D01*
X-65840266Y-40252000D01*
X-65862225Y-40305016D01*
X-65864255Y-40309916D01*
X-65864576Y-40310690D01*
X-65875304Y-40364623D01*
X-65903025Y-40503981D01*
X-65903025Y-45679393D01*
X-65909743Y-45719654D01*
X-65939820Y-45807269D01*
X-65941126Y-45810889D01*
X-65969812Y-45886704D01*
X-65970694Y-45891991D01*
X-65975725Y-45911855D01*
X-65977465Y-45916924D01*
X-65979480Y-45931839D01*
X-65985517Y-45976508D01*
X-66014002Y-46040307D01*
X-66020719Y-46047583D01*
X-68649655Y-48676519D01*
X-68649686Y-48676548D01*
X-68762819Y-48789681D01*
X-68824142Y-48823166D01*
X-68893834Y-48818182D01*
X-68949767Y-48776310D01*
X-68974184Y-48710846D01*
X-68974500Y-48702000D01*
X-68974500Y-47981456D01*
X-68974499Y-47981456D01*
X-69012947Y-47788170D01*
X-69012950Y-47788160D01*
X-69088364Y-47606092D01*
X-69088371Y-47606079D01*
X-69197860Y-47442218D01*
X-69197863Y-47442214D01*
X-69319775Y-47320303D01*
X-69319777Y-47320300D01*
X-69403181Y-47236896D01*
X-69436666Y-47175573D01*
X-69439500Y-47149215D01*
X-69439500Y-45546024D01*
X-69419815Y-45478985D01*
X-69367011Y-45433230D01*
X-69297853Y-45423286D01*
X-69234297Y-45452311D01*
X-69199318Y-45502691D01*
X-69188354Y-45532086D01*
X-69188350Y-45532093D01*
X-69102190Y-45647187D01*
X-69102187Y-45647190D01*
X-68987093Y-45733350D01*
X-68987086Y-45733354D01*
X-68852379Y-45783596D01*
X-68852372Y-45783598D01*
X-68792844Y-45789999D01*
X-68792828Y-45790000D01*
X-68145000Y-45790000D01*
X-68145000Y-44873012D01*
X-68087993Y-44905925D01*
X-67960826Y-44940000D01*
X-67829174Y-44940000D01*
X-67702007Y-44905925D01*
X-67645000Y-44873012D01*
X-67645000Y-45790000D01*
X-66997172Y-45790000D01*
X-66997155Y-45789999D01*
X-66937627Y-45783598D01*
X-66937620Y-45783596D01*
X-66802913Y-45733354D01*
X-66802906Y-45733350D01*
X-66687812Y-45647190D01*
X-66687809Y-45647187D01*
X-66601649Y-45532093D01*
X-66601645Y-45532086D01*
X-66551403Y-45397379D01*
X-66551401Y-45397372D01*
X-66545000Y-45337844D01*
X-66545000Y-44690000D01*
X-67461988Y-44690000D01*
X-67429075Y-44632993D01*
X-67395000Y-44505826D01*
X-67395000Y-44374174D01*
X-67429075Y-44247007D01*
X-67461988Y-44190000D01*
X-66545000Y-44190000D01*
X-66545000Y-43542155D01*
X-66551401Y-43482627D01*
X-66551403Y-43482620D01*
X-66601645Y-43347913D01*
X-66601649Y-43347906D01*
X-66687809Y-43232812D01*
X-66687812Y-43232809D01*
X-66802906Y-43146649D01*
X-66802912Y-43146646D01*
X-66934471Y-43097577D01*
X-66990404Y-43055705D01*
X-67014821Y-42990241D01*
X-66999969Y-42921968D01*
X-66978818Y-42893714D01*
X-66856506Y-42771402D01*
X-66856501Y-42771395D01*
X-66854822Y-42768998D01*
X-66797618Y-42687302D01*
X-66720967Y-42577834D01*
X-66720965Y-42577830D01*
X-66694409Y-42520880D01*
X-66621097Y-42363663D01*
X-66621096Y-42363659D01*
X-66621094Y-42363655D01*
X-66559938Y-42135413D01*
X-66559936Y-42135403D01*
X-66539341Y-41900000D01*
X-66539341Y-41899999D01*
X-66559936Y-41664596D01*
X-66559938Y-41664586D01*
X-66621094Y-41436344D01*
X-66621098Y-41436335D01*
X-66720964Y-41222171D01*
X-66720965Y-41222169D01*
X-66856505Y-41028597D01*
X-67023597Y-40861506D01*
X-67023599Y-40861505D01*
X-67209158Y-40731575D01*
X-67252782Y-40676998D01*
X-67259975Y-40607499D01*
X-67228453Y-40545145D01*
X-67209158Y-40528425D01*
X-67174253Y-40503984D01*
X-67023599Y-40398495D01*
X-66856505Y-40231401D01*
X-66791865Y-40139086D01*
X-66720967Y-40037834D01*
X-66720965Y-40037830D01*
X-66698184Y-39988976D01*
X-66621097Y-39823663D01*
X-66621096Y-39823659D01*
X-66621094Y-39823655D01*
X-66559938Y-39595413D01*
X-66559936Y-39595403D01*
X-66539341Y-39360000D01*
X-66539341Y-39359999D01*
X-66559936Y-39124596D01*
X-66559938Y-39124586D01*
X-66621094Y-38896344D01*
X-66621098Y-38896335D01*
X-66720964Y-38682171D01*
X-66720965Y-38682169D01*
X-66856505Y-38488597D01*
X-67023597Y-38321506D01*
X-67023599Y-38321505D01*
X-67209158Y-38191575D01*
X-67252782Y-38136998D01*
X-67259975Y-38067499D01*
X-67228453Y-38005145D01*
X-67209158Y-37988425D01*
X-67137674Y-37938371D01*
X-67023599Y-37858495D01*
X-66856505Y-37691401D01*
X-66792279Y-37599677D01*
X-66720967Y-37497834D01*
X-66720965Y-37497830D01*
X-66709230Y-37472664D01*
X-66621097Y-37283663D01*
X-66621096Y-37283659D01*
X-66621094Y-37283655D01*
X-66559938Y-37055413D01*
X-66559936Y-37055403D01*
X-66539341Y-36820000D01*
X-66539341Y-36819999D01*
X-66559936Y-36584596D01*
X-66559938Y-36584586D01*
X-66621094Y-36356344D01*
X-66621098Y-36356335D01*
X-66720964Y-36142171D01*
X-66720965Y-36142169D01*
X-66856505Y-35948597D01*
X-67023597Y-35781506D01*
X-67023599Y-35781505D01*
X-67209158Y-35651575D01*
X-67252782Y-35596998D01*
X-67259975Y-35527499D01*
X-67228453Y-35465145D01*
X-67209158Y-35448425D01*
X-67176418Y-35425500D01*
X-67023599Y-35318495D01*
X-66856505Y-35151401D01*
X-66805650Y-35078773D01*
X-66720967Y-34957834D01*
X-66720965Y-34957830D01*
X-66687530Y-34886129D01*
X-66621097Y-34743663D01*
X-66621096Y-34743659D01*
X-66621094Y-34743655D01*
X-66559938Y-34515413D01*
X-66559936Y-34515403D01*
X-66539341Y-34280000D01*
X-66539341Y-34279999D01*
X-66559936Y-34044596D01*
X-66559938Y-34044586D01*
X-66621094Y-33816344D01*
X-66621098Y-33816335D01*
X-66720964Y-33602171D01*
X-66720965Y-33602169D01*
X-66856505Y-33408597D01*
X-67023597Y-33241506D01*
X-67023599Y-33241505D01*
X-67209158Y-33111575D01*
X-67252782Y-33056998D01*
X-67259975Y-32987499D01*
X-67228453Y-32925145D01*
X-67209158Y-32908425D01*
X-67197337Y-32900148D01*
X-67023599Y-32778495D01*
X-66856505Y-32611401D01*
X-66790502Y-32517139D01*
X-66720967Y-32417834D01*
X-66720965Y-32417830D01*
X-66703449Y-32380266D01*
X-66621097Y-32203663D01*
X-66621096Y-32203659D01*
X-66621094Y-32203655D01*
X-66559938Y-31975413D01*
X-66559936Y-31975403D01*
X-66539341Y-31740000D01*
X-66539341Y-31739999D01*
X-66559936Y-31504596D01*
X-66559938Y-31504586D01*
X-66621094Y-31276344D01*
X-66621098Y-31276335D01*
X-66720964Y-31062171D01*
X-66720965Y-31062169D01*
X-66856505Y-30868597D01*
X-67023597Y-30701506D01*
X-67023599Y-30701505D01*
X-67209158Y-30571575D01*
X-67252782Y-30516998D01*
X-67259975Y-30447499D01*
X-67228453Y-30385145D01*
X-67209158Y-30368425D01*
X-67157155Y-30332012D01*
X-67023599Y-30238495D01*
X-66856505Y-30071401D01*
X-66778703Y-29960289D01*
X-66720967Y-29877834D01*
X-66720965Y-29877830D01*
X-66636176Y-29696000D01*
X-66621097Y-29663663D01*
X-66621096Y-29663659D01*
X-66621094Y-29663655D01*
X-66559938Y-29435413D01*
X-66559936Y-29435403D01*
X-66539341Y-29200000D01*
X-66539341Y-29199999D01*
X-66559936Y-28964596D01*
X-66559938Y-28964586D01*
X-66621094Y-28736344D01*
X-66621098Y-28736335D01*
X-66720964Y-28522171D01*
X-66720965Y-28522169D01*
X-66856505Y-28328597D01*
X-67023597Y-28161506D01*
X-67023599Y-28161505D01*
X-67209158Y-28031575D01*
X-67252782Y-27976998D01*
X-67259975Y-27907499D01*
X-67228453Y-27845145D01*
X-67209158Y-27828425D01*
X-67176418Y-27805500D01*
X-67023599Y-27698495D01*
X-66856505Y-27531401D01*
X-66815568Y-27472937D01*
X-66720967Y-27337834D01*
X-66720965Y-27337830D01*
X-66689646Y-27270666D01*
X-66621097Y-27123663D01*
X-66621096Y-27123659D01*
X-66621094Y-27123655D01*
X-66559938Y-26895413D01*
X-66559936Y-26895403D01*
X-66539341Y-26660000D01*
X-66539341Y-26659999D01*
X-66559936Y-26424596D01*
X-66559938Y-26424586D01*
X-66621094Y-26196344D01*
X-66621098Y-26196335D01*
X-66720964Y-25982171D01*
X-66720965Y-25982169D01*
X-66856505Y-25788597D01*
X-67023597Y-25621506D01*
X-67023604Y-25621501D01*
X-67217165Y-25485967D01*
X-67217169Y-25485965D01*
X-67272442Y-25460191D01*
X-67297109Y-25448688D01*
X-67349548Y-25402517D01*
X-67368700Y-25335323D01*
X-67348484Y-25268442D01*
X-67295319Y-25223107D01*
X-67244704Y-25212307D01*
X-66202230Y-25212307D01*
X-66135191Y-25231992D01*
G37*
%TD.AperFunction*%
%TA.AperFunction,Conductor*%
G36*
X-61496165Y-23135046D02*
G01*
X-61440232Y-23176918D01*
X-61415815Y-23242382D01*
X-61415499Y-23251205D01*
X-61415499Y-24062872D01*
X-61409091Y-24122483D01*
X-61358796Y-24257331D01*
X-61272546Y-24372546D01*
X-61157331Y-24458796D01*
X-61022483Y-24509091D01*
X-60962873Y-24515500D01*
X-60939502Y-24515499D01*
X-60872464Y-24535181D01*
X-60826708Y-24587983D01*
X-60815500Y-24639499D01*
X-60815500Y-25276420D01*
X-60811733Y-25295357D01*
X-60786658Y-25421413D01*
X-60730084Y-25557995D01*
X-60727388Y-25562028D01*
X-60724677Y-25566088D01*
X-60710163Y-25587809D01*
X-60647952Y-25680916D01*
X-60501816Y-25827050D01*
X-60468333Y-25888371D01*
X-60465499Y-25914730D01*
X-60465499Y-26665008D01*
X-60454999Y-26767797D01*
X-60399814Y-26934334D01*
X-60307712Y-27083656D01*
X-60183656Y-27207712D01*
X-60111903Y-27251968D01*
X-60065179Y-27303915D01*
X-60053000Y-27357507D01*
X-60053000Y-28038693D01*
X-60072685Y-28105732D01*
X-60125489Y-28151487D01*
X-60131278Y-28153761D01*
X-60134330Y-28155184D01*
X-60134332Y-28155185D01*
X-60134334Y-28155186D01*
X-60283656Y-28247288D01*
X-60407712Y-28371344D01*
X-60499814Y-28520666D01*
X-60554999Y-28687203D01*
X-60565500Y-28789991D01*
X-60565499Y-30140008D01*
X-60554999Y-30242797D01*
X-60499814Y-30409334D01*
X-60443641Y-30500404D01*
X-60425202Y-30567796D01*
X-60446125Y-30634459D01*
X-60499767Y-30679229D01*
X-60549181Y-30689500D01*
X-61380819Y-30689500D01*
X-61447858Y-30669815D01*
X-61493613Y-30617011D01*
X-61503557Y-30547853D01*
X-61486358Y-30500405D01*
X-61430186Y-30409334D01*
X-61375001Y-30242797D01*
X-61375001Y-30242795D01*
X-61375000Y-30242795D01*
X-61364500Y-30140016D01*
X-61364500Y-28789998D01*
X-61364501Y-28789981D01*
X-61375000Y-28687203D01*
X-61375001Y-28687200D01*
X-61430185Y-28520668D01*
X-61430187Y-28520663D01*
X-61522289Y-28371342D01*
X-61646342Y-28247289D01*
X-61795663Y-28155187D01*
X-61795668Y-28155185D01*
X-61879670Y-28127349D01*
X-61962203Y-28100001D01*
X-61962204Y-28100000D01*
X-62064989Y-28089500D01*
X-62790001Y-28089500D01*
X-62790019Y-28089501D01*
X-62892796Y-28100000D01*
X-62892799Y-28100001D01*
X-63059331Y-28155185D01*
X-63059336Y-28155187D01*
X-63070981Y-28162370D01*
X-63208656Y-28247288D01*
X-63332712Y-28371344D01*
X-63424814Y-28520666D01*
X-63460879Y-28629504D01*
X-63500652Y-28686949D01*
X-63565167Y-28713772D01*
X-63578585Y-28714500D01*
X-64202771Y-28714500D01*
X-64269810Y-28694815D01*
X-64290452Y-28678181D01*
X-64478181Y-28490451D01*
X-64511666Y-28429128D01*
X-64514500Y-28402770D01*
X-64514500Y-26664971D01*
X-63589999Y-26664971D01*
X-63589998Y-26664986D01*
X-63579505Y-26767697D01*
X-63524358Y-26934119D01*
X-63524356Y-26934124D01*
X-63432315Y-27083345D01*
X-63308345Y-27207315D01*
X-63159124Y-27299356D01*
X-63159119Y-27299358D01*
X-62992697Y-27354505D01*
X-62992690Y-27354506D01*
X-62889980Y-27364999D01*
X-62677500Y-27364999D01*
X-62177500Y-27364999D01*
X-61965028Y-27364999D01*
X-61965013Y-27364998D01*
X-61862302Y-27354505D01*
X-61695880Y-27299358D01*
X-61695875Y-27299356D01*
X-61546654Y-27207315D01*
X-61422684Y-27083345D01*
X-61330643Y-26934124D01*
X-61330641Y-26934119D01*
X-61275494Y-26767697D01*
X-61275493Y-26767690D01*
X-61265000Y-26664986D01*
X-61265000Y-26215000D01*
X-62177500Y-26215000D01*
X-62177500Y-27364999D01*
X-62677500Y-27364999D01*
X-62677500Y-26215000D01*
X-63589999Y-26215000D01*
X-63589999Y-26664971D01*
X-64514500Y-26664971D01*
X-64514500Y-25374037D01*
X-64494815Y-25306998D01*
X-64478181Y-25286356D01*
X-64440451Y-25248626D01*
X-64379128Y-25215141D01*
X-64352770Y-25212307D01*
X-63912886Y-25212307D01*
X-63767899Y-25183466D01*
X-63767898Y-25183465D01*
X-63767894Y-25183465D01*
X-63761456Y-25180798D01*
X-63691991Y-25173326D01*
X-63629510Y-25204597D01*
X-63593854Y-25264684D01*
X-63590000Y-25295357D01*
X-63590000Y-25715000D01*
X-62677500Y-25715000D01*
X-62177500Y-25715000D01*
X-61265001Y-25715000D01*
X-61265001Y-25265013D01*
X-61275494Y-25162302D01*
X-61330641Y-24995880D01*
X-61330643Y-24995875D01*
X-61422684Y-24846654D01*
X-61546654Y-24722684D01*
X-61695875Y-24630643D01*
X-61695880Y-24630641D01*
X-61862302Y-24575494D01*
X-61862309Y-24575493D01*
X-61965013Y-24565000D01*
X-62177500Y-24565000D01*
X-62177500Y-25715000D01*
X-62677500Y-25715000D01*
X-62677500Y-24565000D01*
X-62729270Y-24565000D01*
X-62796309Y-24545315D01*
X-62842064Y-24492511D01*
X-62852008Y-24423353D01*
X-62822983Y-24359797D01*
X-62816951Y-24353319D01*
X-61627180Y-23163547D01*
X-61565857Y-23130062D01*
X-61496165Y-23135046D01*
G37*
%TD.AperFunction*%
%TA.AperFunction,Conductor*%
G36*
X-61429846Y-19385185D02*
G01*
X-61384091Y-19437989D01*
X-61374147Y-19507147D01*
X-61380703Y-19532833D01*
X-61408596Y-19607620D01*
X-61408598Y-19607627D01*
X-61414999Y-19667155D01*
X-61415000Y-19667172D01*
X-61415000Y-19915000D01*
X-58715000Y-19915000D01*
X-58715000Y-19667155D01*
X-58721401Y-19607627D01*
X-58721403Y-19607620D01*
X-58749297Y-19532833D01*
X-58754281Y-19463141D01*
X-58720796Y-19401818D01*
X-58659473Y-19368334D01*
X-58633115Y-19365500D01*
X-48148180Y-19365500D01*
X-48081141Y-19385185D01*
X-48035386Y-19437989D01*
X-48025442Y-19507147D01*
X-48054467Y-19570703D01*
X-48089727Y-19598858D01*
X-48258532Y-19689086D01*
X-48258539Y-19689090D01*
X-48358775Y-19771353D01*
X-48423084Y-19798666D01*
X-48437440Y-19799500D01*
X-53223920Y-19799500D01*
X-53368907Y-19828340D01*
X-53368917Y-19828343D01*
X-53505488Y-19884912D01*
X-53505501Y-19884919D01*
X-53628415Y-19967048D01*
X-53628419Y-19967051D01*
X-53796344Y-20134977D01*
X-53796351Y-20134983D01*
X-54580049Y-20918681D01*
X-54641372Y-20952166D01*
X-54667730Y-20955000D01*
X-57205000Y-20955000D01*
X-57205000Y-21100500D01*
X-57224685Y-21167539D01*
X-57277489Y-21213294D01*
X-57329000Y-21224500D01*
X-58822298Y-21224500D01*
X-58889337Y-21204815D01*
X-58935092Y-21152011D01*
X-58945036Y-21082853D01*
X-58916011Y-21019297D01*
X-58896610Y-21001234D01*
X-58857809Y-20972187D01*
X-58771649Y-20857093D01*
X-58771645Y-20857086D01*
X-58721403Y-20722379D01*
X-58721401Y-20722372D01*
X-58715000Y-20662844D01*
X-58715000Y-20415000D01*
X-61415000Y-20415000D01*
X-61415000Y-20662827D01*
X-61414999Y-20662844D01*
X-61408598Y-20722372D01*
X-61408596Y-20722379D01*
X-61358354Y-20857086D01*
X-61358350Y-20857093D01*
X-61272190Y-20972187D01*
X-61233390Y-21001234D01*
X-61191520Y-21057168D01*
X-61186536Y-21126860D01*
X-61220022Y-21188182D01*
X-61281345Y-21221667D01*
X-61307702Y-21224500D01*
X-61573920Y-21224500D01*
X-61718907Y-21253340D01*
X-61718917Y-21253343D01*
X-61855488Y-21309912D01*
X-61855501Y-21309919D01*
X-61978415Y-21392048D01*
X-61978419Y-21392051D01*
X-62248034Y-21661666D01*
X-62309357Y-21695151D01*
X-62379049Y-21690167D01*
X-62434982Y-21648295D01*
X-62459399Y-21582831D01*
X-62459401Y-21565162D01*
X-62459390Y-21565007D01*
X-62459390Y-21564998D01*
X-62479804Y-21279566D01*
X-62540628Y-20999962D01*
X-62640635Y-20731833D01*
X-62777770Y-20480690D01*
X-62777775Y-20480682D01*
X-62949254Y-20251612D01*
X-62949270Y-20251594D01*
X-62993692Y-20207172D01*
X-57205000Y-20207172D01*
X-57205000Y-20455000D01*
X-56205000Y-20455000D01*
X-55705000Y-20455000D01*
X-54705000Y-20455000D01*
X-54705000Y-20207155D01*
X-54711401Y-20147627D01*
X-54711403Y-20147620D01*
X-54761645Y-20012913D01*
X-54761649Y-20012906D01*
X-54847809Y-19897812D01*
X-54847812Y-19897809D01*
X-54962906Y-19811649D01*
X-54962913Y-19811645D01*
X-55097620Y-19761403D01*
X-55097627Y-19761401D01*
X-55157155Y-19755000D01*
X-55705000Y-19755000D01*
X-55705000Y-20455000D01*
X-56205000Y-20455000D01*
X-56205000Y-19755000D01*
X-56752844Y-19755000D01*
X-56812372Y-19761401D01*
X-56812379Y-19761403D01*
X-56947086Y-19811645D01*
X-56947093Y-19811649D01*
X-57062187Y-19897809D01*
X-57062190Y-19897812D01*
X-57148350Y-20012906D01*
X-57148354Y-20012913D01*
X-57198596Y-20147620D01*
X-57198598Y-20147627D01*
X-57204999Y-20207155D01*
X-57205000Y-20207172D01*
X-62993692Y-20207172D01*
X-63151594Y-20049270D01*
X-63151612Y-20049254D01*
X-63380682Y-19877775D01*
X-63380690Y-19877770D01*
X-63631833Y-19740635D01*
X-63631832Y-19740635D01*
X-63899962Y-19640628D01*
X-64037698Y-19610666D01*
X-64099021Y-19577181D01*
X-64132506Y-19515858D01*
X-64127522Y-19446166D01*
X-64085650Y-19390233D01*
X-64020186Y-19365816D01*
X-64011340Y-19365500D01*
X-61496885Y-19365500D01*
X-61429846Y-19385185D01*
G37*
%TD.AperFunction*%
%TD*%
M02*
