%TF.GenerationSoftware,KiCad,Pcbnew,8.0.5-8.0.5-0~ubuntu22.04.1*%
%TF.CreationDate,2025-05-20T11:09:25+05:30*%
%TF.ProjectId,esp32_nichrome_wire,65737033-325f-46e6-9963-68726f6d655f,rev?*%
%TF.SameCoordinates,Original*%
%TF.FileFunction,Copper,L2,Bot*%
%TF.FilePolarity,Positive*%
%FSLAX46Y46*%
G04 Gerber Fmt 4.6, Leading zero omitted, Abs format (unit mm)*
G04 Created by KiCad (PCBNEW 8.0.5-8.0.5-0~ubuntu22.04.1) date 2025-05-20 11:09:25*
%MOMM*%
%LPD*%
G01*
G04 APERTURE LIST*
G04 Aperture macros list*
%AMRoundRect*
0 Rectangle with rounded corners*
0 $1 Rounding radius*
0 $2 $3 $4 $5 $6 $7 $8 $9 X,Y pos of 4 corners*
0 Add a 4 corners polygon primitive as box body*
4,1,4,$2,$3,$4,$5,$6,$7,$8,$9,$2,$3,0*
0 Add four circle primitives for the rounded corners*
1,1,$1+$1,$2,$3*
1,1,$1+$1,$4,$5*
1,1,$1+$1,$6,$7*
1,1,$1+$1,$8,$9*
0 Add four rect primitives between the rounded corners*
20,1,$1+$1,$2,$3,$4,$5,0*
20,1,$1+$1,$4,$5,$6,$7,0*
20,1,$1+$1,$6,$7,$8,$9,0*
20,1,$1+$1,$8,$9,$2,$3,0*%
G04 Aperture macros list end*
%TA.AperFunction,ComponentPad*%
%ADD10RoundRect,0.250000X-0.620000X-0.845000X0.620000X-0.845000X0.620000X0.845000X-0.620000X0.845000X0*%
%TD*%
%TA.AperFunction,ComponentPad*%
%ADD11O,1.740000X2.190000*%
%TD*%
%TA.AperFunction,ComponentPad*%
%ADD12R,1.905000X2.000000*%
%TD*%
%TA.AperFunction,ComponentPad*%
%ADD13O,1.905000X2.000000*%
%TD*%
%TA.AperFunction,ComponentPad*%
%ADD14RoundRect,0.250000X0.845000X-0.620000X0.845000X0.620000X-0.845000X0.620000X-0.845000X-0.620000X0*%
%TD*%
%TA.AperFunction,ComponentPad*%
%ADD15O,2.190000X1.740000*%
%TD*%
%TA.AperFunction,ComponentPad*%
%ADD16R,2.000000X1.905000*%
%TD*%
%TA.AperFunction,ComponentPad*%
%ADD17O,2.000000X1.905000*%
%TD*%
%TA.AperFunction,ComponentPad*%
%ADD18R,1.700000X1.700000*%
%TD*%
%TA.AperFunction,ComponentPad*%
%ADD19O,1.700000X1.700000*%
%TD*%
%TA.AperFunction,ViaPad*%
%ADD20C,1.000000*%
%TD*%
%TA.AperFunction,Conductor*%
%ADD21C,0.500000*%
%TD*%
%TA.AperFunction,Conductor*%
%ADD22C,1.000000*%
%TD*%
%TA.AperFunction,Conductor*%
%ADD23C,0.600000*%
%TD*%
G04 APERTURE END LIST*
D10*
%TO.P,J3,1,Pin_1*%
%TO.N,+5V*%
X-69305000Y-59365000D03*
D11*
%TO.P,J3,2,Pin_2*%
%TO.N,OUT_2*%
X-66765000Y-59365000D03*
%TD*%
D12*
%TO.P,Q4,1,G*%
%TO.N,Net-(Q4-G)*%
X-46325000Y-50520000D03*
D13*
%TO.P,Q4,2,D*%
%TO.N,OUT_6*%
X-48865000Y-50520000D03*
%TO.P,Q4,3,S*%
%TO.N,GNDREF*%
X-51405000Y-50520000D03*
%TD*%
D10*
%TO.P,J9,1,Pin_1*%
%TO.N,GNDREF*%
X-61805000Y-59265000D03*
D11*
%TO.P,J9,2,Pin_2*%
%TO.N,EXTRA_2*%
X-59265000Y-59265000D03*
%TD*%
D14*
%TO.P,J5,1,Pin_1*%
%TO.N,+5V*%
X-27145000Y-54105000D03*
D15*
%TO.P,J5,2,Pin_2*%
%TO.N,OUT_4*%
X-27145000Y-51565000D03*
%TD*%
D12*
%TO.P,Q6,1,G*%
%TO.N,Net-(Q6-G)*%
X-57965000Y-50465000D03*
D13*
%TO.P,Q6,2,D*%
%TO.N,OUT_2*%
X-60505000Y-50465000D03*
%TO.P,Q6,3,S*%
%TO.N,GNDREF*%
X-63045000Y-50465000D03*
%TD*%
D10*
%TO.P,J7,1,Pin_1*%
%TO.N,+5V*%
X-45805000Y-59265000D03*
D11*
%TO.P,J7,2,Pin_2*%
%TO.N,OUT_6*%
X-43265000Y-59265000D03*
%TD*%
D16*
%TO.P,Q2,1,G*%
%TO.N,Net-(Q2-G)*%
X-27045000Y-41025000D03*
D17*
%TO.P,Q2,2,D*%
%TO.N,OUT_4*%
X-27045000Y-43565000D03*
%TO.P,Q2,3,S*%
%TO.N,GNDREF*%
X-27045000Y-46105000D03*
%TD*%
D14*
%TO.P,J4,1,Pin_1*%
%TO.N,+5V*%
X-26945000Y-35165000D03*
D15*
%TO.P,J4,2,Pin_2*%
%TO.N,OUT_3*%
X-26945000Y-32625000D03*
%TD*%
D16*
%TO.P,Q5,1,G*%
%TO.N,Net-(Q5-G)*%
X-60865000Y-41365000D03*
D17*
%TO.P,Q5,2,D*%
%TO.N,OUT_1*%
X-60865000Y-38825000D03*
%TO.P,Q5,3,S*%
%TO.N,GNDREF*%
X-60865000Y-36285000D03*
%TD*%
D10*
%TO.P,J2,1,Pin_1*%
%TO.N,+5V*%
X-53805000Y-59265000D03*
D11*
%TO.P,J2,2,Pin_2*%
%TO.N,OUT_1*%
X-51265000Y-59265000D03*
%TD*%
D12*
%TO.P,Q3,1,G*%
%TO.N,Net-(Q3-G)*%
X-34925000Y-50520000D03*
D13*
%TO.P,Q3,2,D*%
%TO.N,OUT_5*%
X-37465000Y-50520000D03*
%TO.P,Q3,3,S*%
%TO.N,GNDREF*%
X-40005000Y-50520000D03*
%TD*%
D10*
%TO.P,J6,1,Pin_1*%
%TO.N,+5V*%
X-38305000Y-59465000D03*
D11*
%TO.P,J6,2,Pin_2*%
%TO.N,OUT_5*%
X-35765000Y-59465000D03*
%TD*%
D14*
%TO.P,J8,1,Pin_1*%
%TO.N,GNDREF*%
X-27165000Y-60865000D03*
D15*
%TO.P,J8,2,Pin_2*%
%TO.N,EXTRA_1*%
X-27165000Y-58325000D03*
%TD*%
D18*
%TO.P,U3,1,GND*%
%TO.N,GNDREF*%
X-67895000Y-44440000D03*
D19*
%TO.P,U3,2,VBUS*%
%TO.N,+5V*%
X-67895000Y-41900000D03*
%TO.P,U3,3,SVD2*%
%TO.N,unconnected-(U3-SVD2-Pad3)*%
X-67895000Y-39360000D03*
%TO.P,U3,4,CC1*%
%TO.N,unconnected-(U3-CC1-Pad4)*%
X-67895000Y-36820000D03*
%TO.P,U3,5,D-*%
%TO.N,unconnected-(U3-D--Pad5)*%
X-67895000Y-34280000D03*
%TO.P,U3,6,D+*%
%TO.N,unconnected-(U3-D+-Pad6)*%
X-67895000Y-31740000D03*
%TO.P,U3,7,SVD1*%
%TO.N,unconnected-(U3-SVD1-Pad7)*%
X-67895000Y-29200000D03*
%TO.P,U3,8,CC2*%
%TO.N,unconnected-(U3-CC2-Pad8)*%
X-67895000Y-26660000D03*
%TD*%
D16*
%TO.P,Q1,1,G*%
%TO.N,Net-(Q1-G)*%
X-27045000Y-22325000D03*
D17*
%TO.P,Q1,2,D*%
%TO.N,OUT_3*%
X-27045000Y-24865000D03*
%TO.P,Q1,3,S*%
%TO.N,GNDREF*%
X-27045000Y-27405000D03*
%TD*%
D18*
%TO.P,J1,1,Pin_1*%
%TO.N,+5V*%
X-84285000Y-61065000D03*
D19*
%TO.P,J1,2,Pin_2*%
%TO.N,+3V3*%
X-81745000Y-61065000D03*
%TO.P,J1,3,Pin_3*%
%TO.N,GNDREF*%
X-79205000Y-61065000D03*
%TO.P,J1,4,Pin_4*%
%TO.N,UART0_TX*%
X-76665000Y-61065000D03*
%TO.P,J1,5,Pin_5*%
%TO.N,UART0_RX*%
X-74125000Y-61065000D03*
%TD*%
D20*
%TO.N,WIRE_5*%
X-37900000Y-40975000D03*
X-42275000Y-35525000D03*
%TO.N,GNDREF*%
X-51765000Y-30065000D03*
X-69665000Y-21140000D03*
X-58815000Y-42665000D03*
X-57725000Y-20225000D03*
X-86890000Y-46015000D03*
X-78965000Y-46790000D03*
X-65190000Y-31690000D03*
%TO.N,Net-(SW2A-A)*%
X-31415000Y-35640000D03*
X-34265000Y-21575000D03*
%TO.N,+3V3*%
X-47700000Y-20525000D03*
X-81640000Y-51290000D03*
X-36500000Y-28725000D03*
%TO.N,UART0_RX*%
X-41265000Y-27440000D03*
%TO.N,UART0_TX*%
X-40490000Y-24390000D03*
%TO.N,OUT_1*%
X-68090000Y-51515000D03*
%TO.N,EXTRA_1*%
X-32815000Y-54815000D03*
X-46140000Y-34690000D03*
%TO.N,EXTRA_2*%
X-62115000Y-31440000D03*
X-54790000Y-49965000D03*
%TO.N,WIRE_4*%
X-43240000Y-32765000D03*
X-29700000Y-46025000D03*
%TO.N,WIRE_1*%
X-32690000Y-34240000D03*
X-52296250Y-42158750D03*
%TO.N,WIRE_2*%
X-58940000Y-45315000D03*
X-32640000Y-32190000D03*
%TD*%
D21*
%TO.N,Net-(SW2A-A)*%
X-34265000Y-21575000D02*
X-34265000Y-27115000D01*
X-31390000Y-29990000D02*
X-31390000Y-35665000D01*
X-34265000Y-27115000D02*
X-31390000Y-29990000D01*
%TO.N,WIRE_5*%
X-42275000Y-35525000D02*
X-42275000Y-36600000D01*
X-42275000Y-36600000D02*
X-37900000Y-40975000D01*
D22*
%TO.N,+5V*%
X-37290000Y-61990000D02*
X-38305000Y-60975000D01*
X-45805000Y-61575000D02*
X-45805000Y-60965000D01*
X-68715000Y-61990000D02*
X-69305000Y-61400000D01*
X-31515000Y-61990000D02*
X-36315000Y-61990000D01*
X-45525000Y-61080000D02*
X-44615000Y-61990000D01*
X-26945000Y-35165000D02*
X-25190000Y-35165000D01*
X-36315000Y-61990000D02*
X-39215000Y-61990000D01*
X-38305000Y-60975000D02*
X-38305000Y-59465000D01*
X-53805000Y-60740000D02*
X-53805000Y-61105000D01*
X-45805000Y-60965000D02*
X-45805000Y-61080000D01*
X-39215000Y-61990000D02*
X-44615000Y-61990000D01*
X-25190000Y-35165000D02*
X-24765000Y-35590000D01*
X-53805000Y-61105000D02*
X-54690000Y-61990000D01*
X-45805000Y-60965000D02*
X-45805000Y-59265000D01*
X-38305000Y-60975000D02*
X-38305000Y-61080000D01*
X-25005000Y-54105000D02*
X-27145000Y-54105000D01*
X-30515000Y-60990000D02*
X-31515000Y-61990000D01*
X-24765000Y-35590000D02*
X-24790000Y-35615000D01*
X-45805000Y-61080000D02*
X-46715000Y-61990000D01*
X-24790000Y-53890000D02*
X-25005000Y-54105000D01*
X-24790000Y-35615000D02*
X-24790000Y-53890000D01*
X-45390000Y-61990000D02*
X-46715000Y-61990000D01*
X-38305000Y-61080000D02*
X-39215000Y-61990000D01*
X-53040000Y-61990000D02*
X-54690000Y-61990000D01*
X-36315000Y-61990000D02*
X-37290000Y-61990000D01*
X-27455000Y-54105000D02*
X-30565000Y-57215000D01*
X-54690000Y-61990000D02*
X-68715000Y-61990000D01*
X-45805000Y-61080000D02*
X-45525000Y-61080000D01*
X-46715000Y-61990000D02*
X-53040000Y-61990000D01*
X-30515000Y-57265000D02*
X-30515000Y-60990000D01*
X-53805000Y-61225000D02*
X-53805000Y-60740000D01*
X-45390000Y-61990000D02*
X-45805000Y-61575000D01*
X-44615000Y-61990000D02*
X-45390000Y-61990000D01*
X-27145000Y-54105000D02*
X-27455000Y-54105000D01*
X-53040000Y-61990000D02*
X-53805000Y-61225000D01*
X-30565000Y-57215000D02*
X-30515000Y-57265000D01*
X-69305000Y-61400000D02*
X-69305000Y-59365000D01*
X-53805000Y-60740000D02*
X-53805000Y-59265000D01*
D23*
%TO.N,+3V3*%
X-37800000Y-20525000D02*
X-47600000Y-20525000D01*
X-36500000Y-21825000D02*
X-37750000Y-20575000D01*
D21*
X-81640000Y-51290000D02*
X-81745000Y-51395000D01*
D23*
X-36500000Y-28725000D02*
X-36500000Y-21825000D01*
X-37750000Y-20575000D02*
X-37800000Y-20525000D01*
D21*
X-81745000Y-51395000D02*
X-81745000Y-61065000D01*
%TO.N,UART0_RX*%
X-74125000Y-61065000D02*
X-74125000Y-27850000D01*
X-54115000Y-24915000D02*
X-52965000Y-23765000D01*
X-74125000Y-27850000D02*
X-71190000Y-24915000D01*
X-52965000Y-23765000D02*
X-52840000Y-23640000D01*
X-71190000Y-24915000D02*
X-54115000Y-24915000D01*
X-43540000Y-23640000D02*
X-41240000Y-25940000D01*
X-52840000Y-23640000D02*
X-43540000Y-23640000D01*
X-41240000Y-25940000D02*
X-41240000Y-27465000D01*
%TO.N,UART0_TX*%
X-76665000Y-61065000D02*
X-76665000Y-26165000D01*
X-41490000Y-22290000D02*
X-41465000Y-22290000D01*
X-74290000Y-23790000D02*
X-65890000Y-23790000D01*
X-52540000Y-22290000D02*
X-41490000Y-22290000D01*
X-52565000Y-22315000D02*
X-52540000Y-22290000D01*
X-65890000Y-23790000D02*
X-65854841Y-23825159D01*
X-76665000Y-26165000D02*
X-75065000Y-24565000D01*
X-53040000Y-22315000D02*
X-52565000Y-22315000D01*
X-54550159Y-23825159D02*
X-53040000Y-22315000D01*
X-41465000Y-22290000D02*
X-40540000Y-23215000D01*
X-40540000Y-23215000D02*
X-40540000Y-24640000D01*
X-75065000Y-24565000D02*
X-74290000Y-23790000D01*
X-65854841Y-23825159D02*
X-54550159Y-23825159D01*
D22*
%TO.N,OUT_1*%
X-52340000Y-55090000D02*
X-67465000Y-55090000D01*
X-68090000Y-54465000D02*
X-68090000Y-51515000D01*
X-51265000Y-56165000D02*
X-52340000Y-55090000D01*
X-67465000Y-55090000D02*
X-68090000Y-54465000D01*
X-51265000Y-59265000D02*
X-51265000Y-56165000D01*
%TO.N,OUT_3*%
X-27045000Y-24865000D02*
X-28315000Y-24865000D01*
X-29305000Y-32625000D02*
X-26945000Y-32625000D01*
X-30065000Y-31865000D02*
X-29305000Y-32625000D01*
X-30065000Y-26615000D02*
X-30065000Y-31865000D01*
X-28315000Y-24865000D02*
X-30065000Y-26615000D01*
D21*
%TO.N,EXTRA_1*%
X-40915000Y-54415000D02*
X-40915000Y-53120000D01*
X-32815000Y-54815000D02*
X-40515000Y-54815000D01*
X-40915000Y-53120000D02*
X-44340000Y-49695000D01*
X-44340000Y-35865000D02*
X-45515000Y-34690000D01*
X-40515000Y-54815000D02*
X-40915000Y-54415000D01*
X-45515000Y-34690000D02*
X-46115000Y-34690000D01*
X-44340000Y-49695000D02*
X-44340000Y-35865000D01*
%TO.N,EXTRA_2*%
X-58465000Y-47671385D02*
X-63390000Y-42746385D01*
X-63390000Y-41865000D02*
X-63390000Y-32521497D01*
X-54790000Y-49965000D02*
X-56840000Y-47915000D01*
X-63390000Y-42746385D02*
X-63390000Y-41865000D01*
X-63390000Y-32521497D02*
X-62283503Y-31415000D01*
X-62283503Y-31415000D02*
X-62265000Y-31415000D01*
X-56840000Y-47915000D02*
X-58465000Y-47915000D01*
X-58465000Y-47915000D02*
X-58465000Y-47671385D01*
%TO.N,WIRE_4*%
X-29615000Y-46115000D02*
X-29665000Y-46065000D01*
X-43240000Y-32765000D02*
X-42240000Y-32765000D01*
X-33629841Y-49025159D02*
X-30975159Y-49025159D01*
X-34617438Y-46578358D02*
X-34617438Y-48037562D01*
X-42240000Y-32765000D02*
X-34601658Y-40403342D01*
X-30975159Y-49025159D02*
X-29615000Y-47665000D01*
X-29615000Y-47665000D02*
X-29615000Y-46115000D01*
X-34601658Y-46483793D02*
X-34617438Y-46578358D01*
X-34617438Y-48037562D02*
X-33629841Y-49025159D01*
X-34601658Y-40403342D02*
X-34601658Y-46483793D01*
%TO.N,WIRE_1*%
X-49465000Y-31590000D02*
X-41115000Y-31590000D01*
X-41115000Y-31590000D02*
X-38465000Y-34240000D01*
X-52296250Y-34421250D02*
X-49465000Y-31590000D01*
X-38465000Y-34240000D02*
X-32690000Y-34240000D01*
X-52296250Y-42158750D02*
X-52296250Y-34421250D01*
%TO.N,WIRE_2*%
X-43990000Y-27490000D02*
X-43990000Y-25940000D01*
X-54140000Y-44465000D02*
X-54965000Y-45290000D01*
X-53940000Y-26640000D02*
X-53940000Y-44265000D01*
X-32640000Y-32190000D02*
X-36015000Y-32190000D01*
X-37490000Y-30715000D02*
X-40765000Y-30715000D01*
X-53940000Y-44265000D02*
X-54140000Y-44465000D01*
X-43990000Y-25940000D02*
X-44715000Y-25215000D01*
X-52515000Y-25215000D02*
X-53940000Y-26640000D01*
X-44715000Y-25215000D02*
X-52515000Y-25215000D01*
X-36015000Y-32190000D02*
X-37490000Y-30715000D01*
X-40765000Y-30715000D02*
X-43990000Y-27490000D01*
X-54965000Y-45290000D02*
X-59165000Y-45290000D01*
%TD*%
%TA.AperFunction,Conductor*%
%TO.N,GNDREF*%
G36*
X-64851621Y-19385185D02*
G01*
X-64805866Y-19437989D01*
X-64795922Y-19507147D01*
X-64824947Y-19570703D01*
X-64883725Y-19608477D01*
X-64892302Y-19610666D01*
X-65030037Y-19640628D01*
X-65030043Y-19640630D01*
X-65030046Y-19640631D01*
X-65298161Y-19740633D01*
X-65298166Y-19740635D01*
X-65549309Y-19877770D01*
X-65549317Y-19877775D01*
X-65778387Y-20049254D01*
X-65778405Y-20049270D01*
X-65980729Y-20251594D01*
X-65980745Y-20251612D01*
X-66152224Y-20480682D01*
X-66152229Y-20480690D01*
X-66209025Y-20584705D01*
X-66289367Y-20731839D01*
X-66389369Y-20999954D01*
X-66389370Y-20999960D01*
X-66389371Y-20999962D01*
X-66430770Y-21190273D01*
X-66450196Y-21279572D01*
X-66470610Y-21565000D01*
X-66450196Y-21850428D01*
X-66389369Y-22130046D01*
X-66289367Y-22398161D01*
X-66152226Y-22649315D01*
X-66106976Y-22709762D01*
X-66008591Y-22841190D01*
X-65984174Y-22906654D01*
X-65999026Y-22974927D01*
X-66048431Y-23024332D01*
X-66107858Y-23039500D01*
X-74363923Y-23039500D01*
X-74392757Y-23045234D01*
X-74392757Y-23045235D01*
X-74508906Y-23068339D01*
X-74508910Y-23068340D01*
X-74538819Y-23080729D01*
X-74585140Y-23099916D01*
X-74645495Y-23124916D01*
X-74727627Y-23179794D01*
X-74727628Y-23179795D01*
X-74768414Y-23207047D01*
X-74768418Y-23207050D01*
X-75543416Y-23982048D01*
X-77247947Y-25686578D01*
X-77247950Y-25686581D01*
X-77291415Y-25751631D01*
X-77291415Y-25751632D01*
X-77330084Y-25809505D01*
X-77386658Y-25946087D01*
X-77386658Y-25946091D01*
X-77386659Y-25946092D01*
X-77415500Y-26091079D01*
X-77415500Y-59877298D01*
X-77435185Y-59944337D01*
X-77468375Y-59978872D01*
X-77536404Y-60026507D01*
X-77703494Y-60193597D01*
X-77833730Y-60379594D01*
X-77888307Y-60423219D01*
X-77957805Y-60430413D01*
X-78020160Y-60398890D01*
X-78036880Y-60379595D01*
X-78166890Y-60193922D01*
X-78166891Y-60193920D01*
X-78333917Y-60026894D01*
X-78527421Y-59891399D01*
X-78741507Y-59791570D01*
X-78741513Y-59791567D01*
X-78954999Y-59734364D01*
X-78955000Y-59734364D01*
X-78955000Y-60631988D01*
X-79012007Y-60599075D01*
X-79139174Y-60565000D01*
X-79270826Y-60565000D01*
X-79397993Y-60599075D01*
X-79455000Y-60631988D01*
X-79455000Y-59734364D01*
X-79668486Y-59791567D01*
X-79668492Y-59791570D01*
X-79882577Y-59891399D01*
X-79882579Y-59891400D01*
X-80076073Y-60026886D01*
X-80076079Y-60026891D01*
X-80243108Y-60193920D01*
X-80243113Y-60193926D01*
X-80373119Y-60379594D01*
X-80427696Y-60423219D01*
X-80497194Y-60430413D01*
X-80559549Y-60398890D01*
X-80576269Y-60379595D01*
X-80706508Y-60193594D01*
X-80873595Y-60026507D01*
X-80941625Y-59978872D01*
X-80985249Y-59924294D01*
X-80994500Y-59877298D01*
X-80994500Y-52113188D01*
X-80974815Y-52046149D01*
X-80949166Y-52017337D01*
X-80929117Y-52000883D01*
X-80870716Y-51929722D01*
X-80804090Y-51848539D01*
X-80804086Y-51848532D01*
X-80711188Y-51674733D01*
X-80710621Y-51672866D01*
X-80673046Y-51548997D01*
X-80653975Y-51486129D01*
X-80634659Y-51290000D01*
X-80653975Y-51093870D01*
X-80711188Y-50905266D01*
X-80804086Y-50731467D01*
X-80804090Y-50731460D01*
X-80929116Y-50579116D01*
X-81081460Y-50454090D01*
X-81081467Y-50454086D01*
X-81255266Y-50361188D01*
X-81443870Y-50303975D01*
X-81640000Y-50284659D01*
X-81836129Y-50303975D01*
X-81836132Y-50303976D01*
X-82024727Y-50361186D01*
X-82024733Y-50361188D01*
X-82198532Y-50454086D01*
X-82198539Y-50454090D01*
X-82350883Y-50579116D01*
X-82475909Y-50731460D01*
X-82475913Y-50731467D01*
X-82568811Y-50905266D01*
X-82568811Y-50905269D01*
X-82568814Y-50905273D01*
X-82626024Y-51093868D01*
X-82645341Y-51290000D01*
X-82626024Y-51486132D01*
X-82568814Y-51674727D01*
X-82525791Y-51755217D01*
X-82510142Y-51784493D01*
X-82495500Y-51842947D01*
X-82495500Y-59877298D01*
X-82515185Y-59944337D01*
X-82548375Y-59978872D01*
X-82581370Y-60001976D01*
X-82616401Y-60026505D01*
X-82616403Y-60026507D01*
X-82738326Y-60148430D01*
X-82799649Y-60181915D01*
X-82869341Y-60176931D01*
X-82925274Y-60135059D01*
X-82942189Y-60104083D01*
X-82991203Y-59972669D01*
X-82991206Y-59972664D01*
X-83077452Y-59857455D01*
X-83077455Y-59857452D01*
X-83192664Y-59771206D01*
X-83192671Y-59771202D01*
X-83327517Y-59720908D01*
X-83327516Y-59720908D01*
X-83387116Y-59714501D01*
X-83387119Y-59714500D01*
X-83387127Y-59714500D01*
X-83387134Y-59714500D01*
X-83387135Y-59714500D01*
X-85182870Y-59714500D01*
X-85182876Y-59714501D01*
X-85242483Y-59720908D01*
X-85377328Y-59771202D01*
X-85377335Y-59771206D01*
X-85492544Y-59857452D01*
X-85492547Y-59857455D01*
X-85578793Y-59972664D01*
X-85578797Y-59972671D01*
X-85599021Y-60026894D01*
X-85629091Y-60107517D01*
X-85635500Y-60167127D01*
X-85635499Y-61962872D01*
X-85629091Y-62022483D01*
X-85578796Y-62157331D01*
X-85492546Y-62272546D01*
X-85377331Y-62358796D01*
X-85242483Y-62409091D01*
X-85182873Y-62415500D01*
X-83387128Y-62415499D01*
X-83338757Y-62410299D01*
X-83327516Y-62409091D01*
X-83192671Y-62358797D01*
X-83192664Y-62358793D01*
X-83077455Y-62272547D01*
X-83077452Y-62272544D01*
X-82991206Y-62157335D01*
X-82991202Y-62157328D01*
X-82942189Y-62025917D01*
X-82900318Y-61969983D01*
X-82834853Y-61945566D01*
X-82766580Y-61960418D01*
X-82738332Y-61981563D01*
X-82616401Y-62103495D01*
X-82422830Y-62239035D01*
X-82208663Y-62338903D01*
X-81980408Y-62400063D01*
X-81803966Y-62415500D01*
X-81745001Y-62420659D01*
X-81745000Y-62420659D01*
X-81744999Y-62420659D01*
X-81686034Y-62415500D01*
X-81509592Y-62400063D01*
X-81281337Y-62338903D01*
X-81067170Y-62239035D01*
X-81067167Y-62239033D01*
X-81067165Y-62239032D01*
X-80967658Y-62169356D01*
X-80873599Y-62103495D01*
X-80706505Y-61936401D01*
X-80576269Y-61750405D01*
X-80521692Y-61706781D01*
X-80452193Y-61699588D01*
X-80389839Y-61731110D01*
X-80373119Y-61750405D01*
X-80243105Y-61936082D01*
X-80076082Y-62103105D01*
X-79882578Y-62238600D01*
X-79668492Y-62338429D01*
X-79668483Y-62338433D01*
X-79455000Y-62395633D01*
X-79455000Y-61498012D01*
X-79397993Y-61530925D01*
X-79270826Y-61565000D01*
X-79139174Y-61565000D01*
X-79012007Y-61530925D01*
X-78955000Y-61498012D01*
X-78955000Y-62395634D01*
X-78741516Y-62338433D01*
X-78741507Y-62338429D01*
X-78527421Y-62238600D01*
X-78333917Y-62103105D01*
X-78166890Y-61936078D01*
X-78036879Y-61750405D01*
X-77982302Y-61706780D01*
X-77912804Y-61699588D01*
X-77850449Y-61731110D01*
X-77833731Y-61750404D01*
X-77703495Y-61936401D01*
X-77536401Y-62103495D01*
X-77342830Y-62239035D01*
X-77128663Y-62338903D01*
X-76900408Y-62400063D01*
X-76723966Y-62415500D01*
X-76665001Y-62420659D01*
X-76665000Y-62420659D01*
X-76664999Y-62420659D01*
X-76606034Y-62415500D01*
X-76429592Y-62400063D01*
X-76201337Y-62338903D01*
X-75987170Y-62239035D01*
X-75987167Y-62239033D01*
X-75987165Y-62239032D01*
X-75887658Y-62169356D01*
X-75793599Y-62103495D01*
X-75626505Y-61936401D01*
X-75626500Y-61936395D01*
X-75496575Y-61750842D01*
X-75441998Y-61707217D01*
X-75372500Y-61700023D01*
X-75310145Y-61731546D01*
X-75293424Y-61750842D01*
X-75163495Y-61936401D01*
X-74996401Y-62103495D01*
X-74802830Y-62239035D01*
X-74588663Y-62338903D01*
X-74360408Y-62400063D01*
X-74183966Y-62415500D01*
X-74125001Y-62420659D01*
X-74125000Y-62420659D01*
X-74124999Y-62420659D01*
X-74066034Y-62415500D01*
X-73889592Y-62400063D01*
X-73661337Y-62338903D01*
X-73447170Y-62239035D01*
X-73447167Y-62239033D01*
X-73447165Y-62239032D01*
X-73347658Y-62169356D01*
X-73253599Y-62103495D01*
X-73086505Y-61936401D01*
X-73042746Y-61873907D01*
X-72950967Y-61742834D01*
X-72950965Y-61742830D01*
X-72901941Y-61637697D01*
X-72851097Y-61528663D01*
X-72851096Y-61528659D01*
X-72851094Y-61528655D01*
X-72789938Y-61300413D01*
X-72789936Y-61300403D01*
X-72769341Y-61065000D01*
X-72769341Y-61064999D01*
X-72789936Y-60829596D01*
X-72789938Y-60829586D01*
X-72851094Y-60601344D01*
X-72851098Y-60601335D01*
X-72950964Y-60387171D01*
X-72950965Y-60387169D01*
X-73086505Y-60193597D01*
X-73253595Y-60026507D01*
X-73321625Y-59978872D01*
X-73365249Y-59924294D01*
X-73374500Y-59877298D01*
X-73374500Y-28212230D01*
X-73354815Y-28145191D01*
X-73338181Y-28124549D01*
X-70915451Y-25701819D01*
X-70854128Y-25668334D01*
X-70827770Y-25665500D01*
X-69085502Y-25665500D01*
X-69018463Y-25685185D01*
X-68972708Y-25737989D01*
X-68962764Y-25807147D01*
X-68983927Y-25860623D01*
X-69062812Y-25973283D01*
X-69069035Y-25982171D01*
X-69168903Y-26196337D01*
X-69230063Y-26424592D01*
X-69250659Y-26660000D01*
X-69230063Y-26895408D01*
X-69168903Y-27123663D01*
X-69069035Y-27337830D01*
X-68933495Y-27531401D01*
X-68766401Y-27698495D01*
X-68580839Y-27828426D01*
X-68537216Y-27883002D01*
X-68530022Y-27952500D01*
X-68561545Y-28014855D01*
X-68580841Y-28031575D01*
X-68766403Y-28161506D01*
X-68933494Y-28328597D01*
X-69015238Y-28445341D01*
X-69069035Y-28522171D01*
X-69168903Y-28736337D01*
X-69230063Y-28964592D01*
X-69250659Y-29200000D01*
X-69230063Y-29435408D01*
X-69168903Y-29663663D01*
X-69069035Y-29877830D01*
X-68933495Y-30071401D01*
X-68766401Y-30238495D01*
X-68580839Y-30368426D01*
X-68537216Y-30423002D01*
X-68530022Y-30492500D01*
X-68561545Y-30554855D01*
X-68580841Y-30571575D01*
X-68766403Y-30701506D01*
X-68933494Y-30868597D01*
X-69064201Y-31055268D01*
X-69069035Y-31062171D01*
X-69168903Y-31276337D01*
X-69230063Y-31504592D01*
X-69245163Y-31677181D01*
X-69249974Y-31732176D01*
X-69250659Y-31740000D01*
X-69230063Y-31975408D01*
X-69168903Y-32203663D01*
X-69069035Y-32417830D01*
X-68933495Y-32611401D01*
X-68766401Y-32778495D01*
X-68580839Y-32908426D01*
X-68537216Y-32963002D01*
X-68530022Y-33032500D01*
X-68561545Y-33094855D01*
X-68580841Y-33111575D01*
X-68766403Y-33241506D01*
X-68933494Y-33408597D01*
X-69068154Y-33600913D01*
X-69069035Y-33602171D01*
X-69168903Y-33816337D01*
X-69230063Y-34044592D01*
X-69243864Y-34202337D01*
X-69250516Y-34278371D01*
X-69250659Y-34280000D01*
X-69230063Y-34515408D01*
X-69168903Y-34743663D01*
X-69069035Y-34957830D01*
X-68933495Y-35151401D01*
X-68766401Y-35318495D01*
X-68580839Y-35448426D01*
X-68537216Y-35503002D01*
X-68530022Y-35572500D01*
X-68561545Y-35634855D01*
X-68580841Y-35651575D01*
X-68766403Y-35781506D01*
X-68933494Y-35948597D01*
X-69067198Y-36139548D01*
X-69069035Y-36142171D01*
X-69168903Y-36356337D01*
X-69230063Y-36584592D01*
X-69250659Y-36820000D01*
X-69230063Y-37055408D01*
X-69168903Y-37283663D01*
X-69069035Y-37497830D01*
X-68933495Y-37691401D01*
X-68766401Y-37858495D01*
X-68580839Y-37988426D01*
X-68537216Y-38043002D01*
X-68530022Y-38112500D01*
X-68561545Y-38174855D01*
X-68580841Y-38191575D01*
X-68766403Y-38321506D01*
X-68933494Y-38488597D01*
X-68933495Y-38488599D01*
X-69069035Y-38682171D01*
X-69168903Y-38896337D01*
X-69230063Y-39124592D01*
X-69250659Y-39360000D01*
X-69230063Y-39595408D01*
X-69168903Y-39823663D01*
X-69069035Y-40037830D01*
X-68933495Y-40231401D01*
X-68766401Y-40398495D01*
X-68580839Y-40528426D01*
X-68537216Y-40583002D01*
X-68530022Y-40652500D01*
X-68561545Y-40714855D01*
X-68580841Y-40731575D01*
X-68766403Y-40861506D01*
X-68933494Y-41028597D01*
X-69033297Y-41171132D01*
X-69069035Y-41222171D01*
X-69168903Y-41436337D01*
X-69168904Y-41436343D01*
X-69168905Y-41436344D01*
X-69176885Y-41466126D01*
X-69230063Y-41664592D01*
X-69250659Y-41900000D01*
X-69230063Y-42135408D01*
X-69168903Y-42363663D01*
X-69069035Y-42577830D01*
X-68933495Y-42771401D01*
X-68811178Y-42893717D01*
X-68777696Y-42955036D01*
X-68782680Y-43024728D01*
X-68824551Y-43080662D01*
X-68855528Y-43097577D01*
X-68987088Y-43146646D01*
X-68987093Y-43146649D01*
X-69102187Y-43232809D01*
X-69102190Y-43232812D01*
X-69188350Y-43347906D01*
X-69188354Y-43347913D01*
X-69238596Y-43482620D01*
X-69238598Y-43482627D01*
X-69244999Y-43542155D01*
X-69245000Y-43542172D01*
X-69245000Y-44190000D01*
X-68328012Y-44190000D01*
X-68360925Y-44247007D01*
X-68395000Y-44374174D01*
X-68395000Y-44505826D01*
X-68360925Y-44632993D01*
X-68328012Y-44690000D01*
X-69245000Y-44690000D01*
X-69245000Y-45337827D01*
X-69244999Y-45337844D01*
X-69238598Y-45397372D01*
X-69238596Y-45397379D01*
X-69188354Y-45532086D01*
X-69188350Y-45532093D01*
X-69102190Y-45647187D01*
X-69102187Y-45647190D01*
X-68987093Y-45733350D01*
X-68987086Y-45733354D01*
X-68852379Y-45783596D01*
X-68852372Y-45783598D01*
X-68792844Y-45789999D01*
X-68792828Y-45790000D01*
X-68145000Y-45790000D01*
X-68145000Y-44873012D01*
X-68087993Y-44905925D01*
X-67960826Y-44940000D01*
X-67829174Y-44940000D01*
X-67702007Y-44905925D01*
X-67645000Y-44873012D01*
X-67645000Y-45790000D01*
X-66997172Y-45790000D01*
X-66997155Y-45789999D01*
X-66937627Y-45783598D01*
X-66937620Y-45783596D01*
X-66802913Y-45733354D01*
X-66802906Y-45733350D01*
X-66687812Y-45647190D01*
X-66687809Y-45647187D01*
X-66601649Y-45532093D01*
X-66601645Y-45532086D01*
X-66551403Y-45397379D01*
X-66551401Y-45397372D01*
X-66545000Y-45337844D01*
X-66545000Y-44690000D01*
X-67461988Y-44690000D01*
X-67429075Y-44632993D01*
X-67395000Y-44505826D01*
X-67395000Y-44374174D01*
X-67429075Y-44247007D01*
X-67461988Y-44190000D01*
X-66545000Y-44190000D01*
X-66545000Y-43542155D01*
X-66551401Y-43482627D01*
X-66551403Y-43482620D01*
X-66601645Y-43347913D01*
X-66601649Y-43347906D01*
X-66687809Y-43232812D01*
X-66687812Y-43232809D01*
X-66802906Y-43146649D01*
X-66802912Y-43146646D01*
X-66934471Y-43097577D01*
X-66990404Y-43055705D01*
X-67014821Y-42990241D01*
X-66999969Y-42921968D01*
X-66978818Y-42893714D01*
X-66856506Y-42771402D01*
X-66856501Y-42771396D01*
X-66749396Y-42618434D01*
X-66720967Y-42577834D01*
X-66720965Y-42577830D01*
X-66685805Y-42502430D01*
X-66621097Y-42363663D01*
X-66621096Y-42363659D01*
X-66621094Y-42363655D01*
X-66559938Y-42135413D01*
X-66559936Y-42135403D01*
X-66539341Y-41900000D01*
X-66539341Y-41899999D01*
X-66559936Y-41664596D01*
X-66559938Y-41664586D01*
X-66621094Y-41436344D01*
X-66621098Y-41436335D01*
X-66720964Y-41222171D01*
X-66720965Y-41222169D01*
X-66856505Y-41028597D01*
X-67023597Y-40861506D01*
X-67023599Y-40861505D01*
X-67209158Y-40731575D01*
X-67252782Y-40676998D01*
X-67259975Y-40607499D01*
X-67228453Y-40545145D01*
X-67209158Y-40528425D01*
X-67197337Y-40520148D01*
X-67023599Y-40398495D01*
X-66856505Y-40231401D01*
X-66791865Y-40139086D01*
X-66720967Y-40037834D01*
X-66720965Y-40037830D01*
X-66698184Y-39988976D01*
X-66621097Y-39823663D01*
X-66621096Y-39823659D01*
X-66621094Y-39823655D01*
X-66559938Y-39595413D01*
X-66559936Y-39595403D01*
X-66539341Y-39360000D01*
X-66539341Y-39359999D01*
X-66559936Y-39124596D01*
X-66559938Y-39124586D01*
X-66621094Y-38896344D01*
X-66621098Y-38896335D01*
X-66720964Y-38682171D01*
X-66720965Y-38682169D01*
X-66856505Y-38488597D01*
X-67023597Y-38321506D01*
X-67023599Y-38321505D01*
X-67209158Y-38191575D01*
X-67252782Y-38136998D01*
X-67259975Y-38067499D01*
X-67228453Y-38005145D01*
X-67209158Y-37988425D01*
X-67197337Y-37980148D01*
X-67023599Y-37858495D01*
X-66856505Y-37691401D01*
X-66792279Y-37599677D01*
X-66720967Y-37497834D01*
X-66720965Y-37497830D01*
X-66711929Y-37478452D01*
X-66621097Y-37283663D01*
X-66621096Y-37283659D01*
X-66621094Y-37283655D01*
X-66559938Y-37055413D01*
X-66559936Y-37055403D01*
X-66539341Y-36820000D01*
X-66539341Y-36819999D01*
X-66559936Y-36584596D01*
X-66559938Y-36584586D01*
X-66621094Y-36356344D01*
X-66621098Y-36356335D01*
X-66720964Y-36142171D01*
X-66720965Y-36142169D01*
X-66856505Y-35948597D01*
X-67023597Y-35781506D01*
X-67023599Y-35781505D01*
X-67209158Y-35651575D01*
X-67252782Y-35596998D01*
X-67259975Y-35527499D01*
X-67228453Y-35465145D01*
X-67209158Y-35448425D01*
X-67197337Y-35440148D01*
X-67023599Y-35318495D01*
X-66856505Y-35151401D01*
X-66829281Y-35112521D01*
X-66720967Y-34957834D01*
X-66720965Y-34957830D01*
X-66679200Y-34868265D01*
X-66621097Y-34743663D01*
X-66621096Y-34743659D01*
X-66621094Y-34743655D01*
X-66559938Y-34515413D01*
X-66559936Y-34515403D01*
X-66539341Y-34280000D01*
X-66539341Y-34279999D01*
X-66559936Y-34044596D01*
X-66559938Y-34044586D01*
X-66621094Y-33816344D01*
X-66621098Y-33816335D01*
X-66720964Y-33602171D01*
X-66720965Y-33602169D01*
X-66856505Y-33408597D01*
X-67023597Y-33241506D01*
X-67023599Y-33241505D01*
X-67209158Y-33111575D01*
X-67252782Y-33056998D01*
X-67259975Y-32987499D01*
X-67228453Y-32925145D01*
X-67209158Y-32908425D01*
X-67171482Y-32882044D01*
X-67023599Y-32778495D01*
X-66856505Y-32611401D01*
X-66790502Y-32517139D01*
X-66720967Y-32417834D01*
X-66720965Y-32417830D01*
X-66701841Y-32376819D01*
X-66621097Y-32203663D01*
X-66621096Y-32203659D01*
X-66621094Y-32203655D01*
X-66559938Y-31975413D01*
X-66559936Y-31975403D01*
X-66539341Y-31740000D01*
X-66539341Y-31739999D01*
X-66559936Y-31504596D01*
X-66559938Y-31504586D01*
X-66621094Y-31276344D01*
X-66621098Y-31276335D01*
X-66720964Y-31062171D01*
X-66720965Y-31062169D01*
X-66856505Y-30868597D01*
X-67023597Y-30701506D01*
X-67023599Y-30701505D01*
X-67209158Y-30571575D01*
X-67252782Y-30516998D01*
X-67259975Y-30447499D01*
X-67228453Y-30385145D01*
X-67209158Y-30368425D01*
X-67186029Y-30352230D01*
X-67023599Y-30238495D01*
X-66856505Y-30071401D01*
X-66756221Y-29928181D01*
X-66720967Y-29877834D01*
X-66720965Y-29877830D01*
X-66643182Y-29711024D01*
X-66621097Y-29663663D01*
X-66621096Y-29663659D01*
X-66621094Y-29663655D01*
X-66559938Y-29435413D01*
X-66559936Y-29435403D01*
X-66539341Y-29200000D01*
X-66539341Y-29199999D01*
X-66559936Y-28964596D01*
X-66559938Y-28964586D01*
X-66621094Y-28736344D01*
X-66621098Y-28736335D01*
X-66720964Y-28522171D01*
X-66720965Y-28522169D01*
X-66856505Y-28328597D01*
X-67023597Y-28161506D01*
X-67023599Y-28161505D01*
X-67209158Y-28031575D01*
X-67252782Y-27976998D01*
X-67259975Y-27907499D01*
X-67228453Y-27845145D01*
X-67209158Y-27828425D01*
X-67134405Y-27776082D01*
X-67023599Y-27698495D01*
X-66856505Y-27531401D01*
X-66790502Y-27437139D01*
X-66720967Y-27337834D01*
X-66720965Y-27337830D01*
X-66663899Y-27215451D01*
X-66621097Y-27123663D01*
X-66621096Y-27123659D01*
X-66621094Y-27123655D01*
X-66559938Y-26895413D01*
X-66559936Y-26895403D01*
X-66539341Y-26660000D01*
X-66539341Y-26659999D01*
X-66559936Y-26424596D01*
X-66559938Y-26424586D01*
X-66621094Y-26196344D01*
X-66621098Y-26196335D01*
X-66720964Y-25982171D01*
X-66720965Y-25982169D01*
X-66806073Y-25860623D01*
X-66828400Y-25794417D01*
X-66811390Y-25726650D01*
X-66760442Y-25678837D01*
X-66704498Y-25665500D01*
X-54326230Y-25665500D01*
X-54259191Y-25685185D01*
X-54213436Y-25737989D01*
X-54203492Y-25807147D01*
X-54232517Y-25870703D01*
X-54238549Y-25877181D01*
X-54522954Y-26161586D01*
X-54535455Y-26180297D01*
X-54556336Y-26211548D01*
X-54605084Y-26284505D01*
X-54661658Y-26421087D01*
X-54661658Y-26421091D01*
X-54661659Y-26421092D01*
X-54690500Y-26566079D01*
X-54690500Y-43902770D01*
X-54710185Y-43969809D01*
X-54726819Y-43990451D01*
X-54730020Y-43993652D01*
X-54730022Y-43993655D01*
X-55239549Y-44503181D01*
X-55300872Y-44536666D01*
X-55327230Y-44539500D01*
X-58263485Y-44539500D01*
X-58330524Y-44519815D01*
X-58342151Y-44511352D01*
X-58381459Y-44479091D01*
X-58381467Y-44479086D01*
X-58555266Y-44386188D01*
X-58743870Y-44328975D01*
X-58940000Y-44309659D01*
X-59136129Y-44328975D01*
X-59136132Y-44328976D01*
X-59324727Y-44386186D01*
X-59324733Y-44386188D01*
X-59498532Y-44479086D01*
X-59498539Y-44479090D01*
X-59650883Y-44604116D01*
X-59775909Y-44756460D01*
X-59775913Y-44756467D01*
X-59868812Y-44930268D01*
X-59868812Y-44930270D01*
X-59868814Y-44930273D01*
X-59871956Y-44940633D01*
X-59872980Y-44944008D01*
X-59911278Y-45002447D01*
X-59975090Y-45030903D01*
X-60044157Y-45020343D01*
X-60079322Y-44995694D01*
X-62049930Y-43025086D01*
X-62083415Y-42963763D01*
X-62078431Y-42894071D01*
X-62036559Y-42838138D01*
X-61971095Y-42813721D01*
X-61948999Y-42814115D01*
X-61912873Y-42818000D01*
X-59817128Y-42817999D01*
X-59768757Y-42812799D01*
X-59757516Y-42811591D01*
X-59622671Y-42761297D01*
X-59622664Y-42761293D01*
X-59507455Y-42675047D01*
X-59507452Y-42675044D01*
X-59421206Y-42559835D01*
X-59421202Y-42559828D01*
X-59370908Y-42424982D01*
X-59364501Y-42365383D01*
X-59364500Y-42365364D01*
X-59364500Y-40364629D01*
X-59364501Y-40364623D01*
X-59370908Y-40305016D01*
X-59421202Y-40170171D01*
X-59421206Y-40170164D01*
X-59507452Y-40054955D01*
X-59507455Y-40054952D01*
X-59622664Y-39968706D01*
X-59622670Y-39968703D01*
X-59650541Y-39958308D01*
X-59706474Y-39916436D01*
X-59730891Y-39850972D01*
X-59716039Y-39782699D01*
X-59707531Y-39769250D01*
X-59574783Y-39586538D01*
X-59567376Y-39572001D01*
X-59470950Y-39382755D01*
X-59400278Y-39165249D01*
X-59400278Y-39165246D01*
X-59364500Y-38939353D01*
X-59364500Y-38710646D01*
X-59400278Y-38484753D01*
X-59400278Y-38484750D01*
X-59470950Y-38267244D01*
X-59574783Y-38063461D01*
X-59651480Y-37957896D01*
X-59709214Y-37878434D01*
X-59709216Y-37878432D01*
X-59709216Y-37878431D01*
X-59870931Y-37716716D01*
X-59870940Y-37716709D01*
X-59955864Y-37655007D01*
X-59998530Y-37599677D01*
X-60004508Y-37530063D01*
X-59971901Y-37468269D01*
X-59955863Y-37454372D01*
X-59871263Y-37392907D01*
X-59871257Y-37392902D01*
X-59709597Y-37231242D01*
X-59575211Y-37046276D01*
X-59471417Y-36842570D01*
X-59400765Y-36625128D01*
X-59386491Y-36535000D01*
X-60374252Y-36535000D01*
X-60352482Y-36497292D01*
X-60315000Y-36357409D01*
X-60315000Y-36212591D01*
X-60352482Y-36072708D01*
X-60374252Y-36035000D01*
X-59386491Y-36035000D01*
X-59400765Y-35944871D01*
X-59471417Y-35727429D01*
X-59575211Y-35523723D01*
X-59709597Y-35338757D01*
X-59871257Y-35177097D01*
X-60056223Y-35042711D01*
X-60259931Y-34938917D01*
X-60477374Y-34868265D01*
X-60477373Y-34868265D01*
X-60615000Y-34846467D01*
X-60615000Y-35794252D01*
X-60652708Y-35772482D01*
X-60792591Y-35735000D01*
X-60937409Y-35735000D01*
X-61077292Y-35772482D01*
X-61115000Y-35794252D01*
X-61115000Y-34846467D01*
X-61252625Y-34868265D01*
X-61470068Y-34938917D01*
X-61673776Y-35042711D01*
X-61858742Y-35177097D01*
X-62020402Y-35338757D01*
X-62154788Y-35523723D01*
X-62258582Y-35727429D01*
X-62329234Y-35944871D01*
X-62343509Y-36035000D01*
X-61355748Y-36035000D01*
X-61377518Y-36072708D01*
X-61415000Y-36212591D01*
X-61415000Y-36357409D01*
X-61377518Y-36497292D01*
X-61355748Y-36535000D01*
X-62343509Y-36535000D01*
X-62329234Y-36625128D01*
X-62258582Y-36842570D01*
X-62154788Y-37046276D01*
X-62020402Y-37231242D01*
X-61858739Y-37392905D01*
X-61774137Y-37454371D01*
X-61731470Y-37509701D01*
X-61725491Y-37579314D01*
X-61758096Y-37641109D01*
X-61774134Y-37655007D01*
X-61859066Y-37716714D01*
X-62020786Y-37878434D01*
X-62155217Y-38063462D01*
X-62217635Y-38185965D01*
X-62259049Y-38267244D01*
X-62329721Y-38484750D01*
X-62329721Y-38484751D01*
X-62329722Y-38484755D01*
X-62365500Y-38710646D01*
X-62365500Y-38939354D01*
X-62329722Y-39165245D01*
X-62329721Y-39165248D01*
X-62329721Y-39165249D01*
X-62259049Y-39382755D01*
X-62259048Y-39382758D01*
X-62155217Y-39586538D01*
X-62022472Y-39769245D01*
X-61998994Y-39835046D01*
X-62014819Y-39903100D01*
X-62064924Y-39951795D01*
X-62079459Y-39958308D01*
X-62107328Y-39968702D01*
X-62107335Y-39968706D01*
X-62222544Y-40054952D01*
X-62222547Y-40054955D01*
X-62308793Y-40170164D01*
X-62308797Y-40170171D01*
X-62343836Y-40264116D01*
X-62359091Y-40305017D01*
X-62365500Y-40364627D01*
X-62365499Y-41436335D01*
X-62365499Y-42365370D01*
X-62365498Y-42365387D01*
X-62361616Y-42401493D01*
X-62374021Y-42470252D01*
X-62421631Y-42521390D01*
X-62489330Y-42538670D01*
X-62555624Y-42516606D01*
X-62572586Y-42502430D01*
X-62603181Y-42471835D01*
X-62636666Y-42410512D01*
X-62639500Y-42384154D01*
X-62639500Y-32883727D01*
X-62619815Y-32816688D01*
X-62603181Y-32796046D01*
X-62281620Y-32474485D01*
X-62220297Y-32441000D01*
X-62181787Y-32438763D01*
X-62115000Y-32445341D01*
X-61918868Y-32426024D01*
X-61730273Y-32368814D01*
X-61730269Y-32368811D01*
X-61730266Y-32368811D01*
X-61556467Y-32275913D01*
X-61556460Y-32275909D01*
X-61404116Y-32150883D01*
X-61279090Y-31998539D01*
X-61279086Y-31998532D01*
X-61186188Y-31824733D01*
X-61128975Y-31636129D01*
X-61109659Y-31440000D01*
X-61128975Y-31243870D01*
X-61186188Y-31055266D01*
X-61279086Y-30881467D01*
X-61279090Y-30881460D01*
X-61404116Y-30729116D01*
X-61556460Y-30604090D01*
X-61556467Y-30604086D01*
X-61730266Y-30511188D01*
X-61918870Y-30453975D01*
X-62115000Y-30434659D01*
X-62311129Y-30453975D01*
X-62311132Y-30453976D01*
X-62499727Y-30511186D01*
X-62499733Y-30511188D01*
X-62673532Y-30604086D01*
X-62673539Y-30604090D01*
X-62825883Y-30729116D01*
X-62950909Y-30881460D01*
X-62950913Y-30881467D01*
X-63043812Y-31055268D01*
X-63043812Y-31055270D01*
X-63043814Y-31055273D01*
X-63060345Y-31109769D01*
X-63091324Y-31161453D01*
X-63972952Y-32043081D01*
X-63972955Y-32043086D01*
X-64010255Y-32098911D01*
X-64010927Y-32099916D01*
X-64055084Y-32166002D01*
X-64111658Y-32302584D01*
X-64111658Y-32302588D01*
X-64111659Y-32302589D01*
X-64140500Y-32447576D01*
X-64140500Y-42820305D01*
X-64125897Y-42893714D01*
X-64111658Y-42965298D01*
X-64055084Y-43101880D01*
X-64026423Y-43144774D01*
X-63972952Y-43224801D01*
X-62638807Y-44558944D01*
X-62605324Y-44620265D01*
X-62610308Y-44689956D01*
X-62652179Y-44745890D01*
X-62717644Y-44770307D01*
X-62850433Y-44779804D01*
X-63130037Y-44840628D01*
X-63130043Y-44840630D01*
X-63130046Y-44840631D01*
X-63396464Y-44940000D01*
X-63398166Y-44940635D01*
X-63649309Y-45077770D01*
X-63649317Y-45077775D01*
X-63878387Y-45249254D01*
X-63878405Y-45249270D01*
X-64080729Y-45451594D01*
X-64080745Y-45451612D01*
X-64252224Y-45680682D01*
X-64252229Y-45680690D01*
X-64358158Y-45874685D01*
X-64389367Y-45931839D01*
X-64489369Y-46199954D01*
X-64489370Y-46199960D01*
X-64489371Y-46199962D01*
X-64544703Y-46454322D01*
X-64550196Y-46479572D01*
X-64570610Y-46765000D01*
X-64550196Y-47050428D01*
X-64550195Y-47050432D01*
X-64550195Y-47050433D01*
X-64519107Y-47193342D01*
X-64489369Y-47330046D01*
X-64389367Y-47598161D01*
X-64252226Y-47849315D01*
X-64080739Y-48078395D01*
X-63878395Y-48280739D01*
X-63649315Y-48452226D01*
X-63398166Y-48589364D01*
X-63398165Y-48589364D01*
X-63398161Y-48589367D01*
X-63130046Y-48689369D01*
X-63130037Y-48689370D01*
X-63130037Y-48689371D01*
X-62850438Y-48750194D01*
X-62850436Y-48750194D01*
X-62850428Y-48750196D01*
X-62845641Y-48750538D01*
X-62780178Y-48774950D01*
X-62746085Y-48820485D01*
X-62711533Y-48782839D01*
X-62643959Y-48765077D01*
X-62638664Y-48765341D01*
X-62583256Y-48769304D01*
X-62565001Y-48770610D01*
X-62565000Y-48770610D01*
X-62564999Y-48770610D01*
X-62533220Y-48768337D01*
X-62279572Y-48750196D01*
X-62279568Y-48750195D01*
X-62279566Y-48750195D01*
X-61999962Y-48689371D01*
X-61999960Y-48689370D01*
X-61999954Y-48689369D01*
X-61731839Y-48589367D01*
X-61731834Y-48589364D01*
X-61731833Y-48589364D01*
X-61480690Y-48452229D01*
X-61480682Y-48452224D01*
X-61251612Y-48280745D01*
X-61251594Y-48280729D01*
X-61049270Y-48078405D01*
X-61049254Y-48078387D01*
X-60877775Y-47849317D01*
X-60877770Y-47849309D01*
X-60740635Y-47598166D01*
X-60737993Y-47591083D01*
X-60640631Y-47330046D01*
X-60640630Y-47330043D01*
X-60640628Y-47330037D01*
X-60579804Y-47050433D01*
X-60570307Y-46917644D01*
X-60545890Y-46852179D01*
X-60489956Y-46810308D01*
X-60420265Y-46805324D01*
X-60358944Y-46838807D01*
X-59243751Y-47954001D01*
X-59210268Y-48015322D01*
X-59209817Y-48017488D01*
X-59186658Y-48133913D01*
X-59130084Y-48270495D01*
X-59047951Y-48393416D01*
X-58943416Y-48497951D01*
X-58820495Y-48580084D01*
X-58683913Y-48636658D01*
X-58636462Y-48646096D01*
X-58538920Y-48665500D01*
X-58538918Y-48665500D01*
X-58391082Y-48665500D01*
X-57202230Y-48665500D01*
X-57135191Y-48685185D01*
X-57114549Y-48701818D01*
X-57063548Y-48752819D01*
X-57030063Y-48814141D01*
X-57035047Y-48883832D01*
X-57076918Y-48939766D01*
X-57142382Y-48964184D01*
X-57151229Y-48964500D01*
X-58965370Y-48964500D01*
X-58965376Y-48964501D01*
X-59024983Y-48970908D01*
X-59159828Y-49021202D01*
X-59159835Y-49021206D01*
X-59275044Y-49107452D01*
X-59275047Y-49107455D01*
X-59361293Y-49222664D01*
X-59361296Y-49222669D01*
X-59371690Y-49250538D01*
X-59413561Y-49306473D01*
X-59479024Y-49330891D01*
X-59547298Y-49316040D01*
X-59560759Y-49307525D01*
X-59743461Y-49174783D01*
X-59947244Y-49070950D01*
X-60164751Y-49000278D01*
X-60355119Y-48970127D01*
X-60390646Y-48964500D01*
X-60619354Y-48964500D01*
X-60710751Y-48978976D01*
X-60845246Y-49000278D01*
X-60845249Y-49000278D01*
X-61062755Y-49070950D01*
X-61242337Y-49162452D01*
X-61266538Y-49174783D01*
X-61451566Y-49309214D01*
X-61613286Y-49470934D01*
X-61674991Y-49555864D01*
X-61730321Y-49598529D01*
X-61799935Y-49604508D01*
X-61861730Y-49571902D01*
X-61875627Y-49555864D01*
X-61937097Y-49471257D01*
X-62098757Y-49309597D01*
X-62283723Y-49175211D01*
X-62487431Y-49071417D01*
X-62685818Y-49006957D01*
X-62743494Y-48967519D01*
X-62754999Y-48940292D01*
X-62766795Y-48961897D01*
X-62773951Y-48968513D01*
X-62795000Y-48986490D01*
X-62795000Y-49974252D01*
X-62832708Y-49952482D01*
X-62972591Y-49915000D01*
X-63117409Y-49915000D01*
X-63257292Y-49952482D01*
X-63295000Y-49974252D01*
X-63295000Y-48986490D01*
X-63385124Y-49000765D01*
X-63602568Y-49071417D01*
X-63806276Y-49175211D01*
X-63991242Y-49309597D01*
X-64152902Y-49471257D01*
X-64287288Y-49656223D01*
X-64391082Y-49859929D01*
X-64461734Y-50077371D01*
X-64483532Y-50215000D01*
X-63535748Y-50215000D01*
X-63557518Y-50252708D01*
X-63595000Y-50392591D01*
X-63595000Y-50537409D01*
X-63557518Y-50677292D01*
X-63535748Y-50715000D01*
X-64483532Y-50715000D01*
X-64461734Y-50852628D01*
X-64391082Y-51070070D01*
X-64287288Y-51273776D01*
X-64152902Y-51458742D01*
X-63991242Y-51620402D01*
X-63806276Y-51754788D01*
X-63602570Y-51858582D01*
X-63385128Y-51929234D01*
X-63295000Y-51943508D01*
X-63295000Y-50955747D01*
X-63257292Y-50977518D01*
X-63117409Y-51015000D01*
X-62972591Y-51015000D01*
X-62832708Y-50977518D01*
X-62795000Y-50955747D01*
X-62795000Y-51943509D01*
X-62704871Y-51929234D01*
X-62487429Y-51858582D01*
X-62283723Y-51754788D01*
X-62098757Y-51620402D01*
X-61937097Y-51458742D01*
X-61937097Y-51458741D01*
X-61875626Y-51374135D01*
X-61820296Y-51331470D01*
X-61750682Y-51325491D01*
X-61688887Y-51358097D01*
X-61674999Y-51374125D01*
X-61613286Y-51459066D01*
X-61451566Y-51620786D01*
X-61266538Y-51755217D01*
X-61062758Y-51859048D01*
X-60845245Y-51929722D01*
X-60619354Y-51965500D01*
X-60619353Y-51965500D01*
X-60390647Y-51965500D01*
X-60390646Y-51965500D01*
X-60164755Y-51929722D01*
X-60164752Y-51929721D01*
X-60164750Y-51929721D01*
X-59947244Y-51859049D01*
X-59875599Y-51822544D01*
X-59743462Y-51755217D01*
X-59560755Y-51622472D01*
X-59494953Y-51598994D01*
X-59426899Y-51614819D01*
X-59378204Y-51664925D01*
X-59371692Y-51679455D01*
X-59361296Y-51707331D01*
X-59275046Y-51822546D01*
X-59159831Y-51908796D01*
X-59024983Y-51959091D01*
X-58965373Y-51965500D01*
X-56964628Y-51965499D01*
X-56916257Y-51960299D01*
X-56905016Y-51959091D01*
X-56770171Y-51908797D01*
X-56770164Y-51908793D01*
X-56654955Y-51822547D01*
X-56654952Y-51822544D01*
X-56568706Y-51707335D01*
X-56568702Y-51707328D01*
X-56518408Y-51572482D01*
X-56512001Y-51512883D01*
X-56512000Y-51512864D01*
X-56512000Y-49603728D01*
X-56492315Y-49536689D01*
X-56439511Y-49490934D01*
X-56370353Y-49480990D01*
X-56306797Y-49510015D01*
X-56300333Y-49516033D01*
X-55820591Y-49995775D01*
X-55787108Y-50057096D01*
X-55784871Y-50071295D01*
X-55776024Y-50161132D01*
X-55718814Y-50349727D01*
X-55625910Y-50523538D01*
X-55500883Y-50675883D01*
X-55348538Y-50800910D01*
X-55348532Y-50800913D01*
X-55205784Y-50877214D01*
X-55174727Y-50893814D01*
X-54986132Y-50951024D01*
X-54790000Y-50970341D01*
X-54593868Y-50951024D01*
X-54405273Y-50893814D01*
X-54405269Y-50893811D01*
X-54405266Y-50893811D01*
X-54231467Y-50800913D01*
X-54231460Y-50800909D01*
X-54079116Y-50675883D01*
X-53954090Y-50523539D01*
X-53954086Y-50523532D01*
X-53861188Y-50349733D01*
X-53803975Y-50161129D01*
X-53784659Y-49965000D01*
X-53803975Y-49768870D01*
X-53861188Y-49580266D01*
X-53954086Y-49406467D01*
X-53954090Y-49406460D01*
X-54079116Y-49254116D01*
X-54231460Y-49129090D01*
X-54231467Y-49129086D01*
X-54405266Y-49036188D01*
X-54593870Y-48978975D01*
X-54683700Y-48970127D01*
X-54748487Y-48943965D01*
X-54759225Y-48934405D01*
X-56361580Y-47332050D01*
X-56361588Y-47332044D01*
X-56435269Y-47282813D01*
X-56484496Y-47249921D01*
X-56484508Y-47249914D01*
X-56621086Y-47193342D01*
X-56621092Y-47193340D01*
X-56766080Y-47164500D01*
X-56766082Y-47164500D01*
X-57859155Y-47164500D01*
X-57926194Y-47144815D01*
X-57946836Y-47128181D01*
X-58620694Y-46454322D01*
X-58654179Y-46392999D01*
X-58649195Y-46323307D01*
X-58607323Y-46267374D01*
X-58569010Y-46247981D01*
X-58555273Y-46243814D01*
X-58555270Y-46243812D01*
X-58555268Y-46243812D01*
X-58381467Y-46150913D01*
X-58381460Y-46150909D01*
X-58281225Y-46068647D01*
X-58216916Y-46041334D01*
X-58202560Y-46040500D01*
X-54891079Y-46040500D01*
X-54746092Y-46011659D01*
X-54746091Y-46011658D01*
X-54746087Y-46011658D01*
X-54667243Y-45979000D01*
X-54609511Y-45955087D01*
X-54609507Y-45955085D01*
X-54609505Y-45955084D01*
X-54546932Y-45913274D01*
X-54510723Y-45889080D01*
X-54486586Y-45872954D01*
X-54486584Y-45872952D01*
X-53668655Y-45055022D01*
X-53668649Y-45055017D01*
X-53357052Y-44743421D01*
X-53357046Y-44743414D01*
X-53289391Y-44642160D01*
X-53289357Y-44642108D01*
X-53274921Y-44620504D01*
X-53274914Y-44620491D01*
X-53223325Y-44495944D01*
X-53218341Y-44483914D01*
X-53218338Y-44483904D01*
X-53189500Y-44338921D01*
X-53189500Y-42982144D01*
X-53169815Y-42915105D01*
X-53117011Y-42869350D01*
X-53047853Y-42859406D01*
X-52986835Y-42886290D01*
X-52854788Y-42994660D01*
X-52680977Y-43087564D01*
X-52492382Y-43144774D01*
X-52296250Y-43164091D01*
X-52100118Y-43144774D01*
X-51911523Y-43087564D01*
X-51911519Y-43087561D01*
X-51911516Y-43087561D01*
X-51737717Y-42994663D01*
X-51737710Y-42994659D01*
X-51585366Y-42869633D01*
X-51460340Y-42717289D01*
X-51460336Y-42717282D01*
X-51367438Y-42543483D01*
X-51354984Y-42502430D01*
X-51313408Y-42365372D01*
X-51310225Y-42354879D01*
X-51290909Y-42158750D01*
X-51310225Y-41962620D01*
X-51367438Y-41774016D01*
X-51460336Y-41600217D01*
X-51460341Y-41600210D01*
X-51517603Y-41530436D01*
X-51544916Y-41466126D01*
X-51545750Y-41451771D01*
X-51545750Y-34783479D01*
X-51526065Y-34716440D01*
X-51509431Y-34695798D01*
X-49190452Y-32376819D01*
X-49129129Y-32343334D01*
X-49102771Y-32340500D01*
X-44323944Y-32340500D01*
X-44256905Y-32360185D01*
X-44211150Y-32412989D01*
X-44201206Y-32482147D01*
X-44205282Y-32500493D01*
X-44226024Y-32568868D01*
X-44245341Y-32765000D01*
X-44226024Y-32961132D01*
X-44168814Y-33149727D01*
X-44075910Y-33323538D01*
X-43950883Y-33475883D01*
X-43798538Y-33600910D01*
X-43624727Y-33693814D01*
X-43436132Y-33751024D01*
X-43240000Y-33770341D01*
X-43043868Y-33751024D01*
X-42855273Y-33693814D01*
X-42855269Y-33693811D01*
X-42855266Y-33693811D01*
X-42681467Y-33600913D01*
X-42681465Y-33600912D01*
X-42681463Y-33600910D01*
X-42681462Y-33600910D01*
X-42649697Y-33574841D01*
X-42585391Y-33547529D01*
X-42516523Y-33559319D01*
X-42483356Y-33583011D01*
X-41578897Y-34487470D01*
X-41545414Y-34548791D01*
X-41550398Y-34618483D01*
X-41592270Y-34674416D01*
X-41657734Y-34698833D01*
X-41725033Y-34684508D01*
X-41890271Y-34596187D01*
X-41890271Y-34596186D01*
X-41890273Y-34596186D01*
X-42046512Y-34548791D01*
X-42078870Y-34538975D01*
X-42275000Y-34519659D01*
X-42471129Y-34538975D01*
X-42471132Y-34538976D01*
X-42659727Y-34596186D01*
X-42659733Y-34596188D01*
X-42833532Y-34689086D01*
X-42833539Y-34689090D01*
X-42985883Y-34814116D01*
X-43110909Y-34966460D01*
X-43110913Y-34966467D01*
X-43203811Y-35140266D01*
X-43203811Y-35140269D01*
X-43203814Y-35140273D01*
X-43261024Y-35328868D01*
X-43280341Y-35525000D01*
X-43261024Y-35721132D01*
X-43203814Y-35909727D01*
X-43203811Y-35909732D01*
X-43203811Y-35909733D01*
X-43142345Y-36024727D01*
X-43110910Y-36083538D01*
X-43053645Y-36153314D01*
X-43026334Y-36217620D01*
X-43025500Y-36231976D01*
X-43025500Y-36673918D01*
X-42996658Y-36818913D01*
X-42940084Y-36955495D01*
X-42907187Y-37004726D01*
X-42907187Y-37004729D01*
X-42879426Y-37046276D01*
X-42857952Y-37078416D01*
X-38930591Y-41005774D01*
X-38897108Y-41067095D01*
X-38894871Y-41081293D01*
X-38886024Y-41171132D01*
X-38828814Y-41359727D01*
X-38735910Y-41533538D01*
X-38610883Y-41685883D01*
X-38458538Y-41810910D01*
X-38458532Y-41810913D01*
X-38291863Y-41900000D01*
X-38284727Y-41903814D01*
X-38096132Y-41961024D01*
X-37900000Y-41980341D01*
X-37703868Y-41961024D01*
X-37515273Y-41903814D01*
X-37515269Y-41903811D01*
X-37515266Y-41903811D01*
X-37341467Y-41810913D01*
X-37341460Y-41810909D01*
X-37189116Y-41685883D01*
X-37064090Y-41533539D01*
X-37064086Y-41533532D01*
X-36971188Y-41359733D01*
X-36913975Y-41171129D01*
X-36894659Y-40975000D01*
X-36913975Y-40778870D01*
X-36971188Y-40590266D01*
X-37064086Y-40416467D01*
X-37064090Y-40416460D01*
X-37189116Y-40264116D01*
X-37341460Y-40139090D01*
X-37341467Y-40139086D01*
X-37515266Y-40046188D01*
X-37703870Y-39988975D01*
X-37793701Y-39980127D01*
X-37858488Y-39953965D01*
X-37869226Y-39944405D01*
X-41488181Y-36325451D01*
X-41521666Y-36264128D01*
X-41524500Y-36237770D01*
X-41524500Y-36231976D01*
X-41504815Y-36164937D01*
X-41496367Y-36153329D01*
X-41439090Y-36083538D01*
X-41439087Y-36083533D01*
X-41439084Y-36083529D01*
X-41346188Y-35909733D01*
X-41288975Y-35721129D01*
X-41269659Y-35525000D01*
X-41288975Y-35328870D01*
X-41317581Y-35234570D01*
X-41346186Y-35140273D01*
X-41380587Y-35075913D01*
X-41434508Y-34975033D01*
X-41448749Y-34906630D01*
X-41423749Y-34841386D01*
X-41367443Y-34800016D01*
X-41297710Y-34795654D01*
X-41237470Y-34828897D01*
X-38207875Y-37858493D01*
X-35388477Y-40677891D01*
X-35354992Y-40739214D01*
X-35352158Y-40765572D01*
X-35352158Y-46411332D01*
X-35353846Y-46431724D01*
X-35355481Y-46441522D01*
X-35356140Y-46445129D01*
X-35362991Y-46479572D01*
X-35367938Y-46504440D01*
X-35367938Y-46505891D01*
X-35369630Y-46526303D01*
X-35369868Y-46527731D01*
X-35369869Y-46527740D01*
X-35367998Y-46588051D01*
X-35367938Y-46591896D01*
X-35367938Y-48111482D01*
X-35361585Y-48143419D01*
X-35339096Y-48256475D01*
X-35282522Y-48393057D01*
X-35267527Y-48415497D01*
X-35267527Y-48415500D01*
X-35242987Y-48452226D01*
X-35200390Y-48515978D01*
X-34908546Y-48807821D01*
X-34875063Y-48869141D01*
X-34880047Y-48938833D01*
X-34921918Y-48994767D01*
X-34987383Y-49019184D01*
X-34996229Y-49019500D01*
X-35925370Y-49019500D01*
X-35925376Y-49019501D01*
X-35984983Y-49025908D01*
X-36119828Y-49076202D01*
X-36119835Y-49076206D01*
X-36235044Y-49162452D01*
X-36235047Y-49162455D01*
X-36321293Y-49277664D01*
X-36321296Y-49277669D01*
X-36331690Y-49305538D01*
X-36373561Y-49361473D01*
X-36439024Y-49385891D01*
X-36507298Y-49371040D01*
X-36520759Y-49362525D01*
X-36703461Y-49229783D01*
X-36907244Y-49125950D01*
X-37124751Y-49055278D01*
X-37314658Y-49025200D01*
X-37350646Y-49019500D01*
X-37579354Y-49019500D01*
X-37619818Y-49025909D01*
X-37805246Y-49055278D01*
X-37805249Y-49055278D01*
X-38022755Y-49125950D01*
X-38212566Y-49222664D01*
X-38226538Y-49229783D01*
X-38411566Y-49364214D01*
X-38573286Y-49525934D01*
X-38634991Y-49610864D01*
X-38690321Y-49653529D01*
X-38759935Y-49659508D01*
X-38821730Y-49626902D01*
X-38835627Y-49610864D01*
X-38897097Y-49526257D01*
X-39058757Y-49364597D01*
X-39243723Y-49230211D01*
X-39447431Y-49126417D01*
X-39664875Y-49055765D01*
X-39754999Y-49041490D01*
X-39755000Y-49041490D01*
X-39755000Y-50029252D01*
X-39792708Y-50007482D01*
X-39932591Y-49970000D01*
X-40077409Y-49970000D01*
X-40217292Y-50007482D01*
X-40255000Y-50029252D01*
X-40255000Y-49041490D01*
X-40345124Y-49055765D01*
X-40562568Y-49126417D01*
X-40766276Y-49230211D01*
X-40951242Y-49364597D01*
X-41112902Y-49526257D01*
X-41247288Y-49711223D01*
X-41351082Y-49914929D01*
X-41421734Y-50132371D01*
X-41443532Y-50270000D01*
X-40495748Y-50270000D01*
X-40517518Y-50307708D01*
X-40555000Y-50447591D01*
X-40555000Y-50592409D01*
X-40517518Y-50732292D01*
X-40495748Y-50770000D01*
X-41443532Y-50770000D01*
X-41421734Y-50907628D01*
X-41351082Y-51125070D01*
X-41247288Y-51328776D01*
X-41117099Y-51507965D01*
X-41093619Y-51573771D01*
X-41109444Y-51641825D01*
X-41159550Y-51690520D01*
X-41228028Y-51704396D01*
X-41293137Y-51679047D01*
X-41305098Y-51668532D01*
X-43553181Y-49420450D01*
X-43586666Y-49359127D01*
X-43589500Y-49332769D01*
X-43589500Y-35791079D01*
X-43589499Y-35791079D01*
X-43618340Y-35646092D01*
X-43618343Y-35646082D01*
X-43674912Y-35509511D01*
X-43674916Y-35509504D01*
X-43704557Y-35465145D01*
X-43711980Y-35454035D01*
X-43756451Y-35387477D01*
X-43757048Y-35386583D01*
X-45036578Y-34107052D01*
X-45036579Y-34107051D01*
X-45130058Y-34044592D01*
X-45159509Y-34024913D01*
X-45296082Y-33968343D01*
X-45296092Y-33968340D01*
X-45441077Y-33939500D01*
X-45444909Y-33939123D01*
X-45446786Y-33938364D01*
X-45447057Y-33938311D01*
X-45447046Y-33938259D01*
X-45509695Y-33912961D01*
X-45511418Y-33911573D01*
X-45581460Y-33854091D01*
X-45581467Y-33854086D01*
X-45755266Y-33761188D01*
X-45943870Y-33703975D01*
X-46140000Y-33684659D01*
X-46336129Y-33703975D01*
X-46336132Y-33703976D01*
X-46524727Y-33761186D01*
X-46524733Y-33761188D01*
X-46698532Y-33854086D01*
X-46698539Y-33854090D01*
X-46850883Y-33979116D01*
X-46975909Y-34131460D01*
X-46975913Y-34131467D01*
X-47068811Y-34305266D01*
X-47068811Y-34305269D01*
X-47068814Y-34305273D01*
X-47126024Y-34493868D01*
X-47145341Y-34690000D01*
X-47126024Y-34886132D01*
X-47068814Y-35074727D01*
X-47068811Y-35074732D01*
X-47068811Y-35074733D01*
X-47047089Y-35115371D01*
X-46975910Y-35248538D01*
X-46850883Y-35400883D01*
X-46698538Y-35525910D01*
X-46524727Y-35618814D01*
X-46336132Y-35676024D01*
X-46140000Y-35695341D01*
X-45943868Y-35676024D01*
X-45755273Y-35618814D01*
X-45755269Y-35618812D01*
X-45749444Y-35617045D01*
X-45749074Y-35618263D01*
X-45686180Y-35611501D01*
X-45623701Y-35642777D01*
X-45620547Y-35645819D01*
X-45126817Y-36139550D01*
X-45093334Y-36200871D01*
X-45090500Y-36227229D01*
X-45090500Y-48912406D01*
X-45110185Y-48979445D01*
X-45162989Y-49025200D01*
X-45232147Y-49035144D01*
X-45257831Y-49028589D01*
X-45265018Y-49025908D01*
X-45265016Y-49025908D01*
X-45324616Y-49019501D01*
X-45324619Y-49019500D01*
X-45324627Y-49019500D01*
X-45324634Y-49019500D01*
X-45324635Y-49019500D01*
X-47325370Y-49019500D01*
X-47325376Y-49019501D01*
X-47384983Y-49025908D01*
X-47519828Y-49076202D01*
X-47519835Y-49076206D01*
X-47635044Y-49162452D01*
X-47635047Y-49162455D01*
X-47721293Y-49277664D01*
X-47721296Y-49277669D01*
X-47731690Y-49305538D01*
X-47773561Y-49361473D01*
X-47839024Y-49385891D01*
X-47907298Y-49371040D01*
X-47920759Y-49362525D01*
X-48103461Y-49229783D01*
X-48307244Y-49125950D01*
X-48524751Y-49055278D01*
X-48714658Y-49025200D01*
X-48750646Y-49019500D01*
X-48979354Y-49019500D01*
X-49019818Y-49025909D01*
X-49205246Y-49055278D01*
X-49205249Y-49055278D01*
X-49422755Y-49125950D01*
X-49612566Y-49222664D01*
X-49626538Y-49229783D01*
X-49811566Y-49364214D01*
X-49973286Y-49525934D01*
X-50034991Y-49610864D01*
X-50090321Y-49653529D01*
X-50159935Y-49659508D01*
X-50221730Y-49626902D01*
X-50235627Y-49610864D01*
X-50297097Y-49526257D01*
X-50458757Y-49364597D01*
X-50643723Y-49230211D01*
X-50847431Y-49126417D01*
X-51064875Y-49055765D01*
X-51154999Y-49041490D01*
X-51155000Y-49041490D01*
X-51155000Y-50029252D01*
X-51192708Y-50007482D01*
X-51332591Y-49970000D01*
X-51477409Y-49970000D01*
X-51617292Y-50007482D01*
X-51655000Y-50029252D01*
X-51655000Y-49041490D01*
X-51745124Y-49055765D01*
X-51962568Y-49126417D01*
X-52166276Y-49230211D01*
X-52351242Y-49364597D01*
X-52512902Y-49526257D01*
X-52647288Y-49711223D01*
X-52751082Y-49914929D01*
X-52821734Y-50132371D01*
X-52843532Y-50270000D01*
X-51895748Y-50270000D01*
X-51917518Y-50307708D01*
X-51955000Y-50447591D01*
X-51955000Y-50592409D01*
X-51917518Y-50732292D01*
X-51895748Y-50770000D01*
X-52843532Y-50770000D01*
X-52821734Y-50907628D01*
X-52751082Y-51125070D01*
X-52647288Y-51328776D01*
X-52512902Y-51513742D01*
X-52351242Y-51675402D01*
X-52166276Y-51809788D01*
X-51962570Y-51913582D01*
X-51745128Y-51984234D01*
X-51655000Y-51998508D01*
X-51655000Y-51010747D01*
X-51617292Y-51032518D01*
X-51477409Y-51070000D01*
X-51332591Y-51070000D01*
X-51192708Y-51032518D01*
X-51155000Y-51010747D01*
X-51155000Y-51998509D01*
X-51064871Y-51984234D01*
X-50847429Y-51913582D01*
X-50643723Y-51809788D01*
X-50458757Y-51675402D01*
X-50297097Y-51513742D01*
X-50297097Y-51513741D01*
X-50235626Y-51429135D01*
X-50180296Y-51386470D01*
X-50110682Y-51380491D01*
X-50048887Y-51413097D01*
X-50034999Y-51429125D01*
X-49973286Y-51514066D01*
X-49811566Y-51675786D01*
X-49626538Y-51810217D01*
X-49422758Y-51914048D01*
X-49205245Y-51984722D01*
X-48979354Y-52020500D01*
X-48979353Y-52020500D01*
X-48750647Y-52020500D01*
X-48750646Y-52020500D01*
X-48524755Y-51984722D01*
X-48524752Y-51984721D01*
X-48524750Y-51984721D01*
X-48307244Y-51914049D01*
X-48296934Y-51908796D01*
X-48103462Y-51810217D01*
X-47920755Y-51677472D01*
X-47854953Y-51653994D01*
X-47786899Y-51669819D01*
X-47738204Y-51719925D01*
X-47731692Y-51734455D01*
X-47721296Y-51762331D01*
X-47635046Y-51877546D01*
X-47519831Y-51963796D01*
X-47384983Y-52014091D01*
X-47325373Y-52020500D01*
X-45324628Y-52020499D01*
X-45276257Y-52015299D01*
X-45265016Y-52014091D01*
X-45130171Y-51963797D01*
X-45130164Y-51963793D01*
X-45014955Y-51877547D01*
X-45014952Y-51877544D01*
X-44928706Y-51762335D01*
X-44928702Y-51762328D01*
X-44878408Y-51627482D01*
X-44872001Y-51567883D01*
X-44872000Y-51567864D01*
X-44872000Y-50523729D01*
X-44852315Y-50456690D01*
X-44799511Y-50410935D01*
X-44730353Y-50400991D01*
X-44666797Y-50430016D01*
X-44660319Y-50436048D01*
X-41701819Y-53394548D01*
X-41668334Y-53455871D01*
X-41665500Y-53482229D01*
X-41665500Y-54488918D01*
X-41636658Y-54633913D01*
X-41580084Y-54770495D01*
X-41550347Y-54815000D01*
X-41497952Y-54893416D01*
X-40993416Y-55397951D01*
X-40870495Y-55480084D01*
X-40733913Y-55536658D01*
X-40686462Y-55546096D01*
X-40588920Y-55565500D01*
X-40588918Y-55565500D01*
X-40441083Y-55565500D01*
X-33521978Y-55565500D01*
X-33454939Y-55585185D01*
X-33443312Y-55593647D01*
X-33373538Y-55650910D01*
X-33199727Y-55743814D01*
X-33011132Y-55801024D01*
X-32815000Y-55820341D01*
X-32618868Y-55801024D01*
X-32430273Y-55743814D01*
X-32430269Y-55743811D01*
X-32430266Y-55743811D01*
X-32256467Y-55650913D01*
X-32256460Y-55650909D01*
X-32104116Y-55525883D01*
X-31979090Y-55373539D01*
X-31979086Y-55373532D01*
X-31886188Y-55199733D01*
X-31884344Y-55193656D01*
X-31828976Y-55011132D01*
X-31828975Y-55011129D01*
X-31809659Y-54814999D01*
X-31828975Y-54618870D01*
X-31886188Y-54430266D01*
X-31979086Y-54256467D01*
X-31979090Y-54256460D01*
X-32104116Y-54104116D01*
X-32256460Y-53979090D01*
X-32256467Y-53979086D01*
X-32430266Y-53886188D01*
X-32618870Y-53828975D01*
X-32815000Y-53809659D01*
X-33011129Y-53828975D01*
X-33011132Y-53828976D01*
X-33199727Y-53886186D01*
X-33199733Y-53886188D01*
X-33373532Y-53979086D01*
X-33373539Y-53979090D01*
X-33443313Y-54036353D01*
X-33507623Y-54063666D01*
X-33521978Y-54064500D01*
X-40040500Y-54064500D01*
X-40107539Y-54044815D01*
X-40153294Y-53992011D01*
X-40164500Y-53940500D01*
X-40164500Y-53046079D01*
X-40164499Y-53046079D01*
X-40193340Y-52901092D01*
X-40193343Y-52901082D01*
X-40249912Y-52764511D01*
X-40249919Y-52764498D01*
X-40332048Y-52641584D01*
X-40332051Y-52641580D01*
X-40377996Y-52595636D01*
X-40377997Y-52595633D01*
X-41106032Y-51867598D01*
X-41139517Y-51806275D01*
X-41134533Y-51736583D01*
X-41092661Y-51680650D01*
X-41027197Y-51656233D01*
X-40958924Y-51671085D01*
X-40945465Y-51679599D01*
X-40766276Y-51809788D01*
X-40562570Y-51913582D01*
X-40345128Y-51984234D01*
X-40255000Y-51998508D01*
X-40255000Y-51010747D01*
X-40217292Y-51032518D01*
X-40077409Y-51070000D01*
X-39932591Y-51070000D01*
X-39792708Y-51032518D01*
X-39755000Y-51010747D01*
X-39755000Y-51998509D01*
X-39664871Y-51984234D01*
X-39447429Y-51913582D01*
X-39243723Y-51809788D01*
X-39058757Y-51675402D01*
X-38897097Y-51513742D01*
X-38897097Y-51513741D01*
X-38835626Y-51429135D01*
X-38780296Y-51386470D01*
X-38710682Y-51380491D01*
X-38648887Y-51413097D01*
X-38634999Y-51429125D01*
X-38573286Y-51514066D01*
X-38411566Y-51675786D01*
X-38226538Y-51810217D01*
X-38022758Y-51914048D01*
X-37805245Y-51984722D01*
X-37579354Y-52020500D01*
X-37579353Y-52020500D01*
X-37350647Y-52020500D01*
X-37350646Y-52020500D01*
X-37124755Y-51984722D01*
X-37124752Y-51984721D01*
X-37124750Y-51984721D01*
X-36907244Y-51914049D01*
X-36896934Y-51908796D01*
X-36703462Y-51810217D01*
X-36520755Y-51677472D01*
X-36454953Y-51653994D01*
X-36386899Y-51669819D01*
X-36338204Y-51719925D01*
X-36331692Y-51734455D01*
X-36321296Y-51762331D01*
X-36235046Y-51877546D01*
X-36119831Y-51963796D01*
X-35984983Y-52014091D01*
X-35925373Y-52020500D01*
X-33924628Y-52020499D01*
X-33876257Y-52015299D01*
X-33865016Y-52014091D01*
X-33730171Y-51963797D01*
X-33730164Y-51963793D01*
X-33614955Y-51877547D01*
X-33614952Y-51877544D01*
X-33528706Y-51762335D01*
X-33528702Y-51762328D01*
X-33478408Y-51627482D01*
X-33472001Y-51567883D01*
X-33472000Y-51567864D01*
X-33472000Y-50737855D01*
X-33472000Y-49899658D01*
X-33452316Y-49832620D01*
X-33399513Y-49786865D01*
X-33348001Y-49775659D01*
X-30901238Y-49775659D01*
X-30756251Y-49746818D01*
X-30756250Y-49746817D01*
X-30756246Y-49746817D01*
X-30756241Y-49746815D01*
X-30619670Y-49690246D01*
X-30619666Y-49690244D01*
X-30619664Y-49690243D01*
X-30557974Y-49649023D01*
X-30521235Y-49624475D01*
X-30496745Y-49608113D01*
X-29032051Y-48143419D01*
X-29032048Y-48143415D01*
X-28949919Y-48020501D01*
X-28949912Y-48020488D01*
X-28893343Y-47883917D01*
X-28893340Y-47883907D01*
X-28864500Y-47738920D01*
X-28864500Y-46615364D01*
X-28849858Y-46556913D01*
X-28799033Y-46461825D01*
X-28771186Y-46409728D01*
X-28759464Y-46371087D01*
X-28721165Y-46312649D01*
X-28657352Y-46284194D01*
X-28588285Y-46294756D01*
X-28535893Y-46340982D01*
X-28518330Y-46387689D01*
X-28509233Y-46445129D01*
X-28438582Y-46662568D01*
X-28334788Y-46866276D01*
X-28200402Y-47051242D01*
X-28038742Y-47212902D01*
X-27853776Y-47347288D01*
X-27650070Y-47451082D01*
X-27432628Y-47521734D01*
X-27295000Y-47543531D01*
X-27295000Y-46595747D01*
X-27257292Y-46617518D01*
X-27117409Y-46655000D01*
X-26972591Y-46655000D01*
X-26832708Y-46617518D01*
X-26795000Y-46595747D01*
X-26795000Y-47543532D01*
X-26657371Y-47521734D01*
X-26439929Y-47451082D01*
X-26236223Y-47347288D01*
X-26051257Y-47212902D01*
X-26002181Y-47163826D01*
X-25940858Y-47130341D01*
X-25871166Y-47135325D01*
X-25815233Y-47177197D01*
X-25790816Y-47242661D01*
X-25790500Y-47251507D01*
X-25790500Y-50456958D01*
X-25810185Y-50523997D01*
X-25862989Y-50569752D01*
X-25932147Y-50579696D01*
X-25995703Y-50550671D01*
X-26002181Y-50544639D01*
X-26027176Y-50519643D01*
X-26201700Y-50392843D01*
X-26393908Y-50294909D01*
X-26599077Y-50228245D01*
X-26812134Y-50194500D01*
X-26812139Y-50194500D01*
X-27477861Y-50194500D01*
X-27477866Y-50194500D01*
X-27690922Y-50228245D01*
X-27690924Y-50228245D01*
X-27690926Y-50228246D01*
X-27896089Y-50294908D01*
X-28088299Y-50392843D01*
X-28262821Y-50519641D01*
X-28415359Y-50672179D01*
X-28542157Y-50846701D01*
X-28640092Y-51038911D01*
X-28706754Y-51244074D01*
X-28712038Y-51277439D01*
X-28740500Y-51457133D01*
X-28740500Y-51672866D01*
X-28726329Y-51762335D01*
X-28706754Y-51885926D01*
X-28640092Y-52091089D01*
X-28542157Y-52283299D01*
X-28415359Y-52457821D01*
X-28273372Y-52599807D01*
X-28239890Y-52661126D01*
X-28244874Y-52730818D01*
X-28286745Y-52786752D01*
X-28308645Y-52799864D01*
X-28309326Y-52800181D01*
X-28309334Y-52800186D01*
X-28458656Y-52892288D01*
X-28582712Y-53016344D01*
X-28674814Y-53165666D01*
X-28729999Y-53332203D01*
X-28740500Y-53434991D01*
X-28740499Y-53809659D01*
X-28740499Y-53924217D01*
X-28760183Y-53991256D01*
X-28776818Y-54011898D01*
X-31202781Y-56437861D01*
X-31308021Y-56543101D01*
X-31342140Y-56577220D01*
X-31451627Y-56741079D01*
X-31451629Y-56741083D01*
X-31451631Y-56741086D01*
X-31527051Y-56923164D01*
X-31553257Y-57054909D01*
X-31565499Y-57116455D01*
X-31565500Y-57116457D01*
X-31565500Y-57116460D01*
X-31565500Y-57313540D01*
X-31527051Y-57506836D01*
X-31524938Y-57511936D01*
X-31515500Y-57559387D01*
X-31515500Y-60524217D01*
X-31535185Y-60591256D01*
X-31551819Y-60611898D01*
X-31893101Y-60953181D01*
X-31954424Y-60986666D01*
X-31980782Y-60989500D01*
X-34840341Y-60989500D01*
X-34907380Y-60969815D01*
X-34953135Y-60917011D01*
X-34963079Y-60847853D01*
X-34934054Y-60784297D01*
X-34913227Y-60765183D01*
X-34872185Y-60735363D01*
X-34872179Y-60735359D01*
X-34719641Y-60582821D01*
X-34592843Y-60408299D01*
X-34494908Y-60216089D01*
X-34428246Y-60010926D01*
X-34422187Y-59972671D01*
X-34394500Y-59797866D01*
X-34394500Y-59132133D01*
X-34428245Y-58919077D01*
X-34494909Y-58713908D01*
X-34592843Y-58521700D01*
X-34665498Y-58421700D01*
X-34719641Y-58347179D01*
X-34719643Y-58347177D01*
X-34719643Y-58347176D01*
X-34872176Y-58194643D01*
X-35046700Y-58067843D01*
X-35238908Y-57969909D01*
X-35444077Y-57903245D01*
X-35657134Y-57869500D01*
X-35657139Y-57869500D01*
X-35872861Y-57869500D01*
X-35872866Y-57869500D01*
X-36085922Y-57903245D01*
X-36085924Y-57903245D01*
X-36085926Y-57903246D01*
X-36291089Y-57969908D01*
X-36483299Y-58067843D01*
X-36657821Y-58194641D01*
X-36657823Y-58194643D01*
X-36799804Y-58336624D01*
X-36861127Y-58370109D01*
X-36930819Y-58365125D01*
X-36986752Y-58323253D01*
X-36999861Y-58301360D01*
X-37000179Y-58300677D01*
X-37092289Y-58151342D01*
X-37216342Y-58027289D01*
X-37365663Y-57935187D01*
X-37365668Y-57935185D01*
X-37449670Y-57907349D01*
X-37532203Y-57880001D01*
X-37532204Y-57880000D01*
X-37634989Y-57869500D01*
X-38975001Y-57869500D01*
X-38975018Y-57869501D01*
X-39077796Y-57880000D01*
X-39077799Y-57880001D01*
X-39244331Y-57935185D01*
X-39244336Y-57935187D01*
X-39271033Y-57951654D01*
X-39393656Y-58027288D01*
X-39517712Y-58151344D01*
X-39609814Y-58300666D01*
X-39664999Y-58467203D01*
X-39675500Y-58569991D01*
X-39675499Y-60360008D01*
X-39664999Y-60462797D01*
X-39609814Y-60629334D01*
X-39531361Y-60756525D01*
X-39512923Y-60823914D01*
X-39533845Y-60890578D01*
X-39549221Y-60909300D01*
X-39593102Y-60953181D01*
X-39654425Y-60986666D01*
X-39680783Y-60989500D01*
X-42672651Y-60989500D01*
X-42739690Y-60969815D01*
X-42785445Y-60917011D01*
X-42795389Y-60847853D01*
X-42766364Y-60784297D01*
X-42728946Y-60755015D01*
X-42626570Y-60702852D01*
X-42546701Y-60662157D01*
X-42372179Y-60535359D01*
X-42219641Y-60382821D01*
X-42092843Y-60208299D01*
X-41994908Y-60016089D01*
X-41928246Y-59810926D01*
X-41928245Y-59810922D01*
X-41894500Y-59597866D01*
X-41894500Y-58932133D01*
X-41928245Y-58719077D01*
X-41976689Y-58569983D01*
X-41994908Y-58513911D01*
X-41994908Y-58513910D01*
X-41994909Y-58513908D01*
X-42092843Y-58321700D01*
X-42180780Y-58200666D01*
X-42219641Y-58147179D01*
X-42219643Y-58147177D01*
X-42219643Y-58147176D01*
X-42372176Y-57994643D01*
X-42546700Y-57867843D01*
X-42738908Y-57769909D01*
X-42944077Y-57703245D01*
X-43157134Y-57669500D01*
X-43157139Y-57669500D01*
X-43372861Y-57669500D01*
X-43372866Y-57669500D01*
X-43585922Y-57703245D01*
X-43585924Y-57703245D01*
X-43585926Y-57703246D01*
X-43791089Y-57769908D01*
X-43983299Y-57867843D01*
X-44157821Y-57994641D01*
X-44157823Y-57994643D01*
X-44299804Y-58136624D01*
X-44361127Y-58170109D01*
X-44430819Y-58165125D01*
X-44486752Y-58123253D01*
X-44499861Y-58101360D01*
X-44500179Y-58100677D01*
X-44592289Y-57951342D01*
X-44716342Y-57827289D01*
X-44865663Y-57735187D01*
X-44865668Y-57735185D01*
X-44949670Y-57707349D01*
X-45032203Y-57680001D01*
X-45032204Y-57680000D01*
X-45134989Y-57669500D01*
X-46475001Y-57669500D01*
X-46475018Y-57669501D01*
X-46577796Y-57680000D01*
X-46577799Y-57680001D01*
X-46744331Y-57735185D01*
X-46744334Y-57735186D01*
X-46893656Y-57827288D01*
X-47017712Y-57951344D01*
X-47109814Y-58100666D01*
X-47164999Y-58267203D01*
X-47175500Y-58369991D01*
X-47175499Y-60160008D01*
X-47164999Y-60262797D01*
X-47109814Y-60429334D01*
X-47017712Y-60578656D01*
X-46984470Y-60611898D01*
X-46955825Y-60640543D01*
X-46922340Y-60701866D01*
X-46927324Y-60771558D01*
X-46955825Y-60815905D01*
X-47093101Y-60953181D01*
X-47154424Y-60986666D01*
X-47180782Y-60989500D01*
X-50672651Y-60989500D01*
X-50739690Y-60969815D01*
X-50785445Y-60917011D01*
X-50795389Y-60847853D01*
X-50766364Y-60784297D01*
X-50728946Y-60755015D01*
X-50626570Y-60702852D01*
X-50546701Y-60662157D01*
X-50372179Y-60535359D01*
X-50219641Y-60382821D01*
X-50092843Y-60208299D01*
X-49994908Y-60016089D01*
X-49928246Y-59810926D01*
X-49928245Y-59810922D01*
X-49894500Y-59597866D01*
X-49894500Y-58932133D01*
X-49928245Y-58719077D01*
X-49976689Y-58569983D01*
X-49994908Y-58513911D01*
X-49994908Y-58513910D01*
X-49994909Y-58513908D01*
X-50092843Y-58321700D01*
X-50180780Y-58200666D01*
X-50219641Y-58147179D01*
X-50219643Y-58147177D01*
X-50219643Y-58147176D01*
X-50228181Y-58138639D01*
X-50261666Y-58077316D01*
X-50264500Y-58050958D01*
X-50264500Y-56269675D01*
X-50264499Y-56269654D01*
X-50264499Y-56066455D01*
X-50302946Y-55873172D01*
X-50302948Y-55873164D01*
X-50378366Y-55691088D01*
X-50378371Y-55691079D01*
X-50487859Y-55527219D01*
X-50487862Y-55527215D01*
X-51562859Y-54452220D01*
X-51562861Y-54452218D01*
X-51648619Y-54366460D01*
X-51702219Y-54312859D01*
X-51866079Y-54203371D01*
X-51866092Y-54203364D01*
X-52013971Y-54142112D01*
X-52013972Y-54142112D01*
X-52048163Y-54127949D01*
X-52048171Y-54127947D01*
X-52167975Y-54104117D01*
X-52192469Y-54099244D01*
X-52241457Y-54089500D01*
X-52241459Y-54089500D01*
X-66965500Y-54089500D01*
X-67032539Y-54069815D01*
X-67078294Y-54017011D01*
X-67089500Y-53965500D01*
X-67089500Y-51570244D01*
X-67088903Y-51558090D01*
X-67084659Y-51514999D01*
X-67088903Y-51471907D01*
X-67089500Y-51459754D01*
X-67089500Y-51416453D01*
X-67097945Y-51373991D01*
X-67099730Y-51361963D01*
X-67103976Y-51318867D01*
X-67116546Y-51277427D01*
X-67119502Y-51265626D01*
X-67127948Y-51223166D01*
X-67127949Y-51223161D01*
X-67144518Y-51183159D01*
X-67148616Y-51171707D01*
X-67161186Y-51130272D01*
X-67181594Y-51092091D01*
X-67186795Y-51081093D01*
X-67203364Y-51041091D01*
X-67227426Y-51005080D01*
X-67233680Y-50994645D01*
X-67254087Y-50956465D01*
X-67254091Y-50956460D01*
X-67281557Y-50922990D01*
X-67288799Y-50913225D01*
X-67312855Y-50877225D01*
X-67312860Y-50877219D01*
X-67343483Y-50846595D01*
X-67351650Y-50837584D01*
X-67379117Y-50804117D01*
X-67412584Y-50776650D01*
X-67421595Y-50768483D01*
X-67452219Y-50737860D01*
X-67452225Y-50737855D01*
X-67488225Y-50713799D01*
X-67497990Y-50706557D01*
X-67531460Y-50679091D01*
X-67531465Y-50679087D01*
X-67569645Y-50658680D01*
X-67580080Y-50652426D01*
X-67616091Y-50628364D01*
X-67656093Y-50611795D01*
X-67667091Y-50606594D01*
X-67705272Y-50586186D01*
X-67746707Y-50573616D01*
X-67758159Y-50569518D01*
X-67798161Y-50552949D01*
X-67798166Y-50552948D01*
X-67840626Y-50544502D01*
X-67852427Y-50541546D01*
X-67893867Y-50528976D01*
X-67936963Y-50524730D01*
X-67948991Y-50522945D01*
X-67991453Y-50514500D01*
X-67991459Y-50514500D01*
X-68034756Y-50514500D01*
X-68046910Y-50513903D01*
X-68090000Y-50509659D01*
X-68133090Y-50513903D01*
X-68145244Y-50514500D01*
X-68188544Y-50514500D01*
X-68231006Y-50522945D01*
X-68243035Y-50524730D01*
X-68286130Y-50528975D01*
X-68286134Y-50528976D01*
X-68327575Y-50541547D01*
X-68339378Y-50544503D01*
X-68381827Y-50552946D01*
X-68381834Y-50552948D01*
X-68421834Y-50569517D01*
X-68433277Y-50573612D01*
X-68474727Y-50586186D01*
X-68474728Y-50586186D01*
X-68474729Y-50586187D01*
X-68512913Y-50606597D01*
X-68523915Y-50611800D01*
X-68563914Y-50628368D01*
X-68563918Y-50628370D01*
X-68599918Y-50652425D01*
X-68610350Y-50658678D01*
X-68631436Y-50669948D01*
X-68648535Y-50679088D01*
X-68648543Y-50679094D01*
X-68682002Y-50706552D01*
X-68691772Y-50713799D01*
X-68693569Y-50715000D01*
X-68727780Y-50737860D01*
X-68727783Y-50737862D01*
X-68727787Y-50737865D01*
X-68758401Y-50768479D01*
X-68767416Y-50776651D01*
X-68800884Y-50804118D01*
X-68828346Y-50837581D01*
X-68836520Y-50846599D01*
X-68867136Y-50877214D01*
X-68867139Y-50877218D01*
X-68887536Y-50907745D01*
X-68891194Y-50913219D01*
X-68898438Y-50922988D01*
X-68925910Y-50956462D01*
X-68925911Y-50956464D01*
X-68946316Y-50994640D01*
X-68952572Y-51005078D01*
X-68976632Y-51041086D01*
X-68993203Y-51081095D01*
X-68998404Y-51092091D01*
X-69018814Y-51130273D01*
X-69031383Y-51171710D01*
X-69035480Y-51183159D01*
X-69052051Y-51223165D01*
X-69060499Y-51265640D01*
X-69063448Y-51277414D01*
X-69076024Y-51318868D01*
X-69079887Y-51358097D01*
X-69080268Y-51361961D01*
X-69082052Y-51373990D01*
X-69088117Y-51404480D01*
X-69090500Y-51416458D01*
X-69090500Y-51459754D01*
X-69091097Y-51471907D01*
X-69095341Y-51515000D01*
X-69091097Y-51558090D01*
X-69090500Y-51570244D01*
X-69090500Y-54366460D01*
X-69090500Y-54563540D01*
X-69052051Y-54756836D01*
X-69046393Y-54770495D01*
X-68976632Y-54938914D01*
X-68867139Y-55102782D01*
X-68727782Y-55242139D01*
X-68727779Y-55242140D01*
X-68242139Y-55727781D01*
X-68242139Y-55727782D01*
X-68102782Y-55867139D01*
X-67938914Y-55976632D01*
X-67832255Y-56020811D01*
X-67756836Y-56052051D01*
X-67563544Y-56090499D01*
X-67563543Y-56090500D01*
X-67563541Y-56090500D01*
X-67366460Y-56090500D01*
X-52805782Y-56090500D01*
X-52738743Y-56110185D01*
X-52718101Y-56126819D01*
X-52301819Y-56543101D01*
X-52268334Y-56604424D01*
X-52265500Y-56630782D01*
X-52265500Y-58044624D01*
X-52285185Y-58111663D01*
X-52337989Y-58157418D01*
X-52407147Y-58167362D01*
X-52470703Y-58138337D01*
X-52495100Y-58106014D01*
X-52496395Y-58106813D01*
X-52503903Y-58094641D01*
X-52592288Y-57951344D01*
X-52592287Y-57951344D01*
X-52592289Y-57951342D01*
X-52716342Y-57827289D01*
X-52865663Y-57735187D01*
X-52865668Y-57735185D01*
X-52949670Y-57707349D01*
X-53032203Y-57680001D01*
X-53032204Y-57680000D01*
X-53134989Y-57669500D01*
X-54475001Y-57669500D01*
X-54475018Y-57669501D01*
X-54577796Y-57680000D01*
X-54577799Y-57680001D01*
X-54744331Y-57735185D01*
X-54744334Y-57735186D01*
X-54893656Y-57827288D01*
X-55017712Y-57951344D01*
X-55109814Y-58100666D01*
X-55164999Y-58267203D01*
X-55175500Y-58369991D01*
X-55175499Y-60160008D01*
X-55164999Y-60262797D01*
X-55109814Y-60429334D01*
X-55017712Y-60578656D01*
X-54967037Y-60629331D01*
X-54943325Y-60653043D01*
X-54909840Y-60714366D01*
X-54914824Y-60784058D01*
X-54943325Y-60828405D01*
X-55068101Y-60953181D01*
X-55129424Y-60986666D01*
X-55155782Y-60989500D01*
X-58672651Y-60989500D01*
X-58739690Y-60969815D01*
X-58785445Y-60917011D01*
X-58795389Y-60847853D01*
X-58766364Y-60784297D01*
X-58728946Y-60755015D01*
X-58626570Y-60702852D01*
X-58546701Y-60662157D01*
X-58372179Y-60535359D01*
X-58219641Y-60382821D01*
X-58092843Y-60208299D01*
X-57994908Y-60016089D01*
X-57928246Y-59810926D01*
X-57928245Y-59810922D01*
X-57894500Y-59597866D01*
X-57894500Y-58932133D01*
X-57928245Y-58719077D01*
X-57976689Y-58569983D01*
X-57994908Y-58513911D01*
X-57994908Y-58513910D01*
X-57994909Y-58513908D01*
X-58092843Y-58321700D01*
X-58180780Y-58200666D01*
X-58219641Y-58147179D01*
X-58219643Y-58147177D01*
X-58219643Y-58147176D01*
X-58372176Y-57994643D01*
X-58546700Y-57867843D01*
X-58738908Y-57769909D01*
X-58944077Y-57703245D01*
X-59157134Y-57669500D01*
X-59157139Y-57669500D01*
X-59372861Y-57669500D01*
X-59372866Y-57669500D01*
X-59585922Y-57703245D01*
X-59585924Y-57703245D01*
X-59585926Y-57703246D01*
X-59791089Y-57769908D01*
X-59983299Y-57867843D01*
X-60157821Y-57994641D01*
X-60157823Y-57994643D01*
X-60300183Y-58137003D01*
X-60361506Y-58170488D01*
X-60431198Y-58165504D01*
X-60487131Y-58123632D01*
X-60500245Y-58101728D01*
X-60500637Y-58100885D01*
X-60592684Y-57951654D01*
X-60716654Y-57827684D01*
X-60865875Y-57735643D01*
X-60865880Y-57735641D01*
X-61032302Y-57680494D01*
X-61032309Y-57680493D01*
X-61135013Y-57670000D01*
X-61555000Y-57670000D01*
X-61555000Y-58722290D01*
X-61575339Y-58710548D01*
X-61726667Y-58670000D01*
X-61883333Y-58670000D01*
X-62034661Y-58710548D01*
X-62055000Y-58722290D01*
X-62055000Y-57670000D01*
X-62474971Y-57670000D01*
X-62474987Y-57670001D01*
X-62577697Y-57680494D01*
X-62744119Y-57735641D01*
X-62744124Y-57735643D01*
X-62893345Y-57827684D01*
X-63017315Y-57951654D01*
X-63109356Y-58100875D01*
X-63109358Y-58100880D01*
X-63164505Y-58267302D01*
X-63164506Y-58267309D01*
X-63174999Y-58370013D01*
X-63175000Y-58370026D01*
X-63175000Y-59015000D01*
X-62347709Y-59015000D01*
X-62359452Y-59035339D01*
X-62400000Y-59186667D01*
X-62400000Y-59343333D01*
X-62359452Y-59494661D01*
X-62347709Y-59515000D01*
X-63174999Y-59515000D01*
X-63174999Y-60159971D01*
X-63174998Y-60159986D01*
X-63164505Y-60262697D01*
X-63109358Y-60429119D01*
X-63109356Y-60429124D01*
X-63017315Y-60578345D01*
X-62893344Y-60702316D01*
X-62893340Y-60702319D01*
X-62799888Y-60759962D01*
X-62753163Y-60811910D01*
X-62741942Y-60880872D01*
X-62769785Y-60944954D01*
X-62827854Y-60983810D01*
X-62864985Y-60989500D01*
X-65978020Y-60989500D01*
X-66045059Y-60969815D01*
X-66090814Y-60917011D01*
X-66100758Y-60847853D01*
X-66071733Y-60784297D01*
X-66050012Y-60765888D01*
X-66050643Y-60765021D01*
X-66040970Y-60757993D01*
X-65872179Y-60635359D01*
X-65719641Y-60482821D01*
X-65592843Y-60308299D01*
X-65494908Y-60116089D01*
X-65428246Y-59910926D01*
X-65425153Y-59891399D01*
X-65394500Y-59697866D01*
X-65394500Y-59032133D01*
X-65428245Y-58819077D01*
X-65462417Y-58713908D01*
X-65494908Y-58613911D01*
X-65494908Y-58613910D01*
X-65494909Y-58613908D01*
X-65592843Y-58421700D01*
X-65680780Y-58300666D01*
X-65719641Y-58247179D01*
X-65719643Y-58247177D01*
X-65719643Y-58247176D01*
X-65872176Y-58094643D01*
X-66046700Y-57967843D01*
X-66238908Y-57869909D01*
X-66444077Y-57803245D01*
X-66657134Y-57769500D01*
X-66657139Y-57769500D01*
X-66872861Y-57769500D01*
X-66872866Y-57769500D01*
X-67085922Y-57803245D01*
X-67085924Y-57803245D01*
X-67085926Y-57803246D01*
X-67291089Y-57869908D01*
X-67483299Y-57967843D01*
X-67657821Y-58094641D01*
X-67657823Y-58094643D01*
X-67799804Y-58236624D01*
X-67861127Y-58270109D01*
X-67930819Y-58265125D01*
X-67986752Y-58223253D01*
X-67999861Y-58201360D01*
X-68000179Y-58200677D01*
X-68092289Y-58051342D01*
X-68216342Y-57927289D01*
X-68365663Y-57835187D01*
X-68365668Y-57835185D01*
X-68449670Y-57807349D01*
X-68532203Y-57780001D01*
X-68532204Y-57780000D01*
X-68634989Y-57769500D01*
X-69975001Y-57769500D01*
X-69975018Y-57769501D01*
X-70077796Y-57780000D01*
X-70077799Y-57780001D01*
X-70221695Y-57827684D01*
X-70244334Y-57835186D01*
X-70393656Y-57927288D01*
X-70517712Y-58051344D01*
X-70609814Y-58200666D01*
X-70664999Y-58367203D01*
X-70675500Y-58469991D01*
X-70675499Y-60260008D01*
X-70664999Y-60362797D01*
X-70609814Y-60529334D01*
X-70517712Y-60678656D01*
X-70393656Y-60802712D01*
X-70378743Y-60811910D01*
X-70364406Y-60820753D01*
X-70317680Y-60872699D01*
X-70305500Y-60926293D01*
X-70305500Y-61498541D01*
X-70294485Y-61553915D01*
X-70267051Y-61691836D01*
X-70259666Y-61709664D01*
X-70251208Y-61730084D01*
X-70251208Y-61730085D01*
X-70242610Y-61750842D01*
X-70191632Y-61873914D01*
X-70082139Y-62037782D01*
X-69942782Y-62177139D01*
X-69942778Y-62177141D01*
X-69499209Y-62620710D01*
X-69499206Y-62620714D01*
X-69492140Y-62627779D01*
X-69492139Y-62627782D01*
X-69352782Y-62767139D01*
X-69188914Y-62876632D01*
X-69060165Y-62929961D01*
X-69006836Y-62952051D01*
X-68910188Y-62971275D01*
X-68837702Y-62985693D01*
X-68813542Y-62990500D01*
X-68813541Y-62990500D01*
X-31416458Y-62990500D01*
X-31367472Y-62980755D01*
X-31319812Y-62971275D01*
X-31223164Y-62952051D01*
X-31212744Y-62947735D01*
X-31169833Y-62929961D01*
X-31041092Y-62876635D01*
X-31041079Y-62876628D01*
X-30877218Y-62767139D01*
X-30877214Y-62767136D01*
X-30733541Y-62623463D01*
X-30733520Y-62623440D01*
X-29737862Y-61627784D01*
X-29737859Y-61627780D01*
X-29628371Y-61463920D01*
X-29628366Y-61463911D01*
X-29552948Y-61281835D01*
X-29552946Y-61281827D01*
X-29514499Y-61088544D01*
X-29514499Y-60886349D01*
X-29514500Y-60886323D01*
X-29514500Y-58217133D01*
X-28760500Y-58217133D01*
X-28760500Y-58432866D01*
X-28746429Y-58521701D01*
X-28726754Y-58645926D01*
X-28660092Y-58851089D01*
X-28562157Y-59043299D01*
X-28435359Y-59217821D01*
X-28292993Y-59360186D01*
X-28259511Y-59421505D01*
X-28264495Y-59491197D01*
X-28306366Y-59547131D01*
X-28328277Y-59560248D01*
X-28329118Y-59560640D01*
X-28478345Y-59652684D01*
X-28602315Y-59776654D01*
X-28694356Y-59925875D01*
X-28694358Y-59925880D01*
X-28749505Y-60092302D01*
X-28749506Y-60092309D01*
X-28759999Y-60195013D01*
X-28760000Y-60195026D01*
X-28760000Y-60615000D01*
X-27707709Y-60615000D01*
X-27719452Y-60635339D01*
X-27760000Y-60786667D01*
X-27760000Y-60943333D01*
X-27719452Y-61094661D01*
X-27707709Y-61115000D01*
X-28759999Y-61115000D01*
X-28759999Y-61534971D01*
X-28759998Y-61534986D01*
X-28749505Y-61637697D01*
X-28694358Y-61804119D01*
X-28694356Y-61804124D01*
X-28602315Y-61953345D01*
X-28478345Y-62077315D01*
X-28329124Y-62169356D01*
X-28329119Y-62169358D01*
X-28162697Y-62224505D01*
X-28162690Y-62224506D01*
X-28059980Y-62234999D01*
X-27415000Y-62234999D01*
X-27415000Y-61407709D01*
X-27394661Y-61419452D01*
X-27243333Y-61460000D01*
X-27086667Y-61460000D01*
X-26935339Y-61419452D01*
X-26915000Y-61407709D01*
X-26915000Y-62234999D01*
X-26270028Y-62234999D01*
X-26270013Y-62234998D01*
X-26167302Y-62224505D01*
X-26000880Y-62169358D01*
X-26000875Y-62169356D01*
X-25851654Y-62077315D01*
X-25727684Y-61953345D01*
X-25635643Y-61804124D01*
X-25635641Y-61804119D01*
X-25580494Y-61637697D01*
X-25580493Y-61637690D01*
X-25570000Y-61534986D01*
X-25570000Y-61115000D01*
X-26622291Y-61115000D01*
X-26610548Y-61094661D01*
X-26570000Y-60943333D01*
X-26570000Y-60786667D01*
X-26610548Y-60635339D01*
X-26622291Y-60615000D01*
X-25570001Y-60615000D01*
X-25570001Y-60195013D01*
X-25580494Y-60092302D01*
X-25635641Y-59925880D01*
X-25635643Y-59925875D01*
X-25727684Y-59776654D01*
X-25851654Y-59652684D01*
X-26000885Y-59560637D01*
X-26001728Y-59560245D01*
X-26002208Y-59559821D01*
X-26007025Y-59556851D01*
X-26006517Y-59556027D01*
X-26054167Y-59514072D01*
X-26073318Y-59446879D01*
X-26053101Y-59379998D01*
X-26037003Y-59360183D01*
X-25894643Y-59217823D01*
X-25894641Y-59217821D01*
X-25767843Y-59043299D01*
X-25669908Y-58851089D01*
X-25603246Y-58645926D01*
X-25598175Y-58613911D01*
X-25569500Y-58432866D01*
X-25569500Y-58217133D01*
X-25603245Y-58004077D01*
X-25669909Y-57798908D01*
X-25767843Y-57606700D01*
X-25840405Y-57506828D01*
X-25894641Y-57432179D01*
X-25894643Y-57432177D01*
X-25894643Y-57432176D01*
X-26047176Y-57279643D01*
X-26221700Y-57152843D01*
X-26413908Y-57054909D01*
X-26619077Y-56988245D01*
X-26832134Y-56954500D01*
X-26832139Y-56954500D01*
X-27497861Y-56954500D01*
X-27497866Y-56954500D01*
X-27710922Y-56988245D01*
X-27710924Y-56988245D01*
X-27710926Y-56988246D01*
X-27916089Y-57054908D01*
X-28108299Y-57152843D01*
X-28282821Y-57279641D01*
X-28435359Y-57432179D01*
X-28562157Y-57606701D01*
X-28660092Y-57798911D01*
X-28726754Y-58004074D01*
X-28734240Y-58051342D01*
X-28760500Y-58217133D01*
X-29514500Y-58217133D01*
X-29514500Y-57630782D01*
X-29494815Y-57563743D01*
X-29478181Y-57543101D01*
X-27446898Y-55511818D01*
X-27385575Y-55478333D01*
X-27359217Y-55475499D01*
X-26249998Y-55475499D01*
X-26249992Y-55475499D01*
X-26249983Y-55475498D01*
X-26249981Y-55475498D01*
X-26147203Y-55464999D01*
X-26147200Y-55464998D01*
X-25980666Y-55409814D01*
X-25831344Y-55317712D01*
X-25707288Y-55193656D01*
X-25689244Y-55164402D01*
X-25637297Y-55117678D01*
X-25583706Y-55105500D01*
X-24906458Y-55105500D01*
X-24857472Y-55095755D01*
X-24809812Y-55086275D01*
X-24713164Y-55067051D01*
X-24669696Y-55049046D01*
X-24652606Y-55041967D01*
X-24652598Y-55041963D01*
X-24652580Y-55041956D01*
X-24531086Y-54991632D01*
X-24531084Y-54991630D01*
X-24531082Y-54991630D01*
X-24458391Y-54943059D01*
X-24391714Y-54922181D01*
X-24324334Y-54940665D01*
X-24277643Y-54992644D01*
X-24265500Y-55046161D01*
X-24265500Y-63240500D01*
X-24285185Y-63307539D01*
X-24337989Y-63353294D01*
X-24389500Y-63364500D01*
X-88140500Y-63364500D01*
X-88207539Y-63344815D01*
X-88253294Y-63292011D01*
X-88264500Y-63240500D01*
X-88264500Y-19489500D01*
X-88244815Y-19422461D01*
X-88192011Y-19376706D01*
X-88140500Y-19365500D01*
X-64918660Y-19365500D01*
X-64851621Y-19385185D01*
G37*
%TD.AperFunction*%
%TA.AperFunction,Conductor*%
G36*
X-24322461Y-19385185D02*
G01*
X-24276706Y-19437989D01*
X-24265500Y-19489500D01*
X-24265500Y-34375216D01*
X-24285185Y-34442255D01*
X-24337989Y-34488010D01*
X-24407147Y-34497954D01*
X-24470703Y-34468929D01*
X-24477181Y-34462897D01*
X-24552214Y-34387863D01*
X-24552218Y-34387860D01*
X-24716079Y-34278371D01*
X-24716089Y-34278366D01*
X-24799315Y-34243892D01*
X-24844834Y-34225038D01*
X-24844834Y-34225037D01*
X-24898159Y-34202950D01*
X-24898167Y-34202947D01*
X-25006201Y-34181459D01*
X-25034620Y-34175806D01*
X-25091457Y-34164500D01*
X-25091459Y-34164500D01*
X-25383706Y-34164500D01*
X-25450745Y-34144815D01*
X-25489245Y-34105597D01*
X-25507289Y-34076342D01*
X-25631342Y-33952289D01*
X-25780677Y-33860179D01*
X-25781360Y-33859861D01*
X-25781748Y-33859518D01*
X-25786813Y-33856395D01*
X-25786278Y-33855529D01*
X-25833794Y-33813683D01*
X-25852939Y-33746487D01*
X-25832716Y-33679608D01*
X-25816624Y-33659804D01*
X-25674643Y-33517823D01*
X-25674641Y-33517821D01*
X-25547843Y-33343299D01*
X-25449908Y-33151089D01*
X-25383246Y-32945926D01*
X-25383245Y-32945922D01*
X-25349500Y-32732866D01*
X-25349500Y-32517133D01*
X-25383245Y-32304077D01*
X-25449909Y-32098908D01*
X-25547843Y-31906700D01*
X-25668959Y-31740000D01*
X-25674641Y-31732179D01*
X-25674643Y-31732177D01*
X-25674643Y-31732176D01*
X-25827176Y-31579643D01*
X-26001700Y-31452843D01*
X-26193908Y-31354909D01*
X-26399077Y-31288245D01*
X-26612134Y-31254500D01*
X-26612139Y-31254500D01*
X-27277861Y-31254500D01*
X-27277866Y-31254500D01*
X-27490922Y-31288245D01*
X-27490924Y-31288245D01*
X-27490926Y-31288246D01*
X-27696089Y-31354908D01*
X-27888299Y-31452843D01*
X-28062821Y-31579641D01*
X-28062823Y-31579643D01*
X-28071361Y-31588181D01*
X-28132684Y-31621666D01*
X-28159042Y-31624500D01*
X-28839217Y-31624500D01*
X-28906256Y-31604815D01*
X-28926898Y-31588181D01*
X-29028181Y-31486898D01*
X-29061666Y-31425575D01*
X-29064500Y-31399217D01*
X-29064500Y-27080782D01*
X-29044815Y-27013743D01*
X-29028181Y-26993101D01*
X-28544380Y-26509300D01*
X-28531007Y-26495928D01*
X-28469686Y-26462444D01*
X-28399994Y-26467428D01*
X-28344061Y-26509300D01*
X-28319644Y-26574764D01*
X-28332843Y-26639905D01*
X-28438582Y-26847429D01*
X-28509234Y-27064871D01*
X-28523509Y-27155000D01*
X-27535748Y-27155000D01*
X-27557518Y-27192708D01*
X-27595000Y-27332591D01*
X-27595000Y-27477409D01*
X-27557518Y-27617292D01*
X-27535748Y-27655000D01*
X-28523509Y-27655000D01*
X-28509234Y-27745128D01*
X-28438582Y-27962570D01*
X-28334788Y-28166276D01*
X-28200402Y-28351242D01*
X-28038742Y-28512902D01*
X-27853776Y-28647288D01*
X-27650070Y-28751082D01*
X-27432628Y-28821734D01*
X-27295000Y-28843531D01*
X-27295000Y-27895747D01*
X-27257292Y-27917518D01*
X-27117409Y-27955000D01*
X-26972591Y-27955000D01*
X-26832708Y-27917518D01*
X-26795000Y-27895747D01*
X-26795000Y-28843532D01*
X-26657371Y-28821734D01*
X-26439929Y-28751082D01*
X-26236223Y-28647288D01*
X-26051257Y-28512902D01*
X-25889597Y-28351242D01*
X-25755211Y-28166276D01*
X-25651417Y-27962570D01*
X-25580765Y-27745128D01*
X-25566491Y-27655000D01*
X-26554252Y-27655000D01*
X-26532482Y-27617292D01*
X-26495000Y-27477409D01*
X-26495000Y-27332591D01*
X-26532482Y-27192708D01*
X-26554252Y-27155000D01*
X-25566491Y-27155000D01*
X-25580765Y-27064871D01*
X-25651417Y-26847429D01*
X-25755211Y-26643723D01*
X-25889597Y-26458757D01*
X-26051257Y-26297097D01*
X-26135864Y-26235627D01*
X-26178529Y-26180297D01*
X-26184508Y-26110684D01*
X-26151902Y-26048889D01*
X-26135866Y-26034993D01*
X-26050934Y-25973286D01*
X-25889214Y-25811566D01*
X-25754783Y-25626538D01*
X-25730627Y-25579130D01*
X-25650950Y-25422755D01*
X-25580278Y-25205249D01*
X-25580278Y-25205246D01*
X-25544500Y-24979353D01*
X-25544500Y-24750646D01*
X-25580278Y-24524753D01*
X-25580278Y-24524750D01*
X-25650950Y-24307244D01*
X-25754783Y-24103461D01*
X-25887525Y-23920759D01*
X-25911005Y-23854952D01*
X-25895180Y-23786898D01*
X-25845074Y-23738203D01*
X-25830544Y-23731692D01*
X-25802669Y-23721296D01*
X-25802664Y-23721293D01*
X-25687455Y-23635047D01*
X-25687452Y-23635044D01*
X-25601206Y-23519835D01*
X-25601202Y-23519828D01*
X-25550908Y-23384982D01*
X-25544501Y-23325383D01*
X-25544500Y-23325381D01*
X-25544500Y-23325373D01*
X-25544500Y-22396054D01*
X-25544500Y-21324629D01*
X-25544501Y-21324623D01*
X-25550908Y-21265016D01*
X-25601202Y-21130171D01*
X-25601206Y-21130164D01*
X-25687452Y-21014955D01*
X-25687455Y-21014952D01*
X-25802664Y-20928706D01*
X-25802671Y-20928702D01*
X-25937517Y-20878408D01*
X-25937516Y-20878408D01*
X-25997116Y-20872001D01*
X-25997119Y-20872000D01*
X-25997127Y-20872000D01*
X-25997134Y-20872000D01*
X-25997135Y-20872000D01*
X-28092870Y-20872000D01*
X-28092876Y-20872001D01*
X-28152483Y-20878408D01*
X-28287328Y-20928702D01*
X-28287329Y-20928703D01*
X-28287331Y-20928704D01*
X-28360365Y-20983377D01*
X-28373512Y-20993219D01*
X-28438976Y-21017636D01*
X-28507249Y-21002784D01*
X-28556655Y-20953379D01*
X-28564005Y-20937286D01*
X-28640635Y-20731833D01*
X-28777770Y-20480690D01*
X-28777775Y-20480682D01*
X-28949254Y-20251612D01*
X-28949270Y-20251594D01*
X-29151594Y-20049270D01*
X-29151612Y-20049254D01*
X-29380682Y-19877775D01*
X-29380690Y-19877770D01*
X-29631833Y-19740635D01*
X-29631832Y-19740635D01*
X-29899962Y-19640628D01*
X-30037698Y-19610666D01*
X-30099021Y-19577181D01*
X-30132506Y-19515858D01*
X-30127522Y-19446166D01*
X-30085650Y-19390233D01*
X-30020186Y-19365816D01*
X-30011340Y-19365500D01*
X-24389500Y-19365500D01*
X-24322461Y-19385185D01*
G37*
%TD.AperFunction*%
%TA.AperFunction,Conductor*%
G36*
X-45010191Y-25985185D02*
G01*
X-44989549Y-26001819D01*
X-44776819Y-26214549D01*
X-44743334Y-26275872D01*
X-44740500Y-26302230D01*
X-44740500Y-27563920D01*
X-44734632Y-27593417D01*
X-44711658Y-27708913D01*
X-44655084Y-27845495D01*
X-44642093Y-27864937D01*
X-44572952Y-27968416D01*
X-44572947Y-27968421D01*
X-41913549Y-30627819D01*
X-41880064Y-30689142D01*
X-41885048Y-30758834D01*
X-41926920Y-30814767D01*
X-41992384Y-30839184D01*
X-42001230Y-30839500D01*
X-49538920Y-30839500D01*
X-49683907Y-30868340D01*
X-49683917Y-30868343D01*
X-49820488Y-30924912D01*
X-49820501Y-30924919D01*
X-49943415Y-31007048D01*
X-49943419Y-31007051D01*
X-52879202Y-33942834D01*
X-52879206Y-33942839D01*
X-52928435Y-34016518D01*
X-52928436Y-34016520D01*
X-52962398Y-34067347D01*
X-53016011Y-34112152D01*
X-53085336Y-34120859D01*
X-53148363Y-34090704D01*
X-53185082Y-34031261D01*
X-53189500Y-33998456D01*
X-53189500Y-27002229D01*
X-53169815Y-26935190D01*
X-53153181Y-26914548D01*
X-52240452Y-26001819D01*
X-52179129Y-25968334D01*
X-52152771Y-25965500D01*
X-45077230Y-25965500D01*
X-45010191Y-25985185D01*
G37*
%TD.AperFunction*%
%TA.AperFunction,Conductor*%
G36*
X-48081141Y-19385185D02*
G01*
X-48035386Y-19437989D01*
X-48025442Y-19507147D01*
X-48054467Y-19570703D01*
X-48089727Y-19598858D01*
X-48258532Y-19689086D01*
X-48258539Y-19689090D01*
X-48410883Y-19814116D01*
X-48535909Y-19966460D01*
X-48535913Y-19966467D01*
X-48628811Y-20140266D01*
X-48628811Y-20140269D01*
X-48628814Y-20140273D01*
X-48686024Y-20328868D01*
X-48705341Y-20525000D01*
X-48686024Y-20721132D01*
X-48628814Y-20909727D01*
X-48628811Y-20909732D01*
X-48628811Y-20909733D01*
X-48535913Y-21083532D01*
X-48535909Y-21083539D01*
X-48410883Y-21235883D01*
X-48308817Y-21319647D01*
X-48269483Y-21377392D01*
X-48267612Y-21447237D01*
X-48303800Y-21507005D01*
X-48366555Y-21537721D01*
X-48387482Y-21539500D01*
X-52613920Y-21539500D01*
X-52727618Y-21562117D01*
X-52751810Y-21564500D01*
X-53113920Y-21564500D01*
X-53258907Y-21593340D01*
X-53258917Y-21593343D01*
X-53395488Y-21649912D01*
X-53395501Y-21649919D01*
X-53518415Y-21732048D01*
X-53518419Y-21732051D01*
X-54824708Y-23038340D01*
X-54886031Y-23071825D01*
X-54912389Y-23074659D01*
X-62848462Y-23074659D01*
X-62915501Y-23054974D01*
X-62961256Y-23002170D01*
X-62971200Y-22933012D01*
X-62947729Y-22876349D01*
X-62777775Y-22649317D01*
X-62777770Y-22649309D01*
X-62640635Y-22398166D01*
X-62545500Y-22143099D01*
X-62540631Y-22130046D01*
X-62540630Y-22130043D01*
X-62540628Y-22130037D01*
X-62479804Y-21850433D01*
X-62459390Y-21565001D01*
X-62459390Y-21564998D01*
X-62479804Y-21279566D01*
X-62540628Y-20999962D01*
X-62640635Y-20731833D01*
X-62777770Y-20480690D01*
X-62777775Y-20480682D01*
X-62949254Y-20251612D01*
X-62949270Y-20251594D01*
X-63151594Y-20049270D01*
X-63151612Y-20049254D01*
X-63380682Y-19877775D01*
X-63380690Y-19877770D01*
X-63631833Y-19740635D01*
X-63631832Y-19740635D01*
X-63899962Y-19640628D01*
X-64037698Y-19610666D01*
X-64099021Y-19577181D01*
X-64132506Y-19515858D01*
X-64127522Y-19446166D01*
X-64085650Y-19390233D01*
X-64020186Y-19365816D01*
X-64011340Y-19365500D01*
X-48148180Y-19365500D01*
X-48081141Y-19385185D01*
G37*
%TD.AperFunction*%
%TD*%
M02*
