%TF.GenerationSoftware,KiCad,Pcbnew,8.0.5-8.0.5-0~ubuntu22.04.1*%
%TF.CreationDate,2025-05-20T11:09:25+05:30*%
%TF.ProjectId,esp32_nichrome_wire,65737033-325f-46e6-9963-68726f6d655f,rev?*%
%TF.SameCoordinates,Original*%
%TF.FileFunction,Paste,Top*%
%TF.FilePolarity,Positive*%
%FSLAX46Y46*%
G04 Gerber Fmt 4.6, Leading zero omitted, Abs format (unit mm)*
G04 Created by KiCad (PCBNEW 8.0.5-8.0.5-0~ubuntu22.04.1) date 2025-05-20 11:09:25*
%MOMM*%
%LPD*%
G01*
G04 APERTURE LIST*
G04 Aperture macros list*
%AMRoundRect*
0 Rectangle with rounded corners*
0 $1 Rounding radius*
0 $2 $3 $4 $5 $6 $7 $8 $9 X,Y pos of 4 corners*
0 Add a 4 corners polygon primitive as box body*
4,1,4,$2,$3,$4,$5,$6,$7,$8,$9,$2,$3,0*
0 Add four circle primitives for the rounded corners*
1,1,$1+$1,$2,$3*
1,1,$1+$1,$4,$5*
1,1,$1+$1,$6,$7*
1,1,$1+$1,$8,$9*
0 Add four rect primitives between the rounded corners*
20,1,$1+$1,$2,$3,$4,$5,0*
20,1,$1+$1,$4,$5,$6,$7,0*
20,1,$1+$1,$6,$7,$8,$9,0*
20,1,$1+$1,$8,$9,$2,$3,0*%
G04 Aperture macros list end*
%ADD10RoundRect,0.250000X-0.412500X-0.650000X0.412500X-0.650000X0.412500X0.650000X-0.412500X0.650000X0*%
%ADD11RoundRect,0.250000X-0.312500X-0.625000X0.312500X-0.625000X0.312500X0.625000X-0.312500X0.625000X0*%
%ADD12RoundRect,0.250000X0.312500X0.625000X-0.312500X0.625000X-0.312500X-0.625000X0.312500X-0.625000X0*%
%ADD13RoundRect,0.375000X-0.625000X-0.375000X0.625000X-0.375000X0.625000X0.375000X-0.625000X0.375000X0*%
%ADD14RoundRect,0.500000X-0.500000X-1.400000X0.500000X-1.400000X0.500000X1.400000X-0.500000X1.400000X0*%
%ADD15RoundRect,0.250000X-0.650000X0.412500X-0.650000X-0.412500X0.650000X-0.412500X0.650000X0.412500X0*%
%ADD16RoundRect,0.250000X0.625000X-0.312500X0.625000X0.312500X-0.625000X0.312500X-0.625000X-0.312500X0*%
%ADD17R,1.700000X0.900000*%
%ADD18RoundRect,0.250000X-0.625000X0.312500X-0.625000X-0.312500X0.625000X-0.312500X0.625000X0.312500X0*%
%ADD19RoundRect,0.250000X0.650000X-0.412500X0.650000X0.412500X-0.650000X0.412500X-0.650000X-0.412500X0*%
%ADD20R,1.500000X0.900000*%
%ADD21R,0.900000X1.500000*%
%ADD22R,1.050000X1.050000*%
%ADD23RoundRect,0.250000X0.375000X0.625000X-0.375000X0.625000X-0.375000X-0.625000X0.375000X-0.625000X0*%
G04 APERTURE END LIST*
D10*
%TO.C,C2*%
X-36190000Y-37765000D03*
X-33065000Y-37765000D03*
%TD*%
D11*
%TO.C,R7*%
X-37927500Y-46165000D03*
X-35002500Y-46165000D03*
%TD*%
D12*
%TO.C,R4*%
X-29840000Y-43465000D03*
X-32765000Y-43465000D03*
%TD*%
D13*
%TO.C,U2*%
X-78615000Y-49965000D03*
X-78615000Y-52265000D03*
D14*
X-72315000Y-52265000D03*
D13*
X-78615000Y-54565000D03*
%TD*%
D11*
%TO.C,R15*%
X-32562500Y-29450000D03*
X-29637500Y-29450000D03*
%TD*%
D15*
%TO.C,C4*%
X-86665000Y-49802500D03*
X-86665000Y-52927500D03*
%TD*%
D11*
%TO.C,R9*%
X-49127500Y-46165000D03*
X-46202500Y-46165000D03*
%TD*%
D12*
%TO.C,R8*%
X-46240000Y-43465000D03*
X-49165000Y-43465000D03*
%TD*%
D11*
%TO.C,R5*%
X-32690000Y-40965000D03*
X-29765000Y-40965000D03*
%TD*%
D16*
%TO.C,R12*%
X-51565000Y-47427500D03*
X-51565000Y-44502500D03*
%TD*%
D17*
%TO.C,SW2*%
X-34265000Y-23300000D03*
X-34265000Y-19900000D03*
%TD*%
D18*
%TO.C,R10*%
X-54265000Y-41202500D03*
X-54265000Y-44127500D03*
%TD*%
D17*
%TO.C,SW1*%
X-60065000Y-20165000D03*
X-60065000Y-23565000D03*
%TD*%
D11*
%TO.C,R14*%
X-87215000Y-55365000D03*
X-84290000Y-55365000D03*
%TD*%
D19*
%TO.C,C3*%
X-81665000Y-57627500D03*
X-81665000Y-54502500D03*
%TD*%
D11*
%TO.C,R2*%
X-35090000Y-25765000D03*
X-32165000Y-25765000D03*
%TD*%
D16*
%TO.C,R11*%
X-56965000Y-44190000D03*
X-56965000Y-41265000D03*
%TD*%
D11*
%TO.C,R1*%
X-62427500Y-29465000D03*
X-59502500Y-29465000D03*
%TD*%
D12*
%TO.C,R6*%
X-35002500Y-43465000D03*
X-37927500Y-43465000D03*
%TD*%
D16*
%TO.C,R3*%
X-34765000Y-30827500D03*
X-34765000Y-27902500D03*
%TD*%
D10*
%TO.C,C1*%
X-62427500Y-25965000D03*
X-59302500Y-25965000D03*
%TD*%
D20*
%TO.C,U1*%
X-55955000Y-20705000D03*
X-55955000Y-21975000D03*
X-55955000Y-23245000D03*
X-55955000Y-24515000D03*
X-55955000Y-25785000D03*
X-55955000Y-27055000D03*
X-55955000Y-28325000D03*
X-55955000Y-29595000D03*
X-55955000Y-30865000D03*
X-55955000Y-32135000D03*
X-55955000Y-33405000D03*
X-55955000Y-34675000D03*
X-55955000Y-35945000D03*
X-55955000Y-37215000D03*
D21*
X-52915000Y-38465000D03*
X-51645000Y-38465000D03*
X-50375000Y-38465000D03*
X-49105000Y-38465000D03*
X-47835000Y-38465000D03*
X-46565000Y-38465000D03*
X-45295000Y-38465000D03*
X-44025000Y-38465000D03*
X-42755000Y-38465000D03*
X-41485000Y-38465000D03*
D20*
X-38455000Y-37215000D03*
X-38455000Y-35945000D03*
X-38455000Y-34675000D03*
X-38455000Y-33405000D03*
X-38455000Y-32135000D03*
X-38455000Y-30865000D03*
X-38455000Y-29595000D03*
X-38455000Y-28325000D03*
X-38455000Y-27055000D03*
X-38455000Y-25785000D03*
X-38455000Y-24515000D03*
X-38455000Y-23245000D03*
X-38455000Y-21975000D03*
X-38455000Y-20705000D03*
D22*
X-49410000Y-26520000D03*
X-49410000Y-28045000D03*
X-49410000Y-29570000D03*
X-47885000Y-26520000D03*
X-47885000Y-28045000D03*
X-47885000Y-29570000D03*
X-46360000Y-26520000D03*
X-46360000Y-28045000D03*
X-46360000Y-29570000D03*
%TD*%
D12*
%TO.C,R13*%
X-54840000Y-47065000D03*
X-57765000Y-47065000D03*
%TD*%
D23*
%TO.C,D1*%
X-84315000Y-57890000D03*
X-87115000Y-57890000D03*
%TD*%
M02*
