%TF.GenerationSoftware,KiCad,Pcbnew,8.0.5-8.0.5-0~ubuntu22.04.1*%
%TF.CreationDate,2025-05-20T11:09:25+05:30*%
%TF.ProjectId,esp32_nichrome_wire,65737033-325f-46e6-9963-68726f6d655f,rev?*%
%TF.SameCoordinates,Original*%
%TF.FileFunction,Soldermask,Bot*%
%TF.FilePolarity,Negative*%
%FSLAX46Y46*%
G04 Gerber Fmt 4.6, Leading zero omitted, Abs format (unit mm)*
G04 Created by KiCad (PCBNEW 8.0.5-8.0.5-0~ubuntu22.04.1) date 2025-05-20 11:09:25*
%MOMM*%
%LPD*%
G01*
G04 APERTURE LIST*
G04 Aperture macros list*
%AMRoundRect*
0 Rectangle with rounded corners*
0 $1 Rounding radius*
0 $2 $3 $4 $5 $6 $7 $8 $9 X,Y pos of 4 corners*
0 Add a 4 corners polygon primitive as box body*
4,1,4,$2,$3,$4,$5,$6,$7,$8,$9,$2,$3,0*
0 Add four circle primitives for the rounded corners*
1,1,$1+$1,$2,$3*
1,1,$1+$1,$4,$5*
1,1,$1+$1,$6,$7*
1,1,$1+$1,$8,$9*
0 Add four rect primitives between the rounded corners*
20,1,$1+$1,$2,$3,$4,$5,0*
20,1,$1+$1,$4,$5,$6,$7,0*
20,1,$1+$1,$6,$7,$8,$9,0*
20,1,$1+$1,$8,$9,$2,$3,0*%
G04 Aperture macros list end*
%ADD10RoundRect,0.250000X-0.620000X-0.845000X0.620000X-0.845000X0.620000X0.845000X-0.620000X0.845000X0*%
%ADD11O,1.740000X2.190000*%
%ADD12R,1.905000X2.000000*%
%ADD13O,1.905000X2.000000*%
%ADD14RoundRect,0.250000X0.845000X-0.620000X0.845000X0.620000X-0.845000X0.620000X-0.845000X-0.620000X0*%
%ADD15O,2.190000X1.740000*%
%ADD16R,2.000000X1.905000*%
%ADD17O,2.000000X1.905000*%
%ADD18R,1.700000X1.700000*%
%ADD19O,1.700000X1.700000*%
G04 APERTURE END LIST*
D10*
%TO.C,J3*%
X-69305000Y-59365000D03*
D11*
X-66765000Y-59365000D03*
%TD*%
D12*
%TO.C,Q4*%
X-46325000Y-50520000D03*
D13*
X-48865000Y-50520000D03*
X-51405000Y-50520000D03*
%TD*%
D10*
%TO.C,J9*%
X-61805000Y-59265000D03*
D11*
X-59265000Y-59265000D03*
%TD*%
D14*
%TO.C,J5*%
X-27145000Y-54105000D03*
D15*
X-27145000Y-51565000D03*
%TD*%
D12*
%TO.C,Q6*%
X-57965000Y-50465000D03*
D13*
X-60505000Y-50465000D03*
X-63045000Y-50465000D03*
%TD*%
D10*
%TO.C,J7*%
X-45805000Y-59265000D03*
D11*
X-43265000Y-59265000D03*
%TD*%
D16*
%TO.C,Q2*%
X-27045000Y-41025000D03*
D17*
X-27045000Y-43565000D03*
X-27045000Y-46105000D03*
%TD*%
D14*
%TO.C,J4*%
X-26945000Y-35165000D03*
D15*
X-26945000Y-32625000D03*
%TD*%
D16*
%TO.C,Q5*%
X-60865000Y-41365000D03*
D17*
X-60865000Y-38825000D03*
X-60865000Y-36285000D03*
%TD*%
D10*
%TO.C,J2*%
X-53805000Y-59265000D03*
D11*
X-51265000Y-59265000D03*
%TD*%
D12*
%TO.C,Q3*%
X-34925000Y-50520000D03*
D13*
X-37465000Y-50520000D03*
X-40005000Y-50520000D03*
%TD*%
D10*
%TO.C,J6*%
X-38305000Y-59465000D03*
D11*
X-35765000Y-59465000D03*
%TD*%
D14*
%TO.C,J8*%
X-27165000Y-60865000D03*
D15*
X-27165000Y-58325000D03*
%TD*%
D18*
%TO.C,U3*%
X-67895000Y-44440000D03*
D19*
X-67895000Y-41900000D03*
X-67895000Y-39360000D03*
X-67895000Y-36820000D03*
X-67895000Y-34280000D03*
X-67895000Y-31740000D03*
X-67895000Y-29200000D03*
X-67895000Y-26660000D03*
%TD*%
D16*
%TO.C,Q1*%
X-27045000Y-22325000D03*
D17*
X-27045000Y-24865000D03*
X-27045000Y-27405000D03*
%TD*%
D18*
%TO.C,J1*%
X-84285000Y-61065000D03*
D19*
X-81745000Y-61065000D03*
X-79205000Y-61065000D03*
X-76665000Y-61065000D03*
X-74125000Y-61065000D03*
%TD*%
M02*
