<?xml version="1.0" standalone="no"?>
 <!DOCTYPE svg PUBLIC "-//W3C//DTD SVG 1.1//EN" 
 "http://www.w3.org/Graphics/SVG/1.1/DTD/svg11.dtd"> 
<svg
  xmlns:svg="http://www.w3.org/2000/svg"
  xmlns="http://www.w3.org/2000/svg"
  xmlns:xlink="http://www.w3.org/1999/xlink"
  version="1.1"
  width="297.002200mm" height="210.007200mm" viewBox="0.000000 0.000000 297.002200 210.007200">
<title>SVG Image created as Gynocam-B_Cu.svg date 2025/04/26 10:03:39 </title>
  <desc>Image generated by PCBNEW </desc>
<g style="fill:#000000; fill-opacity:1.000000;stroke:#000000; stroke-opacity:1.000000;
stroke-linecap:round; stroke-linejoin:round;"
 transform="translate(0 0) scale(1 1)">
<path style="fill:#000000; fill-opacity:1.000000; stroke:none;fill-rule:evenodd;"
d="M 236.622200,41.112500
234.082200,41.112500
234.082200,42.687500
236.622200,42.687500
Z" /> 
</g>
<g style="fill:none; 
stroke:#000000; stroke-width:1.575000; stroke-opacity:1; 
stroke-linecap:round; stroke-linejoin:round;">
<path d="M234.869700 39.400000
L235.834700 39.400000
" />
<path style="fill:#000000; fill-opacity:1.000000; stroke:none;fill-rule:evenodd;"
d="M 219.132200,22.254000
221.672200,22.254000
221.672200,20.746000
219.132200,20.746000
Z" /> 
</g>
<g style="fill:none; 
stroke:#000000; stroke-width:1.508000; stroke-opacity:1; 
stroke-linecap:round; stroke-linejoin:round;">
<path d="M220.918200 24.000000
L219.886200 24.000000
" />
<path d="M220.918200 26.500000
L219.886200 26.500000
" />
<path style="fill:#000000; fill-opacity:1.000000; stroke:none;fill-rule:evenodd;"
d="M 269.302200,33.637500
272.302200,33.637500
272.302200,32.062500
269.302200,32.062500
Z" /> 
</g>
<g style="fill:none; 
stroke:#000000; stroke-width:1.575000; stroke-opacity:1; 
stroke-linecap:round; stroke-linejoin:round;">
<path d="M271.284700 35.350000
L270.319700 35.350000
" />
<path style="fill:#000000; fill-opacity:1.000000; stroke:none;fill-rule:evenodd;"
d="M 230.352200,32.100000
230.352200,30.500000
227.952200,30.500000
227.952200,32.100000
Z" /> 
</g>
<g style="fill:none; 
stroke:#000000; stroke-width:1.600000; stroke-opacity:1; 
stroke-linecap:round; stroke-linejoin:round;">
<path d="M229.552200 33.840000
L228.752200 33.840000
" />
<path d="M229.552200 36.380000
L228.752200 36.380000
" />
<path d="M229.552200 38.920000
L228.752200 38.920000
" />
<path d="M221.932200 38.920000
L221.132200 38.920000
" />
<path d="M221.932200 36.380000
L221.132200 36.380000
" />
<path d="M221.932200 33.840000
L221.132200 33.840000
" />
<path d="M221.932200 31.300000
L221.132200 31.300000
" />
<path style="fill:#000000; fill-opacity:1.000000; stroke:none;fill-rule:evenodd;"
d="M 239.912200,22.235000
239.912200,24.775000
242.452200,24.775000
242.452200,22.235000
Z" /> 
<path style="fill:#000000; fill-opacity:1.000000; stroke:none;fill-rule:evenodd;"
d="M 239.872200,36.325000
239.872200,38.865000
242.412200,38.865000
242.412200,36.325000
Z" /> 
<path style="fill:#000000; fill-opacity:1.000000; stroke:none;fill-rule:evenodd;"
d="M 262.002200,22.315000
262.002200,24.855000
264.542200,24.855000
264.542200,22.315000
Z" /> 
<path style="fill:#000000; fill-opacity:1.000000; stroke:none;fill-rule:evenodd;"
d="M 262.042200,36.235000
262.042200,38.775000
264.582200,38.775000
264.582200,36.235000
Z" /> 
<path style="fill:#000000; fill-opacity:1.000000; stroke:none;fill-rule:evenodd;"
d="M 269.432200,25.137500
271.972200,25.137500
271.972200,23.562500
269.432200,23.562500
Z" /> 
</g>
<g style="fill:none; 
stroke:#000000; stroke-width:1.575000; stroke-opacity:1; 
stroke-linecap:round; stroke-linejoin:round;">
<path d="M271.184700 26.850000
L270.219700 26.850000
" />
<path style="fill:#000000; fill-opacity:1.000000; stroke:none;fill-rule:evenodd;"
d="M 222.802200,29.200000
222.821230,29.295671
222.875423,29.376777
222.956529,29.430970
223.052200,29.450000
223.752200,29.450000
223.847871,29.430970
223.928977,29.376777
223.983170,29.295671
224.002200,29.200000
224.002200,28.300000
223.983170,28.204329
223.928977,28.123223
223.847871,28.069030
223.752200,28.050000
223.052200,28.050000
222.956529,28.069030
222.875423,28.123223
222.821230,28.204329
222.802200,28.300000
Z" /> 
<path style="fill:#000000; fill-opacity:1.000000; stroke:none;fill-rule:evenodd;"
d="M 224.802200,29.200000
224.821230,29.295671
224.875423,29.376777
224.956529,29.430970
225.052200,29.450000
225.752200,29.450000
225.847871,29.430970
225.928977,29.376777
225.983170,29.295671
226.002200,29.200000
226.002200,28.300000
225.983170,28.204329
225.928977,28.123223
225.847871,28.069030
225.752200,28.050000
225.052200,28.050000
224.956529,28.069030
224.875423,28.123223
224.821230,28.204329
224.802200,28.300000
Z" /> 
<path style="fill:#000000; fill-opacity:1.000000; stroke:none;fill-rule:evenodd;"
d="M 227.202200,21.050000
227.221230,21.145671
227.275423,21.226777
227.356529,21.280970
227.452200,21.300000
230.452200,21.300000
230.547871,21.280970
230.628977,21.226777
230.683170,21.145671
230.702200,21.050000
230.702200,19.750000
230.683170,19.654329
230.628977,19.573223
230.547871,19.519030
230.452200,19.500000
227.452200,19.500000
227.356529,19.519030
227.275423,19.573223
227.221230,19.654329
227.202200,19.750000
Z" /> 
<path style="fill:#000000; fill-opacity:1.000000; stroke:none;fill-rule:evenodd;"
d="M 232.202200,21.050000
232.221230,21.145671
232.275423,21.226777
232.356529,21.280970
232.452200,21.300000
235.452200,21.300000
235.547871,21.280970
235.628977,21.226777
235.683170,21.145671
235.702200,21.050000
235.702200,19.750000
235.683170,19.654329
235.628977,19.573223
235.547871,19.519030
235.452200,19.500000
232.452200,19.500000
232.356529,19.519030
232.275423,19.573223
232.221230,19.654329
232.202200,19.750000
Z" /> 
<path style="fill:#000000; fill-opacity:1.000000; stroke:none;fill-rule:evenodd;"
d="M 222.114700,41.325000
222.095670,41.229329
222.041477,41.148223
221.960371,41.094030
221.864700,41.075000
221.189700,41.075000
221.094029,41.094030
221.012923,41.148223
220.958730,41.229329
220.939700,41.325000
220.939700,42.275000
220.958730,42.370671
221.012923,42.451777
221.094029,42.505970
221.189700,42.525000
221.864700,42.525000
221.960371,42.505970
222.041477,42.451777
222.095670,42.370671
222.114700,42.275000
Z" /> 
<path style="fill:#000000; fill-opacity:1.000000; stroke:none;fill-rule:evenodd;"
d="M 220.039700,41.325000
220.020670,41.229329
219.966477,41.148223
219.885371,41.094030
219.789700,41.075000
219.114700,41.075000
219.019029,41.094030
218.937923,41.148223
218.883730,41.229329
218.864700,41.325000
218.864700,42.275000
218.883730,42.370671
218.937923,42.451777
219.019029,42.505970
219.114700,42.525000
219.789700,42.525000
219.885371,42.505970
219.966477,42.451777
220.020670,42.370671
220.039700,42.275000
Z" /> 
<path style="fill:#000000; fill-opacity:1.000000; stroke:none;fill-rule:evenodd;"
d="M 252.272200,38.440000
252.367871,38.420970
252.448977,38.366777
252.503170,38.285671
252.522200,38.190000
252.522200,36.490000
252.503170,36.394329
252.448977,36.313223
252.367871,36.259030
252.272200,36.240000
251.572200,36.240000
251.476529,36.259030
251.395423,36.313223
251.341230,36.394329
251.322200,36.490000
251.322200,38.190000
251.341230,38.285671
251.395423,38.366777
251.476529,38.420970
251.572200,38.440000
Z" /> 
<path style="fill:#000000; fill-opacity:1.000000; stroke:none;fill-rule:evenodd;"
d="M 256.852200,34.240000
256.947871,34.220970
257.028977,34.166777
257.083170,34.085671
257.102200,33.990000
257.102200,31.440000
257.083170,31.344329
257.028977,31.263223
256.947871,31.209030
256.852200,31.190000
254.602200,31.190000
254.506529,31.209030
254.425423,31.263223
254.371230,31.344329
254.352200,31.440000
254.352200,33.990000
254.371230,34.085671
254.425423,34.166777
254.506529,34.220970
254.602200,34.240000
Z" /> 
<path style="fill:#000000; fill-opacity:1.000000; stroke:none;fill-rule:evenodd;"
d="M 253.802200,34.240000
253.897871,34.220970
253.978977,34.166777
254.033170,34.085671
254.052200,33.990000
254.052200,31.440000
254.033170,31.344329
253.978977,31.263223
253.897871,31.209030
253.802200,31.190000
251.552200,31.190000
251.456529,31.209030
251.375423,31.263223
251.321230,31.344329
251.302200,31.440000
251.302200,33.990000
251.321230,34.085671
251.375423,34.166777
251.456529,34.220970
251.552200,34.240000
Z" /> 
<path style="fill:#000000; fill-opacity:1.000000; stroke:none;fill-rule:evenodd;"
d="M 256.852203,34.240000
256.947873,34.220970
257.028978,34.166778
257.083170,34.085673
257.102199,33.990002
257.102200,28.089997
257.083170,27.994327
257.028978,27.913222
256.947873,27.859030
256.852202,27.840001
251.552197,27.840000
251.456527,27.859030
251.375422,27.913222
251.321230,27.994327
251.302201,28.089998
251.302200,33.990003
251.321230,34.085673
251.375422,34.166778
251.456527,34.220970
251.552198,34.239999
Z" /> 
<path style="fill:#000000; fill-opacity:1.000000; stroke:none;fill-rule:evenodd;"
d="M 256.852200,30.890000
256.947871,30.870970
257.028977,30.816777
257.083170,30.735671
257.102200,30.640000
257.102200,28.090000
257.083170,27.994329
257.028977,27.913223
256.947871,27.859030
256.852200,27.840000
254.602200,27.840000
254.506529,27.859030
254.425423,27.913223
254.371230,27.994329
254.352200,28.090000
254.352200,30.640000
254.371230,30.735671
254.425423,30.816777
254.506529,30.870970
254.602200,30.890000
Z" /> 
<path style="fill:#000000; fill-opacity:1.000000; stroke:none;fill-rule:evenodd;"
d="M 253.802200,30.890000
253.897871,30.870970
253.978977,30.816777
254.033170,30.735671
254.052200,30.640000
254.052200,28.090000
254.033170,27.994329
253.978977,27.913223
253.897871,27.859030
253.802200,27.840000
251.552200,27.840000
251.456529,27.859030
251.375423,27.913223
251.321230,27.994329
251.302200,28.090000
251.302200,30.640000
251.321230,30.735671
251.375423,30.816777
251.456529,30.870970
251.552200,30.890000
Z" /> 
<path style="fill:#000000; fill-opacity:1.000000; stroke:none;fill-rule:evenodd;"
d="M 256.832200,38.440000
256.927871,38.420970
257.008977,38.366777
257.063170,38.285671
257.082200,38.190000
257.082200,36.490000
257.063170,36.394329
257.008977,36.313223
256.927871,36.259030
256.832200,36.240000
256.132200,36.240000
256.036529,36.259030
255.955423,36.313223
255.901230,36.394329
255.882200,36.490000
255.882200,38.190000
255.901230,38.285671
255.955423,38.366777
256.036529,38.420970
256.132200,38.440000
Z" /> 
<path style="fill:#000000; fill-opacity:1.000000; stroke:none;fill-rule:evenodd;"
d="M 216.727200,35.775000
216.631529,35.794030
216.550423,35.848223
216.496230,35.929329
216.477200,36.025000
216.477200,36.700000
216.496230,36.795671
216.550423,36.876777
216.631529,36.930970
216.727200,36.950000
217.677200,36.950000
217.772871,36.930970
217.853977,36.876777
217.908170,36.795671
217.927200,36.700000
217.927200,36.025000
217.908170,35.929329
217.853977,35.848223
217.772871,35.794030
217.677200,35.775000
Z" /> 
<path style="fill:#000000; fill-opacity:1.000000; stroke:none;fill-rule:evenodd;"
d="M 216.727200,37.850000
216.631529,37.869030
216.550423,37.923223
216.496230,38.004329
216.477200,38.100000
216.477200,38.775000
216.496230,38.870671
216.550423,38.951777
216.631529,39.005970
216.727200,39.025000
217.677200,39.025000
217.772871,39.005970
217.853977,38.951777
217.908170,38.870671
217.927200,38.775000
217.927200,38.100000
217.908170,38.004329
217.853977,37.923223
217.772871,37.869030
217.677200,37.850000
Z" /> 
<path style="fill:#000000; fill-opacity:1.000000; stroke:none;fill-rule:evenodd;"
d="M 235.702200,23.750000
235.683170,23.654329
235.628977,23.573223
235.547871,23.519030
235.452200,23.500000
232.452200,23.500000
232.356529,23.519030
232.275423,23.573223
232.221230,23.654329
232.202200,23.750000
232.202200,25.050000
232.221230,25.145671
232.275423,25.226777
232.356529,25.280970
232.452200,25.300000
235.452200,25.300000
235.547871,25.280970
235.628977,25.226777
235.683170,25.145671
235.702200,25.050000
Z" /> 
<path style="fill:#000000; fill-opacity:1.000000; stroke:none;fill-rule:evenodd;"
d="M 230.702200,23.750000
230.683170,23.654329
230.628977,23.573223
230.547871,23.519030
230.452200,23.500000
227.452200,23.500000
227.356529,23.519030
227.275423,23.573223
227.221230,23.654329
227.202200,23.750000
227.202200,25.050000
227.221230,25.145671
227.275423,25.226777
227.356529,25.280970
227.452200,25.300000
230.452200,25.300000
230.547871,25.280970
230.628977,25.226777
230.683170,25.145671
230.702200,25.050000
Z" /> 
</g>
<g style="fill:#000000; fill-opacity:1.000000; stroke:none;">
<circle cx="218.252200" cy="31.300000" r="1.000000" /> 
</g>
<g style="fill:#000000; fill-opacity:1.000000; stroke:none;">
<circle cx="218.250940" cy="44.139273" r="1.000000" /> 
</g>
<g style="fill:#000000; fill-opacity:1.000000; stroke:none;">
<circle cx="236.352200" cy="29.700000" r="1.000000" /> 
</g>
<g style="fill:#000000; fill-opacity:1.000000; stroke:none;">
<circle cx="236.302200" cy="35.050000" r="1.000000" /> 
</g>
<g style="fill:none; 
stroke:#000000; stroke-width:1.000000; stroke-opacity:1; 
stroke-linecap:round; stroke-linejoin:round;">
<path d="M217.202200 36.362500
L217.202200 34.500000
" />
<path d="M217.202200 34.500000
L215.952200 33.250000
" />
<path d="M221.532200 36.380000
L217.219700 36.380000
" />
</g>
<g style="fill:none; 
stroke:#000000; stroke-width:0.800000; stroke-opacity:1; 
stroke-linecap:round; stroke-linejoin:round;">
<path d="M229.152200 33.840000
L227.669738 33.840000
" />
</g>
<g style="fill:none; 
stroke:#000000; stroke-width:1.000000; stroke-opacity:1; 
stroke-linecap:round; stroke-linejoin:round;">
<path d="M215.952200 25.850000
L217.802200 24.000000
" />
<path d="M217.802200 24.000000
L220.402200 24.000000
" />
</g>
<g style="fill:none; 
stroke:#000000; stroke-width:0.800000; stroke-opacity:1; 
stroke-linecap:round; stroke-linejoin:round;">
<path d="M225.129738 36.380000
L221.532200 36.380000
" />
<path d="M227.669738 33.840000
L225.129738 36.380000
" />
</g>
<g style="fill:none; 
stroke:#000000; stroke-width:1.000000; stroke-opacity:1; 
stroke-linecap:round; stroke-linejoin:round;">
<path d="M215.952200 33.250000
L215.952200 25.850000
" />
<path d="M217.219700 36.380000
L217.202200 36.362500
" />
<path d="M221.532200 41.795000
L221.527200 41.800000
" />
<path d="M221.532200 38.920000
L221.532200 41.795000
" />
</g>
<g style="fill:none; 
stroke:#000000; stroke-width:1.500000; stroke-opacity:1; 
stroke-linecap:round; stroke-linejoin:round;">
<path d="M263.552200 32.850000
L260.352200 29.650000
" />
<path d="M255.592200 29.650000
L254.202200 31.040000
" />
<path d="M270.802200 32.850000
L263.552200 32.850000
" />
<path d="M260.352200 29.650000
L255.592200 29.650000
" />
</g>
<g style="fill:none; 
stroke:#000000; stroke-width:1.000000; stroke-opacity:1; 
stroke-linecap:round; stroke-linejoin:round;">
<path d="M234.902200 32.600000
L244.802200 32.600000
" />
<path d="M231.122200 36.380000
L234.902200 32.600000
" />
<path d="M244.802200 32.600000
L249.502200 37.300000
" />
<path d="M251.882200 37.300000
L251.922200 37.340000
" />
<path d="M229.152200 36.380000
L231.122200 36.380000
" />
<path d="M249.502200 37.300000
L251.882200 37.300000
" />
</g>
<g style="fill:none; 
stroke:#000000; stroke-width:1.500000; stroke-opacity:1; 
stroke-linecap:round; stroke-linejoin:round;">
<path d="M231.752200 41.900000
L230.002200 41.900000
" />
<path d="M230.552200 41.900000
L229.152200 40.500000
" />
</g>
<g style="fill:none; 
stroke:#000000; stroke-width:0.800000; stroke-opacity:1; 
stroke-linecap:round; stroke-linejoin:round;">
<path d="M221.532200 29.670000
L221.532200 31.300000
" />
</g>
<g style="fill:none; 
stroke:#000000; stroke-width:1.500000; stroke-opacity:1; 
stroke-linecap:round; stroke-linejoin:round;">
<path d="M270.802200 35.350000
L270.802200 39.450000
" />
<path d="M235.352200 41.900000
L231.752200 41.900000
" />
<path d="M231.752200 41.900000
L230.552200 41.900000
" />
</g>
<g style="fill:none; 
stroke:#000000; stroke-width:0.800000; stroke-opacity:1; 
stroke-linecap:round; stroke-linejoin:round;">
<path d="M223.402200 28.750000
L222.452200 28.750000
" />
</g>
<g style="fill:none; 
stroke:#000000; stroke-width:1.500000; stroke-opacity:1; 
stroke-linecap:round; stroke-linejoin:round;">
<path d="M268.352200 41.900000
L269.777200 40.475000
" />
<path d="M270.802200 39.450000
L269.777200 40.475000
" />
<path d="M229.152200 38.920000
L229.152200 42.750000
" />
<path d="M229.152200 40.500000
L229.152200 38.920000
" />
<path d="M227.762927 44.139273
L218.250940 44.139273
" />
<path d="M228.977200 42.925000
L228.302200 43.600000
" />
</g>
<g style="fill:none; 
stroke:#000000; stroke-width:0.800000; stroke-opacity:1; 
stroke-linecap:round; stroke-linejoin:round;">
<path d="M219.052200 31.300000
L218.252200 31.300000
" />
</g>
<g style="fill:none; 
stroke:#000000; stroke-width:1.500000; stroke-opacity:1; 
stroke-linecap:round; stroke-linejoin:round;">
<path d="M235.352200 41.900000
L268.352200 41.900000
" />
</g>
<g style="fill:none; 
stroke:#000000; stroke-width:0.800000; stroke-opacity:1; 
stroke-linecap:round; stroke-linejoin:round;">
<path d="M222.452200 28.750000
L221.532200 29.670000
" />
</g>
<g style="fill:none; 
stroke:#000000; stroke-width:1.500000; stroke-opacity:1; 
stroke-linecap:round; stroke-linejoin:round;">
<path d="M230.002200 41.900000
L228.977200 42.925000
" />
</g>
<g style="fill:none; 
stroke:#000000; stroke-width:0.800000; stroke-opacity:1; 
stroke-linecap:round; stroke-linejoin:round;">
<path d="M221.532200 31.300000
L219.052200 31.300000
" />
</g>
<g style="fill:none; 
stroke:#000000; stroke-width:1.500000; stroke-opacity:1; 
stroke-linecap:round; stroke-linejoin:round;">
<path d="M229.152200 42.750000
L228.977200 42.925000
" />
<path d="M228.302200 43.600000
L227.762927 44.139273
" />
</g>
<g style="fill:none; 
stroke:#000000; stroke-width:0.800000; stroke-opacity:1; 
stroke-linecap:round; stroke-linejoin:round;">
<path d="M225.402200 28.750000
L226.952200 28.750000
" />
<path d="M224.062200 33.840000
L225.402200 32.500000
" />
<path d="M221.532200 33.840000
L224.062200 33.840000
" />
</g>
<g style="fill:none; 
stroke:#000000; stroke-width:1.500000; stroke-opacity:1; 
stroke-linecap:round; stroke-linejoin:round;">
<path d="M233.952200 20.400000
L234.102200 20.550000
" />
</g>
<g style="fill:none; 
stroke:#000000; stroke-width:0.800000; stroke-opacity:1; 
stroke-linecap:round; stroke-linejoin:round;">
<path d="M229.202200 26.500000
L233.002200 26.500000
" />
<path d="M225.402200 32.500000
L225.402200 28.750000
" />
<path d="M233.952200 25.550000
L233.952200 24.400000
" />
<path d="M233.002200 26.500000
L233.952200 25.550000
" />
</g>
<g style="fill:none; 
stroke:#000000; stroke-width:1.500000; stroke-opacity:1; 
stroke-linecap:round; stroke-linejoin:round;">
<path d="M234.102200 24.250000
L233.952200 24.400000
" />
</g>
<g style="fill:none; 
stroke:#000000; stroke-width:0.800000; stroke-opacity:1; 
stroke-linecap:round; stroke-linejoin:round;">
<path d="M226.952200 28.750000
L229.202200 26.500000
" />
</g>
<g style="fill:none; 
stroke:#000000; stroke-width:1.500000; stroke-opacity:1; 
stroke-linecap:round; stroke-linejoin:round;">
<path d="M234.102200 20.550000
L234.102200 24.250000
" />
</g>
<g style="fill:none; 
stroke:#000000; stroke-width:1.000000; stroke-opacity:1; 
stroke-linecap:round; stroke-linejoin:round;">
<path d="M224.752200 20.300000
L223.552200 21.500000
" />
<path d="M228.952200 20.400000
L228.852200 20.300000
" />
<path d="M223.552200 21.500000
L220.402200 21.500000
" />
<path d="M228.852200 20.300000
L224.752200 20.300000
" />
<path d="M228.852200 24.300000
L225.852200 24.300000
" />
<path d="M225.852200 24.300000
L223.652200 26.500000
" />
<path d="M228.952200 24.400000
L228.852200 24.300000
" />
<path d="M223.652200 26.500000
L220.402200 26.500000
" />
</g>
<g style="fill:none; 
stroke:#000000; stroke-width:1.500000; stroke-opacity:1; 
stroke-linecap:round; stroke-linejoin:round;">
<path d="M243.752200 29.700000
L249.867200 23.585000
" />
<path d="M236.352200 29.700000
L243.752200 29.700000
" />
<path d="M249.867200 23.585000
L263.272200 23.585000
" />
<path d="M235.352200 36.000000
L236.302200 35.050000
" />
<path d="M235.352200 39.400000
L235.352200 36.000000
" />
<path style="fill:#000000; fill-opacity:1.000000; stroke:none;fill-rule:evenodd;"
d="M 236.350177,18.970185
236.304422,19.022989
236.294478,19.092147
236.321362,19.153164
236.329883,19.163546
236.427431,19.346043
236.487501,19.544067
236.502700,19.698395
236.502700,21.101604
236.487501,21.255932
236.487500,21.255934
236.427432,21.453954
236.329885,21.636450
236.329884,21.636451
236.329883,21.636452
236.198611,21.796410
236.101991,21.875702
236.038650,21.927685
235.856154,22.025232
235.740703,22.060253
235.682267,22.098548
235.653810,22.162360
235.652700,22.178912
235.652700,22.621086
235.672385,22.688125
235.725189,22.733880
235.740704,22.739746
235.856154,22.774767
235.972242,22.836819
236.038650,22.872315
236.038652,22.872316
236.038653,22.872317
236.198611,23.003589
236.329883,23.163547
236.329884,23.163548
236.329885,23.163550
236.365009,23.229262
236.427431,23.346043
236.487501,23.544067
236.502700,23.698395
236.502700,25.101604
236.487501,25.255932
236.473981,25.300500
236.427432,25.453954
236.329885,25.636450
236.313583,25.656314
236.198611,25.796410
236.123797,25.857807
236.038650,25.927685
235.856154,26.025232
235.658134,26.085300
235.658135,26.085300
235.643250,26.086766
235.503808,26.100500
235.095047,26.100500
235.028008,26.120185
234.984563,26.168203
234.978960,26.179199
234.867890,26.332074
233.784273,27.415690
233.631399,27.526760
233.551853,27.567290
233.463037,27.612545
233.463035,27.612545
233.463032,27.612547
233.366703,27.643846
233.283319,27.670940
233.096686,27.700500
233.096681,27.700500
232.907718,27.700500
229.750826,27.700500
229.683787,27.720185
229.663145,27.736819
227.734273,29.665690
227.581399,29.776760
227.501853,29.817290
227.413037,29.862545
227.413035,29.862545
227.413032,29.862547
227.343692,29.885077
227.233319,29.920940
227.046686,29.950500
227.046681,29.950500
226.857718,29.950500
226.726700,29.950500
226.659661,29.970185
226.613906,30.022989
226.602700,30.074500
226.602700,32.594486
226.573141,32.781118
226.546323,32.863651
226.514747,32.960832
226.514746,32.960835
226.513241,32.965465
226.514707,32.965941
226.507976,33.028648
226.539262,33.091121
226.599357,33.126763
226.669181,33.124258
226.717683,33.094291
226.887662,32.924312
226.887664,32.924310
227.040539,32.813240
227.071725,32.797350
227.208902,32.727454
227.388620,32.669059
227.511829,32.649545
227.574964,32.619616
227.611895,32.560304
227.610897,32.490441
227.591697,32.452760
227.508848,32.342089
227.508846,32.342086
227.458604,32.207379
227.458602,32.207372
227.452201,32.147844
227.452200,32.147827
227.452200,31.550000
228.836514,31.550000
228.832120,31.545606
228.779459,31.454394
228.752200,31.352661
228.752200,31.247339
228.779459,31.145606
228.832120,31.054394
228.836514,31.050000
227.452200,31.050000
227.452200,30.452172
227.452201,30.452155
227.458602,30.392627
227.458604,30.392620
227.508846,30.257913
227.508850,30.257906
227.595010,30.142812
227.595013,30.142809
227.710107,30.056649
227.710114,30.056645
227.844821,30.006403
227.844828,30.006401
227.904356,30.000000
228.902200,30.000000
228.902200,30.984314
228.906594,30.979920
228.997806,30.927259
229.099539,30.900000
229.204861,30.900000
229.306594,30.927259
229.397806,30.979920
229.402200,30.984314
229.402200,30.000000
230.400045,30.000000
230.459573,30.006401
230.459580,30.006403
230.594287,30.056645
230.594294,30.056649
230.709388,30.142809
230.709391,30.142812
230.795551,30.257906
230.795555,30.257913
230.845797,30.392620
230.845799,30.392627
230.852200,30.452155
230.852200,31.050000
229.467886,31.050000
229.472280,31.054394
229.524941,31.145606
229.552200,31.247339
229.552200,31.352661
229.524941,31.454394
229.472280,31.545606
229.467886,31.550000
230.852200,31.550000
230.852200,32.147844
230.845799,32.207372
230.845797,32.207379
230.795555,32.342086
230.795551,32.342093
230.709391,32.457187
230.665792,32.489826
230.623922,32.545760
230.618938,32.615452
230.652422,32.676773
230.773000,32.797351
230.921068,33.001151
231.035440,33.225616
231.113290,33.465214
231.152700,33.714038
231.152700,33.965962
231.132056,34.096300
231.113290,34.214785
231.111688,34.219717
231.109694,34.289558
231.145776,34.349391
231.208478,34.380217
231.277892,34.372251
231.317301,34.345714
234.054979,31.608036
234.054981,31.608034
234.220589,31.487713
234.311786,31.441246
234.328590,31.432684
234.402977,31.394781
234.449685,31.379604
234.500324,31.363151
234.532609,31.352661
234.597665,31.331522
234.772205,31.303878
234.799848,31.299500
234.799849,31.299500
235.112983,31.299500
235.180022,31.279815
235.225777,31.227011
235.235721,31.157853
235.206696,31.094297
235.197331,31.084607
235.028639,30.928085
234.860385,30.717102
234.725457,30.483398
234.626866,30.232195
234.566817,29.969103
234.549375,29.736349
234.546651,29.700004
234.546651,29.699995
234.566817,29.430898
234.576407,29.388881
234.626866,29.167805
234.725457,28.916602
234.860385,28.682898
235.028639,28.471915
235.028640,28.471914
235.028643,28.471910
235.226459,28.288365
235.449425,28.136349
235.449429,28.136347
235.449432,28.136345
235.449433,28.136344
235.692557,28.019263
235.692555,28.019263
235.950427,27.939720
235.950433,27.939718
236.217264,27.899500
236.217271,27.899500
236.487129,27.899500
236.487137,27.899500
236.753968,27.939718
236.753974,27.939720
237.011845,28.019263
237.256784,28.137220
237.310585,28.149500
243.058600,28.149500
243.125639,28.129815
243.146281,28.113181
248.857119,22.402343
248.857124,22.402339
249.054558,22.258896
249.054559,22.258895
249.054561,22.258894
249.189697,22.190039
243.252700,22.190039
243.252700,24.819960
243.237570,24.954249
243.237569,24.954254
243.177989,25.124523
243.106542,25.238229
243.082016,25.277262
242.954462,25.404816
242.801722,25.500789
242.746880,25.519979
242.631455,25.560368
242.631450,25.560369
242.540954,25.570565
242.497160,25.575499
242.497157,25.575500
242.497154,25.575500
239.867243,25.575500
239.867242,25.575499
239.800096,25.567934
239.732951,25.560369
239.732948,25.560368
239.732945,25.560368
239.562678,25.500789
239.409938,25.404816
239.282384,25.277262
239.186411,25.124522
239.126832,24.954255
239.111700,24.819954
239.111700,22.190046
239.122009,22.098548
239.126831,22.055750
239.126832,22.055745
239.171643,21.927682
239.186411,21.885478
239.282384,21.732738
239.409938,21.605184
239.562677,21.509211
239.732946,21.449631
239.732951,21.449630
239.867240,21.434500
239.867246,21.434500
242.497154,21.434500
242.497161,21.434500
242.631450,21.449630
242.631455,21.449631
242.801724,21.509211
242.954463,21.605184
243.082016,21.732737
243.177989,21.885476
243.237569,22.055745
243.237570,22.055750
243.252700,22.190039
249.189697,22.190039
249.272015,22.148096
249.504124,22.072679
249.504126,22.072678
249.504128,22.072678
249.672431,22.046021
249.745173,22.034500
249.745174,22.034500
260.272700,22.034500
260.339739,22.014815
260.385494,21.962011
260.396700,21.910500
260.396700,21.624515
260.402539,21.570736
260.415466,21.451660
260.426887,21.399679
260.437168,21.358173
260.504336,21.190771
260.607070,21.042511
260.653045,20.989898
260.653058,20.989885
260.653065,20.989877
260.722288,20.919813
260.722290,20.919812
260.869297,20.815297
261.035868,20.746117
261.035889,20.746110
261.102990,20.726710
261.150751,20.714473
261.330068,20.695025
261.330071,20.695025
261.476339,20.695634
273.080440,20.743984
273.255129,20.763901
273.307601,20.775793
273.350883,20.786873
273.350900,20.786879
273.517683,20.855546
273.517685,20.855547
273.608669,20.919812
273.665017,20.959612
273.665023,20.959617
273.717203,21.006047
273.717225,21.006068
273.786665,21.075921
273.786666,21.075922
273.889861,21.223871
273.889862,21.223872
273.957540,21.391058
273.957546,21.391077
273.976341,21.458345
273.988148,21.506209
273.988150,21.506216
274.005985,21.685708
273.959241,25.238219
273.959241,25.238227
273.959240,25.238229
273.946015,25.350781
273.939757,25.404033
273.928572,25.453874
273.919954,25.488639
273.861361,25.636450
273.853486,25.656316
273.751371,25.805002
273.705616,25.857806
273.636663,25.928180
273.490091,26.033308
273.323802,26.103185
273.265907,26.120185
273.256746,26.122875
273.209069,26.135303
273.209064,26.135303
273.209062,26.135304
273.029826,26.155499
273.029825,26.155500
272.478179,26.155500
272.411140,26.175185
272.365385,26.227989
272.355441,26.297147
272.367695,26.335796
272.377872,26.355767
272.377875,26.355774
272.440497,26.548506
272.440497,26.548509
272.448652,26.600000
271.164080,26.600000
271.191422,26.647358
271.227200,26.780882
271.227200,26.919118
271.191422,27.052642
271.164080,27.100000
272.448652,27.100000
272.440497,27.151490
272.440497,27.151493
272.377875,27.344225
272.377873,27.344228
272.285869,27.524797
272.166748,27.688751
272.166748,27.688752
272.023453,27.832047
271.859498,27.951168
271.678929,28.043172
271.678926,28.043174
271.486192,28.105796
271.286027,28.137500
270.952200,28.137500
270.952200,27.311879
270.904842,27.339222
270.771318,27.375000
270.633082,27.375000
270.499558,27.339222
270.452200,27.311879
270.452200,28.137500
270.118373,28.137500
269.918209,28.105796
269.725475,28.043174
269.725472,28.043172
269.544903,27.951168
269.380949,27.832047
269.380948,27.832047
269.237653,27.688752
269.237653,27.688751
269.118532,27.524797
269.026528,27.344228
269.026526,27.344225
268.963904,27.151493
268.963904,27.151490
268.955748,27.100000
270.240320,27.100000
270.212978,27.052642
270.177200,26.919118
270.177200,26.780882
270.212978,26.647358
270.240320,26.600000
268.955748,26.600000
268.963904,26.548509
268.963904,26.548506
269.026526,26.355774
269.026529,26.355767
269.036705,26.335796
269.049602,26.267127
269.023327,26.202386
268.966221,26.162129
268.926221,26.155500
261.326209,26.155500
261.326200,26.155500
261.154972,26.137090
261.103461,26.125884
261.063565,26.116134
260.895884,26.049665
260.747198,25.947550
260.694394,25.901795
260.624020,25.832842
260.518892,25.686270
260.449015,25.519981
260.429330,25.452942
260.429325,25.452924
260.416897,25.405247
260.416759,25.404028
260.400073,25.255934
260.398910,25.245616
260.371843,25.181202
260.314248,25.141647
260.275690,25.135500
250.560800,25.135500
250.493761,25.155185
250.473119,25.171819
244.762282,30.882656
244.762277,30.882660
244.564844,31.026103
244.564842,31.026104
244.564839,31.026106
244.488475,31.065015
244.437679,31.112989
244.420884,31.180810
244.443421,31.246945
244.498136,31.290397
244.544770,31.299500
244.904552,31.299500
245.091183,31.329060
245.104962,31.331242
245.106741,31.331524
245.301416,31.394777
245.301418,31.394778
245.375810,31.432684
245.483814,31.487715
245.649414,31.608028
245.649418,31.608032
250.004566,35.963181
250.065889,35.996666
250.092247,35.999500
250.568906,35.999500
250.635945,35.979815
250.678264,35.933954
250.694515,35.903550
250.763849,35.819066
250.825790,35.743589
250.955764,35.636924
250.985750,35.612315
251.168246,35.514768
251.366266,35.454700
251.366268,35.454699
251.366266,35.454699
251.485395,35.442966
251.520592,35.439500
252.323808,35.439500
252.361902,35.443251
252.478133,35.454699
252.676157,35.514769
252.786302,35.573643
252.858650,35.612315
252.858652,35.612316
252.858653,35.612317
253.018611,35.743589
253.149883,35.903547
253.247431,36.086043
253.307501,36.284067
253.322700,36.438395
253.322700,38.241604
253.307501,38.395932
253.290406,38.452285
253.247432,38.593954
253.149885,38.776450
253.144708,38.782758
253.018611,38.936410
252.921991,39.015702
252.858650,39.067685
252.676154,39.165232
252.478134,39.225300
252.478135,39.225300
252.439553,39.229100
252.323808,39.240500
252.323805,39.240500
251.520595,39.240500
251.520592,39.240500
251.366266,39.225300
251.168246,39.165232
250.985750,39.067685
250.825790,38.936410
250.694515,38.776450
250.635502,38.666044
250.586541,38.616202
250.526145,38.600500
249.399849,38.600500
249.399848,38.600500
249.197665,38.568477
249.099236,38.536495
249.002981,38.505220
248.899094,38.452287
248.820589,38.412287
248.654981,38.291966
246.640171,36.277155
242.912200,36.277155
242.912200,37.345000
241.517478,37.345000
241.561533,37.421306
241.592200,37.535756
241.592200,37.654244
241.561533,37.768694
241.517478,37.845000
242.912200,37.845000
242.912200,38.912844
242.905799,38.972372
242.905797,38.972379
242.855555,39.107086
242.855551,39.107093
242.769391,39.222187
242.769388,39.222190
242.654294,39.308350
242.654287,39.308354
242.519580,39.358596
242.519573,39.358598
242.460045,39.364999
242.460028,39.365000
241.392200,39.365000
241.392200,37.970277
241.315894,38.014333
241.201444,38.045000
241.082956,38.045000
240.968506,38.014333
240.892200,37.970277
240.892200,39.365000
239.824372,39.365000
239.824356,39.364999
239.764828,39.358598
239.764821,39.358596
239.630114,39.308354
239.630107,39.308350
239.515013,39.222190
239.515010,39.222187
239.428850,39.107093
239.428846,39.107086
239.378604,38.972379
239.378602,38.972372
239.372201,38.912844
239.372200,38.912827
239.372200,37.845000
240.766922,37.845000
240.722867,37.768694
240.692200,37.654244
240.692200,37.535756
240.722867,37.421306
240.766922,37.345000
239.372200,37.345000
239.372200,36.277172
239.372201,36.277155
239.378602,36.217627
239.378604,36.217620
239.428846,36.082913
239.428850,36.082906
239.515010,35.967812
239.515013,35.967809
239.630107,35.881649
239.630114,35.881645
239.764821,35.831403
239.764828,35.831401
239.824356,35.825000
240.892200,35.825000
240.892200,37.219722
240.968506,37.175667
241.082956,37.145000
241.201444,37.145000
241.315894,37.175667
241.392200,37.219722
241.392200,35.825000
242.460045,35.825000
242.519573,35.831401
242.519580,35.831403
242.654287,35.881645
242.654294,35.881649
242.769388,35.967809
242.769391,35.967812
242.855551,36.082906
242.855555,36.082913
242.905797,36.217620
242.905799,36.217627
242.912200,36.277155
246.640171,36.277155
244.299835,33.936818
244.238512,33.903334
244.212154,33.900500
237.932349,33.900500
237.865310,33.920185
237.819555,33.972989
237.809611,34.042147
237.824962,34.086500
237.928942,34.266599
237.928944,34.266603
238.027534,34.517804
238.027536,34.517811
238.087584,34.780898
238.107749,35.049995
238.107749,35.050004
238.087584,35.319101
238.027536,35.582188
238.027534,35.582195
237.945329,35.791649
237.928943,35.833398
237.794015,36.067102
237.698262,36.187172
237.625758,36.278089
237.542690,36.355164
237.427941,36.461635
237.204974,36.613651
237.204969,36.613653
237.204968,36.613654
237.204967,36.613655
237.097827,36.665250
236.972898,36.725413
236.921039,36.772234
236.902700,36.837132
236.902700,38.170868
236.922385,38.237907
236.939019,38.258549
237.045956,38.365485
237.045956,38.365486
237.045958,38.365488
237.109020,38.452285
237.192879,38.567706
237.306356,38.790415
237.383598,39.028142
237.422700,39.275022
237.422700,39.524977
237.383598,39.771857
237.306356,40.009584
237.225024,40.169205
237.212128,40.237874
237.238404,40.302615
237.295511,40.342872
237.335509,40.349500
267.658600,40.349500
267.725639,40.329815
267.746281,40.313181
269.215381,38.844081
269.248866,38.782758
269.251700,38.756400
269.251700,36.579132
269.232015,36.512093
269.215381,36.491451
269.162322,36.438392
269.108442,36.384512
268.965053,36.187155
265.082200,36.187155
265.082200,37.255000
263.687478,37.255000
263.731533,37.331306
263.762200,37.445756
263.762200,37.564244
263.731533,37.678694
263.687478,37.755000
265.082200,37.755000
265.082200,38.822844
265.075799,38.882372
265.075797,38.882379
265.025555,39.017086
265.025551,39.017093
264.939391,39.132187
264.939388,39.132190
264.824294,39.218350
264.824287,39.218354
264.689580,39.268596
264.689573,39.268598
264.630045,39.274999
264.630028,39.275000
263.562200,39.275000
263.562200,37.880277
263.485894,37.924333
263.371444,37.955000
263.252956,37.955000
263.138506,37.924333
263.062200,37.880277
263.062200,39.275000
261.994372,39.275000
261.994356,39.274999
261.934828,39.268598
261.934821,39.268596
261.800114,39.218354
261.800107,39.218350
261.685013,39.132190
261.685010,39.132187
261.598850,39.017093
261.598846,39.017086
261.548604,38.882379
261.548602,38.882372
261.542201,38.822844
261.542200,38.822827
261.542200,38.239986
257.582199,38.239986
257.571706,38.342697
257.516559,38.509119
257.516557,38.509124
257.424516,38.658345
257.300546,38.782315
257.151325,38.874356
257.151320,38.874358
256.984898,38.929505
256.984891,38.929506
256.882181,38.939999
256.732201,38.939999
256.232200,38.939999
256.082228,38.939999
256.082214,38.939998
255.979503,38.929505
255.813081,38.874358
255.813076,38.874356
255.663855,38.782315
255.539885,38.658345
255.447844,38.509124
255.447842,38.509119
255.392695,38.342697
255.392694,38.342690
255.382201,38.239986
255.382200,38.239973
255.382200,37.590000
256.232200,37.590000
256.232200,38.939999
256.732201,38.939999
256.732200,38.939998
256.732200,37.590000
257.582199,37.590000
257.582199,38.239986
261.542200,38.239986
261.542200,37.755000
262.936922,37.755000
262.892867,37.678694
262.862200,37.564244
262.862200,37.445756
262.892867,37.331306
262.936922,37.255000
261.542200,37.255000
261.542200,36.440013
257.582200,36.440013
257.582200,37.090000
256.732200,37.090000
256.232200,37.090000
255.382201,37.090000
255.382201,36.440028
255.382202,36.440013
255.392695,36.337302
255.447842,36.170880
255.447844,36.170875
255.539885,36.021654
255.663855,35.897684
255.813076,35.805643
255.813081,35.805641
255.979503,35.750494
255.979510,35.750493
256.082214,35.740000
256.232200,35.740000
256.232200,37.090000
256.732200,37.090000
256.732200,35.740000
256.882173,35.740000
256.882188,35.740001
256.984898,35.750494
257.151320,35.805641
257.151325,35.805643
257.300546,35.897684
257.424516,36.021654
257.516557,36.170875
257.516559,36.170880
257.571706,36.337302
257.571707,36.337309
257.582200,36.440013
261.542200,36.440013
261.542200,36.187172
261.542201,36.187155
261.548602,36.127627
261.548604,36.127620
261.598846,35.992913
261.598850,35.992906
261.685010,35.877812
261.685013,35.877809
261.800107,35.791649
261.800114,35.791645
261.934821,35.741403
261.934828,35.741401
261.994356,35.735000
263.062200,35.735000
263.062200,37.129722
263.138506,37.085667
263.252956,37.055000
263.371444,37.055000
263.485894,37.085667
263.562200,37.129722
263.562200,35.735000
264.630045,35.735000
264.689573,35.741401
264.689580,35.741403
264.824287,35.791645
264.824294,35.791649
264.939388,35.877809
264.939391,35.877812
265.025551,35.992906
265.025555,35.992913
265.075797,36.127620
265.075799,36.127627
265.082200,36.187155
268.965053,36.187155
268.961521,36.182293
268.848043,35.959580
268.770802,35.721857
268.731700,35.474978
268.731700,35.225022
268.770802,34.978143
268.848043,34.740420
268.848045,34.740417
268.848045,34.740415
268.929376,34.580795
268.942272,34.512126
268.915996,34.447385
268.858889,34.407128
268.818891,34.400500
263.430174,34.400500
263.430173,34.400500
263.189124,34.362321
262.957015,34.286904
262.739561,34.176106
262.542117,34.032655
259.746281,31.236819
259.684958,31.203334
259.658600,31.200500
258.026700,31.200500
257.959661,31.220185
257.913906,31.272989
257.902700,31.324500
257.902700,31.388386
257.902700,31.388392
257.902700,34.041608
257.897222,34.097221
257.892727,34.142863
257.887501,34.195933
257.887500,34.195936
257.827432,34.393956
257.827431,34.393959
257.827430,34.393960
257.827429,34.393963
257.729890,34.576446
257.729886,34.576453
257.598612,34.736411
257.438654,34.867685
257.438647,34.867689
257.256164,34.965228
257.256163,34.965228
257.256156,34.965232
257.058136,35.025300
257.058137,35.025300
257.029727,35.028098
256.922111,35.038697
256.914915,35.040500
256.909900,35.040500
256.898542,35.041057
256.892451,35.040500
254.542996,35.040500
254.542980,35.040499
253.858943,35.040499
253.858919,35.040500
253.853808,35.040500
251.500596,35.040500
251.500592,35.040500
251.376664,35.028293
251.346264,35.025300
251.148244,34.965232
250.965748,34.867686
250.805789,34.736411
250.674514,34.576452
250.576968,34.393956
250.516900,34.195936
250.501700,34.041611
250.501701,30.697741
250.501700,30.697721
250.501700,28.038395
250.501701,28.038389
250.516303,27.890127
250.516453,27.887078
250.516900,27.884065
250.516900,27.884064
250.576968,27.686044
250.576972,27.686036
250.674511,27.503553
250.674515,27.503546
250.805789,27.343588
250.965747,27.212314
250.965754,27.212310
251.148237,27.114771
251.148240,27.114770
251.148241,27.114769
251.148244,27.114768
251.346264,27.054700
251.346266,27.054699
251.346264,27.054699
251.465393,27.042966
251.500589,27.039500
251.500592,27.039500
253.853808,27.039500
253.853813,27.039500
254.550587,27.039500
254.550592,27.039500
256.903808,27.039500
257.027736,27.051706
257.027737,27.051706
257.058133,27.054699
257.058136,27.054700
257.256156,27.114768
257.256159,27.114769
257.256161,27.114770
257.256164,27.114771
257.438647,27.212310
257.438654,27.212314
257.598612,27.343588
257.729886,27.503546
257.729890,27.503553
257.827429,27.686036
257.827430,27.686039
257.887501,27.884065
257.897703,27.987654
257.923864,28.052441
257.980898,28.092800
258.021106,28.099500
260.230173,28.099500
260.474227,28.099500
260.530107,28.108350
260.715273,28.137678
260.947388,28.213097
261.164843,28.323896
261.362277,28.467339
261.362282,28.467343
264.158119,31.263181
264.219442,31.296666
264.245800,31.299500
269.037952,31.299500
269.078905,31.292542
269.122945,31.277132
269.122954,31.277130
269.257240,31.262000
269.257246,31.262000
272.347154,31.262000
272.347161,31.262000
272.481450,31.277130
272.481455,31.277131
272.651724,31.336711
272.804463,31.432684
272.932016,31.560237
273.027989,31.712976
273.087569,31.883245
273.087570,31.883250
273.102700,32.017539
273.102700,33.682460
273.087570,33.816749
273.087569,33.816754
273.027989,33.987023
272.965483,34.086500
272.932016,34.139762
272.804462,34.267316
272.769064,34.289558
272.680840,34.344993
272.634549,34.397328
272.623901,34.466382
272.641077,34.514765
272.642877,34.517701
272.756356,34.740415
272.833598,34.978142
272.851322,35.090047
272.872700,35.225022
272.872700,35.474978
272.849565,35.621043
272.833598,35.721857
272.756356,35.959584
272.670733,36.127627
272.642879,36.182293
272.495958,36.384512
272.495956,36.384514
272.389019,36.491451
272.355534,36.552774
272.352700,36.579132
272.352700,39.572026
272.323111,39.758845
272.314521,39.813076
272.239104,40.045185
272.128496,40.262267
272.128304,40.262642
271.984861,40.460076
271.984857,40.460081
269.362282,43.082656
269.362277,43.082660
269.307894,43.122171
269.164839,43.226106
268.947385,43.336904
268.715276,43.412321
268.474227,43.450500
236.886448,43.450500
236.845495,43.457458
236.832247,43.462093
236.801455,43.472868
236.801448,43.472868
236.801447,43.472869
236.758715,43.477683
236.667160,43.487999
236.667157,43.488000
236.667154,43.488000
234.037243,43.488000
234.037242,43.487999
233.902945,43.472868
233.868531,43.460825
233.858905,43.457458
233.817952,43.450500
231.874227,43.450500
230.695800,43.450500
230.628761,43.470185
230.608119,43.486819
228.773009,45.321929
228.773004,45.321933
228.600791,45.447052
228.575566,45.465379
228.358112,45.576177
228.126003,45.651594
227.884954,45.689773
227.640900,45.689773
219.209325,45.689773
219.155524,45.702053
219.023202,45.765775
218.910585,45.820009
218.910584,45.820009
218.910581,45.820011
218.652712,45.899553
218.652711,45.899553
218.652708,45.899554
218.385877,45.939772
218.385872,45.939772
218.385869,45.939773
218.385868,45.939773
218.116012,45.939773
218.116011,45.939773
218.116004,45.939772
217.849173,45.899554
217.849172,45.899553
217.849168,45.899553
217.591299,45.820011
217.348165,45.702924
217.125199,45.550908
216.927379,45.367358
216.759125,45.156375
216.624197,44.922671
216.525606,44.671468
216.465557,44.408376
216.445391,44.139273
216.465557,43.870170
216.525606,43.607078
216.624197,43.355875
216.759125,43.122171
216.927379,42.911188
216.927380,42.911187
216.927383,42.911183
217.125199,42.727638
217.348165,42.575622
217.348169,42.575620
217.348172,42.575618
217.348173,42.575617
217.591297,42.458536
217.591295,42.458536
217.849167,42.378993
217.849173,42.378991
218.116004,42.338773
218.116011,42.338773
218.240700,42.338773
218.307739,42.319088
218.353494,42.266284
218.364700,42.214773
218.364700,42.050000
219.578200,42.050000
219.645239,42.030315
219.690994,41.977511
219.702200,41.926000
219.702200,41.550000
219.202200,41.550000
218.364701,41.550000
218.364701,41.275028
218.364702,41.275013
218.375195,41.172302
218.430342,41.005880
218.430344,41.005875
218.522385,40.856654
218.646355,40.732684
218.795576,40.640643
218.795581,40.640641
218.962003,40.585494
218.962010,40.585493
219.064714,40.575000
219.202200,40.575000
219.202200,41.550000
219.702200,41.550000
219.702200,40.575000
219.839673,40.575000
219.839688,40.575001
219.942398,40.585494
220.068696,40.627345
220.138525,40.629747
220.198567,40.594015
220.229759,40.531494
220.231700,40.509639
220.231700,40.307256
220.212015,40.240217
220.180588,40.206939
220.089544,40.140793
219.911407,39.962656
219.763330,39.758845
219.648959,39.534379
219.571110,39.294785
219.531700,39.045962
219.531700,38.824986
218.427199,38.824986
218.416706,38.927697
218.361559,39.094119
218.361557,39.094124
218.269516,39.243345
218.145546,39.367315
217.996325,39.459356
217.996320,39.459358
217.829898,39.514505
217.829891,39.514506
217.727181,39.524999
217.452201,39.524999
216.952200,39.524999
216.677228,39.524999
216.677214,39.524998
216.574503,39.514505
216.408081,39.459358
216.408076,39.459356
216.258855,39.367315
216.134885,39.243345
216.042844,39.094124
216.042842,39.094119
215.987695,38.927697
215.987694,38.927690
215.977201,38.824986
215.977200,38.824973
215.977200,38.687500
216.952200,38.687500
216.952200,39.524999
217.452201,39.524999
217.452200,39.524998
217.452200,38.687500
218.427199,38.687500
218.427199,38.824986
219.531700,38.824986
219.531700,38.794038
219.571110,38.545215
219.648959,38.305621
219.648961,38.305618
219.648961,38.305616
219.717619,38.170868
219.763330,38.081155
219.854921,37.955090
219.911376,37.877385
219.934856,37.811579
219.919030,37.743525
219.868924,37.694830
219.811058,37.680500
218.500016,37.680500
218.432977,37.700185
218.387222,37.752989
218.377278,37.822147
218.382310,37.843504
218.416706,37.947302
218.416707,37.947309
218.427200,38.050013
218.427200,38.187500
215.977201,38.187500
215.977201,38.050028
215.977202,38.050013
215.987695,37.947302
216.042842,37.780880
216.042847,37.780869
216.102077,37.684843
216.120518,37.617451
216.099596,37.550787
216.075203,37.523892
216.037008,37.492547
215.980790,37.446410
215.849515,37.286450
215.751968,37.103954
215.691900,36.905934
215.676700,36.751608
215.676700,35.973392
215.691900,35.819066
215.751968,35.621046
215.849515,35.438550
215.849518,35.438546
215.873553,35.409259
215.900866,35.344949
215.901700,35.330594
215.901700,35.090047
215.882015,35.023008
215.865381,35.002366
215.439461,34.576446
214.960234,34.097219
214.927018,34.051500
214.871688,34.008835
214.802075,34.002856
214.740280,34.035462
214.705923,34.096300
214.702700,34.124386
214.702700,47.075500
214.722385,47.142539
214.775189,47.188294
214.826700,47.199500
275.427700,47.199500
275.494739,47.179815
275.540494,47.127011
275.551700,47.075500
275.551700,19.074500
275.532015,19.007461
275.479211,18.961706
275.427700,18.950500
236.417216,18.950500
Z" /> 
<path style="fill:#000000; fill-opacity:1.000000; stroke:none;fill-rule:evenodd;"
d="M 261.259596,21.519923
261.213621,21.572536
261.202200,21.624517
261.202200,25.226000
261.221885,25.293039
261.274689,25.338794
261.326200,25.350000
269.677712,25.350000
269.716029,25.343931
269.847843,25.301102
269.847846,25.301101
270.037493,25.271064
270.094722,25.262000
271.309678,25.262000
271.356138,25.269358
271.556555,25.301101
271.627956,25.324300
271.688372,25.343931
271.726688,25.350000
273.029821,25.350000
273.096860,25.330315
273.142615,25.277511
273.153810,25.227631
273.200554,21.675108
273.181753,21.607816
273.129556,21.561370
273.077086,21.549478
261.326715,21.500518
Z" /> 
</g>
<g style="fill:#FFFFFF; fill-opacity:1.000000; stroke:none;">
<circle cx="218.252200" cy="31.300000" r="0.450000" /> 
</g>
<g style="fill:#FFFFFF; fill-opacity:1.000000; stroke:none;">
<circle cx="218.250940" cy="44.139273" r="0.450000" /> 
</g>
<g style="fill:#FFFFFF; fill-opacity:1.000000; stroke:none;">
<circle cx="236.352200" cy="29.700000" r="0.450000" /> 
</g>
<g style="fill:#FFFFFF; fill-opacity:1.000000; stroke:none;">
<circle cx="236.302200" cy="35.050000" r="0.450000" /> 
</g>
<g style="fill:#FFFFFF; fill-opacity:1.000000; stroke:none;">
<circle cx="235.352200" cy="41.900000" r="0.525000" /> 
</g>
<g style="fill:#FFFFFF; fill-opacity:1.000000; stroke:none;">
<circle cx="235.352200" cy="39.400000" r="0.525000" /> 
</g>
<g style="fill:#FFFFFF; fill-opacity:1.000000; stroke:none;">
<circle cx="220.402200" cy="21.500000" r="0.500000" /> 
</g>
<g style="fill:#FFFFFF; fill-opacity:1.000000; stroke:none;">
<circle cx="220.402200" cy="24.000000" r="0.500000" /> 
</g>
<g style="fill:#FFFFFF; fill-opacity:1.000000; stroke:none;">
<circle cx="220.402200" cy="26.500000" r="0.500000" /> 
</g>
<g style="fill:#FFFFFF; fill-opacity:1.000000; stroke:none;">
<circle cx="270.802200" cy="32.850000" r="0.525000" /> 
</g>
<g style="fill:#FFFFFF; fill-opacity:1.000000; stroke:none;">
<circle cx="270.802200" cy="35.350000" r="0.525000" /> 
</g>
<g style="fill:#FFFFFF; fill-opacity:1.000000; stroke:none;">
<circle cx="229.152200" cy="31.300000" r="0.400000" /> 
</g>
<g style="fill:#FFFFFF; fill-opacity:1.000000; stroke:none;">
<circle cx="229.152200" cy="33.840000" r="0.400000" /> 
</g>
<g style="fill:#FFFFFF; fill-opacity:1.000000; stroke:none;">
<circle cx="229.152200" cy="36.380000" r="0.400000" /> 
</g>
<g style="fill:#FFFFFF; fill-opacity:1.000000; stroke:none;">
<circle cx="229.152200" cy="38.920000" r="0.400000" /> 
</g>
<g style="fill:#FFFFFF; fill-opacity:1.000000; stroke:none;">
<circle cx="221.532200" cy="38.920000" r="0.400000" /> 
</g>
<g style="fill:#FFFFFF; fill-opacity:1.000000; stroke:none;">
<circle cx="221.532200" cy="36.380000" r="0.400000" /> 
</g>
<g style="fill:#FFFFFF; fill-opacity:1.000000; stroke:none;">
<circle cx="221.532200" cy="33.840000" r="0.400000" /> 
</g>
<g style="fill:#FFFFFF; fill-opacity:1.000000; stroke:none;">
<circle cx="221.532200" cy="31.300000" r="0.400000" /> 
</g>
<g style="fill:#FFFFFF; fill-opacity:1.000000; stroke:none;">
<circle cx="241.182200" cy="23.505000" r="0.450000" /> 
</g>
<g style="fill:#FFFFFF; fill-opacity:1.000000; stroke:none;">
<circle cx="241.142200" cy="37.595000" r="0.450000" /> 
</g>
<g style="fill:#FFFFFF; fill-opacity:1.000000; stroke:none;">
<circle cx="263.272200" cy="23.585000" r="0.450000" /> 
</g>
<g style="fill:#FFFFFF; fill-opacity:1.000000; stroke:none;">
<circle cx="263.312200" cy="37.505000" r="0.450000" /> 
</g>
<g style="fill:#FFFFFF; fill-opacity:1.000000; stroke:none;">
<circle cx="270.702200" cy="24.350000" r="0.525000" /> 
</g>
<g style="fill:#FFFFFF; fill-opacity:1.000000; stroke:none;">
<circle cx="270.702200" cy="26.850000" r="0.525000" /> 
<path style="fill:none; 
stroke:#000000; stroke-width:0.050000; stroke-opacity:1; 
stroke-linecap:round; stroke-linejoin:round;fill:none"
d="M 276.052200,18.450000
214.202200,18.450000
214.202200,47.700000
276.052200,47.700000
Z" /> 
</g> 
</svg>
