<?xml version="1.0" standalone="no"?>
 <!DOCTYPE svg PUBLIC "-//W3C//DTD SVG 1.1//EN" 
 "http://www.w3.org/Graphics/SVG/1.1/DTD/svg11.dtd"> 
<svg
  xmlns:svg="http://www.w3.org/2000/svg"
  xmlns="http://www.w3.org/2000/svg"
  xmlns:xlink="http://www.w3.org/1999/xlink"
  version="1.1"
  width="297.002200mm" height="210.007200mm" viewBox="0.000000 0.000000 297.002200 210.007200">
<title>SVG Image created as Gynocam-F_Cu.svg date 2025/04/26 10:07:42 </title>
  <desc>Image generated by PCBNEW </desc>
<g style="fill:#000000; fill-opacity:1.000000;stroke:#000000; stroke-opacity:1.000000;
stroke-linecap:round; stroke-linejoin:round;"
 transform="translate(0 0) scale(1 1)">
<path style="fill:#000000; fill-opacity:1.000000; stroke:none;fill-rule:evenodd;"
d="M 236.622200,41.112500
234.082200,41.112500
234.082200,42.687500
236.622200,42.687500
Z" /> 
</g>
<g style="fill:none; 
stroke:#000000; stroke-width:1.575000; stroke-opacity:1; 
stroke-linecap:round; stroke-linejoin:round;">
<path d="M234.869700 39.400000
L235.834700 39.400000
" />
<path style="fill:#000000; fill-opacity:1.000000; stroke:none;fill-rule:evenodd;"
d="M 219.132200,22.254000
221.672200,22.254000
221.672200,20.746000
219.132200,20.746000
Z" /> 
</g>
<g style="fill:none; 
stroke:#000000; stroke-width:1.508000; stroke-opacity:1; 
stroke-linecap:round; stroke-linejoin:round;">
<path d="M220.918200 24.000000
L219.886200 24.000000
" />
<path d="M220.918200 26.500000
L219.886200 26.500000
" />
<path style="fill:#000000; fill-opacity:1.000000; stroke:none;fill-rule:evenodd;"
d="M 269.302200,33.637500
272.302200,33.637500
272.302200,32.062500
269.302200,32.062500
Z" /> 
</g>
<g style="fill:none; 
stroke:#000000; stroke-width:1.575000; stroke-opacity:1; 
stroke-linecap:round; stroke-linejoin:round;">
<path d="M271.284700 35.350000
L270.319700 35.350000
" />
<path style="fill:#000000; fill-opacity:1.000000; stroke:none;fill-rule:evenodd;"
d="M 230.352200,32.100000
230.352200,30.500000
227.952200,30.500000
227.952200,32.100000
Z" /> 
</g>
<g style="fill:none; 
stroke:#000000; stroke-width:1.600000; stroke-opacity:1; 
stroke-linecap:round; stroke-linejoin:round;">
<path d="M229.552200 33.840000
L228.752200 33.840000
" />
<path d="M229.552200 36.380000
L228.752200 36.380000
" />
<path d="M229.552200 38.920000
L228.752200 38.920000
" />
<path d="M221.932200 38.920000
L221.132200 38.920000
" />
<path d="M221.932200 36.380000
L221.132200 36.380000
" />
<path d="M221.932200 33.840000
L221.132200 33.840000
" />
<path d="M221.932200 31.300000
L221.132200 31.300000
" />
<path style="fill:#000000; fill-opacity:1.000000; stroke:none;fill-rule:evenodd;"
d="M 239.912200,22.235000
239.912200,24.775000
242.452200,24.775000
242.452200,22.235000
Z" /> 
<path style="fill:#000000; fill-opacity:1.000000; stroke:none;fill-rule:evenodd;"
d="M 239.872200,36.325000
239.872200,38.865000
242.412200,38.865000
242.412200,36.325000
Z" /> 
<path style="fill:#000000; fill-opacity:1.000000; stroke:none;fill-rule:evenodd;"
d="M 262.002200,22.315000
262.002200,24.855000
264.542200,24.855000
264.542200,22.315000
Z" /> 
<path style="fill:#000000; fill-opacity:1.000000; stroke:none;fill-rule:evenodd;"
d="M 262.042200,36.235000
262.042200,38.775000
264.582200,38.775000
264.582200,36.235000
Z" /> 
<path style="fill:#000000; fill-opacity:1.000000; stroke:none;fill-rule:evenodd;"
d="M 269.432200,25.137500
271.972200,25.137500
271.972200,23.562500
269.432200,23.562500
Z" /> 
</g>
<g style="fill:none; 
stroke:#000000; stroke-width:1.575000; stroke-opacity:1; 
stroke-linecap:round; stroke-linejoin:round;">
<path d="M271.184700 26.850000
L270.219700 26.850000
" />
</g>
<g style="fill:#000000; fill-opacity:1.000000; stroke:none;">
<circle cx="218.252200" cy="31.300000" r="1.000000" /> 
</g>
<g style="fill:#000000; fill-opacity:1.000000; stroke:none;">
<circle cx="218.250940" cy="44.139273" r="1.000000" /> 
</g>
<g style="fill:#000000; fill-opacity:1.000000; stroke:none;">
<circle cx="236.352200" cy="29.700000" r="1.000000" /> 
</g>
<g style="fill:#000000; fill-opacity:1.000000; stroke:none;">
<circle cx="236.302200" cy="35.050000" r="1.000000" /> 
</g>
<g style="fill:none; 
stroke:#000000; stroke-width:0.800000; stroke-opacity:1; 
stroke-linecap:round; stroke-linejoin:round;">
<path d="M218.252200 31.300000
L218.252200 44.138013
" />
<path d="M218.252200 44.138013
L218.250940 44.139273
" />
</g>
<g style="fill:none; 
stroke:#000000; stroke-width:1.500000; stroke-opacity:1; 
stroke-linecap:round; stroke-linejoin:round;">
<path d="M236.302200 29.750000
L236.352200 29.700000
" />
<path d="M236.302200 35.050000
L236.302200 29.750000
" />
</g>
<g style="fill:#FFFFFF; fill-opacity:1.000000; stroke:none;">
<circle cx="218.252200" cy="31.300000" r="0.450000" /> 
</g>
<g style="fill:#FFFFFF; fill-opacity:1.000000; stroke:none;">
<circle cx="218.250940" cy="44.139273" r="0.450000" /> 
</g>
<g style="fill:#FFFFFF; fill-opacity:1.000000; stroke:none;">
<circle cx="236.352200" cy="29.700000" r="0.450000" /> 
</g>
<g style="fill:#FFFFFF; fill-opacity:1.000000; stroke:none;">
<circle cx="236.302200" cy="35.050000" r="0.450000" /> 
</g>
<g style="fill:#FFFFFF; fill-opacity:1.000000; stroke:none;">
<circle cx="235.352200" cy="41.900000" r="0.525000" /> 
</g>
<g style="fill:#FFFFFF; fill-opacity:1.000000; stroke:none;">
<circle cx="235.352200" cy="39.400000" r="0.525000" /> 
</g>
<g style="fill:#FFFFFF; fill-opacity:1.000000; stroke:none;">
<circle cx="220.402200" cy="21.500000" r="0.500000" /> 
</g>
<g style="fill:#FFFFFF; fill-opacity:1.000000; stroke:none;">
<circle cx="220.402200" cy="24.000000" r="0.500000" /> 
</g>
<g style="fill:#FFFFFF; fill-opacity:1.000000; stroke:none;">
<circle cx="220.402200" cy="26.500000" r="0.500000" /> 
</g>
<g style="fill:#FFFFFF; fill-opacity:1.000000; stroke:none;">
<circle cx="270.802200" cy="32.850000" r="0.525000" /> 
</g>
<g style="fill:#FFFFFF; fill-opacity:1.000000; stroke:none;">
<circle cx="270.802200" cy="35.350000" r="0.525000" /> 
</g>
<g style="fill:#FFFFFF; fill-opacity:1.000000; stroke:none;">
<circle cx="229.152200" cy="31.300000" r="0.400000" /> 
</g>
<g style="fill:#FFFFFF; fill-opacity:1.000000; stroke:none;">
<circle cx="229.152200" cy="33.840000" r="0.400000" /> 
</g>
<g style="fill:#FFFFFF; fill-opacity:1.000000; stroke:none;">
<circle cx="229.152200" cy="36.380000" r="0.400000" /> 
</g>
<g style="fill:#FFFFFF; fill-opacity:1.000000; stroke:none;">
<circle cx="229.152200" cy="38.920000" r="0.400000" /> 
</g>
<g style="fill:#FFFFFF; fill-opacity:1.000000; stroke:none;">
<circle cx="221.532200" cy="38.920000" r="0.400000" /> 
</g>
<g style="fill:#FFFFFF; fill-opacity:1.000000; stroke:none;">
<circle cx="221.532200" cy="36.380000" r="0.400000" /> 
</g>
<g style="fill:#FFFFFF; fill-opacity:1.000000; stroke:none;">
<circle cx="221.532200" cy="33.840000" r="0.400000" /> 
</g>
<g style="fill:#FFFFFF; fill-opacity:1.000000; stroke:none;">
<circle cx="221.532200" cy="31.300000" r="0.400000" /> 
</g>
<g style="fill:#FFFFFF; fill-opacity:1.000000; stroke:none;">
<circle cx="241.182200" cy="23.505000" r="0.450000" /> 
</g>
<g style="fill:#FFFFFF; fill-opacity:1.000000; stroke:none;">
<circle cx="241.142200" cy="37.595000" r="0.450000" /> 
</g>
<g style="fill:#FFFFFF; fill-opacity:1.000000; stroke:none;">
<circle cx="263.272200" cy="23.585000" r="0.450000" /> 
</g>
<g style="fill:#FFFFFF; fill-opacity:1.000000; stroke:none;">
<circle cx="263.312200" cy="37.505000" r="0.450000" /> 
</g>
<g style="fill:#FFFFFF; fill-opacity:1.000000; stroke:none;">
<circle cx="270.702200" cy="24.350000" r="0.525000" /> 
</g>
<g style="fill:#FFFFFF; fill-opacity:1.000000; stroke:none;">
<circle cx="270.702200" cy="26.850000" r="0.525000" /> 
<path style="fill:none; 
stroke:#000000; stroke-width:0.050000; stroke-opacity:1; 
stroke-linecap:round; stroke-linejoin:round;fill:none"
d="M 276.052200,18.450000
214.202200,18.450000
214.202200,47.700000
276.052200,47.700000
Z" /> 
</g> 
</svg>
